<?xml version="1.0" encoding="UTF-8" standalone="no"?>
<!-- Created with Inkscape (http://www.inkscape.org/) -->

<svg
   xmlns:dc="http://purl.org/dc/elements/1.1/"
   xmlns:cc="http://creativecommons.org/ns#"
   xmlns:rdf="http://www.w3.org/1999/02/22-rdf-syntax-ns#"
   xmlns:svg="http://www.w3.org/2000/svg"
   xmlns="http://www.w3.org/2000/svg"
   xmlns:sodipodi="http://sodipodi.sourceforge.net/DTD/sodipodi-0.dtd"
   xmlns:inkscape="http://www.inkscape.org/namespaces/inkscape"
   width="80.433334mm"
   height="60.324997mm"
   viewBox="0 0 80.433335 60.324997"
   version="1.1"
   id="svg8"
   inkscape:version="0.92.4 5da689c313, 2019-01-14"
   sodipodi:docname="Aqar.svg"
   inkscape:export-filename="/media/gobadri/01f0b433-191e-4a57-a8bf-de661da7cc46/2019/Bloomberg/TripleB3.png"
   inkscape:export-xdpi="72"
   inkscape:export-ydpi="72">
  <defs
     id="defs2" />
  <sodipodi:namedview
     id="base"
     pagecolor="#ffffff"
     bordercolor="#666666"
     borderopacity="1.0"
     inkscape:pageopacity="0.0"
     inkscape:pageshadow="2"
     inkscape:zoom="0.49497477"
     inkscape:cx="-10.207575"
     inkscape:cy="131.16004"
     inkscape:document-units="mm"
     inkscape:current-layer="layer1"
     showgrid="false"
     inkscape:snap-intersection-paths="true"
     inkscape:object-paths="true"
     showguides="false"
     inkscape:guide-bbox="true"
     inkscape:snap-object-midpoints="true"
     inkscape:snap-center="true"
     inkscape:window-width="1366"
     inkscape:window-height="674"
     inkscape:window-x="0"
     inkscape:window-y="26"
     inkscape:window-maximized="1"
     inkscape:snap-global="false"
     inkscape:snap-page="true">
    <sodipodi:guide
       position="3244.5475,335.64288"
       orientation="1,0"
       id="guide819"
       inkscape:locked="false" />
    <sodipodi:guide
       position="3244.5475,335.64288"
       orientation="0,1"
       id="guide821"
       inkscape:locked="false" />
  </sodipodi:namedview>
  <metadata
     id="metadata5">
    <rdf:RDF>
      <cc:Work
         rdf:about="">
        <dc:format>image/svg+xml</dc:format>
        <dc:type
           rdf:resource="http://purl.org/dc/dcmitype/StillImage" />
        <dc:title />
      </cc:Work>
    </rdf:RDF>
  </metadata>
  <g
     inkscape:label="Layer 1"
     inkscape:groupmode="layer"
     id="layer1"
     transform="translate(6827.6724,-716.51331)">
    <rect
       y="716.51331"
       x="-6827.6724"
       height="60.324997"
       width="80.433334"
       id="rect986"
       style="opacity:1;fill:#f2f2f2;fill-opacity:1;fill-rule:nonzero;stroke:none;stroke-width:9.99999905;stroke-linecap:round;stroke-linejoin:round;stroke-miterlimit:4;stroke-dasharray:none;stroke-dashoffset:0;stroke-opacity:1;paint-order:markers fill stroke" />
    <path
       inkscape:connector-curvature="0"
       style="fill:#376cc5;stroke-width:0.08466666"
       d="m -6803.6257,746.67625 v -23.33972 h 32.34 v 46.67858 h -32.34 z m 31.6466,0 v -22.64633 h -30.9532 v 45.29179 h 30.9532 z m -19.6508,21.59367 c -0.1096,-0.0225 -0.1521,-0.0824 -0.1302,-0.18401 0.02,-0.0905 0.06,-0.11131 0.2298,-0.1192 0.08,-0.004 0.1595,-0.015 0.1801,-0.0255 0.039,-0.02 0.085,-0.077 0.1,-0.1239 0.01,-0.0275 0,-0.0282 -0.1236,-0.0226 -0.1584,0.007 -0.2305,-0.0152 -0.3205,-0.098 -0.1135,-0.10464 -0.1714,-0.25119 -0.1711,-0.43292 0,-0.22746 0.092,-0.3991 0.2561,-0.47988 0.083,-0.041 0.096,-0.0432 0.2176,-0.0385 0.1035,0.004 0.1427,0.0118 0.1963,0.039 0.2029,0.1033 0.2867,0.33691 0.2864,0.79775 0,0.40372 -0.1157,0.5961 -0.3984,0.66479 -0.1011,0.0246 -0.2594,0.0358 -0.3224,0.0229 z m 0.328,-0.78358 c 0.081,-0.0854 0.091,-0.25082 0.023,-0.39189 -0.04,-0.0849 -0.115,-0.11037 -0.1978,-0.0675 -0.1085,0.0561 -0.1304,0.30289 -0.039,0.43862 0.063,0.0936 0.1378,0.10089 0.2133,0.0208 z m 0.5419,0.78328 c -0.084,-0.017 -0.121,-0.0616 -0.121,-0.14739 0,-0.1241 0.055,-0.1576 0.2613,-0.15828 0.1255,-4.7e-4 0.1856,-0.0265 0.2357,-0.10199 l 0.037,-0.0557 0.01,-0.50028 c 0,-0.27517 0.012,-0.51039 0.018,-0.5227 0.025,-0.0498 0.1504,-0.0713 0.2232,-0.0381 0.019,0.009 0.041,0.0346 0.049,0.0575 0.01,0.0247 0.015,0.17942 0.015,0.37945 v 0.3377 h 0.1902 l -0.019,-0.0724 c -0.013,-0.0496 -0.019,-0.16331 -0.019,-0.36164 v -0.28926 l 0.042,-0.0422 c 0.039,-0.0392 0.048,-0.0417 0.1202,-0.0357 0.1243,0.0103 0.1288,0.021 0.1291,0.30696 0,0.13073 0.01,0.26515 0.014,0.29871 0.019,0.0802 0.061,0.13855 0.1201,0.16307 0.043,0.0178 0.053,0.0173 0.098,-0.005 0.096,-0.0473 0.1059,-0.0836 0.1137,-0.41793 0.01,-0.29038 0.01,-0.29646 0.039,-0.32243 0.041,-0.0331 0.1621,-0.0362 0.2063,-0.005 0.047,0.0329 0.059,0.10539 0.059,0.35724 0,0.20692 0,0.23902 0.029,0.28831 0.05,0.0975 0.1633,0.14014 0.2206,0.0829 0.068,-0.0681 0.075,-0.10313 0.083,-0.40764 0.01,-0.2827 0.01,-0.2896 0.04,-0.31549 0.051,-0.0411 0.1731,-0.0369 0.2176,0.008 l 0.034,0.0341 v 0.30352 c 0,0.22041 -0.01,0.32121 -0.02,0.36813 l -0.02,0.0646 h 0.1656 c 0.1578,0 0.1648,-9.5e-4 0.1515,-0.0261 -0.029,-0.0556 -0.045,-0.22034 -0.03,-0.31923 0.02,-0.1288 0.057,-0.21011 0.1329,-0.2912 0.095,-0.10188 0.1737,-0.1305 0.3393,-0.12385 0.1131,0.005 0.1423,0.0108 0.195,0.0419 0.2132,0.12585 0.3035,0.41366 0.2157,0.68729 -0.01,0.031 -0.01,0.0312 0.1366,0.0312 h 0.1465 v -0.58753 c 0,-0.57339 0,-0.58839 0.029,-0.62405 0.025,-0.0315 0.039,-0.0365 0.1047,-0.0365 0.062,0 0.082,0.006 0.1099,0.0341 l 0.034,0.034 v 1.37631 l -0.081,0.0811 h -0.2545 c -0.2764,0 -0.3044,-0.007 -0.3219,-0.0764 l -0.01,-0.0354 -0.059,0.0398 c -0.1023,0.0695 -0.1223,0.072 -0.5915,0.072 -0.4815,0 -0.4888,-9.5e-4 -0.5104,-0.0833 l -0.01,-0.0404 -0.061,0.0412 c -0.1547,0.10405 -0.3621,0.11035 -0.5146,0.0156 l -0.066,-0.0414 -0.05,0.0341 c -0.1636,0.11113 -0.3977,0.1039 -0.5564,-0.0172 -0.061,-0.0464 -0.062,-0.0466 -0.062,-0.0144 0,0.018 -0.013,0.0495 -0.029,0.0701 -0.028,0.0353 -0.035,0.0372 -0.1344,0.0343 l -0.105,-0.003 -0.016,0.075 c -0.042,0.20439 -0.1862,0.34445 -0.3953,0.38453 -0.1125,0.0216 -0.2494,0.0292 -0.3089,0.0173 z m 3.2279,-0.7799 c 0.1127,-0.0886 0.1205,-0.30921 0.015,-0.42422 -0.1082,-0.11812 -0.2645,-0.0176 -0.2644,0.17004 0,0.20782 0.1343,0.34464 0.2493,0.25418 z m 2.8185,0.7799 c -0.084,-0.017 -0.1211,-0.0616 -0.1211,-0.14739 0,-0.1241 0.055,-0.1576 0.2615,-0.15828 0.1254,-4.7e-4 0.1856,-0.0265 0.2356,-0.10199 l 0.037,-0.0557 0.014,-1.00997 0.039,-0.0334 c 0.055,-0.047 0.1587,-0.047 0.2134,0 l 0.039,0.0334 v 0.48313 c 0,0.51762 0,0.59857 -0.061,0.71446 -0.091,0.18053 -0.2373,0.25914 -0.5188,0.27968 -0.05,0.004 -0.1136,0.002 -0.1424,-0.004 z m 2.8467,4.7e-4 c -0.1096,-0.0225 -0.152,-0.0824 -0.1302,-0.184 0.019,-0.0905 0.06,-0.11132 0.2299,-0.11921 0.08,-0.004 0.1594,-0.015 0.18,-0.0255 0.039,-0.02 0.085,-0.077 0.1,-0.1239 0.01,-0.0275 0,-0.0282 -0.1235,-0.0226 -0.1585,0.007 -0.2306,-0.0151 -0.3205,-0.098 -0.1135,-0.10464 -0.1715,-0.25118 -0.1712,-0.43293 0,-0.22744 0.092,-0.39909 0.2561,-0.47987 0.083,-0.041 0.096,-0.0432 0.2177,-0.0385 0.1035,0.004 0.1427,0.0118 0.1963,0.039 0.2028,0.1033 0.2866,0.33691 0.2863,0.79775 0,0.40373 -0.1156,0.59611 -0.3984,0.6648 -0.101,0.0246 -0.2594,0.0358 -0.3224,0.0229 z m 0.328,-0.78358 c 0.081,-0.0854 0.09,-0.25081 0.024,-0.39188 -0.04,-0.0849 -0.115,-0.11038 -0.1978,-0.0675 -0.1085,0.0561 -0.1304,0.30289 -0.039,0.43862 0.063,0.0936 0.1377,0.1009 0.2133,0.0208 z m 2.636,0.78328 c -0.084,-0.017 -0.121,-0.0616 -0.121,-0.14739 0,-0.1241 0.055,-0.1576 0.2614,-0.15827 0.1254,-4.8e-4 0.1855,-0.0265 0.2356,-0.10199 l 0.037,-0.0557 0.014,-1.00998 0.039,-0.0334 c 0.055,-0.047 0.1588,-0.047 0.2135,10e-6 l 0.039,0.0334 v 0.48312 c 0,0.51767 0,0.59858 -0.061,0.71446 -0.091,0.18053 -0.2373,0.25914 -0.5188,0.27969 -0.05,0.004 -0.1136,0.002 -0.1424,-0.004 z m -1.0903,-0.048 c -0.046,-0.0256 -0.07,-0.0742 -0.07,-0.14466 0,-0.0482 0.01,-0.068 0.04,-0.10054 0.034,-0.0339 0.052,-0.0405 0.1091,-0.0405 0.083,0 0.1347,0.0351 0.1539,0.10464 0.018,0.0635 0,0.13584 -0.049,0.17209 -0.042,0.0329 -0.1322,0.0373 -0.1833,0.009 z m 0.4065,0.003 c -0.064,-0.0308 -0.095,-0.14148 -0.06,-0.2104 0.044,-0.0855 0.1695,-0.10813 0.2454,-0.0442 0.074,0.0621 0.067,0.19193 -0.013,0.24789 -0.036,0.0249 -0.1278,0.0285 -0.1728,0.007 z m -2.8722,-0.35347 c 0,-0.0124 0,-0.0328 0.01,-0.0452 0.01,-0.0133 0.01,-0.0354 0,-0.0538 -0.015,-0.0393 0.01,-0.094 0.042,-0.11326 0.015,-0.008 0.059,-0.0147 0.098,-0.0147 0.068,0 0.07,9.5e-4 0.07,0.0404 0,0.0363 -0.01,0.0413 -0.055,0.0497 -0.03,0.005 -0.059,0.0144 -0.062,0.0204 -0.01,0.0163 0.021,0.0374 0.072,0.0481 0.046,0.01 0.065,0.0352 0.051,0.0701 -0.012,0.0315 -0.2104,0.0299 -0.2226,-0.002 z m -4.0052,-0.0773 c -0.062,-0.0357 -0.062,-0.0268 -0.062,-0.73621 v -0.67667 l 0.034,-0.0341 c 0.028,-0.0277 0.048,-0.034 0.1086,-0.034 0.062,0 0.08,0.006 0.1081,0.0358 l 0.034,0.0358 v 0.64074 c 0,0.69401 0,0.73344 -0.066,0.76755 -0.043,0.0217 -0.1226,0.0223 -0.1595,9.5e-4 z m 2.6349,0 c -0.062,-0.0357 -0.061,-0.0268 -0.062,-0.73621 v -0.67667 l 0.034,-0.0341 c 0.028,-0.0277 0.048,-0.034 0.1085,-0.034 0.062,0 0.08,0.006 0.1081,0.0358 l 0.034,0.0358 v 0.64074 c 0,0.69401 0,0.73344 -0.066,0.76755 -0.043,0.0217 -0.1226,0.0223 -0.1595,9.5e-4 z m 9.7076,0 c -0.062,-0.0357 -0.062,-0.0268 -0.062,-0.73621 v -0.67667 l 0.034,-0.0341 c 0.028,-0.0277 0.048,-0.034 0.1085,-0.034 0.062,0 0.08,0.006 0.1081,0.0358 l 0.034,0.0358 v 0.64074 c 0,0.69401 0,0.73344 -0.066,0.76755 -0.043,0.0217 -0.1227,0.0223 -0.1595,9.5e-4 z m -21.6666,-0.0248 c -0.041,-0.0147 -0.084,-0.0344 -0.097,-0.0438 -0.1086,-0.0814 -0.1673,-0.17206 -0.1945,-0.30011 -0.02,-0.0966 -0.02,-0.58671 0,-0.6316 0.01,-0.0186 0.03,-0.0407 0.049,-0.0492 0.079,-0.0362 0.206,-0.003 0.219,0.0577 0,0.017 0.01,0.14641 0.011,0.28751 0,0.23286 0.01,0.26198 0.035,0.31529 0.058,0.11064 0.038,0.10717 0.6365,0.11176 l 0.5311,0.004 v -0.34654 c 0,-0.34433 0,-0.34679 0.033,-0.38466 0.028,-0.0326 0.043,-0.0381 0.1059,-0.0381 0.062,0 0.078,0.006 0.1059,0.0381 l 0.033,0.0381 v 0.88815 l -0.081,0.0811 -0.6564,-4.8e-4 c -0.612,-4.7e-4 -0.6613,-0.002 -0.7305,-0.0272 z m 1.6056,-0.0128 -0.04,-0.0405 v -0.67871 c 0,-0.66566 0,-0.67944 0.029,-0.71528 0.025,-0.0321 0.039,-0.0365 0.11,-0.0365 0.071,0 0.085,0.004 0.1099,0.0365 0.028,0.0356 0.029,0.0508 0.029,0.61712 v 0.58059 h 0.9944 l -0.019,-0.0728 c -0.025,-0.0917 -0.016,-0.2961 0.017,-0.3888 0.032,-0.0909 0.1407,-0.20625 0.2318,-0.2467 0.065,-0.0286 0.1,-0.0331 0.2977,-0.0379 l 0.2246,-0.005 0.036,0.0354 c 0.049,0.0491 0.051,0.15642 0,0.21191 -0.032,0.0369 -0.038,0.0383 -0.2124,0.046 -0.1379,0.006 -0.1882,0.0136 -0.2167,0.0322 -0.1406,0.0921 -0.1295,0.33889 0.018,0.40234 0.019,0.008 0.1522,0.0185 0.296,0.0228 0.2532,0.008 0.262,0.009 0.2877,0.0406 0.04,0.0495 0.037,0.16767 -0.01,0.20753 l -0.032,0.0302 h -2.1151 z m 8.703,0.0237 c -0.1809,-0.0639 -0.2976,-0.26437 -0.298,-0.51212 0,-0.20744 0.086,-0.37712 0.2356,-0.46119 0.071,-0.0401 0.086,-0.043 0.215,-0.0429 0.1236,0 0.1463,0.004 0.2092,0.0372 0.1821,0.096 0.2831,0.3391 0.2427,0.58383 -0.021,0.12826 -0.054,0.20076 -0.1283,0.28142 -0.089,0.097 -0.1714,0.13062 -0.3167,0.12944 -0.065,-4.8e-4 -0.1366,-0.008 -0.1595,-0.0156 z m 0.238,-0.26236 c 0.072,-0.0598 0.1033,-0.21545 0.068,-0.33763 -0.054,-0.18574 -0.2053,-0.21881 -0.2851,-0.0623 -0.059,0.11546 -0.019,0.3427 0.071,0.40776 0.036,0.0257 0.1102,0.0217 0.1459,-0.008 z m 1.7584,0.24519 c -0.044,-0.044 -0.048,-0.15354 -0.01,-0.20365 0.026,-0.0323 0.03,-0.0328 0.3259,-0.037 l 0.2994,-0.004 v -0.14831 c 0,-0.18889 -0.024,-0.2484 -0.1135,-0.29193 -0.034,-0.0163 -0.083,-0.0299 -0.109,-0.0301 -0.079,-4.8e-4 -0.1573,-0.0244 -0.1829,-0.056 -0.017,-0.0203 -0.024,-0.0542 -0.024,-0.10533 0,-0.0625 0.01,-0.0815 0.036,-0.11117 0.035,-0.0348 0.04,-0.0356 0.1768,-0.0295 0.1792,0.008 0.2854,0.051 0.3767,0.15264 0.1025,0.11402 0.1211,0.18386 0.1285,0.48252 0,0.16908 0,0.27662 -0.01,0.3154 -0.027,0.0981 -0.038,0.10064 -0.4794,0.10064 h -0.3827 z m 3.1736,0.008 c -0.2218,-0.0766 -0.3093,-0.23459 -0.3093,-0.55879 0,-0.14887 0,-0.16579 0.031,-0.19865 0.04,-0.0462 0.1133,-0.0584 0.181,-0.0301 0.066,0.0274 0.079,0.0634 0.079,0.21281 0,0.13961 0.018,0.20812 0.07,0.27064 l 0.038,0.0455 0.8945,0.008 -0.01,-0.0566 c -0.01,-0.0714 -0.039,-0.11757 -0.097,-0.14871 -0.037,-0.0202 -0.093,-0.0257 -0.3186,-0.0315 l -0.2735,-0.007 -0.038,-0.0384 c -0.036,-0.0363 -0.038,-0.0465 -0.043,-0.18288 -0.012,-0.38398 0.1624,-0.5646 0.5501,-0.56794 0.1405,-9.5e-4 0.144,-4.7e-4 0.1769,0.0377 0.047,0.0543 0.048,0.1633 0,0.20935 -0.027,0.027 -0.053,0.0337 -0.1625,0.0423 -0.1886,0.0148 -0.2601,0.0575 -0.2834,0.16937 l -0.01,0.0438 0.2193,0.005 c 0.1906,0.004 0.2279,0.009 0.2862,0.0356 0.1101,0.0506 0.1707,0.1079 0.2203,0.20859 0.043,0.0882 0.046,0.10101 0.05,0.27833 0.01,0.2008 0,0.23704 -0.062,0.26401 -0.023,0.0105 -0.2076,0.0152 -0.5775,0.015 -0.4864,-4.8e-4 -0.5512,-0.003 -0.6157,-0.0254 z m 2.2692,-0.0145 -0.041,-0.0407 v -0.67871 c 0,-0.66566 0,-0.67944 0.029,-0.71528 0.025,-0.0321 0.039,-0.0365 0.1099,-0.0365 0.071,0 0.085,0.004 0.11,0.0365 0.028,0.0356 0.029,0.0508 0.029,0.61712 v 0.58059 h 1.1067 l -0.021,-0.0659 c -0.025,-0.0791 -0.029,-0.29319 -0.01,-0.37097 0.042,-0.14634 0.163,-0.27589 0.2915,-0.31158 0.028,-0.008 0.1576,-0.0142 0.2878,-0.0142 0.3236,0 0.2971,-0.037 0.2971,0.41339 v 0.34927 h 0.092 c 0.082,0 0.09,-0.003 0.082,-0.0243 -0.044,-0.11219 -0.041,-0.32485 0,-0.44603 0.08,-0.21141 0.292,-0.3076 0.6369,-0.2895 0.1075,0.006 0.1208,0.01 0.1505,0.044 0.046,0.053 0.046,0.16273 0,0.20797 -0.028,0.0283 -0.05,0.0327 -0.1957,0.0406 -0.1867,0.01 -0.2466,0.0313 -0.2959,0.1053 -0.025,0.0377 -0.031,0.0665 -0.031,0.14353 0,0.0906 0,0.0992 0.046,0.14213 0.025,0.0251 0.07,0.0526 0.1005,0.0609 0.033,0.009 0.186,0.0153 0.3773,0.0153 h 0.3224 v -0.58752 c 0,-0.5734 0,-0.5884 0.029,-0.62406 0.025,-0.0315 0.039,-0.0365 0.1046,-0.0365 0.062,0 0.082,0.006 0.11,0.034 l 0.034,0.0341 v 1.37631 l -0.041,0.0408 -0.041,0.0408 -0.7393,-0.005 c -0.4066,-0.003 -0.7455,-0.005 -0.7532,-0.005 -0.01,0 -0.4931,0.002 -1.0791,0.005 l -1.0652,0.005 -0.041,-0.0407 z m 1.9147,-0.47978 v -0.2427 h -0.094 c -0.1743,0 -0.2465,0.0734 -0.234,0.238 0.01,0.10829 0.048,0.19613 0.1025,0.22562 0.023,0.0123 0.076,0.0209 0.1317,0.0212 l 0.094,4.7e-4 z m -26.5562,0.50045 c 0,-0.004 0.063,-0.0192 0.1311,-0.0344 0.7658,-0.1706 1.3737,-0.68334 1.6581,-1.39832 0.069,-0.17208 0.092,-0.25581 0.1461,-0.51688 0.01,-0.0267 0.014,-2.44492 0.018,-5.37382 l 0.01,-5.32529 3.7374,-0.007 v 5.32312 c 0,5.19917 0,5.32615 -0.027,5.44663 -0.056,0.25775 -0.1134,0.4258 -0.2178,0.63338 -0.2038,0.40513 -0.5717,0.7756 -0.9908,0.99783 -0.1259,0.0667 -0.3571,0.1543 -0.4982,0.18869 -0.065,0.0158 -0.1491,0.0364 -0.1873,0.0458 -0.053,0.013 -0.5166,0.0182 -1.927,0.022 -1.0217,0.003 -1.8546,0.002 -1.8509,-0.002 z m 20.2649,-0.27401 c -0.057,-0.0278 -0.06,-0.0584 -0.06,-0.61603 v -0.53392 l 0.034,-0.0341 c 0.028,-0.0277 0.048,-0.034 0.1075,-0.0336 0.089,4.8e-4 0.1204,0.0219 0.1367,0.0921 0.01,0.0292 0.012,0.26834 0.012,0.53149 0,0.51333 -0.01,0.56087 -0.068,0.59229 -0.041,0.0208 -0.1201,0.0217 -0.1614,0.002 z m -13.0375,-0.87506 c -0.076,-0.0442 -0.1023,-0.16013 -0.053,-0.23523 0.029,-0.0451 0.1045,-0.072 0.1677,-0.0601 0.1119,0.021 0.1578,0.1707 0.079,0.2586 -0.045,0.05 -0.1399,0.068 -0.1938,0.0367 z m 0.3964,-0.005 c -0.064,-0.041 -0.087,-0.13983 -0.051,-0.21843 0.022,-0.0478 0.1,-0.0827 0.1629,-0.0727 0.1186,0.0189 0.1693,0.16858 0.088,0.25971 -0.048,0.0541 -0.1414,0.0688 -0.1996,0.0314 z m 9.4618,-0.0242 c -0.046,-0.0255 -0.07,-0.0742 -0.07,-0.14466 0,-0.0482 0.01,-0.068 0.04,-0.10054 0.034,-0.0339 0.052,-0.0405 0.1091,-0.0405 0.083,0 0.1347,0.0351 0.1539,0.10465 0.018,0.0634 0,0.13583 -0.049,0.17208 -0.042,0.0329 -0.1322,0.0373 -0.1834,0.009 z m 0.4065,0.003 c -0.064,-0.0308 -0.095,-0.14148 -0.06,-0.2104 0.044,-0.0855 0.1695,-0.10813 0.2454,-0.0442 0.074,0.0621 0.067,0.19193 -0.013,0.2479 -0.036,0.0249 -0.1278,0.0285 -0.1728,0.007 z m 8.6826,-0.0804 c -0.057,-0.0235 -0.083,-0.0692 -0.083,-0.14751 0,-0.0617 0.01,-0.0807 0.036,-0.11052 0.078,-0.078 0.2215,-0.0479 0.2607,0.0548 0.051,0.13279 -0.081,0.25765 -0.2135,0.20322 z m 0.3988,-9.5e-4 c -0.04,-0.0161 -0.087,-0.0926 -0.087,-0.14244 0,-0.0826 0.075,-0.16226 0.1522,-0.16226 0.054,0 0.123,0.039 0.145,0.0814 0.072,0.1394 -0.063,0.2826 -0.2105,0.22327 z m -13.2543,-0.0127 c -0.057,-0.0235 -0.083,-0.0692 -0.083,-0.14751 0,-0.0617 0.01,-0.0807 0.036,-0.11053 0.078,-0.078 0.2215,-0.0479 0.2607,0.0548 0.051,0.1328 -0.081,0.25766 -0.2135,0.20323 z m 0.3988,-9.5e-4 c -0.04,-0.0161 -0.087,-0.0926 -0.087,-0.14244 0,-0.0827 0.075,-0.16226 0.1523,-0.16226 0.053,0 0.1229,0.039 0.1449,0.0814 0.072,0.1394 -0.063,0.2826 -0.2105,0.22327 z m -0.2261,-0.38444 c -0.055,-0.0492 -0.07,-0.13372 -0.033,-0.195 0.03,-0.0511 0.073,-0.072 0.1469,-0.072 0.046,0 0.065,0.009 0.1052,0.0489 0.046,0.0454 0.048,0.0536 0.042,0.11396 -0.01,0.0894 -0.068,0.14222 -0.1558,0.14222 -0.048,0 -0.072,-0.009 -0.1046,-0.0381 z m -5.1471,-0.35959 c -0.098,-0.063 -0.091,-0.22632 0.013,-0.27542 0.1098,-0.0521 0.2256,0.0193 0.2256,0.13923 0,0.0871 -0.053,0.14601 -0.1391,0.15435 -0.043,0.004 -0.073,-9.5e-4 -0.1,-0.0181 z m 0.4244,0.01 c -0.092,-0.037 -0.119,-0.17378 -0.051,-0.25054 0.091,-0.10147 0.2661,-0.0402 0.2699,0.0943 0,0.12387 -0.1062,0.20202 -0.2194,0.15627 z m 0.5493,-0.0129 c -0.1096,-0.0225 -0.152,-0.0824 -0.1301,-0.184 0.019,-0.0905 0.06,-0.11131 0.2298,-0.1192 0.08,-0.004 0.1594,-0.015 0.1801,-0.0255 0.039,-0.02 0.085,-0.077 0.1,-0.12376 0.01,-0.0273 0,-0.0281 -0.1273,-0.0227 -0.1733,0.007 -0.2481,-0.0212 -0.3487,-0.13117 -0.087,-0.0956 -0.1263,-0.19713 -0.1358,-0.3534 -0.015,-0.25072 0.075,-0.43888 0.2527,-0.52625 0.083,-0.0409 0.096,-0.0432 0.2177,-0.0385 0.1035,0.004 0.1427,0.0118 0.1963,0.039 0.1113,0.0567 0.1944,0.16776 0.2398,0.32062 0.018,0.0606 0.046,0.2845 0.046,0.37661 0,0.0379 0,0.0381 0.095,0.0381 h 0.095 l -0.019,-0.0724 c -0.013,-0.0496 -0.019,-0.16331 -0.019,-0.36164 v -0.28926 l 0.042,-0.0422 c 0.039,-0.0392 0.048,-0.0418 0.1201,-0.0357 0.1243,0.0103 0.1288,0.021 0.1292,0.30696 0,0.13073 0.01,0.26515 0.014,0.29871 0.019,0.0802 0.061,0.13856 0.1202,0.16307 0.043,0.0178 0.053,0.0173 0.098,-0.005 0.096,-0.0473 0.1059,-0.0836 0.1137,-0.41794 0.01,-0.29038 0.01,-0.29646 0.039,-0.32243 0.05,-0.0404 0.1689,-0.0366 0.2196,0.007 l 0.039,0.0334 0.01,0.28205 c 0.01,0.31313 0.017,0.34899 0.1013,0.40049 0.085,0.0516 0.1446,0.0297 0.199,-0.0726 0.02,-0.0379 0.026,-0.096 0.032,-0.33482 0.01,-0.2827 0.01,-0.2896 0.04,-0.3155 0.051,-0.0411 0.173,-0.0369 0.2175,0.008 l 0.034,0.0341 v 0.30353 c 0,0.22041 -0.01,0.32121 -0.02,0.36813 l -0.02,0.0646 h 0.5243 v -0.33328 c 0,-0.36631 0.01,-0.4177 0.077,-0.44343 0.081,-0.0309 0.1727,-0.008 0.1993,0.0508 0.01,0.0219 0.016,0.15576 0.016,0.37984 v 0.34604 h 0.416 v -0.58752 c 0,-0.5734 0,-0.58839 0.029,-0.62406 0.025,-0.0315 0.039,-0.0365 0.1046,-0.0365 0.062,0 0.082,0.006 0.11,0.034 l 0.034,0.034 v 1.37631 l -0.081,0.0811 h -0.2946 c -0.2507,0 -0.2984,-0.003 -0.3192,-0.0222 -0.022,-0.0203 -0.027,-0.0203 -0.056,0 -0.027,0.019 -0.085,0.0222 -0.4069,0.0222 -0.4121,0 -0.4257,-0.002 -0.447,-0.0833 l -0.01,-0.0404 -0.061,0.0412 c -0.1547,0.10406 -0.3622,0.11036 -0.5146,0.0156 l -0.067,-0.0414 -0.05,0.0341 c -0.1636,0.11114 -0.3977,0.1039 -0.5564,-0.0172 -0.061,-0.0464 -0.062,-0.0466 -0.062,-0.0144 0,0.018 -0.013,0.0492 -0.029,0.0693 -0.026,0.033 -0.038,0.0365 -0.122,0.0365 -0.051,0 -0.1,-0.006 -0.1075,-0.0142 -0.01,-0.01 -0.019,0.0117 -0.029,0.0666 -0.04,0.21559 -0.163,0.34591 -0.3748,0.39738 -0.1011,0.0246 -0.2594,0.0358 -0.3224,0.0228 z m 0.3281,-0.78358 c 0.08,-0.0854 0.09,-0.25081 0.024,-0.39188 -0.04,-0.0849 -0.1149,-0.11037 -0.1978,-0.0675 -0.1085,0.0561 -0.1304,0.30288 -0.039,0.43862 0.063,0.0936 0.1377,0.10089 0.2133,0.0208 z m 4.29,0.78358 c -0.1097,-0.0225 -0.152,-0.0824 -0.1302,-0.184 0.02,-0.0905 0.06,-0.11131 0.2298,-0.1192 0.08,-0.004 0.1595,-0.015 0.1801,-0.0255 0.039,-0.02 0.085,-0.077 0.1,-0.12391 0.01,-0.0275 0,-0.0282 -0.1235,-0.0226 -0.1584,0.007 -0.2306,-0.0152 -0.3205,-0.098 -0.1135,-0.10464 -0.1714,-0.25119 -0.1711,-0.43292 0,-0.22746 0.092,-0.3991 0.2561,-0.47988 0.083,-0.0409 0.096,-0.0432 0.2176,-0.0385 0.1035,0.004 0.1427,0.0118 0.1964,0.039 0.2027,0.10331 0.2866,0.33692 0.2862,0.79776 0,0.40372 -0.1155,0.5961 -0.3983,0.66479 -0.1011,0.0246 -0.2594,0.0358 -0.3224,0.0228 z m 0.328,-0.78358 c 0.081,-0.0854 0.09,-0.25081 0.024,-0.39188 -0.04,-0.0849 -0.115,-0.11037 -0.1979,-0.0675 -0.1085,0.0561 -0.1304,0.30288 -0.039,0.43862 0.063,0.0936 0.1377,0.10089 0.2132,0.0208 z m 5.7599,0.78358 c -0.1095,-0.0225 -0.152,-0.0824 -0.1301,-0.184 0.02,-0.0905 0.06,-0.11131 0.2299,-0.1192 0.08,-0.004 0.1594,-0.015 0.18,-0.0255 0.039,-0.02 0.085,-0.077 0.1,-0.12391 0.01,-0.0275 0,-0.0282 -0.1236,-0.0226 -0.1584,0.007 -0.2306,-0.0152 -0.3205,-0.098 -0.1135,-0.10464 -0.1714,-0.25119 -0.1712,-0.43292 0,-0.22746 0.092,-0.3991 0.2562,-0.47988 0.083,-0.0409 0.096,-0.0432 0.2176,-0.0385 0.1035,0.004 0.1428,0.0118 0.1963,0.039 0.2029,0.10331 0.2867,0.33692 0.2863,0.79776 0,0.40372 -0.1156,0.5961 -0.3983,0.66479 -0.1011,0.0246 -0.2594,0.0358 -0.3225,0.0228 z m 0.3281,-0.78358 c 0.081,-0.0854 0.09,-0.25081 0.024,-0.39188 -0.04,-0.0849 -0.1149,-0.11037 -0.1978,-0.0675 -0.1085,0.0561 -0.1304,0.30288 -0.039,0.43862 0.063,0.0936 0.1377,0.10089 0.2132,0.0208 z m 0.9163,0.78328 c -0.084,-0.0169 -0.121,-0.0616 -0.121,-0.14739 0,-0.12409 0.055,-0.1576 0.2614,-0.15827 0.1254,-4.7e-4 0.1856,-0.0265 0.2356,-0.10199 l 0.037,-0.0557 0.014,-1.00998 0.039,-0.0334 c 0.055,-0.047 0.1588,-0.047 0.2135,10e-6 l 0.039,0.0334 v 0.48313 c 0,0.51762 0,0.59857 -0.061,0.71446 -0.091,0.18052 -0.2373,0.25914 -0.5188,0.27968 -0.05,0.004 -0.1137,0.002 -0.1425,-0.004 z m -13.9264,-0.0165 c -0.2618,-0.024 -0.4407,-0.13465 -0.5317,-0.32865 -0.037,-0.078 -0.037,-0.0815 -0.037,-0.39539 v -0.31668 l 0.039,-0.0335 c 0.058,-0.0501 0.1508,-0.0469 0.2048,0.007 0.046,0.0454 0.044,0.0315 0.046,0.34083 0,0.21414 0,0.22409 0.039,0.28499 0.055,0.0938 0.1506,0.14152 0.2987,0.14929 0.084,0.004 0.1338,-4.7e-4 0.1874,-0.0178 0.078,-0.0252 0.1544,-0.0759 0.1758,-0.11591 0.012,-0.0222 0,-0.0241 -0.1142,-0.0237 -0.1119,4.7e-4 -0.1367,-0.004 -0.2065,-0.0385 -0.179,-0.0879 -0.2711,-0.27946 -0.2571,-0.53518 0.012,-0.21951 0.099,-0.36457 0.2612,-0.43753 0.078,-0.0352 0.097,-0.038 0.2122,-0.0325 0.1935,0.009 0.2983,0.0794 0.3871,0.25975 0.043,0.0873 0.045,0.0975 0.05,0.29531 v 0.20489 h 0.5933 v -0.70852 l 0.034,-0.0341 c 0.048,-0.0481 0.1688,-0.0492 0.2132,-0.002 0.029,0.0316 0.03,0.0392 0.03,0.47935 0,0.45578 0,0.48542 -0.054,0.52473 -0.027,0.0206 -0.773,0.0247 -0.8051,0.004 -0.016,-0.0103 -0.024,0.001 -0.038,0.0575 -0.024,0.093 -0.106,0.21372 -0.187,0.27464 -0.1364,0.10255 -0.346,0.15526 -0.5449,0.13699 z m 0.404,-0.79589 c 0.088,-0.0996 0.083,-0.29708 -0.01,-0.39246 -0.057,-0.0587 -0.097,-0.0672 -0.1597,-0.0345 -0.071,0.037 -0.1021,0.10105 -0.1019,0.21202 0,0.22858 0.1532,0.34934 0.2721,0.21493 z m 10.9192,0.69504 c 0,-0.0189 0.01,-0.0383 0.014,-0.043 0.01,-0.006 0.01,-0.0172 0,-0.0346 -0.023,-0.0428 -0.016,-0.0942 0.017,-0.12494 0.025,-0.0234 0.046,-0.0281 0.1075,-0.0248 0.071,0.004 0.077,0.006 0.077,0.0387 0,0.0295 -0.01,0.0364 -0.059,0.047 -0.084,0.0177 -0.082,0.0579 0,0.0809 0.056,0.0149 0.062,0.0209 0.059,0.052 0,0.0338 -0.01,0.0352 -0.1116,0.0391 -0.1063,0.004 -0.1075,0.004 -0.1075,-0.0304 z m -5.2767,-0.35792 c -0.062,-0.0357 -0.061,-0.0268 -0.062,-0.73621 v -0.67667 l 0.034,-0.034 c 0.028,-0.0277 0.048,-0.0341 0.1085,-0.0341 0.062,0 0.08,0.006 0.1081,0.0358 l 0.034,0.0358 v 0.64075 c 0,0.694 0,0.73344 -0.066,0.76754 -0.043,0.0218 -0.1226,0.0223 -0.1595,9.5e-4 z m 3.3491,0.008 c -0.082,-0.0147 -0.1722,-0.0523 -0.2295,-0.0961 -0.061,-0.0464 -0.062,-0.0466 -0.062,-0.0144 0,0.018 -0.013,0.0492 -0.029,0.0693 l -0.029,0.0365 h -0.4162 l -0.081,-0.0811 v -0.67871 c 0,-0.66566 0,-0.67944 0.029,-0.71528 0.025,-0.0321 0.038,-0.0365 0.1099,-0.0365 0.071,0 0.085,0.004 0.11,0.0365 0.028,0.0356 0.029,0.0508 0.029,0.61713 v 0.58058 h 0.2039 l -0.019,-0.0724 c -0.013,-0.0496 -0.019,-0.16331 -0.019,-0.36164 v -0.28927 l 0.042,-0.0422 c 0.039,-0.0392 0.048,-0.0417 0.1202,-0.0357 0.1242,0.0103 0.1287,0.021 0.1292,0.30697 0,0.13073 0.01,0.26514 0.014,0.2987 0.019,0.0802 0.061,0.13856 0.1201,0.16307 0.043,0.0178 0.053,0.0173 0.098,-0.005 0.096,-0.0473 0.106,-0.0836 0.1137,-0.41793 0.01,-0.29038 0.01,-0.29646 0.04,-0.32243 0.041,-0.0331 0.1621,-0.0362 0.2063,-0.005 0.047,0.0329 0.059,0.10539 0.059,0.35724 0,0.20692 0,0.23902 0.029,0.28831 0.05,0.0975 0.1633,0.14014 0.2206,0.0828 0.068,-0.0681 0.075,-0.10312 0.083,-0.40763 0.01,-0.2827 0.01,-0.2896 0.04,-0.3155 0.051,-0.0411 0.173,-0.0369 0.2175,0.008 l 0.034,0.0341 v 0.30352 c 0,0.22042 -0.01,0.32122 -0.02,0.36814 l -0.019,0.0646 h 0.233 v -0.35794 c 0,-0.34042 0,-0.35944 0.028,-0.38814 0.035,-0.0375 0.083,-0.0502 0.1494,-0.0396 0.1006,0.0161 0.1,0.0118 0.1,0.52477 v 0.45717 l -0.081,0.0811 h -0.2268 c -0.2502,0 -0.2788,-0.008 -0.2986,-0.0833 l -0.01,-0.0404 -0.061,0.0412 c -0.1547,0.10406 -0.3621,0.11035 -0.5146,0.0156 l -0.066,-0.0414 -0.05,0.0341 c -0.087,0.0594 -0.2356,0.0952 -0.3268,0.0789 z m 2.7389,-0.008 c -0.062,-0.0357 -0.062,-0.0268 -0.062,-0.73621 v -0.67667 l 0.034,-0.034 c 0.028,-0.0277 0.048,-0.0341 0.1086,-0.0341 0.062,0 0.08,0.006 0.1081,0.0358 l 0.034,0.0358 v 0.64075 c 0,0.694 0,0.73344 -0.066,0.76754 -0.043,0.0218 -0.1227,0.0223 -0.1596,9.5e-4 z m 6.511,0.008 c -0.082,-0.0147 -0.1722,-0.0523 -0.2295,-0.0961 -0.061,-0.0464 -0.062,-0.0466 -0.062,-0.0144 0,0.018 -0.013,0.0492 -0.029,0.0693 -0.028,0.0354 -0.033,0.0365 -0.1757,0.0365 -0.1153,0 -0.1523,-0.005 -0.1716,-0.0222 -0.022,-0.0203 -0.027,-0.0203 -0.056,0 -0.028,0.0191 -0.089,0.0222 -0.447,0.0222 -0.3612,0 -0.4186,-0.003 -0.4398,-0.0222 -0.022,-0.0203 -0.027,-0.0203 -0.056,0 -0.027,0.019 -0.085,0.0222 -0.4069,0.0222 -0.4069,0 -0.4241,-0.003 -0.4426,-0.0764 l -0.01,-0.0354 -0.059,0.0398 c -0.1041,0.0708 -0.1154,0.072 -0.6927,0.072 h -0.5398 l -0.081,-0.0811 v -0.6787 c 0,-0.66567 0,-0.67945 0.028,-0.71529 0.025,-0.0321 0.039,-0.0365 0.1099,-0.0365 0.071,0 0.085,0.004 0.11,0.0365 0.028,0.0356 0.029,0.0508 0.029,0.61713 v 0.58058 h 0.1807 c 0.1728,0 0.1802,-9.5e-4 0.1669,-0.0261 -0.03,-0.0556 -0.045,-0.22035 -0.03,-0.31923 0.02,-0.12881 0.057,-0.21011 0.133,-0.2912 0.095,-0.10188 0.1737,-0.13051 0.3393,-0.12385 0.1131,0.005 0.1423,0.0108 0.195,0.0419 0.2131,0.12584 0.3035,0.41365 0.2157,0.68729 l -0.01,0.0312 h 0.5289 V 764.677 c 0,-0.3663 0.01,-0.41769 0.077,-0.44342 0.081,-0.0309 0.1727,-0.008 0.1993,0.0508 0.01,0.0219 0.015,0.15577 0.015,0.37984 v 0.34605 h 0.6518 v -0.33328 c 0,-0.36631 0.01,-0.4177 0.077,-0.44343 0.081,-0.0309 0.1727,-0.008 0.1993,0.0508 0.01,0.0219 0.015,0.15577 0.015,0.37984 v 0.34604 h 0.3011 l -0.019,-0.0724 c -0.013,-0.0496 -0.018,-0.1633 -0.018,-0.36163 v -0.28927 l 0.042,-0.0422 c 0.039,-0.0392 0.048,-0.0417 0.1202,-0.0357 0.1242,0.0103 0.1287,0.021 0.1292,0.30697 0,0.13073 0.01,0.26514 0.014,0.2987 0.019,0.0802 0.062,0.13856 0.1201,0.16307 0.043,0.0178 0.053,0.0173 0.098,-0.005 0.096,-0.0473 0.106,-0.0836 0.1138,-0.41793 0.01,-0.29038 0.01,-0.29646 0.04,-0.32243 0.05,-0.0404 0.1688,-0.0366 0.2195,0.007 l 0.039,0.0334 0.01,0.28205 c 0.01,0.31314 0.017,0.34899 0.1011,0.40049 0.085,0.0516 0.1447,0.0297 0.1991,-0.0726 0.02,-0.0379 0.026,-0.096 0.032,-0.33483 0.01,-0.2827 0.01,-0.2896 0.04,-0.3155 0.023,-0.0188 0.055,-0.0264 0.1081,-0.0264 0.062,0 0.082,0.006 0.1103,0.035 l 0.035,0.035 v 0.32214 c 0,0.29486 -0.01,0.32869 -0.036,0.39952 -0.1028,0.25646 -0.4381,0.37019 -0.6736,0.22844 l -0.077,-0.0461 -0.05,0.0339 c -0.087,0.0592 -0.2355,0.0949 -0.3265,0.0787 z m -2.7668,-0.31214 c 0.1127,-0.0886 0.1205,-0.30922 0.015,-0.42423 -0.1082,-0.11811 -0.2645,-0.0176 -0.2644,0.17005 0,0.20782 0.1343,0.34464 0.2493,0.25418 z m -8.0642,0.27973 c -0.019,-0.0192 -0.028,-0.0462 -0.028,-0.088 0,-0.0669 0.024,-0.0978 0.088,-0.11375 l 0.039,-0.01 -0.034,-0.0364 c -0.079,-0.0845 -0.1029,-0.21729 -0.056,-0.3148 0.033,-0.07 0.119,-0.14014 0.2013,-0.16459 0.099,-0.0294 0.3412,-0.0296 0.3829,-4.7e-4 0.038,0.0267 0.053,0.10124 0.032,0.164 -0.019,0.0589 -0.066,0.0783 -0.1865,0.0783 -0.1146,0 -0.1801,0.0328 -0.1859,0.0929 -0.01,0.0946 0.065,0.14702 0.2312,0.16351 0.1288,0.0128 0.1545,0.0347 0.1545,0.13182 0,0.0509 -0.01,0.0767 -0.028,0.0971 -0.026,0.0259 -0.046,0.0277 -0.3051,0.0277 -0.2589,0 -0.2792,-0.002 -0.3051,-0.0277 z m 3.3432,-0.009 c -0.02,-0.0257 -0.029,-0.0567 -0.029,-0.10463 0,-0.0951 0.041,-0.13618 0.1367,-0.13618 h 0.069 l -0.01,-0.052 c -0.01,-0.093 -0.075,-0.86693 -0.075,-0.9009 0,-0.0536 0.059,-0.10107 0.1248,-0.10107 0.083,0 0.1349,0.0317 0.1516,0.0937 0.012,0.0447 0.084,0.84192 0.084,0.92907 0,0.024 0.01,0.0312 0.035,0.0312 h 0.035 v -0.55956 c 0,-0.3728 0.01,-0.57427 0.015,-0.60356 0.019,-0.0547 0.049,-0.0711 0.1283,-0.0711 0.153,0 0.1476,-0.027 0.1476,0.74167 0,0.68777 0,0.72048 -0.067,0.75494 -0.018,0.01 -0.1529,0.015 -0.3746,0.015 h -0.3467 z m 8.7784,0 c -0.02,-0.0257 -0.029,-0.0567 -0.029,-0.10463 0,-0.0951 0.041,-0.13618 0.1367,-0.13618 h 0.069 l -0.01,-0.052 c -0.01,-0.093 -0.075,-0.86693 -0.075,-0.9009 0,-0.0536 0.059,-0.10107 0.1248,-0.10107 0.084,0 0.1349,0.0317 0.1517,0.0937 0.012,0.0447 0.084,0.84192 0.084,0.92907 0,0.024 0.01,0.0312 0.035,0.0312 h 0.035 v -0.55956 c 0,-0.3728 0.01,-0.57427 0.015,-0.60356 0.019,-0.0547 0.049,-0.0711 0.1282,-0.0711 0.1515,0 0.1477,-0.0171 0.1477,0.66497 v 0.56927 h 0.4021 v -0.58752 c 0,-0.57339 0,-0.58839 0.029,-0.62405 0.025,-0.0315 0.039,-0.0365 0.1046,-0.0365 0.062,0 0.082,0.006 0.11,0.0341 l 0.034,0.034 v 1.37631 l -0.081,0.0811 -0.2888,-4.7e-4 c -0.2283,-4.8e-4 -0.2943,-0.005 -0.315,-0.0202 -0.023,-0.0172 -0.03,-0.0171 -0.055,4.8e-4 -0.024,0.0165 -0.094,0.0202 -0.3785,0.0202 h -0.3495 z m -19.9517,-1.28646 c -0.04,-0.0399 -0.047,-0.0569 -0.047,-0.11072 0,-0.0507 0.01,-0.0728 0.04,-0.10887 0.036,-0.0401 0.049,-0.0453 0.112,-0.0453 0.063,0 0.076,0.005 0.1121,0.0453 0.066,0.0744 0.052,0.19587 -0.029,0.24365 -0.066,0.0389 -0.1344,0.0303 -0.1887,-0.0241 z m 0.4436,0.0336 c -0.091,-0.0369 -0.119,-0.17401 -0.05,-0.25016 0.097,-0.10772 0.2725,-0.0406 0.2725,0.10427 0,0.11824 -0.1106,0.19092 -0.2221,0.14589 z m 4.3264,-0.0123 c -0.1285,-0.0808 -0.067,-0.29296 0.085,-0.29296 0.056,0 0.1291,0.0466 0.1472,0.0935 0.022,0.0563 0.01,0.14095 -0.034,0.18044 -0.047,0.0471 -0.1399,0.056 -0.1988,0.019 z m 0.4086,0.003 c -0.07,-0.0447 -0.094,-0.14314 -0.054,-0.21825 0.026,-0.0487 0.1033,-0.0827 0.1655,-0.0728 0.1187,0.0189 0.1693,0.16857 0.088,0.2597 -0.048,0.0542 -0.1414,0.0688 -0.1997,0.0313 z m 4.3502,0.01 c -0.057,-0.0235 -0.083,-0.0692 -0.083,-0.14751 0,-0.0617 0.01,-0.0807 0.036,-0.11053 0.078,-0.078 0.2215,-0.0479 0.2607,0.0548 0.051,0.13279 -0.081,0.25765 -0.2135,0.20322 z m 0.3987,-9.5e-4 c -0.04,-0.0161 -0.087,-0.0926 -0.087,-0.14244 0,-0.0826 0.075,-0.16225 0.1522,-0.16225 0.054,0 0.123,0.039 0.1449,0.0814 0.072,0.1394 -0.063,0.2826 -0.2105,0.22327 z m 0.9049,9.5e-4 c -0.058,-0.0237 -0.083,-0.0691 -0.083,-0.14903 0,-0.066 0.01,-0.0804 0.039,-0.10939 0.052,-0.0447 0.098,-0.0544 0.1642,-0.0346 0.094,0.0281 0.135,0.13252 0.088,0.2234 -0.036,0.0687 -0.1315,0.10086 -0.2078,0.0696 z m 5.7807,-0.0128 c -0.1285,-0.0808 -0.067,-0.29296 0.085,-0.29296 0.056,0 0.129,0.0466 0.1471,0.0935 0.022,0.0563 0.01,0.14095 -0.034,0.18044 -0.047,0.0471 -0.14,0.056 -0.1989,0.019 z m 0.4086,0.003 c -0.07,-0.0447 -0.094,-0.14314 -0.054,-0.21825 0.026,-0.0487 0.1034,-0.0826 0.1656,-0.0728 0.1186,0.0189 0.1693,0.16857 0.088,0.2597 -0.048,0.0542 -0.1414,0.0688 -0.1997,0.0313 z m 0.5344,-0.003 c -0.1285,-0.0808 -0.067,-0.29296 0.085,-0.29296 0.056,0 0.129,0.0466 0.1471,0.0935 0.022,0.0563 0.01,0.14095 -0.033,0.18044 -0.047,0.0471 -0.14,0.056 -0.1989,0.019 z m 0.4086,0.003 c -0.07,-0.0447 -0.094,-0.14314 -0.054,-0.21825 0.026,-0.0487 0.1033,-0.0826 0.1655,-0.0728 0.1187,0.0189 0.1693,0.16857 0.088,0.2597 -0.048,0.0542 -0.1414,0.0688 -0.1998,0.0313 z m -8.2635,-0.37569 c -0.055,-0.0493 -0.07,-0.13372 -0.033,-0.195 0.03,-0.0511 0.073,-0.072 0.147,-0.072 0.046,0 0.065,0.009 0.1051,0.0489 0.045,0.0454 0.048,0.0536 0.042,0.11397 -0.01,0.0894 -0.068,0.14221 -0.1557,0.14221 -0.048,0 -0.072,-0.009 -0.1046,-0.0381 z m 7.1103,0.01 c -0.046,-0.0362 -0.067,-0.10863 -0.049,-0.17209 0.019,-0.068 0.071,-0.10466 0.1494,-0.10457 0.088,0 0.1392,0.0419 0.1499,0.12109 0.015,0.11352 -0.046,0.18393 -0.1596,0.18393 -0.034,0 -0.068,-0.0107 -0.09,-0.0283 z m -17.552,-9.14374 c 0,-6.92139 0,-8.67569 0.017,-8.68652 0.015,-0.0123 0.2161,-0.12938 0.69,-0.40206 0.072,-0.0417 0.1504,-0.0867 0.1733,-0.10003 0.1927,-0.11218 0.3288,-0.19032 0.3814,-0.21908 0.034,-0.0188 0.091,-0.0515 0.1247,-0.0726 0.034,-0.0212 0.1062,-0.0632 0.1596,-0.0934 0.053,-0.0303 0.3217,-0.18458 0.5963,-0.34301 0.2746,-0.15842 0.521,-0.3004 0.5477,-0.3155 0.027,-0.0151 0.1235,-0.0712 0.215,-0.12473 0.3071,-0.1795 0.4156,-0.24248 0.4784,-0.27758 0.034,-0.0192 0.2216,-0.12697 0.4161,-0.2395 0.1945,-0.11254 0.3814,-0.22028 0.4153,-0.23943 0.034,-0.0191 0.093,-0.0535 0.1318,-0.0764 0.075,-0.0443 0.1313,-0.077 0.2258,-0.13011 l 0.059,-0.033 0.055,0.035 c 0.03,0.0192 0.059,0.035 0.062,0.035 0,0 0.085,0.0468 0.1815,0.10401 0.096,0.0572 0.1775,0.10401 0.181,0.10401 0,0 0.029,0.0146 0.058,0.0325 0.028,0.0179 0.08,0.0482 0.1141,0.0674 0.1029,0.0576 0.1541,0.0871 0.2681,0.15471 0.06,0.0354 0.1107,0.0644 0.1132,0.0644 0,0 0.068,0.0374 0.1446,0.0832 0.077,0.0457 0.1424,0.0832 0.1451,0.0832 0,0 0.062,0.0344 0.1322,0.0763 0.07,0.0419 0.1295,0.0763 0.1325,0.0763 0,0 0.056,0.0312 0.1183,0.0693 0.062,0.0381 0.1155,0.0693 0.1186,0.0693 0,0 0.04,0.0219 0.082,0.0485 0.042,0.0267 0.08,0.0485 0.085,0.0485 0,0 0.044,0.0211 0.087,0.047 0.1858,0.11134 0.4622,0.27201 0.4679,0.27201 0,0 0.03,0.0146 0.058,0.0325 0.029,0.0179 0.08,0.0482 0.1142,0.0674 0.1029,0.0576 0.1541,0.0871 0.2681,0.1547 0.06,0.0354 0.1113,0.0644 0.1146,0.0644 0,0 0.056,0.0312 0.1179,0.0693 0.061,0.0381 0.1139,0.0693 0.1165,0.0693 0,0 0.06,0.0322 0.1272,0.0715 0.067,0.0393 0.1536,0.0885 0.1918,0.10927 0.038,0.0208 0.069,0.0458 0.069,0.0557 0,0.01 -0.031,0.0345 -0.069,0.0549 -0.038,0.0204 -0.1287,0.0715 -0.2011,0.11351 -0.4276,0.24819 -0.8474,0.49075 -0.9014,0.52095 -0.034,0.0192 -0.1,0.0568 -0.1456,0.0836 -0.046,0.0268 -0.1425,0.0828 -0.215,0.1245 -0.072,0.0417 -0.1505,0.0866 -0.1734,0.0999 -0.078,0.0455 -0.3188,0.18488 -0.3605,0.20879 -0.034,0.0194 -1.0028,0.57898 -1.151,0.66475 -0.023,0.0132 -0.1446,0.0834 -0.2705,0.15586 -0.3068,0.17671 -0.6368,0.36723 -0.6795,0.39221 -0.019,0.0112 -0.1299,0.0751 -0.2461,0.14199 l -0.2116,0.12168 v 11.44797 h 0.8876 v -4.28519 h 8.3624 v 4.28519 h 0.943 v -4.28519 h 8.3623 v 3.75821 h -4.618 v 0.52698 h 4.618 v 3.73047 h -22.2857 z m 9.2361,4.6787 v -0.26349 h -0.8876 v 0.52698 h 0.8876 z m -13.868,-10.5366 c 0,-4.90578 0,-5.5476 0.021,-5.5736 0.011,-0.0163 0.072,-0.0583 0.1352,-0.0933 0.063,-0.035 0.1394,-0.0783 0.1699,-0.0963 0.057,-0.0335 0.3001,-0.17456 0.3744,-0.21719 0.023,-0.0131 0.2819,-0.16265 0.5756,-0.33228 0.2936,-0.16963 0.562,-0.32409 0.5963,-0.34325 0.034,-0.0191 0.1186,-0.0675 0.1872,-0.10754 0.069,-0.04 0.1997,-0.11635 0.2912,-0.16969 0.165,-0.0961 0.3156,-0.1831 0.4092,-0.23619 0.027,-0.0152 0.2888,-0.16634 0.5824,-0.33597 0.2936,-0.16963 0.562,-0.32411 0.5963,-0.34329 0.034,-0.0192 0.1123,-0.0643 0.1733,-0.10015 0.1575,-0.0926 0.572,-0.33247 0.7142,-0.41324 0.027,-0.0151 0.2296,-0.13212 0.4508,-0.25993 0.2211,-0.1278 0.4299,-0.24803 0.4638,-0.2672 0.034,-0.0191 0.093,-0.0535 0.1317,-0.0764 0.038,-0.0228 0.089,-0.0523 0.1117,-0.0654 0.023,-0.0131 0.1259,-0.0725 0.2289,-0.13209 0.2473,-0.14305 0.6031,-0.34808 0.6726,-0.38755 0.03,-0.0173 0.2146,-0.12364 0.409,-0.2362 0.1945,-0.11256 0.3724,-0.21545 0.3953,-0.22866 0.023,-0.0132 0.104,-0.0602 0.1802,-0.10436 0.2013,-0.11659 0.205,-0.11877 0.4022,-0.23207 0.099,-0.057 0.3603,-0.20745 0.5803,-0.33438 0.22,-0.12693 0.4054,-0.23078 0.4122,-0.23078 0.01,0 0.075,0.0374 0.1517,0.0832 0.077,0.0458 0.1421,0.0832 0.1456,0.0832 0,0 0.046,0.0239 0.093,0.0531 0.048,0.0292 0.115,0.0689 0.1494,0.0882 0.096,0.0541 0.153,0.0867 0.2329,0.1341 0.04,0.0239 0.077,0.0435 0.08,0.0435 0,0 0.014,0.006 0.024,0.0144 0.014,0.0124 0.3035,0.17997 0.6269,0.36349 0.053,0.0303 0.1252,0.0724 0.1595,0.0935 0.034,0.0211 0.09,0.0539 0.1248,0.0726 0.102,0.0558 0.3628,0.20538 0.4299,0.24655 0.034,0.021 0.091,0.0536 0.1248,0.0724 0.034,0.0188 0.1529,0.087 0.2636,0.15165 0.1105,0.0646 0.2291,0.13271 0.2634,0.15125 0.034,0.0185 0.065,0.0384 0.067,0.0441 0,0.006 0.01,0.0104 0.017,0.0104 0.01,0 0.1387,0.0738 0.2935,0.1639 0.1548,0.0901 0.3296,0.19107 0.3883,0.22428 0.059,0.0332 0.104,0.065 0.1005,0.0707 -0.01,0.01 -0.032,0.0253 -0.2003,0.12036 -0.034,0.0194 -0.1061,0.0615 -0.1595,0.0935 -0.053,0.0321 -0.1252,0.0739 -0.1595,0.093 -0.034,0.0191 -0.1591,0.0908 -0.2773,0.15922 -0.1182,0.0685 -0.2431,0.14021 -0.2774,0.15946 -0.034,0.0192 -0.1591,0.0912 -0.2774,0.15979 -0.2454,0.1425 -0.8288,0.47909 -0.9014,0.52009 -0.027,0.0151 -0.098,0.0572 -0.1594,0.0935 -0.061,0.0364 -0.1391,0.0817 -0.1734,0.1007 -0.034,0.019 -0.1591,0.0906 -0.2774,0.15905 -0.1182,0.0685 -0.243,0.14024 -0.2773,0.15953 -0.034,0.0193 -0.1779,0.10223 -0.319,0.18432 -0.1411,0.0821 -0.2846,0.16503 -0.3189,0.18431 -0.034,0.0193 -0.086,0.0497 -0.1142,0.0675 -0.029,0.0179 -0.055,0.0325 -0.059,0.0325 0,0 -0.031,0.0147 -0.059,0.0326 -0.083,0.0521 -0.2942,0.17539 -0.301,0.17539 0,0 -0.063,0.0344 -0.1325,0.0765 -0.069,0.0421 -0.171,0.10022 -0.2258,0.1292 -0.055,0.029 -0.1215,0.0654 -0.1482,0.081 -0.1708,0.0997 -0.3347,0.19384 -0.3883,0.2232 -0.034,0.0188 -0.091,0.0515 -0.1248,0.0726 -0.034,0.0211 -0.1061,0.0632 -0.1595,0.0934 -0.053,0.0302 -0.3218,0.18472 -0.5964,0.34341 -0.2746,0.15869 -0.5585,0.32261 -0.6309,0.36425 -0.073,0.0417 -0.1505,0.0866 -0.1734,0.1 -0.023,0.0133 -0.067,0.0387 -0.097,0.0562 -0.03,0.0176 -0.1054,0.0613 -0.1664,0.0972 -0.061,0.0359 -0.139,0.081 -0.1733,0.10013 -0.086,0.0479 -0.6316,0.36282 -1.0817,0.62397 -0.027,0.0155 -0.077,0.0439 -0.111,0.0631 -0.034,0.0192 -0.086,0.0495 -0.1141,0.0674 -0.029,0.0179 -0.055,0.0324 -0.058,0.0324 0,0 -0.083,0.0455 -0.1771,0.10107 -0.094,0.0556 -0.2192,0.12847 -0.2783,0.16196 l -0.1075,0.0609 v 8.95392 h -3.7443 z m 9.3054,3.67193 v -1.87217 h 3.7305 v 3.74434 h -3.7305 z m 9.2499,-1.22714 v -3.09931 l -0.052,-0.0326 c -0.028,-0.018 -0.08,-0.0484 -0.1144,-0.0677 -0.034,-0.0193 -0.3682,-0.21152 -0.7419,-0.4272 -0.3738,-0.21567 -0.7233,-0.41702 -0.7767,-0.44745 -0.053,-0.0304 -0.1422,-0.0826 -0.1973,-0.11586 -0.055,-0.0333 -0.1029,-0.0605 -0.1061,-0.0605 0,0 -0.046,-0.024 -0.094,-0.0533 -0.049,-0.0293 -0.1162,-0.0691 -0.1505,-0.0883 -0.034,-0.0192 -0.3464,-0.19897 -0.6934,-0.39937 -0.3471,-0.20039 -0.7122,-0.41097 -0.8113,-0.46795 -0.099,-0.057 -0.1865,-0.10824 -0.1942,-0.11391 -0.01,-0.006 -0.048,-0.0291 -0.09,-0.0521 -0.042,-0.023 -0.1699,-0.0964 -0.2843,-0.1632 -0.1144,-0.0668 -0.2236,-0.12829 -0.2427,-0.13667 -0.019,-0.008 -0.094,-0.0502 -0.1664,-0.093 -0.072,-0.0428 -0.1598,-0.0937 -0.1942,-0.11305 -0.055,-0.0308 -0.9934,-0.57226 -1.5046,-0.86769 -0.099,-0.0573 -0.2084,-0.11978 -0.2427,-0.13883 -0.034,-0.019 -0.1061,-0.0608 -0.1595,-0.0929 -0.053,-0.0321 -0.1252,-0.074 -0.1595,-0.0933 -0.034,-0.0193 -0.2215,-0.12716 -0.416,-0.23973 -0.1945,-0.11257 -0.3817,-0.22033 -0.416,-0.23946 -0.034,-0.0191 -0.1186,-0.0675 -0.1873,-0.10744 -0.069,-0.04 -0.1872,-0.10864 -0.2634,-0.15262 -0.076,-0.044 -0.162,-0.0947 -0.1904,-0.11265 -0.029,-0.018 -0.055,-0.0327 -0.059,-0.0327 0,0 -0.037,-0.0181 -0.073,-0.0402 -0.037,-0.0221 -0.092,-0.0549 -0.1234,-0.0728 -0.2354,-0.13358 -0.561,-0.32457 -0.588,-0.34497 l -0.033,-0.0247 0.062,-0.0365 c 0.2074,-0.1227 0.4179,-0.24351 0.4244,-0.24351 0,0 0.024,-0.0117 0.044,-0.026 0.02,-0.0144 0.087,-0.0539 0.1478,-0.088 0.061,-0.0341 0.1671,-0.0949 0.2357,-0.13521 0.069,-0.0403 0.1529,-0.089 0.1872,-0.1083 0.034,-0.0193 0.1021,-0.059 0.1505,-0.0883 0.048,-0.0293 0.091,-0.0533 0.093,-0.0533 0,0 0.068,-0.0374 0.1455,-0.0832 0.077,-0.0458 0.1425,-0.0832 0.1455,-0.0832 0,0 0.045,-0.0239 0.092,-0.0531 0.048,-0.0292 0.115,-0.0689 0.1494,-0.0882 0.034,-0.0193 0.084,-0.0476 0.1109,-0.063 0.3112,-0.17916 0.4204,-0.24231 0.4825,-0.27916 0.04,-0.0239 0.077,-0.0435 0.081,-0.0435 0,0 0.024,-0.0117 0.045,-0.0261 0.02,-0.0143 0.087,-0.0539 0.1478,-0.088 0.061,-0.0341 0.1671,-0.0949 0.2357,-0.13522 0.069,-0.0403 0.1529,-0.089 0.1872,-0.10834 0.074,-0.0416 0.15,-0.0863 0.1878,-0.1105 0.015,-0.01 0.037,-0.0217 0.048,-0.0269 0.011,-0.005 0.087,-0.0488 0.1683,-0.097 0.081,-0.0482 0.156,-0.0875 0.1664,-0.0875 0.024,1.4e-4 0.068,0.0237 0.2554,0.13468 0.038,0.0229 0.098,0.0572 0.1318,0.0764 0.034,0.0191 0.2863,0.16455 0.5609,0.32311 0.5609,0.32394 0.6695,0.38654 0.9361,0.5399 0.1029,0.0592 0.1934,0.11235 0.2011,0.11803 0.01,0.006 0.048,0.0292 0.09,0.0522 0.042,0.023 0.2947,0.16824 0.5617,0.32264 0.6139,0.3551 0.5678,0.32846 0.6205,0.35856 0.043,0.0243 0.2673,0.15402 0.5443,0.31423 0.4906,0.28369 1.1395,0.65787 1.2204,0.70367 0.053,0.0303 0.1252,0.0723 0.1595,0.0935 0.034,0.0212 0.091,0.0538 0.1248,0.0726 0.034,0.0188 0.1248,0.0703 0.2011,0.11451 0.731,0.42365 1.1873,0.68694 1.581,0.91221 0.053,0.0305 0.1422,0.0828 0.1973,0.11609 0.055,0.0333 0.1037,0.0605 0.1078,0.0605 0,0 0.033,0.0159 0.064,0.0354 0.06,0.0379 1.3657,0.79204 1.6873,0.97453 l 0.087,0.0492 v 8.37103 h -3.7444 z m 4.6176,-1.3835 v -4.48281 l -0.362,-0.20802 c -0.1991,-0.11441 -0.3878,-0.22256 -0.4193,-0.24035 -0.031,-0.0178 -0.098,-0.056 -0.1474,-0.085 -0.1939,-0.1133 -0.3567,-0.20702 -0.423,-0.24357 -0.038,-0.021 -0.113,-0.0645 -0.1664,-0.0965 -0.053,-0.0321 -0.1251,-0.074 -0.1595,-0.0933 -0.1423,-0.0799 -1.0649,-0.61388 -1.1126,-0.64395 -0.028,-0.018 -0.055,-0.0326 -0.058,-0.0326 0,0 -0.085,-0.0468 -0.1815,-0.10401 -0.096,-0.0572 -0.1779,-0.10401 -0.182,-0.10401 0,0 -0.024,-0.0115 -0.044,-0.0256 -0.021,-0.0141 -0.071,-0.0444 -0.1131,-0.0673 -0.042,-0.0229 -0.098,-0.0544 -0.1249,-0.0699 -0.027,-0.0155 -0.2669,-0.15422 -0.5339,-0.30825 -0.2669,-0.15403 -0.4907,-0.28519 -0.4972,-0.29146 -0.011,-0.0109 0.3505,-0.236 0.3793,-0.236 0.01,0 0.014,-0.006 0.014,-0.0139 0,-0.008 0.01,-0.0139 0.012,-0.0139 0.01,0 0.1261,-0.0655 0.2653,-0.14561 0.1392,-0.0801 0.2585,-0.14561 0.2652,-0.14561 0.01,0 0.012,-0.006 0.012,-0.0139 0,-0.008 0.01,-0.0139 0.014,-0.0139 0.01,0 0.054,-0.0249 0.1042,-0.0555 0.05,-0.0305 0.094,-0.0555 0.097,-0.0555 0,0 0.04,-0.0218 0.082,-0.0485 0.042,-0.0267 0.079,-0.0485 0.082,-0.0485 0,0 0.047,-0.025 0.097,-0.0555 0.05,-0.0305 0.094,-0.0555 0.097,-0.0555 0,0 0.085,-0.0468 0.1815,-0.104 0.097,-0.0572 0.179,-0.10401 0.183,-0.10401 0,0 0.024,-0.0115 0.044,-0.0256 0.02,-0.0141 0.071,-0.0444 0.1131,-0.0674 0.042,-0.0229 0.1468,-0.0832 0.233,-0.13386 0.086,-0.0507 0.1627,-0.0921 0.1699,-0.0921 0.01,0 0.013,-0.006 0.013,-0.0139 0,-0.008 0.01,-0.0139 0.014,-0.0139 0.01,0 0.054,-0.025 0.1042,-0.0555 0.05,-0.0305 0.093,-0.0555 0.096,-0.0555 0,0 0.074,-0.0406 0.1584,-0.0901 0.084,-0.0496 0.1594,-0.0901 0.1675,-0.0901 0.01,0 0.015,-0.006 0.015,-0.0139 0,-0.008 0.01,-0.0139 0.014,-0.0139 0.01,0 0.055,-0.0249 0.1043,-0.0555 0.05,-0.0305 0.093,-0.0555 0.097,-0.0555 0,0 0.04,-0.0218 0.082,-0.0485 0.042,-0.0267 0.08,-0.0485 0.085,-0.0485 0,0 0.026,-0.0115 0.046,-0.0256 0.021,-0.0141 0.081,-0.0493 0.1339,-0.0782 0.053,-0.0289 0.1087,-0.0606 0.1229,-0.0704 0.021,-0.0149 0.033,-0.0137 0.069,0.007 0.024,0.0137 0.159,0.092 0.3001,0.17408 0.1412,0.0821 0.2847,0.16495 0.319,0.18416 0.034,0.0192 0.1579,0.0905 0.2745,0.15832 0.1168,0.0679 0.2415,0.13957 0.2774,0.15936 0.036,0.0198 0.1089,0.0622 0.1623,0.0943 0.053,0.0321 0.1252,0.074 0.1595,0.0933 0.034,0.0193 0.3026,0.17395 0.5963,0.34373 0.2937,0.16977 0.5682,0.3275 0.6102,0.35049 0.042,0.023 0.082,0.0465 0.09,0.0522 0.014,0.0107 0.3404,0.19881 0.4507,0.26003 0.034,0.019 0.1061,0.0608 0.1595,0.0929 0.053,0.0321 0.1252,0.074 0.1595,0.0933 0.034,0.0193 0.2215,0.12715 0.416,0.23972 0.1945,0.11257 0.3818,0.22046 0.4161,0.23977 0.034,0.0193 0.073,0.0418 0.087,0.0501 0.023,0.0143 0.024,0.29492 0.024,5.57967 v 5.56452 h -3.7444 v -4.48282 z m -9.3465,2.59677 v -1.87217 h 3.7443 v 3.74434 h -3.7443 z m 3.8136,-9.69368 c 0,-0.008 -0.01,-0.0139 -0.014,-0.0139 -0.013,0 -0.192,-0.10186 -0.3085,-0.17539 -0.029,-0.018 -0.054,-0.0326 -0.057,-0.0326 0,0 -0.047,-0.0249 -0.097,-0.0555 -0.05,-0.0305 -0.094,-0.0555 -0.097,-0.0555 0,0 -0.085,-0.0468 -0.1815,-0.10401 -0.097,-0.0572 -0.1777,-0.10401 -0.1802,-0.10401 0,0 -0.046,-0.0249 -0.096,-0.0555 -0.05,-0.0305 -0.095,-0.0555 -0.099,-0.0555 0,0 -0.034,-0.0166 -0.066,-0.037 -0.1027,-0.0648 -0.2911,-0.17102 -0.3034,-0.17102 -0.01,0 -0.012,-0.006 -0.012,-0.0139 0,-0.008 -0.01,-0.0139 -0.014,-0.0139 -0.01,0 -0.055,-0.0249 -0.1054,-0.0555 -0.05,-0.0305 -0.093,-0.0555 -0.096,-0.0555 0,0 -0.084,-0.0468 -0.1803,-0.10402 -0.097,-0.0572 -0.1781,-0.104 -0.181,-0.104 -0.01,0 -0.2231,-0.12679 -0.3001,-0.17539 -0.029,-0.018 -0.055,-0.0326 -0.059,-0.0326 0,0 -0.048,-0.025 -0.098,-0.0555 -0.05,-0.0305 -0.093,-0.0555 -0.096,-0.0555 0,0 -0.084,-0.0468 -0.181,-0.10401 -0.097,-0.0572 -0.1778,-0.10401 -0.1803,-0.10401 0,0 -0.046,-0.025 -0.096,-0.0555 -0.05,-0.0305 -0.098,-0.0555 -0.1054,-0.0555 -0.01,0 -0.014,-0.006 -0.014,-0.0139 0,-0.008 -0.01,-0.0139 -0.014,-0.0139 -0.01,0 -0.082,-0.0406 -0.1649,-0.0901 -0.083,-0.0496 -0.1569,-0.0901 -0.1648,-0.0901 -0.01,0 -0.016,-0.005 -0.019,-0.0104 0,-0.006 -0.029,-0.0241 -0.06,-0.0408 -0.03,-0.0168 -0.055,-0.037 -0.055,-0.045 0,-0.0118 0.2064,-0.13674 0.5339,-0.32321 0.1862,-0.10598 0.3543,-0.20344 0.4401,-0.25513 0.055,-0.0333 0.1033,-0.0604 0.107,-0.0604 0,0 0.062,-0.0332 0.1285,-0.0738 0.067,-0.0406 0.1561,-0.0927 0.1981,-0.11591 0.042,-0.0232 0.173,-0.0983 0.2912,-0.16693 0.1182,-0.0686 0.2431,-0.14047 0.2774,-0.15963 0.034,-0.0191 0.1778,-0.102 0.3189,-0.18408 0.1411,-0.0821 0.2753,-0.15996 0.2982,-0.17307 0.023,-0.0131 0.1071,-0.0614 0.1872,-0.10728 0.08,-0.0459 0.1737,-0.0989 0.208,-0.11783 0.034,-0.0189 0.1467,-0.0844 0.2496,-0.1455 0.103,-0.0611 0.2154,-0.12676 0.2497,-0.14588 0.034,-0.0191 0.1591,-0.0909 0.2773,-0.15946 0.1183,-0.0686 0.2431,-0.14035 0.2774,-0.15948 0.034,-0.0191 0.156,-0.0895 0.2704,-0.15629 0.1144,-0.0668 0.2299,-0.13423 0.2566,-0.14977 0.027,-0.0155 0.067,-0.0376 0.09,-0.0489 0.023,-0.0114 0.2039,-0.11436 0.4022,-0.22884 0.1983,-0.11448 0.4167,-0.24047 0.4854,-0.27999 0.069,-0.0395 0.2091,-0.12052 0.312,-0.18001 0.103,-0.0595 0.2075,-0.11973 0.2323,-0.13388 0.025,-0.0142 0.065,-0.0374 0.09,-0.0518 0.3989,-0.23054 1.0255,-0.59295 1.0575,-0.6115 0.1875,-0.10908 0.3288,-0.19038 0.3813,-0.21949 0.034,-0.019 0.1124,-0.0638 0.1734,-0.0995 0.217,-0.12708 0.3753,-0.21885 0.4368,-0.25325 0.051,-0.0283 0.4746,-0.27311 0.839,-0.48442 0.038,-0.0221 0.09,-0.0505 0.1144,-0.0631 l 0.045,-0.0229 v -3.43435 c 0,-1.8889 0,-3.43855 0.01,-3.44367 0.01,-0.005 0.024,3.3e-4 0.042,0.0123 0.064,0.0421 0.2717,0.15884 0.2822,0.15884 0.01,0 0.013,0.005 0.015,0.0104 0,0.01 0.096,0.063 0.1606,0.093 0.017,0.008 0.031,0.0191 0.031,0.0249 0,0.006 0.01,0.0104 0.013,0.0104 0.01,0 0.092,0.0468 0.1886,0.10401 0.097,0.0572 0.1783,0.10401 0.1815,0.10401 0,0 0.047,0.0249 0.097,0.0555 0.05,0.0305 0.094,0.0555 0.097,0.0555 0,0 0.04,0.0219 0.082,0.0485 0.042,0.0267 0.079,0.0485 0.082,0.0485 0,0 0.047,0.0249 0.097,0.0555 0.05,0.0305 0.093,0.0555 0.096,0.0555 0,0 0.084,0.0468 0.1811,0.10401 0.097,0.0572 0.1777,0.10401 0.1802,0.10401 0,0 0.046,0.0249 0.096,0.0555 0.05,0.0305 0.097,0.0555 0.1043,0.0555 0.01,0 0.015,0.005 0.018,0.0104 0,0.006 0.027,0.0223 0.053,0.0369 0.027,0.0146 0.1091,0.0594 0.1831,0.0996 0.074,0.0402 0.1816,0.10155 0.239,0.13641 0.057,0.0349 0.1075,0.0634 0.1113,0.0634 0,0 0.046,0.0239 0.094,0.0531 0.048,0.0292 0.115,0.069 0.1493,0.0883 0.034,0.0194 0.1175,0.0672 0.1849,0.10634 0.067,0.0391 0.1253,0.0711 0.1288,0.0711 0,0 0.014,0.007 0.023,0.0144 0.01,0.008 0.073,0.0461 0.1416,0.0848 0.069,0.0387 0.1825,0.10418 0.253,0.14553 l 0.1283,0.0752 v 6.9331 l -0.031,1.6e-4 c -0.017,1.3e-4 -0.056,0.0148 -0.087,0.0326 -0.1339,0.0783 -1.2834,0.74158 -1.3799,0.79623 -0.034,0.0194 -0.1238,0.0718 -0.1989,0.11629 -0.075,0.0445 -0.1387,0.0809 -0.1415,0.0809 0,0 -0.038,0.0198 -0.078,0.0438 -0.1108,0.0662 -1.0193,0.59129 -1.1066,0.63966 -0.042,0.0232 -0.1159,0.0661 -0.1644,0.0954 -0.048,0.0293 -0.09,0.0532 -0.092,0.0532 0,0 -0.053,0.029 -0.1129,0.0644 -0.06,0.0354 -0.1274,0.0751 -0.1503,0.0882 -0.023,0.0131 -0.104,0.0599 -0.1802,0.10414 -0.076,0.0442 -0.1574,0.0911 -0.1803,0.10422 -0.023,0.0131 -0.2819,0.16265 -0.5756,0.33228 -0.2936,0.16964 -0.562,0.3241 -0.5963,0.34325 -0.034,0.0191 -0.1185,0.0675 -0.1872,0.10754 -0.069,0.04 -0.1997,0.11635 -0.2912,0.16969 -0.1681,0.0979 -0.32,0.18567 -0.4091,0.23614 -0.027,0.0152 -0.2295,0.13207 -0.4507,0.25987 -0.2212,0.1278 -0.4303,0.24816 -0.4646,0.26746 -0.034,0.0193 -0.1021,0.0591 -0.1505,0.0884 -0.048,0.0293 -0.091,0.0533 -0.094,0.0533 0,0 -0.051,0.0273 -0.106,0.0605 -0.055,0.0333 -0.144,0.0853 -0.1974,0.11566 -0.053,0.0303 -0.4028,0.23166 -0.7766,0.44742 -0.3737,0.21577 -0.7076,0.40809 -0.7419,0.42739 -0.034,0.0193 -0.084,0.0487 -0.111,0.0654 -0.1498,0.0934 -0.2219,0.12268 -0.2219,0.0901 z m -13.2161,-2.77294 c -0.073,-0.0436 -0.1598,-0.095 -0.1942,-0.11441 -0.034,-0.0194 -0.3026,-0.17411 -0.5963,-0.34389 -0.2936,-0.16977 -0.5682,-0.32773 -0.6102,-0.35101 -0.042,-0.0233 -0.1311,-0.0755 -0.1981,-0.11609 -0.067,-0.0406 -0.1241,-0.0738 -0.127,-0.0738 0,0 -0.068,-0.0374 -0.1453,-0.0832 -0.077,-0.0457 -0.1425,-0.0832 -0.1454,-0.0832 0,0 -0.045,-0.024 -0.093,-0.0533 -0.048,-0.0293 -0.1162,-0.0691 -0.1505,-0.0884 -0.034,-0.0193 -0.2433,-0.13972 -0.4646,-0.2676 -0.2212,-0.12788 -0.4895,-0.28234 -0.5963,-0.34325 -0.1068,-0.0609 -0.2378,-0.13708 -0.2912,-0.16925 -0.053,-0.0322 -0.1252,-0.0743 -0.1595,-0.0935 -0.034,-0.0193 -0.1882,-0.10762 -0.3419,-0.19633 -0.1537,-0.0887 -0.2863,-0.16128 -0.2947,-0.16128 -0.011,0 -0.015,-0.94901 -0.015,-3.41498 v -3.41498 l 0.088,-0.0514 c 0.048,-0.0283 0.1247,-0.0713 0.1696,-0.0956 0.045,-0.0243 0.088,-0.0489 0.096,-0.0546 0.01,-0.006 0.036,-0.0226 0.062,-0.0377 0.027,-0.015 0.1109,-0.0634 0.1872,-0.10763 0.076,-0.0442 0.1668,-0.0959 0.2011,-0.11493 0.063,-0.0347 0.1775,-0.10167 0.4091,-0.23847 0.069,-0.0406 0.1591,-0.0926 0.2011,-0.11561 0.075,-0.0413 0.2369,-0.13592 0.2774,-0.16228 0.011,-0.007 0.03,-0.0178 0.042,-0.023 0.011,-0.005 0.052,-0.028 0.09,-0.0507 0.038,-0.0227 0.1067,-0.0609 0.1525,-0.0851 0.046,-0.0241 0.1831,-0.10191 0.3051,-0.17285 0.1221,-0.071 0.25,-0.14486 0.2843,-0.16426 0.034,-0.0194 0.1234,-0.0717 0.198,-0.11616 0.075,-0.0445 0.1384,-0.0809 0.1418,-0.0809 0,0 0.047,-0.0249 0.097,-0.0555 0.05,-0.0305 0.093,-0.0555 0.096,-0.0555 0,0 0.084,-0.0468 0.1805,-0.104 0.096,-0.0572 0.1777,-0.10402 0.1814,-0.10402 0,0 0.03,-0.0146 0.059,-0.0325 0.07,-0.0437 0.2079,-0.12006 0.2174,-0.12006 0,0 0.01,1.52738 0.01,3.39418 v 3.39418 l 0.038,0.022 c 0.2271,0.13166 0.424,0.24484 0.4749,0.27301 0.076,0.0422 0.2108,0.12129 0.2805,0.16489 0.028,0.0178 0.054,0.0323 0.057,0.0323 0,0 0.047,0.0249 0.097,0.0555 0.05,0.0305 0.095,0.0555 0.099,0.0555 0,0 0.033,0.0161 0.064,0.0359 0.031,0.0197 0.2792,0.16407 0.551,0.32078 0.2718,0.15671 0.5753,0.33181 0.6744,0.38912 0.099,0.0573 0.2084,0.11972 0.2427,0.1387 0.076,0.0422 0.2109,0.12129 0.2806,0.16489 0.029,0.0178 0.056,0.0323 0.06,0.0323 0,0 0.025,0.0115 0.046,0.0256 0.02,0.0141 0.071,0.0445 0.113,0.0676 0.042,0.0231 0.1918,0.10912 0.3329,0.19119 0.1411,0.0821 0.2815,0.16339 0.312,0.1807 0.03,0.0173 0.1553,0.0891 0.2774,0.1595 0.122,0.0704 0.2874,0.16537 0.3675,0.21101 0.1909,0.10878 0.1874,0.10567 0.1535,0.1372 -0.015,0.0142 -0.03,0.0257 -0.033,0.0257 -0.01,0 -0.1918,0.10641 -0.2938,0.1674 -0.023,0.0137 -0.073,0.0417 -0.111,0.0622 -0.038,0.0206 -0.086,0.0491 -0.1061,0.0633 -0.02,0.0143 -0.04,0.026 -0.044,0.026 0,0 -0.086,0.0468 -0.1826,0.10401 -0.097,0.0572 -0.179,0.10401 -0.183,0.10401 0,0 -0.024,0.0115 -0.044,0.0256 -0.02,0.0141 -0.071,0.0444 -0.1131,0.0674 -0.042,0.0229 -0.1473,0.0832 -0.234,0.13386 -0.087,0.0507 -0.1633,0.0921 -0.1699,0.0921 -0.01,0 -0.012,0.006 -0.012,0.0139 0,0.008 -0.01,0.0139 -0.013,0.0139 -0.01,0 -0.1264,0.0655 -0.265,0.14561 -0.1386,0.0801 -0.2575,0.14561 -0.2644,0.14561 -0.01,0 -0.012,0.006 -0.012,0.0139 0,0.008 -0.01,0.0139 -0.012,0.0139 -0.012,0 -0.2007,0.10621 -0.3034,0.17102 -0.032,0.0203 -0.062,0.037 -0.066,0.037 0,0 -0.048,0.025 -0.097,0.0555 -0.05,0.0305 -0.093,0.0555 -0.096,0.0555 0,0 -0.084,0.0468 -0.181,0.10401 -0.097,0.0572 -0.1815,0.10401 -0.1886,0.10401 -0.01,0 -0.013,0.006 -0.013,0.0122 0,0.007 -0.011,0.0157 -0.024,0.02 -0.026,0.008 -0.1047,0.0521 -0.3485,0.19455 -0.087,0.0507 -0.1627,0.0922 -0.1688,0.0922 -0.01,0 -0.013,0.005 -0.016,0.0104 0,0.006 -0.03,0.0237 -0.06,0.04 l -0.055,0.0295 -0.1317,-0.0792 z m 9.4579,0.0323 c -0.034,-0.0198 -0.1186,-0.0688 -0.1872,-0.10904 -0.069,-0.0402 -0.1466,-0.0855 -0.1733,-0.10063 -0.063,-0.0356 -0.1971,-0.11321 -0.3537,-0.20459 -0.069,-0.04 -0.1529,-0.0885 -0.1872,-0.10756 -0.034,-0.0191 -0.1779,-0.10186 -0.3189,-0.18389 -0.1412,-0.082 -0.2847,-0.1649 -0.319,-0.18417 -0.034,-0.0193 -0.1592,-0.091 -0.2774,-0.15948 -0.1182,-0.0684 -0.2368,-0.13675 -0.2635,-0.1518 -0.027,-0.015 -0.1047,-0.0603 -0.1733,-0.10051 -0.069,-0.0402 -0.1467,-0.0856 -0.1734,-0.10085 -0.027,-0.0152 -0.2888,-0.16652 -0.5824,-0.33618 -0.2937,-0.16965 -0.562,-0.3242 -0.5963,-0.34343 -0.094,-0.0526 -0.3131,-0.18019 -0.4263,-0.24813 -0.055,-0.0331 -0.1029,-0.0602 -0.1061,-0.0602 0,0 -0.067,-0.0364 -0.1424,-0.0809 -0.075,-0.0445 -0.1646,-0.0968 -0.1989,-0.11617 -0.034,-0.0194 -0.3027,-0.17409 -0.5963,-0.34383 -0.2937,-0.16972 -0.562,-0.32431 -0.5963,-0.34352 -0.034,-0.0192 -0.1235,-0.0714 -0.1982,-0.11608 -0.075,-0.0446 -0.138,-0.0811 -0.1407,-0.0811 0,0 -0.046,-0.0249 -0.096,-0.0555 -0.05,-0.0305 -0.094,-0.0555 -0.097,-0.0555 0,0 -0.067,-0.0364 -0.1424,-0.0809 -0.075,-0.0445 -0.1646,-0.0968 -0.199,-0.11618 -0.034,-0.0194 -0.2215,-0.12732 -0.416,-0.23985 -0.6156,-0.3562 -0.7127,-0.41214 -0.7766,-0.44759 -0.034,-0.019 -0.1061,-0.0609 -0.1594,-0.0929 -0.053,-0.0321 -0.1252,-0.074 -0.1595,-0.0933 -0.034,-0.0193 -0.2216,-0.12716 -0.4161,-0.23973 -0.1945,-0.11257 -0.3791,-0.2191 -0.4103,-0.23674 -0.031,-0.0176 -0.1248,-0.0716 -0.208,-0.11984 l -0.1513,-0.0878 v -3.36545 -3.36544 l 0.094,-0.0516 c 0.051,-0.0284 0.1092,-0.0622 0.1283,-0.0751 0.019,-0.0129 0.078,-0.0471 0.1317,-0.076 0.053,-0.0289 0.1137,-0.064 0.1339,-0.0781 0.02,-0.0141 0.04,-0.0256 0.044,-0.0256 0,0 0.086,-0.0468 0.182,-0.10401 0.096,-0.0572 0.1808,-0.10401 0.1881,-0.10401 0.01,0 0.013,-0.005 0.014,-0.0104 0,-0.006 0.014,-0.0171 0.031,-0.0254 0.051,-0.0249 0.1747,-0.0941 0.3404,-0.19122 0.086,-0.0506 0.1627,-0.092 0.17,-0.092 0.01,0 0.013,-0.006 0.013,-0.0139 0,-0.008 0.01,-0.0139 0.012,-0.0139 0.01,0 0.083,-0.0413 0.1699,-0.0919 0.2618,-0.15253 0.3231,-0.18675 0.3484,-0.19484 0.013,-0.004 0.024,-0.0133 0.024,-0.02 0,-0.007 0.01,-0.0122 0.012,-0.0122 0.012,0 0.2008,-0.10621 0.3034,-0.17102 0.032,-0.0204 0.061,-0.037 0.064,-0.037 0,0 0.047,-0.025 0.097,-0.0555 0.05,-0.0305 0.094,-0.0555 0.097,-0.0555 0,0 0.084,-0.0468 0.1805,-0.10401 0.096,-0.0572 0.181,-0.10401 0.1886,-0.10401 0.01,0 0.014,-0.006 0.014,-0.0139 0,-0.008 0.01,-0.0139 0.012,-0.0139 0.01,0 0.126,-0.0655 0.2653,-0.14562 0.1391,-0.0801 0.2585,-0.14561 0.2651,-0.14561 0.01,0 0.012,-0.006 0.012,-0.0139 0,-0.008 0.01,-0.0139 0.014,-0.0139 0.01,0 0.044,-0.0187 0.081,-0.0416 0.037,-0.0229 0.075,-0.0416 0.084,-0.0416 0.012,0 0.016,0.85171 0.016,3.34564 v 3.34564 l 0.4886,0.28121 c 0.5936,0.34162 0.522,0.3002 0.7357,0.42569 0.098,0.0574 0.181,0.10437 0.1851,0.10437 0,0 0.024,0.0115 0.044,0.0256 0.02,0.0141 0.071,0.0445 0.1131,0.0675 0.042,0.023 0.1324,0.0745 0.2011,0.1145 0.069,0.0399 0.1497,0.0868 0.1802,0.10409 0.03,0.0173 0.2147,0.12355 0.4091,0.23612 0.1946,0.11258 0.3818,0.22049 0.4161,0.23982 0.034,0.0193 0.1238,0.0716 0.1989,0.11608 0.075,0.0445 0.1389,0.0809 0.1418,0.0809 0,0 0.066,0.0364 0.1409,0.0809 0.075,0.0445 0.1636,0.0967 0.1979,0.11605 0.034,0.0193 0.2216,0.12728 0.4161,0.23986 0.1944,0.11258 0.3879,0.22366 0.4299,0.24685 0.042,0.0232 0.1012,0.0578 0.1317,0.0769 0.03,0.0191 0.099,0.0578 0.1525,0.086 0.053,0.0282 0.2563,0.14335 0.4508,0.25596 0.5861,0.33938 0.7113,0.41155 0.7765,0.44763 0.076,0.0422 0.2109,0.12129 0.2806,0.16489 0.029,0.0178 0.056,0.0323 0.06,0.0323 0,0 0.025,0.0116 0.046,0.0256 0.02,0.0141 0.071,0.0445 0.1131,0.0676 0.042,0.0231 0.1917,0.10912 0.3328,0.1912 0.1411,0.0821 0.2846,0.16499 0.319,0.18426 0.034,0.0193 0.1591,0.091 0.2773,0.15948 0.3051,0.17666 0.5686,0.32877 0.6171,0.35635 0.046,0.0261 0.2589,0.14951 0.3883,0.22514 0.046,0.0267 0.1113,0.0643 0.1456,0.0835 0.034,0.0192 0.1779,0.10198 0.319,0.18401 0.1411,0.082 0.2784,0.16137 0.3051,0.17633 0.2069,0.11594 0.3189,0.18571 0.3189,0.19852 0,0.008 -0.02,0.0255 -0.045,0.0384 -0.025,0.0128 -0.064,0.0345 -0.087,0.0482 -0.023,0.0137 -0.088,0.0514 -0.1456,0.0839 -0.057,0.0324 -0.1133,0.0649 -0.1248,0.0722 -0.02,0.0127 -0.2058,0.11917 -0.3328,0.19084 -0.034,0.0194 -0.1234,0.0716 -0.198,0.11609 -0.074,0.0445 -0.1384,0.0809 -0.1419,0.0809 0,0 -0.047,0.0249 -0.097,0.0555 -0.05,0.0305 -0.093,0.0555 -0.097,0.0555 0,0 -0.062,0.034 -0.1309,0.0756 -0.069,0.0416 -0.1516,0.0901 -0.1842,0.10777 -0.033,0.0177 -0.1064,0.0595 -0.1636,0.093 -0.182,0.10642 -0.3521,0.20426 -0.4022,0.23132 -0.027,0.0144 -0.051,0.0309 -0.053,0.0366 0,0.006 -0.01,0.0104 -0.015,0.0104 -0.01,0 -0.1256,0.0663 -0.2658,0.14737 -0.1403,0.0811 -0.2831,0.16317 -0.3174,0.18248 -0.034,0.0193 -0.084,0.0487 -0.111,0.0654 -0.027,0.0166 -0.077,0.046 -0.1109,0.0652 -0.034,0.0192 -0.084,0.0475 -0.111,0.0629 -0.311,0.1791 -0.4202,0.24229 -0.4821,0.27897 -0.1019,0.0603 -0.125,0.0628 -0.1974,0.0211 z m 3.7229,-2.7071 c -0.038,-0.0203 -0.071,-0.0417 -0.073,-0.0474 0,-0.006 -0.01,-0.0104 -0.017,-0.0104 -0.01,0 -0.083,-0.0415 -0.1687,-0.0922 -0.2333,-0.13711 -0.3206,-0.18596 -0.3476,-0.19456 -0.013,-0.004 -0.024,-0.0132 -0.024,-0.02 0,-0.007 -0.01,-0.0122 -0.013,-0.0122 -0.01,0 -0.092,-0.0468 -0.1886,-0.10401 -0.097,-0.0572 -0.1776,-0.10401 -0.1799,-0.10401 0,0 -0.044,-0.024 -0.092,-0.0533 -0.048,-0.0293 -0.1161,-0.0691 -0.1504,-0.0883 -0.034,-0.0193 -0.1176,-0.0671 -0.1849,-0.10618 -0.067,-0.0391 -0.1282,-0.0711 -0.1352,-0.0711 -0.01,0 -0.013,-0.006 -0.013,-0.0139 0,-0.008 -0.01,-0.0139 -0.012,-0.0139 -0.01,0 -0.1257,-0.0655 -0.2643,-0.14562 -0.1386,-0.0801 -0.2579,-0.14561 -0.265,-0.14561 -0.01,0 -0.013,-0.006 -0.013,-0.0139 0,-0.008 -0.01,-0.0139 -0.012,-0.0139 -0.01,0 -0.083,-0.0414 -0.1699,-0.092 -0.087,-0.0506 -0.1765,-0.10279 -0.1994,-0.11594 -0.023,-0.0132 -0.075,-0.0435 -0.115,-0.0675 -0.04,-0.0239 -0.076,-0.0435 -0.078,-0.0435 0,0 -0.084,-0.0468 -0.1807,-0.10401 -0.097,-0.0572 -0.179,-0.10401 -0.183,-0.10401 0,0 -0.024,-0.0117 -0.044,-0.026 -0.02,-0.0143 -0.068,-0.0428 -0.1061,-0.0633 -0.038,-0.0206 -0.088,-0.0485 -0.111,-0.0622 -0.1344,-0.0804 -0.2897,-0.1674 -0.2987,-0.1674 -0.01,0 -0.014,-0.009 -0.018,-0.0191 -0.01,-0.0198 0.014,-0.0502 0.036,-0.0502 0.01,0 0.07,-0.0336 0.1395,-0.0747 0.07,-0.041 0.158,-0.0919 0.1962,-0.11298 0.064,-0.0351 0.1837,-0.10489 0.3814,-0.22136 0.042,-0.0247 0.1043,-0.0606 0.1386,-0.0797 0.034,-0.0191 0.3027,-0.17359 0.5964,-0.34332 0.2936,-0.16973 0.5619,-0.32445 0.5963,-0.34383 0.034,-0.0194 0.1238,-0.0717 0.1989,-0.11617 0.075,-0.0445 0.1391,-0.0809 0.1424,-0.0809 0,0 0.051,-0.0271 0.1061,-0.0602 0.1144,-0.0687 0.3339,-0.1964 0.4262,-0.24808 0.034,-0.0192 0.2434,-0.13957 0.4646,-0.26749 0.4066,-0.23513 0.6199,-0.35816 0.7211,-0.41592 0.03,-0.0174 0.12,-0.0697 0.1988,-0.11629 0.079,-0.0466 0.146,-0.0846 0.1494,-0.0846 0,0 0.031,-0.0164 0.061,-0.0365 l 0.055,-0.0365 v -3.38191 c 0,-2.89406 0,-3.38191 0.02,-3.38191 0.02,0 0.121,0.0551 0.3521,0.19221 0.04,0.0239 0.076,0.0436 0.078,0.0436 0,0 0.084,0.0468 0.1806,0.104 0.097,0.0572 0.179,0.10401 0.183,0.10401 0,0 0.024,0.0117 0.044,0.026 0.02,0.0143 0.068,0.0428 0.1062,0.0633 0.038,0.0206 0.088,0.0485 0.1109,0.0622 0.1415,0.0846 0.29,0.16741 0.3001,0.16741 0.01,0 0.012,0.006 0.012,0.0139 0,0.008 0.01,0.0139 0.014,0.0139 0.01,0 0.065,0.0304 0.1282,0.0675 0.063,0.0371 0.1744,0.10265 0.2476,0.14562 0.073,0.0429 0.1402,0.0781 0.149,0.0781 0.01,0 0.016,0.006 0.016,0.0139 0,0.008 0.01,0.0139 0.012,0.0139 0.01,0 0.092,0.0468 0.1882,0.10402 0.097,0.0572 0.1778,0.10401 0.1803,0.10401 0,0 0.046,0.0249 0.096,0.0555 0.05,0.0305 0.094,0.0555 0.097,0.0555 0,0 0.085,0.0468 0.1814,0.10401 0.097,0.0572 0.1811,0.10401 0.1875,0.10401 0.01,0 0.014,0.005 0.016,0.0104 0,0.01 0.096,0.063 0.1605,0.093 0.017,0.008 0.031,0.0191 0.031,0.0248 0,0.006 0.01,0.0104 0.013,0.0104 0.01,0 0.081,0.0406 0.1654,0.0901 0.084,0.0496 0.1595,0.0901 0.1676,0.0901 0.01,0 0.015,0.006 0.015,0.0139 0,0.008 0.01,0.0139 0.013,0.0139 0.01,0 0.073,0.0352 0.1456,0.0783 l 0.1326,0.0783 v 6.80049 l -0.038,0.0195 c -0.021,0.0107 -0.093,0.0524 -0.16,0.0925 -0.067,0.0401 -0.1245,0.0729 -0.1278,0.0729 0,0 -0.076,0.0413 -0.1625,0.0918 -0.2427,0.14242 -0.4003,0.23393 -0.4685,0.27206 -0.048,0.0268 -0.7926,0.45661 -1.0782,0.62233 -0.025,0.0144 -0.065,0.0377 -0.09,0.0519 -0.025,0.0141 -0.1293,0.0745 -0.2323,0.13396 -0.1029,0.0595 -0.2683,0.15471 -0.3675,0.21155 -0.099,0.0568 -0.1865,0.10799 -0.1941,0.11367 -0.01,0.006 -0.048,0.0292 -0.09,0.0521 -0.042,0.023 -0.2354,0.13394 -0.4298,0.24652 -0.1945,0.11259 -0.3818,0.22052 -0.4161,0.23986 -0.034,0.0193 -0.1234,0.0716 -0.1979,0.11604 -0.075,0.0445 -0.138,0.0809 -0.1409,0.0809 0,0 -0.067,0.0364 -0.1418,0.081 -0.075,0.0445 -0.1711,0.10018 -0.2135,0.12367 l -0.077,0.0427 z"
       id="path4" />
  </g>
</svg>
