<?xml version="1.0" encoding="UTF-8" standalone="no"?>
<!-- Created with Inkscape (http://www.inkscape.org/) -->

<svg
   xmlns:dc="http://purl.org/dc/elements/1.1/"
   xmlns:cc="http://creativecommons.org/ns#"
   xmlns:rdf="http://www.w3.org/1999/02/22-rdf-syntax-ns#"
   xmlns:svg="http://www.w3.org/2000/svg"
   xmlns="http://www.w3.org/2000/svg"
   xmlns:sodipodi="http://sodipodi.sourceforge.net/DTD/sodipodi-0.dtd"
   xmlns:inkscape="http://www.inkscape.org/namespaces/inkscape"
   width="80.433334mm"
   height="60.325001mm"
   viewBox="0 0 80.433335 60.325001"
   version="1.1"
   id="svg8"
   inkscape:version="0.92.4 5da689c313, 2019-01-14"
   sodipodi:docname="AY.svg"
   inkscape:export-filename="/media/gobadri/01f0b433-191e-4a57-a8bf-de661da7cc46/2019/Bloomberg/TripleB3.png"
   inkscape:export-xdpi="72"
   inkscape:export-ydpi="72">
  <defs
     id="defs2" />
  <sodipodi:namedview
     id="base"
     pagecolor="#ffffff"
     bordercolor="#666666"
     borderopacity="1.0"
     inkscape:pageopacity="0.0"
     inkscape:pageshadow="2"
     inkscape:zoom="0.35000002"
     inkscape:cx="-17.367275"
     inkscape:cy="460.76438"
     inkscape:document-units="mm"
     inkscape:current-layer="layer1"
     showgrid="false"
     inkscape:snap-intersection-paths="true"
     inkscape:object-paths="true"
     showguides="false"
     inkscape:guide-bbox="true"
     inkscape:snap-object-midpoints="true"
     inkscape:snap-center="true"
     inkscape:window-width="1366"
     inkscape:window-height="674"
     inkscape:window-x="0"
     inkscape:window-y="26"
     inkscape:window-maximized="1"
     inkscape:snap-global="true"
     inkscape:snap-page="true">
    <sodipodi:guide
       position="3244.5475,335.64289"
       orientation="1,0"
       id="guide819"
       inkscape:locked="false" />
    <sodipodi:guide
       position="3244.5475,335.64289"
       orientation="0,1"
       id="guide821"
       inkscape:locked="false" />
  </sodipodi:namedview>
  <metadata
     id="metadata5">
    <rdf:RDF>
      <cc:Work
         rdf:about="">
        <dc:format>image/svg+xml</dc:format>
        <dc:type
           rdf:resource="http://purl.org/dc/dcmitype/StillImage" />
        <dc:title />
      </cc:Work>
    </rdf:RDF>
  </metadata>
  <g
     inkscape:label="Layer 1"
     inkscape:groupmode="layer"
     id="layer1"
     transform="translate(6827.6724,-716.51331)">
    <rect
       style="opacity:1;fill:#0055d4;fill-opacity:1;fill-rule:nonzero;stroke:none;stroke-width:9.99999905;stroke-linecap:round;stroke-linejoin:round;stroke-miterlimit:4;stroke-dasharray:none;stroke-dashoffset:0;stroke-opacity:1;paint-order:markers fill stroke"
       id="rect819"
       width="80.433334"
       height="60.325001"
       x="-6827.6724"
       y="716.51331" />
    <path
       style="color:#000000;font-style:normal;font-variant:normal;font-weight:normal;font-stretch:normal;font-size:medium;line-height:normal;font-family:sans-serif;font-variant-ligatures:normal;font-variant-position:normal;font-variant-caps:normal;font-variant-numeric:normal;font-variant-alternates:normal;font-feature-settings:normal;text-indent:0;text-align:start;text-decoration:none;text-decoration-line:none;text-decoration-style:solid;text-decoration-color:#000000;letter-spacing:normal;word-spacing:normal;text-transform:none;writing-mode:lr-tb;direction:ltr;text-orientation:mixed;dominant-baseline:auto;baseline-shift:baseline;text-anchor:start;white-space:normal;shape-padding:0;clip-rule:nonzero;display:inline;overflow:visible;visibility:visible;opacity:1;isolation:auto;mix-blend-mode:normal;color-interpolation:sRGB;color-interpolation-filters:linearRGB;solid-color:#000000;solid-opacity:1;vector-effect:none;fill:#ffffff;fill-opacity:1;fill-rule:nonzero;stroke:none;stroke-width:20;stroke-linecap:round;stroke-linejoin:round;stroke-miterlimit:4;stroke-dasharray:none;stroke-dashoffset:0;stroke-opacity:1;paint-order:markers fill stroke;color-rendering:auto;image-rendering:auto;shape-rendering:auto;text-rendering:auto;enable-background:accumulate"
       d="m -6772.9503,731.68239 a 1.1349279,1.1349279 0 0 0 -0.78,0.34342 l -2.6745,2.67482 a 1.1349279,1.1349279 0 0 0 0.8024,1.9371 h 2.6747 a 1.1349279,1.1349279 0 0 0 0.064,-2.26808 l 0.7388,-0.73883 a 1.1349279,1.1349279 0 0 0 -0.8249,-1.94843 z m -21.5079,2.17597 a 1.5132371,1.5132371 0 0 0 -1.054,2.59822 l 10.2194,10.21929 -5.8845,5.88451 -0.5427,-0.54265 4.2796,-4.27947 a 1.5132369,1.5132369 0 0 0 0,-2.13992 l -6.9773,-6.9773 a 1.5132369,1.5132369 0 0 0 -1.0859,-0.45835 1.5132369,1.5132369 0 0 0 -1.0538,2.5982 l 5.9075,5.90726 -5.8845,5.88448 -0.5275,-0.52724 4.2798,-4.27948 a 1.5132371,1.5132371 0 0 0 0,-2.13985 l -2.4998,-2.4995 a 1.5132371,1.5132371 0 0 0 -0.3475,-0.34758 l -4.1302,-4.13027 a 1.5132371,1.5132371 0 0 0 -1.0919,-0.44295 1.5132371,1.5132371 0 0 0 -1.0476,0.44295 l -4.28,4.27962 -4.2795,-4.27962 a 1.5132371,1.5132371 0 0 0 -1.0859,-0.45835 1.5132371,1.5132371 0 0 0 -1.0541,2.59827 l 5.2046,5.20425 a 1.5132371,1.5132371 0 0 0 0.2938,0.29384 l 0.4092,0.40915 -4.8375,4.83745 -0.5429,-0.5428 3.082,-3.08182 a 1.5132371,1.5132371 0 0 0 0,-2.13962 l -6.9774,-6.97735 a 1.5132371,1.5132371 0 0 0 -1.0857,-0.45835 1.5132371,1.5132371 0 0 0 -1.0541,2.59828 l 5.9076,5.90723 -5.9076,5.90756 a 1.5132371,1.5132371 0 1 0 2.1398,2.13953 l 1.7555,-1.75554 1.6127,1.61253 a 1.5132371,1.5132371 0 0 0 2.14,0 l 6.9772,-6.97706 a 1.5132371,1.5132371 0 0 0 0,-2.13985 l -0.5579,-0.55781 3.2099,-3.20981 2.1627,2.16261 -5.9075,5.90755 a 1.5132371,1.5132371 0 0 0 0,2.13962 l 2.6751,2.67475 a 1.5132371,1.5132371 0 0 0 2.1395,0 l 0.5577,-0.55775 1.5974,1.59715 a 1.5132369,1.5132369 0 0 0 2.1397,0 l 1.605,-1.60487 1.6124,1.61253 a 1.5132371,1.5132371 0 0 0 2.14,0 l 8.0243,-8.02412 a 1.5132371,1.5132371 0 0 0 0,-2.13985 l -11.2894,-11.28934 a 1.5132371,1.5132371 0 0 0 -1.0857,-0.45836 z m 5.3496,0 a 1.5132371,1.5132371 0 0 0 -1.0542,2.59822 l 10.2197,10.21929 -9.6045,9.6045 a 1.5132371,1.5132371 0 1 0 2.1394,2.13992 l 10.6747,-10.67438 a 1.5132371,1.5132371 0 0 0 0,-2.13985 l -11.2894,-11.28934 a 1.5132371,1.5132371 0 0 0 -1.0857,-0.45836 z m 21.3983,0 a 1.5132371,1.5132371 0 0 0 -1.054,2.59822 l 10.2195,10.21929 -6.9547,6.95454 a 1.5132371,1.5132371 0 1 0 2.14,2.13962 l 8.0241,-8.02412 a 1.5132371,1.5132371 0 0 0 0,-2.13985 l -11.289,-11.28934 a 1.5132371,1.5132371 0 0 0 -1.0859,-0.45836 z m -1.0375,4.312 a 1.5132371,1.5132371 0 0 0 -1.054,2.59827 l 5.9071,5.90724 -4.8374,4.83745 -0.535,-0.53491 0.3837,-0.38361 a 1.5132371,1.5132371 0 0 0 0.3456,-0.34576 l 2.5032,-2.50313 a 1.5132371,1.5132371 0 0 0 0,-2.13985 l -6.9771,-6.97735 a 1.5132371,1.5132371 0 0 0 -1.0923,-0.44295 1.5132371,1.5132371 0 0 0 -1.0477,0.44295 l -2.6746,2.67483 a 1.5132371,1.5132371 0 0 0 0,2.13987 l 5.9075,5.90723 -3.2329,3.23272 a 1.5132371,1.5132371 0 1 0 2.14,2.13961 l 1.605,-1.60486 1.6049,1.60486 a 1.5132371,1.5132371 0 0 0 2.1398,0 l 6.9774,-6.97706 a 1.5132371,1.5132371 0 0 0 0,-2.13985 l -6.9774,-6.97735 a 1.5132371,1.5132371 0 0 0 -1.0858,-0.45835 z m -5.334,3.66808 4.8377,4.83743 -0.5351,0.53513 -4.8375,-4.83765 z m -44.4241,3.32437 a 1.5130858,1.5130858 0 0 0 -1.5131,1.51306 1.5130858,1.5130858 0 0 0 1.5131,1.51308 1.5130858,1.5130858 0 0 0 1.5131,-1.51308 1.5130858,1.5130858 0 0 0 -1.5131,-1.51306 z m 21.9788,0.97816 0.5351,0.5349 -4.8374,4.83745 -0.5352,-0.53491 z m -10.3834,7.36182 a 1.5130858,1.5130858 0 0 0 -1.5129,1.51316 1.5130858,1.5130858 0 0 0 1.5129,1.51308 1.5130858,1.5130858 0 0 0 1.5131,-1.51308 1.5130858,1.5130858 0 0 0 -1.5131,-1.51316 z m 35.5035,1.31212 a 1.5130858,1.5130858 0 0 0 -1.5132,1.5131 1.5130858,1.5130858 0 0 0 1.5132,1.51314 1.5130858,1.5130858 0 0 0 1.5131,-1.51314 1.5130858,1.5130858 0 0 0 -1.5131,-1.5131 z m -38.6088,1.16169 a 1.5130858,1.5130858 0 0 0 -1.5131,1.51308 1.5130858,1.5130858 0 0 0 1.5131,1.51306 1.5130858,1.5130858 0 0 0 1.5131,-1.51306 1.5130858,1.5130858 0 0 0 -1.5131,-1.51308 z m 10.6635,0.036 a 1.5130858,1.5130858 0 0 0 -1.5131,1.51316 1.5130858,1.5130858 0 0 0 1.5131,1.51308 1.5130858,1.5130858 0 0 0 1.5131,-1.51308 1.5130858,1.5130858 0 0 0 -1.5131,-1.51316 z m -2.6469,2.63106 a 1.5130858,1.5130858 0 0 0 -1.5129,1.51307 1.5130858,1.5130858 0 0 0 1.5129,1.51306 1.5130858,1.5130858 0 0 0 1.5131,-1.51306 1.5130858,1.5130858 0 0 0 -1.5131,-1.51307 z"
       id="path1153"
       inkscape:connector-curvature="0" />
  </g>
</svg>
