<?xml version="1.0" encoding="UTF-8" standalone="no"?>
<!-- Created with Inkscape (http://www.inkscape.org/) -->

<svg
   xmlns:dc="http://purl.org/dc/elements/1.1/"
   xmlns:cc="http://creativecommons.org/ns#"
   xmlns:rdf="http://www.w3.org/1999/02/22-rdf-syntax-ns#"
   xmlns:svg="http://www.w3.org/2000/svg"
   xmlns="http://www.w3.org/2000/svg"
   xmlns:sodipodi="http://sodipodi.sourceforge.net/DTD/sodipodi-0.dtd"
   xmlns:inkscape="http://www.inkscape.org/namespaces/inkscape"
   width="80.433334mm"
   height="60.325001mm"
   viewBox="0 0 80.433335 60.325001"
   version="1.1"
   id="svg8"
   inkscape:version="0.92.4 5da689c313, 2019-01-14"
   sodipodi:docname="CairoAcademy.svg"
   inkscape:export-filename="/media/gobadri/01f0b433-191e-4a57-a8bf-de661da7cc46/2019/Bloomberg/TripleB3.png"
   inkscape:export-xdpi="72"
   inkscape:export-ydpi="72">
  <defs
     id="defs2" />
  <sodipodi:namedview
     id="base"
     pagecolor="#ffffff"
     bordercolor="#666666"
     borderopacity="1.0"
     inkscape:pageopacity="0.0"
     inkscape:pageshadow="2"
     inkscape:zoom="0.70000003"
     inkscape:cx="129.82838"
     inkscape:cy="228.44983"
     inkscape:document-units="mm"
     inkscape:current-layer="layer1"
     showgrid="false"
     inkscape:snap-intersection-paths="true"
     inkscape:object-paths="true"
     showguides="false"
     inkscape:guide-bbox="true"
     inkscape:snap-object-midpoints="true"
     inkscape:snap-center="true"
     inkscape:window-width="1366"
     inkscape:window-height="674"
     inkscape:window-x="0"
     inkscape:window-y="26"
     inkscape:window-maximized="1"
     inkscape:snap-global="true"
     inkscape:snap-page="true">
    <sodipodi:guide
       position="3244.5475,335.64289"
       orientation="1,0"
       id="guide819"
       inkscape:locked="false" />
    <sodipodi:guide
       position="3244.5475,335.64289"
       orientation="0,1"
       id="guide821"
       inkscape:locked="false" />
  </sodipodi:namedview>
  <metadata
     id="metadata5">
    <rdf:RDF>
      <cc:Work
         rdf:about="">
        <dc:format>image/svg+xml</dc:format>
        <dc:type
           rdf:resource="http://purl.org/dc/dcmitype/StillImage" />
        <dc:title />
      </cc:Work>
    </rdf:RDF>
  </metadata>
  <g
     inkscape:label="Layer 1"
     inkscape:groupmode="layer"
     id="layer1"
     transform="translate(6827.6724,-716.51331)">
    <rect
       style="opacity:1;fill:#f2f2f2;fill-opacity:1;fill-rule:nonzero;stroke:none;stroke-width:9.99999905;stroke-linecap:round;stroke-linejoin:round;stroke-miterlimit:4;stroke-dasharray:none;stroke-dashoffset:0;stroke-opacity:1;paint-order:markers fill stroke"
       id="rect819"
       width="80.433334"
       height="60.325001"
       x="-6827.6724"
       y="716.51331" />
    <g
       transform="matrix(0.05166851,0,0,0.05166851,-6430.3593,-152.09889)"
       id="g1184"
       style="stroke-width:3.73822594">
      <path
         style="color:#000000;font-style:normal;font-variant:normal;font-weight:normal;font-stretch:normal;font-size:medium;line-height:normal;font-family:sans-serif;font-variant-ligatures:normal;font-variant-position:normal;font-variant-caps:normal;font-variant-numeric:normal;font-variant-alternates:normal;font-feature-settings:normal;text-indent:0;text-align:start;text-decoration:none;text-decoration-line:none;text-decoration-style:solid;text-decoration-color:#000000;letter-spacing:normal;word-spacing:normal;text-transform:none;writing-mode:lr-tb;direction:ltr;text-orientation:mixed;dominant-baseline:auto;baseline-shift:baseline;text-anchor:start;white-space:normal;shape-padding:0;clip-rule:nonzero;display:inline;overflow:visible;visibility:visible;opacity:1;isolation:auto;mix-blend-mode:normal;color-interpolation:sRGB;color-interpolation-filters:linearRGB;solid-color:#000000;solid-opacity:1;vector-effect:none;fill:#00bfee;fill-opacity:1;fill-rule:nonzero;stroke:none;stroke-width:130.83790588;stroke-linecap:round;stroke-linejoin:round;stroke-miterlimit:4;stroke-dasharray:none;stroke-dashoffset:0;stroke-opacity:1;paint-order:markers fill stroke;color-rendering:auto;image-rendering:auto;shape-rendering:auto;text-rendering:auto;enable-background:accumulate"
         d="m -7135.8965,16918.752 a 17.50175,17.50175 0 0 0 -12.1914,30.051 l 42.6348,42.633 a 17.50175,17.50175 0 1 0 24.748,-24.748 l -42.6347,-42.635 a 17.50175,17.50175 0 0 0 -12.5567,-5.301 z m 299.2676,0.178 a 17.50175,17.50175 0 0 0 -12.1172,5.123 l -113.9883,113.988 a 17.50175,17.50175 0 1 0 24.7481,24.75 l 101.6133,-101.615 124.9218,124.922 -124.9218,124.922 -208.6504,-208.651 a 17.50175,17.50175 0 1 0 -24.7481,24.75 l 221.0254,221.024 a 17.50175,17.50175 0 0 0 24.7481,0 l 149.6718,-149.67 a 17.50175,17.50175 0 0 0 0,-24.75 l -149.6718,-149.67 a 17.50175,17.50175 0 0 0 -12.6309,-5.123 z m -185.4395,185.181 a 17.50175,17.50175 0 0 0 -12.0312,5.295 l -113.9883,113.989 a 17.50175,17.50175 0 0 0 0,24.748 l 149.6699,149.671 a 17.50175,17.50175 0 0 0 24.75,0 l 113.9883,-113.988 a 17.50175,17.50175 0 1 0 -24.75,-24.75 l -101.6133,101.615 -124.9218,-124.921 101.6132,-101.614 a 17.50175,17.50175 0 0 0 -12.7168,-30.045 z m 221.1954,149.662 a 17.50175,17.50175 0 0 0 -12.1915,30.053 l 101.6153,101.613 -124.9219,124.924 -101.6152,-101.615 a 17.50175,17.50175 0 1 0 -24.7481,24.748 l 113.9883,113.988 a 17.50175,17.50175 0 0 0 24.7481,0 l 149.6718,-149.672 a 17.50175,17.50175 0 0 0 0,-24.748 l -113.9902,-113.99 a 17.50175,17.50175 0 0 0 -12.5566,-5.303 z"
         id="path1180"
         inkscape:connector-curvature="0" />
      <path
         inkscape:connector-curvature="0"
         id="path1182"
         d="m -6885.1639,17588.059 c -5.7404,0 -10.4129,1.669 -14.0173,5.006 -3.6045,3.338 -5.4068,7.477 -5.4068,12.416 0,4.939 1.8023,9.078 5.4068,12.416 3.6044,3.337 8.2769,5.006 14.0173,5.006 5.7405,0 10.4129,-1.669 14.0174,-5.006 3.6045,-3.472 5.4067,-7.81 5.4067,-13.017 0,-4.806 -1.8022,-8.81 -5.4067,-12.014 -3.6045,-3.204 -8.2769,-4.807 -14.0174,-4.807 z m -215.6668,15.019 c -14.4179,0 -27.4339,3.137 -39.0483,9.411 -11.4809,6.141 -20.5588,14.752 -27.2337,25.832 -6.5415,10.947 -9.8124,23.363 -9.8124,37.247 0,13.884 3.2709,26.366 9.8124,37.446 6.6749,10.948 15.7528,19.558 27.2337,25.832 11.6144,6.142 24.5638,9.212 38.8482,9.212 12.1484,0 23.1621,-2.136 33.041,-6.408 9.8789,-4.273 18.1559,-10.48 24.8308,-18.623 l -20.826,-19.224 c -9.4784,11.08 -21.2264,16.62 -35.2438,16.62 -8.6774,0 -16.4204,-1.869 -23.2288,-5.607 -6.8085,-3.871 -12.1484,-9.211 -16.0198,-16.019 -3.738,-6.809 -5.6069,-14.551 -5.6069,-23.229 0,-8.678 1.8689,-16.42 5.6069,-23.229 3.8714,-6.808 9.2113,-12.082 16.0198,-15.819 6.8084,-3.872 14.5514,-5.808 23.2288,-5.808 14.0174,0 25.7654,5.473 35.2438,16.421 l 20.826,-19.224 c -6.6749,-8.01 -14.9519,-14.151 -24.8308,-18.423 -9.7455,-4.272 -20.6925,-6.408 -32.8409,-6.408 z m 119.9485,33.241 c -8.6774,0 -17.1547,1.135 -25.4317,3.404 -8.1434,2.27 -15.1521,5.474 -21.026,9.612 l 11.2139,21.827 c 3.8715,-3.07 8.5439,-5.473 14.0174,-7.209 5.607,-1.868 11.2807,-2.803 17.0212,-2.803 8.2769,0 14.4846,1.869 18.6231,5.607 4.1385,3.604 6.2077,8.811 6.2077,15.619 h -24.8308 c -15.7529,0 -27.434,2.871 -35.0434,8.611 -7.476,5.74 -11.214,13.617 -11.214,23.629 0,6.275 1.6019,11.882 4.8059,16.821 3.2039,4.94 7.8098,8.811 13.8172,11.614 6.141,2.804 13.3497,4.206 21.6267,4.206 16.0198,0 26.9669,-5.006 32.8408,-15.019 v 13.417 h 29.2362 v -61.477 c 0,-16.019 -4.472,-27.967 -13.4165,-35.844 -8.9444,-8.01 -21.7603,-12.015 -38.4477,-12.015 z m 207.2563,0 c -8.2769,0 -15.6191,1.335 -22.0271,4.005 -6.2744,2.67 -11.2807,6.608 -15.0187,11.815 v -14.218 h -29.8371 v 107.734 h 31.239 v -50.863 c 0,-10.012 2.5363,-17.489 7.6092,-22.428 5.073,-5.073 12.0816,-7.61 21.0261,-7.61 1.2015,0 3.5377,0.134 7.0086,0.401 z m 68.8854,0 c -11.3474,0 -21.5601,2.403 -30.6381,7.209 -8.9444,4.672 -15.953,11.214 -21.026,19.625 -5.073,8.41 -7.6096,17.955 -7.6096,28.635 0,10.68 2.5366,20.225 7.6096,28.635 5.073,8.41 12.0816,15.019 21.026,19.825 9.078,4.672 19.2907,7.009 30.6381,7.009 11.3474,0 21.4932,-2.337 30.4376,-7.009 8.9445,-4.806 15.9531,-11.415 21.0261,-19.825 5.0729,-8.41 7.6095,-17.955 7.6095,-28.635 0,-10.68 -2.5366,-20.225 -7.6095,-28.635 -5.073,-8.411 -12.0816,-14.953 -21.0261,-19.625 -8.9444,-4.806 -19.0902,-7.209 -30.4376,-7.209 z m -196.0427,1.602 v 107.734 h 31.2386 v -107.734 z m 196.0427,24.03 c 8.0099,0 14.5512,2.737 19.6242,8.21 5.2064,5.34 7.8099,12.549 7.8099,21.627 0,9.078 -2.6035,16.353 -7.8099,21.827 -5.073,5.34 -11.6143,8.01 -19.6242,8.01 -8.0099,0 -14.6181,-2.67 -19.8246,-8.01 -5.2065,-5.474 -7.8097,-12.749 -7.8097,-21.827 0,-9.078 2.6032,-16.287 7.8097,-21.627 5.2065,-5.473 11.8147,-8.21 19.8246,-8.21 z m -276.9426,38.648 h 21.4265 v 11.013 c -1.7355,4.807 -4.6726,8.478 -8.811,11.014 -4.1385,2.404 -8.8778,3.604 -14.2178,3.604 -5.4734,0 -9.812,-1.134 -13.016,-3.404 -3.0705,-2.402 -4.6057,-5.607 -4.6057,-9.612 0,-8.41 6.4081,-12.615 19.224,-12.615 z m 69.7782,66.452 v 32.312 c -2.3607,-3.099 -5.3117,-5.423 -8.8527,-6.972 -3.541,-1.623 -7.4138,-2.434 -11.6187,-2.434 -5.6804,0 -10.7707,1.254 -15.2707,3.762 -4.5,2.508 -8.0409,6.013 -10.6229,10.512 -2.5082,4.5 -3.7622,9.701 -3.7622,15.603 0,5.901 1.254,11.139 3.7622,15.713 2.582,4.5 6.1229,8.004 10.6229,10.512 4.5,2.508 9.5903,3.762 15.2707,3.762 4.3524,0 8.336,-0.848 11.9508,-2.545 3.6147,-1.696 6.6026,-4.168 8.9633,-7.414 v 9.295 h 10.1802 v -82.106 z m -229.9423,4.647 -35.0779,77.459 h 11.3977 l 8.5203,-19.364 h 41.1641 l 8.5203,19.364 h 11.6191 l -35.1886,-77.459 z m 5.4222,11.288 16.7091,37.954 h -33.4183 z m 75.6883,6.971 c -5.9754,0 -11.3237,1.291 -16.045,3.872 -4.6476,2.509 -8.2993,6.049 -10.955,10.624 -2.6558,4.5 -3.9836,9.626 -3.9836,15.381 0,5.754 1.3278,10.918 3.9836,15.492 2.6557,4.5 6.3074,8.041 10.955,10.622 4.7213,2.582 10.0696,3.873 16.045,3.873 5.3115,0 10.0327,-1.069 14.1638,-3.209 4.205,-2.213 7.4509,-5.348 9.7378,-9.405 l -8.0778,-5.09 c -1.8443,2.803 -4.1312,4.905 -6.8607,6.307 -2.7295,1.402 -5.7541,2.102 -9.0737,2.102 -3.8361,0 -7.3033,-0.848 -10.4016,-2.545 -3.0246,-1.697 -5.4223,-4.094 -7.1927,-7.192 -1.6968,-3.172 -2.5451,-6.824 -2.5451,-10.955 0,-4.058 0.8483,-7.635 2.5451,-10.734 1.7704,-3.171 4.1681,-5.606 7.1927,-7.303 3.0983,-1.697 6.5655,-2.545 10.4016,-2.545 3.3196,0 6.3442,0.701 9.0737,2.102 2.7295,1.402 5.0164,3.505 6.8607,6.308 l 8.0778,-5.201 c -2.2869,-4.057 -5.5328,-7.156 -9.7378,-9.295 -4.1311,-2.139 -8.8523,-3.209 -14.1638,-3.209 z m 58.9796,0 c -4.7213,0 -9.1848,0.664 -13.3897,1.991 -4.2049,1.254 -7.8194,3.099 -10.844,5.533 l 4.426,7.967 c 2.2869,-1.917 5.0903,-3.43 8.41,-4.536 3.3196,-1.18 6.713,-1.771 10.1802,-1.771 5.1639,0 9.074,1.218 11.7297,3.652 2.6558,2.435 3.9836,5.938 3.9836,10.512 v 2.102 h -16.8198 c -8.1886,0 -14.1638,1.587 -17.9261,4.759 -3.7623,3.098 -5.6435,7.23 -5.6435,12.393 0,5.164 1.9547,9.332 5.8646,12.504 3.9836,3.173 9.2584,4.758 15.824,4.758 4.5,0 8.3729,-0.7 11.6188,-2.102 3.3196,-1.475 5.8646,-3.577 7.6351,-6.307 v 7.745 h 10.0698 v -35.409 c 0,-7.893 -2.1761,-13.832 -6.5286,-17.816 -4.2787,-3.983 -10.4754,-5.975 -18.5901,-5.975 z m 144.6267,0 c -5.6065,0 -10.6599,1.291 -15.1599,3.872 -4.4262,2.509 -7.9303,6.049 -10.5123,10.624 -2.5082,4.573 -3.7622,9.7 -3.7622,15.381 0,5.754 1.291,10.918 3.8729,15.492 2.6558,4.573 6.3813,8.151 11.1764,10.733 4.795,2.508 10.2907,3.762 16.4875,3.762 4.8688,0 9.2584,-0.811 13.1682,-2.434 3.9837,-1.623 7.3031,-3.983 9.9589,-7.082 l -5.8649,-6.86 c -4.2787,4.721 -9.922,7.081 -16.9302,7.081 -5.7541,0 -10.586,-1.549 -14.4959,-4.647 -3.836,-3.172 -6.086,-7.34 -6.75,-12.505 h 47.5819 c 0.1475,-1.327 0.2213,-2.397 0.2213,-3.208 0,-5.902 -1.254,-11.14 -3.7622,-15.713 -2.4344,-4.575 -5.8647,-8.115 -10.2909,-10.624 -4.3525,-2.581 -9.332,-3.872 -14.9386,-3.872 z m 74.1392,0 c -4.4262,0 -8.3729,0.811 -11.8401,2.434 -3.4673,1.549 -6.2703,3.836 -8.4096,6.861 v -8.742 h -10.1806 v 58.647 h 10.623 v -30.208 c 0,-6.271 1.5862,-11.066 4.7583,-14.386 3.1722,-3.393 7.4507,-5.089 12.836,-5.089 4.8688,0 8.5943,1.438 11.1763,4.315 2.6558,2.877 3.9836,7.155 3.9836,12.836 v 32.532 h 10.6229 v -30.208 c 0,-6.271 1.586,-11.066 4.7581,-14.386 3.1721,-3.393 7.451,-5.089 12.8363,-5.089 4.8688,0 8.594,1.438 11.176,4.315 2.6557,2.877 3.9839,7.155 3.9839,12.836 v 32.532 h 10.6229 v -33.75 c 0,-8.409 -2.1765,-14.753 -6.5289,-19.032 -4.2787,-4.279 -10.1066,-6.418 -17.4837,-6.418 -4.9426,0 -9.4057,0.959 -13.3893,2.877 -3.9098,1.918 -6.9713,4.573 -9.1844,7.967 -1.918,-3.541 -4.6476,-6.234 -8.1885,-8.078 -3.541,-1.844 -7.5984,-2.766 -12.1722,-2.766 z m 75.1353,0.553 25.8935,58.537 -1.8813,4.094 c -1.4016,3.32 -2.9875,5.644 -4.758,6.971 -1.6967,1.402 -3.836,2.103 -6.418,2.103 -3.9836,0 -7.4876,-1.439 -10.5122,-4.316 l -4.537,7.968 c 1.7705,1.77 3.9836,3.098 6.6393,3.983 2.7295,0.959 5.5329,1.439 8.4099,1.439 4.7213,0 8.7418,-1.218 12.0615,-3.652 3.3935,-2.434 6.3441,-6.639 8.8524,-12.615 l 28.4385,-64.512 h -10.4015 l -20.2501,46.918 -20.4714,-46.918 z m -149.2745,8.41 c 5.0902,0 9.3318,1.586 12.7253,4.758 3.4672,3.098 5.4961,7.119 6.0862,12.062 h -37.623 c 0.5902,-5.017 2.5818,-9.075 5.9753,-12.173 3.4672,-3.098 7.7461,-4.647 12.8362,-4.647 z m -74.3608,0.332 c 3.6885,0 7.0452,0.848 10.0698,2.545 3.0246,1.697 5.3854,4.132 7.0821,7.303 1.6967,3.099 2.545,6.676 2.545,10.734 0,4.057 -0.8483,7.672 -2.545,10.844 -1.6967,3.099 -4.0575,5.533 -7.0821,7.303 -3.0246,1.697 -6.3813,2.545 -10.0698,2.545 -3.7623,0 -7.1556,-0.848 -10.1802,-2.545 -2.9508,-1.77 -5.3116,-4.204 -7.0821,-7.303 -1.6967,-3.172 -2.545,-6.787 -2.545,-10.844 0,-4.058 0.8483,-7.635 2.545,-10.734 1.7705,-3.171 4.1313,-5.606 7.0821,-7.303 3.0246,-1.697 6.4179,-2.545 10.1802,-2.545 z m -72.1472,23.791 h 16.3771 v 8.188 c -1.3279,3.32 -3.4671,5.902 -6.418,7.746 -2.9508,1.771 -6.4551,2.657 -10.5125,2.657 -4.0574,0 -7.2296,-0.849 -9.5164,-2.546 -2.2869,-1.697 -3.4302,-4.021 -3.4302,-6.971 0,-6.049 4.5,-9.074 13.5,-9.074 z"
         style="font-style:normal;font-variant:normal;font-weight:bold;font-stretch:normal;font-size:335.6463623px;line-height:1.25;font-family:Montserrat;-inkscape-font-specification:'Montserrat Bold';letter-spacing:0px;word-spacing:0px;fill:#666666;fill-opacity:1;stroke:none;stroke-width:0.98907191" />
    </g>
  </g>
</svg>
