<?xml version="1.0" encoding="UTF-8" standalone="no"?>
<!-- Created with Inkscape (http://www.inkscape.org/) -->

<svg
   xmlns:dc="http://purl.org/dc/elements/1.1/"
   xmlns:cc="http://creativecommons.org/ns#"
   xmlns:rdf="http://www.w3.org/1999/02/22-rdf-syntax-ns#"
   xmlns:svg="http://www.w3.org/2000/svg"
   xmlns="http://www.w3.org/2000/svg"
   xmlns:xlink="http://www.w3.org/1999/xlink"
   xmlns:sodipodi="http://sodipodi.sourceforge.net/DTD/sodipodi-0.dtd"
   xmlns:inkscape="http://www.inkscape.org/namespaces/inkscape"
   width="80.433334mm"
   height="60.324997mm"
   viewBox="0 0 80.433335 60.324997"
   version="1.1"
   id="svg8"
   inkscape:version="0.92.4 5da689c313, 2019-01-14"
   sodipodi:docname="CitySport.svg"
   inkscape:export-filename="/media/gobadri/01f0b433-191e-4a57-a8bf-de661da7cc46/2019/Bloomberg/TripleB3.png"
   inkscape:export-xdpi="72"
   inkscape:export-ydpi="72">
  <defs
     id="defs2">
    <radialGradient
       id="radialGradient1895"
       cx="1623.1"
       cy="7733.5"
       r="1648.8"
       gradientTransform="matrix(0.51896,-0.12191,0.0086537,0.036838,-2385.4,51.82)"
       gradientUnits="userSpaceOnUse">
      <stop
         stop-color="#4d4d4d"
         offset="0"
         id="stop8" />
      <stop
         stop-color="#1a1a1a"
         offset="1"
         id="stop10" />
    </radialGradient>
    <radialGradient
       id="radialGradient1887"
       cx="1476.2"
       cy="7637.2002"
       r="1653.7"
       gradientTransform="matrix(0.59527,-0.21363,0.016254,0.045291,-2568,103.92)"
       gradientUnits="userSpaceOnUse"
       xlink:href="#linearGradient1885-3" />
    <linearGradient
       id="linearGradient1885-3">
      <stop
         stop-color="#ffe680"
         offset="0"
         id="stop2" />
      <stop
         stop-color="#d4aa00"
         offset="1"
         id="stop4" />
    </linearGradient>
    <radialGradient
       id="radialGradient1913"
       cx="1635.4"
       cy="7557.2998"
       r="1339.8"
       gradientTransform="matrix(0.57052,-0.29723,0.030608,0.05875,-2637.2,162.14)"
       gradientUnits="userSpaceOnUse"
       xlink:href="#linearGradient1885-3" />
  </defs>
  <sodipodi:namedview
     id="base"
     pagecolor="#ffffff"
     bordercolor="#666666"
     borderopacity="1.0"
     inkscape:pageopacity="0.0"
     inkscape:pageshadow="2"
     inkscape:zoom="0.49497477"
     inkscape:cx="84.939243"
     inkscape:cy="208.27826"
     inkscape:document-units="mm"
     inkscape:current-layer="layer1"
     showgrid="false"
     inkscape:snap-intersection-paths="true"
     inkscape:object-paths="true"
     showguides="false"
     inkscape:guide-bbox="true"
     inkscape:snap-object-midpoints="true"
     inkscape:snap-center="true"
     inkscape:window-width="1366"
     inkscape:window-height="674"
     inkscape:window-x="0"
     inkscape:window-y="26"
     inkscape:window-maximized="1"
     inkscape:snap-global="true"
     inkscape:snap-page="true">
    <sodipodi:guide
       position="3244.5475,335.64288"
       orientation="1,0"
       id="guide819"
       inkscape:locked="false" />
    <sodipodi:guide
       position="3244.5475,335.64288"
       orientation="0,1"
       id="guide821"
       inkscape:locked="false" />
  </sodipodi:namedview>
  <metadata
     id="metadata5">
    <rdf:RDF>
      <cc:Work
         rdf:about="">
        <dc:format>image/svg+xml</dc:format>
        <dc:type
           rdf:resource="http://purl.org/dc/dcmitype/StillImage" />
        <dc:title />
      </cc:Work>
    </rdf:RDF>
  </metadata>
  <g
     inkscape:label="Layer 1"
     inkscape:groupmode="layer"
     id="layer1"
     transform="translate(6827.6724,-716.51331)">
    <rect
       y="716.51331"
       x="-6827.6724"
       height="60.324997"
       width="80.433334"
       id="rect986"
       style="opacity:1;fill:#f2f2f2;fill-opacity:1;fill-rule:nonzero;stroke:none;stroke-width:9.99999905;stroke-linecap:round;stroke-linejoin:round;stroke-miterlimit:4;stroke-dasharray:none;stroke-dashoffset:0;stroke-opacity:1;paint-order:markers fill stroke" />
    <g
       transform="matrix(0.04196276,0,0,0.04196276,-6725.5372,741.31485)"
       id="g42"
       style="stroke-width:23.83065224">
      <g
         id="g26"
         style="stroke-width:23.83065224">
        <path
           inkscape:connector-curvature="0"
           d="m -1482,-373.21 a 961.51,961.51 0 0 0 -408.11,92.06 830.19,830.19 0 0 0 -21.105,179.92 830.19,830.19 0 0 0 435.04,729.95 830.19,830.19 0 0 0 436.32,-729.95 830.19,830.19 0 0 0 -18.873,-172.48 961.51,961.51 0 0 0 -423.28,-99.497 z"
           style="fill:#ad0417;fill-rule:evenodd;stroke-width:0;paint-order:markers stroke fill"
           id="path18" />
        <path
           inkscape:connector-curvature="0"
           d="m -1482,-373.21 a 961.51,961.51 0 0 0 -26.805,1.4102 v 981.25 a 830.19,830.19 0 0 0 32.639,19.27 830.19,830.19 0 0 0 33.913,-20.528 v -980.17 a 961.51,961.51 0 0 0 -39.747,-1.2273 z m -63.107,3.3202 a 961.51,961.51 0 0 0 -66.552,6.9076 v 899.07 a 830.19,830.19 0 0 0 66.552,49.975 z m 139.15,0.76118 v 955.34 a 830.19,830.19 0 0 0 66.553,-49.887 v -898.18 a 961.51,961.51 0 0 0 -66.553,-7.2802 z m -242.01,11.727 a 961.51,961.51 0 0 0 -66.552,14.566 v 777.85 a 830.19,830.19 0 0 0 66.552,69.201 z m 344.86,2.5409 v 857.85 a 830.19,830.19 0 0 0 66.552,-69.725 v -773.81 a 961.51,961.51 0 0 0 -66.552,-14.319 z m -447.72,21.393 a 961.51,961.51 0 0 0 -66.552,22.815 v 591.13 a 830.19,830.19 0 0 0 66.552,107.13 z m 550.57,4.5119 v 715.62 a 830.19,830.19 0 0 0 66.552,-105.62 v -587.24 a 961.51,961.51 0 0 0 -66.552,-22.751 z"
           style="fill:#9d0415;fill-rule:evenodd;stroke-width:23.83065224;paint-order:markers stroke fill"
           id="path20" />
        <path
           style="fill:url(#radialGradient1895);stroke-width:23.83065224"
           inkscape:connector-curvature="0"
           d="m -1826.6,-307.25 a 961.51,961.51 0 0 0 -63.493,26.101 830.19,830.19 0 0 0 -21.105,179.92 830.19,830.19 0 0 0 101.65,397.86 830.19,830.19 0 0 0 309.24,317.1 c -363.55,-234.28 -383.55,-725.22 -326.29,-920.98 z m 326.29,920.98 c 3.2183,2.0739 6.4615,4.1291 9.7338,6.1624 a 830.19,830.19 0 0 1 -9.7338,-6.1624 z m 376.25,-915.77 c 55.107,198.08 32.824,678.42 -322.09,912.06 a 830.19,830.19 0 0 0 187.27,-151.61 830.19,830.19 0 0 0 0.8314,-0.93585 830.19,830.19 0 0 0 51.188,-61.656 830.19,830.19 0 0 0 3.5181,-4.8607 830.19,830.19 0 0 0 42.056,-62.42 830.19,830.19 0 0 0 5.5738,-9.5912 830.19,830.19 0 0 0 33.152,-61.721 830.19,830.19 0 0 0 6.8249,-15.021 830.19,830.19 0 0 0 24.722,-59.652 830.19,830.19 0 0 0 7.0993,-20.967 830.19,830.19 0 0 0 16.995,-56.356 830.19,830.19 0 0 0 6.2792,-27.25 830.19,830.19 0 0 0 10.158,-52.006 830.19,830.19 0 0 0 4.2788,-33.65 830.19,830.19 0 0 0 4.6917,-50.357 830.19,830.19 0 0 0 1.6748,-43.2 830.19,830.19 0 0 0 -18.873,-172.48 961.51,961.51 0 0 0 -65.354,-28.324 z m -322.09,912.06 a 830.19,830.19 0 0 1 -5.69,3.7109 c 1.9072,-1.2291 3.8016,-2.4678 5.69,-3.7109 z m -5.69,3.7109 a 830.19,830.19 0 0 1 -9.7312,6.1604 c 3.2713,-2.0327 6.5138,-4.0871 9.7312,-6.1604 z"
           id="path22" />
        <path
           style="fill:url(#radialGradient1887);stroke-width:23.83065224"
           inkscape:connector-curvature="0"
           d="m -1878.7,-286.3 a 961.51,961.51 0 0 0 -11.475,5.1501 830.19,830.19 0 0 0 -21.105,179.92 830.19,830.19 0 0 0 262.07,604.41 c -293.24,-299.42 -257.52,-653.61 -229.49,-789.48 z m 803.61,5.5222 c 28.592,143.69 60.488,508.41 -255.94,808.89 a 830.19,830.19 0 0 0 236.32,-334.87 830.19,830.19 0 0 0 2.4489,-7.2321 830.19,830.19 0 0 0 22.886,-70.455 830.19,830.19 0 0 0 4.0049,-17.38 830.19,830.19 0 0 0 13.564,-62.39 830.19,830.19 0 0 0 3.5646,-28.036 830.19,830.19 0 0 0 6.2012,-54.119 830.19,830.19 0 0 0 2.127,-54.864 830.19,830.19 0 0 0 -18.873,-172.48 961.51,961.51 0 0 0 -16.302,-7.0652 z"
           id="path24" />
      </g>
      <path
         style="fill:#1a1a1a;stroke-width:23.83065224"
         inkscape:connector-curvature="0"
         d="m -1806.1,214.23 21.934,-57.483 -6.0508,-9.0763 21.178,-44.625 -3.7818,-12.102 27.229,-53.701 -2.2691,-21.934 27.229,-37.818 97.57,-74.123 121.77,-35.549 103.62,-3.7818 67.316,8.3199 68.828,14.371 c 0,0 13.614,2.6472 10.589,15.505 -3.0254,12.858 15.127,10.967 15.127,10.967 l 58.996,23.825 33.28,21.178 17.396,26.094 5.6726,35.927 -7.5635,39.331 -17.018,37.061 3.7818,-35.549 -5.6726,-34.036 -6.8072,-0.75636 -35.549,5.6727 h -10.967 l -67.694,111.18 6.8072,79.796 17.774,47.65 -102.49,-49.163 -6.429,13.614 -16.64,21.556 -34.036,-10.967 9.4544,40.465 -7.5635,23.069 -34.036,-19.665 -19.287,-24.582 -9.4545,10.589 -21.556,-28.742 -7.5636,-26.472 -27.985,7.5636 -59.374,43.112 -14.371,11.724 c 0,0 -7.5636,15.505 -9.4545,16.262 -1.8909,0.75634 -88.116,32.901 -88.116,32.901 l -9.8326,-18.909 c 0,0 -38.196,22.312 -39.709,22.691 -1.5127,0.3782 -32.593,20.518 -32.593,20.518 -1.3005,-19.074 0.262,-37.145 -5.8225,-57.893 -1.6032,-5.4669 -36.348,0.94789 -40.72,-4.3565 0.7027,-2.5893 7.1149,-7.1613 14.617,-15.013 -3.4114,-35.5 0.033,-43.577 0.2281,-64.651 z"
         id="path28" />
      <path
         inkscape:connector-curvature="0"
         d="m -1429.7,-139.81 c -97.218,-0.21706 -220.98,22.259 -312.31,122.29 l 24.149,-13.36 -52.761,46.833 30.826,-19.563 c 0,0 -37.94,56.317 -42.683,91.294 0,0 5.3351,-27.862 23.12,-40.904 0,0 -40.904,91.887 -42.683,104.93 0,0 13.042,-29.641 24.898,-34.383 0,0 -24.898,29.641 -34.976,80.623 0,0 9.4851,-29.345 24.898,-42.387 -17.447,51.041 -28.69,51.067 -18.914,121.02 -3.4205,-41.42 5.5992,-67.414 23.464,-68.577 -5.2058,-1.6791 -14.591,-2.5422 -20.54,4.192 17.25,-40.971 36.33,-84.788 51.141,-85.514 -9.469,-8.0201 -23.511,11.395 -36.05,21.798 25.519,-38.548 41.536,-69.188 57.009,-67.908 -13.01,-9.618 -22.995,3.4568 -33.954,9.2222 20.5,-53.389 36.23,-60.908 49.464,-60.782 -7.3291,-8.4246 -19.064,-2.3212 -30.601,-1.6769 11.278,-10.915 36.386,-35.617 53.656,-40.661 -14.487,-0.49766 -29.412,7.5262 -36.469,12.995 0,0 126.17,-161.39 376.01,-127.85 0,0 -14.671,5.8681 -20.54,2.0955 0,0 8.3835,12.156 27.666,12.156 0,0 -53.236,1.2578 -67.908,-11.318 0,0 2.9343,9.2219 27.247,18.025 74.636,11.942 152.75,-22.159 131.66,14.323 l -0.354,0.48731 c 0.015,0.01244 0.031,0.02434 0.045,0.03667 -0.048,0.08181 -0.094,0.16142 -0.1431,0.24392 0,0 0.118,-0.0962 0.2211,-0.18087 10.132,8.3681 25.921,12.135 44.684,18.824 18.838,6.7152 39.28,14.581 55.489,26.836 16.209,12.256 28.226,28.692 30.772,53.293 2.1387,20.662 -3.5565,45.568 -18.728,80.075 0.5495,-3.3189 1.9856,-4.951 2.4138,-8.6522 2.1026,-18.172 2.3464,-39.911 -6.5939,-54.598 -0.6469,-1.0624 -1.9438,-1.5344 -3.1223,-1.1364 -34.382,11.597 -57.007,5.8426 -78.79,-2.9817 -12.034,-18.698 -44.132,-44.347 -71.969,-48.838 -45.023,-7.2647 -88.907,-74.308 -121.06,-65.561 -32.152,8.7472 -67.192,13.03 -81.049,13.502 7.7754,1.1722 18.265,2.0599 30.122,2.5022 -3.3473,6.0659 -4.2099,13.369 -2.4649,20.87 4.6298,19.678 25.65,35.631 46.948,35.631 21.3,0 34.814,-15.952 30.183,-35.631 -1.8893,-7.9505 -6.6009,-15.667 -13.385,-21.921 31.312,4.8131 70.311,61.242 -27.145,82.581 0,0 16.836,6.4602 88.83,-3.2106 68.451,-9.1949 83.256,-6.8327 117.1,18.469 -1.4348,-0.6038 -2.8688,-1.2164 -4.3051,-1.8355 -24.476,-10.55 -51.952,-21.1 -90.538,-13.222 48.376,-5.1832 68.351,8.7028 88.433,18.106 11.934,5.1436 24.225,9.9809 38.275,12.073 -13.374,13.211 -62.788,64.425 -67.674,104.58 -7.7066,-13.622 -18.202,-23.496 -28.862,-36.117 48.514,66.022 6.574,111.55 44.568,154.94 -57.13,-48.2 -127.47,-44.616 -127.47,-44.616 10.42,13.227 16.163,26.094 17.097,35.504 -30.234,0 -52.761,-8.2997 -52.761,-8.2997 22.527,10.078 9.8919,62.097 9.8919,62.097 -2.2596,-13.775 -42.977,-15.175 -44.223,-41.693 8.3838,-18.856 22.546,-37.577 36.264,-49.726 -41.918,11.737 -54.836,54.789 -54.836,54.789 -27.666,-28.505 22.955,-69.733 22.955,-69.733 -69.585,-8.3836 -111.5,46.949 -111.5,46.949 -1.6767,-20.121 15.091,-36.05 15.091,-36.05 -28.505,5.0302 -80.483,51.979 -80.483,51.979 0.8384,-9.2221 24.313,-32.696 24.313,-32.696 l -84.675,12.575 20.959,-20.121 c -32.756,1.5936 -112.59,11.083 -159.96,77.939 38.456,-43.984 124.75,-60.333 124.75,-60.333 l -27.666,21.798 c 17.606,-10.06 88.867,0 88.867,0 -9.2221,9.2221 -4.192,39.403 -4.192,39.403 4.192,-19.282 53.656,-44.433 53.656,-44.433 -13.414,17.606 1.6763,51.979 1.6763,51.979 25.99,-59.524 85.514,-73.776 85.514,-73.776 -3.3534,45.272 49.464,82.16 49.464,82.16 -9.49,-10.454 -9.4777,-26.035 -4.1599,-42.413 0.3146,34.116 55.788,49.355 55.788,49.355 24.898,-45.054 3.854,-64.043 3.854,-64.043 48.611,33.198 94.851,24.898 94.851,24.898 -16.599,-35.569 -45.054,-52.168 -45.054,-52.168 163.47,59.372 119.51,144.73 115.54,151.76 36.537,-63.437 -28.341,-144.92 -27.215,-180.21 0.7439,-23.318 -2.2365,-39.554 -7.4807,-52.318 l 64.502,-113.76 c 14.061,1.8944 29.899,1.005 48.887,-5.0612 6.72,12.71 6.9317,32.531 4.9734,49.456 -1.1265,10.608 -2.403,28.344 -2.403,28.344 23.272,-33.461 31.991,-73.62 29.291,-99.705 -2.7,-26.085 -15.81,-44.099 -32.856,-56.987 -17.045,-12.888 -37.987,-20.859 -56.91,-27.605 -18.649,-6.6477 -33.73,-11.762 -42.433,-18.8 3.8419,-7.4799 2.068,-21.457 -53.303,-30.882 -27.705,-4.7158 -72.611,-11.504 -125.32,-11.622 z m 9.6216,59.648 c 9.0755,5.9317 15.575,14.611 17.792,23.759 4.1357,17.305 -7.9358,31.333 -26.963,31.333 -19.027,-1.85e-4 -37.804,-14.028 -41.941,-31.333 -2.0074,-8.4635 -0.1638,-16.561 5.1114,-22.451 14.512,0.31485 30.569,-0.03273 46,-1.3084 z m -19.18,13.175 c -8.2691,-1.33e-4 -13.515,6.1933 -11.718,13.833 1.7975,7.6399 9.9582,13.833 18.227,13.833 8.2692,1.32e-4 13.515,-6.1933 11.718,-13.833 -1.7975,-7.6399 -9.9582,-13.833 -18.227,-13.833 z m -322.03,339.54 c -13.015,1.7492 -53.835,8.8752 -75.066,34.885 10.015,-11.949 43.011,-8.6437 49.915,-9.7337 l -22.24,34.054 c 15.724,-20.494 59.339,-40.77 78.41,-44.114 0,0 -25.99,-4.1918 -36.05,2.5151 z m 166.47,9.1395 c 0,0 -15.562,19.365 -60.834,24.395 -29.969,3.3298 -36.423,9.2303 -37.364,12.84 l -4.5543,-29.607 c -32.494,20.099 -73.328,61.011 -79.262,26.367 -5.2626,23.923 -9.0634,71.014 3.5662,89.865 -9.9411,-27.026 50.634,-75.889 67.312,-81.021 l 6.7071,46.11 c 0,0 15.929,-42.757 61.201,-46.949 45.272,-4.1918 43.227,-42.001 43.227,-42.001 z"
         style="fill:url(#radialGradient1913);stroke-width:23.83065224;paint-order:markers stroke fill"
         id="path30" />
      <g
         style="fill:#dbb313;fill-rule:evenodd;stroke-width:23.83065224;shape-rendering:auto"
         id="g38">
        <path
           inkscape:connector-curvature="0"
           d="m -1475.3,446.54 a 1.1371,1.1371 0 0 0 -1.1248,0.79321 l -10.166,32.129 -33.698,-0.26044 a 1.1371,1.1371 0 0 0 -0.6701,2.062 l 27.415,19.597 -10.66,31.968 a 1.1371,1.1371 0 0 0 1.7538,1.2745 l 27.109,-20.017 27.109,20.017 a 1.1371,1.1371 0 0 0 0.6666,0.22225 1.1371,1.1371 0 0 0 1.0872,-1.4967 l -10.661,-31.968 27.415,-19.597 a 1.1371,1.1371 0 0 0 -0.6701,-2.062 l -33.698,0.26044 -10.166,-32.129 a 1.1371,1.1371 0 0 0 -1.0432,-0.79321 z"
           dominant-baseline="auto"
           style="color:#000000;font-variant-ligatures:normal;font-variant-position:normal;font-variant-caps:normal;font-variant-numeric:normal;font-variant-alternates:normal;font-feature-settings:normal;text-indent:0;text-decoration:none;text-decoration-line:none;text-decoration-style:solid;text-decoration-color:#000000;text-transform:none;text-orientation:mixed;dominant-baseline:auto;white-space:normal;shape-padding:0;isolation:auto;mix-blend-mode:normal;solid-color:#000000;stroke-width:23.83065224;paint-order:markers stroke fill;color-rendering:auto;image-rendering:auto"
           id="path32" />
        <path
           inkscape:connector-curvature="0"
           d="m -1352.5,399.48 a 0.77689,0.77689 0 0 0 -0.7685,0.54195 l -6.9455,21.952 -23.023,-0.17794 a 0.77689,0.77689 0 0 0 -0.4578,1.4088 l 18.731,13.389 -7.2835,21.842 a 0.77689,0.77689 0 0 0 1.1982,0.87077 l 18.522,-13.676 18.522,13.676 a 0.77689,0.77689 0 0 0 0.4554,0.15185 0.77689,0.77689 0 0 0 0.7428,-1.0226 l -7.2836,-21.842 18.731,-13.389 a 0.77689,0.77689 0 0 0 -0.4578,-1.4088 l -23.023,0.17794 -6.9456,-21.952 a 0.77689,0.77689 0 0 0 -0.7127,-0.54195 z"
           dominant-baseline="auto"
           style="color:#000000;font-variant-ligatures:normal;font-variant-position:normal;font-variant-caps:normal;font-variant-numeric:normal;font-variant-alternates:normal;font-feature-settings:normal;text-indent:0;text-decoration:none;text-decoration-line:none;text-decoration-style:solid;text-decoration-color:#000000;text-transform:none;text-orientation:mixed;dominant-baseline:auto;white-space:normal;shape-padding:0;isolation:auto;mix-blend-mode:normal;solid-color:#000000;stroke-width:23.83065224;paint-order:markers stroke fill;color-rendering:auto;image-rendering:auto"
           id="path34" />
        <path
           inkscape:connector-curvature="0"
           d="m -1598.2,399.48 a 0.77689,0.77689 0 0 1 0.7685,0.54195 l 6.9455,21.952 23.023,-0.17794 a 0.77689,0.77689 0 0 1 0.4578,1.4088 l -18.731,13.389 7.2835,21.842 a 0.77689,0.77689 0 0 1 -1.1982,0.87077 l -18.522,-13.676 -18.522,13.676 a 0.77689,0.77689 0 0 1 -0.4554,0.15185 0.77689,0.77689 0 0 1 -0.7428,-1.0226 l 7.2836,-21.842 -18.731,-13.389 a 0.77689,0.77689 0 0 1 0.4578,-1.4088 l 23.023,0.17794 6.9456,-21.952 a 0.77689,0.77689 0 0 1 0.7127,-0.54195 z"
           dominant-baseline="auto"
           style="color:#000000;font-variant-ligatures:normal;font-variant-position:normal;font-variant-caps:normal;font-variant-numeric:normal;font-variant-alternates:normal;font-feature-settings:normal;text-indent:0;text-decoration:none;text-decoration-line:none;text-decoration-style:solid;text-decoration-color:#000000;text-transform:none;text-orientation:mixed;dominant-baseline:auto;white-space:normal;shape-padding:0;isolation:auto;mix-blend-mode:normal;solid-color:#000000;stroke-width:23.83065224;paint-order:markers stroke fill;color-rendering:auto;image-rendering:auto"
           id="path36" />
      </g>
      <path
         style="fill:#d7ae08;stroke-width:23.83065224"
         inkscape:connector-curvature="0"
         d="m -1637.4,-357.74 c -4.3028,0.91787 -0.7437,6.4227 -3.6011,8.8418 -5.6648,8.5075 -17.201,6.4046 -25.833,8.9516 -9.3951,1.5842 -16.656,12.623 -13.217,21.664 4.0196,2.1833 9.5117,-1.1462 14.062,-1.0624 2.4461,3.512 2.0884,10.943 3.4521,15.967 5.7955,34.172 11.082,68.458 17.237,102.55 2.6848,8.3231 12.764,14.514 21.205,11.489 3.0042,-3.3394 -0.8667,-8.3526 -0.4978,-12.25 -6.7189,-40.492 -13.438,-80.985 -20.157,-121.48 9.271,-2.8721 14.482,-13.642 11.67,-22.819 -1.2938,-3.6765 0.068,-9.1202 -3.1398,-11.659 -0.37,-0.14826 -0.7832,-0.22189 -1.181,-0.1983 z m 153.35,2.4946 c -10.618,0.11826 -18.621,10.839 -17.195,21.095 0.7839,9.6606 -3.0113,21.06 3.8336,29.307 4.9399,6.4523 13.547,7.1107 21.01,6.6305 6.6802,0.1593 5.2811,8.5442 5.1167,12.984 -0.6253,25.863 -0.3643,51.855 -1.5669,77.638 -2.1868,5.6639 -11.317,2.7598 -9.7748,-3.2488 0.046,-21.193 1.2318,-42.45 0.5878,-63.607 -1.6242,-8.2215 -10.19,-15.579 -18.672,-14.054 -3.1233,3.0339 -0.3842,8.3599 -1.4219,12.178 -0.097,20.806 -1.1323,41.662 -0.623,62.439 1.6418,9.6878 11.642,15.892 21.117,14.683 8.1232,0.0269 17.833,1.7407 24.199,-4.7538 8.5776,-7.9117 4.8701,-20.724 5.897,-30.895 -0.015,-18.14 1.1916,-36.361 0.4023,-54.458 -1.8443,-9.5548 -11.867,-15.411 -21.205,-14.101 -4.1994,1.063 -9.7004,-1.5085 -8.7267,-6.4451 0.5473,-12.46 -0.3139,-25.169 1.1154,-37.478 2.5199,-5.2341 11.092,-2.1328 9.5907,3.6437 -0.9825,7.9762 0.4547,17.286 7.8397,21.857 3.3862,2.0494 8.943,4.6626 12.048,1.6094 0.6308,-6.7304 0.7999,-13.813 0.1505,-20.617 -1.821,-9.442 -11.702,-15.61 -21.043,-14.23 -4.2262,-0.0752 -8.4526,-0.14735 -12.679,-0.17613 z m -80.249,2.3654 c -10.676,0.31702 -18.825,11.313 -16.598,21.665 3.9615,42.079 8.3229,84.441 11.832,126.62 -1.1692,6.0976 -10.803,4.4676 -10.14,-1.5934 -4.2944,-43.137 -7.8018,-86.397 -12.594,-129.46 -2.2852,-8.2937 -11.866,-14.897 -20.325,-12.298 -2.1723,3.3332 0.3267,8.487 0.026,12.5 4.2468,42.64 7.7032,85.405 12.454,127.97 2.4871,9.0807 12.5,14.606 21.581,12.604 3.22,0.0702 7.8784,-1.6053 10.072,-0.39857 0.8524,11.299 2.7952,22.698 2.8204,33.981 -1.7155,5.4123 -10.524,3.6313 -9.9661,-2.0272 -10e-5,-7.653 -1.9195,-16.334 -9.1286,-20.398 -3.7645,-2.1471 -9.7338,-4.3605 -13.165,-1.2146 -0.3913,5.9809 0.9359,12.151 1.4448,18.209 1.3119,9.9098 11.909,16.599 21.505,14.55 8.8648,-1.105 20.05,0.007 25.847,-8.3804 6.6381,-8.8236 1.7713,-20.388 1.7345,-30.238 -5.2553,-53.795 -9.9115,-107.7 -15.558,-161.43 -0.5921,-0.38841 -1.0851,-0.82143 -1.8414,-0.66571 z m 149.18,0.56479 c -9.7204,0.28807 -17.327,9.4828 -16.986,18.997 -3.5271,44.497 -7.9046,89.051 -11.069,133.5 2.2979,3.441 7.5845,1.2643 10.772,0.25141 8.356,-3.4002 11.876,-12.817 11.372,-21.306 3.6362,-40.873 6.6404,-81.869 10.699,-122.66 2.3392,-5.7704 11.662,-2.3564 9.6402,3.6791 -2.8548,31.447 -5.0014,63.035 -8.3177,94.392 -1.1595,3.7288 -5.702,1.9579 -7.6556,4.2793 -1.8416,3.8542 3.6588,4.6114 6.1648,4.2934 9.8099,2.9291 21.243,-3.8247 22.733,-14.113 2.5453,-27.75 5.0134,-55.559 7.0147,-83.351 -0.4162,-9.9046 -9.8737,-17.378 -19.532,-16.898 -4.9572,-0.17274 -9.8729,-1.0642 -14.835,-1.0623 z m 69.04,7.7352 c -9.7015,0.24006 -17.233,9.2521 -17.29,18.704 -5.8849,39.47 -12.686,78.992 -18.086,118.57 0.2006,9.4042 8.5424,17.196 17.828,17.489 8.4459,1.117 18.34,4.6157 25.886,-1.3277 9.4091,-6.7258 7.4869,-19.794 9.922,-29.672 5.2163,-34.689 11.135,-69.31 15.881,-104.05 -0.047,-9.6091 -8.6699,-17.387 -18.075,-17.645 -5.3776,-0.47738 -10.648,-2.1174 -16.066,-2.0732 z m 9.8103,6.3206 c 5.4509,0.0361 5.8752,6.7458 4.2715,10.589 -6.9251,43.545 -13.229,87.256 -20.562,130.69 -2.7194,5.6049 -11.805,1.5617 -9.3677,-4.3271 7.1388,-44.734 13.551,-89.667 21.159,-134.27 0.8808,-1.6016 2.658,-2.7056 4.4988,-2.6823 z m -357.94,3.3993 c -7.8618,1.1174 -17.156,3.325 -20.594,11.462 -4.6014,9.594 1.4925,19.901 2.5969,29.554 7.7657,36.25 16.332,72.425 23.56,108.73 -0.1001,3.7612 -4.9469,3.3607 -5.9258,6.1719 -0.4539,4.0708 4.5644,3.3649 6.9775,2.2768 8.8863,-0.72041 17.196,-7.6222 17.652,-16.855 -0.1359,-10.287 -4.3242,-20.135 -5.8449,-30.269 -7.2824,-33.895 -15.237,-67.725 -22.051,-101.67 0.1298,-3.4616 3.9528,-3.9131 5.8833,-5.6815 0.9253,-1.6013 -0.3745,-3.8329 -2.2538,-3.718 z m 416.83,2.7018 c -9.9487,-0.0769 -17.521,9.1482 -18.031,18.655 -9.587,42.855 -19.827,85.695 -28.954,128.57 1.6009,3.545 6.749,2.2857 9.8456,1.9316 8.7294,-1.8395 14.157,-10.34 14.789,-18.853 9.3101,-40.275 18.013,-80.753 27.722,-120.89 2.8531,-5.0063 11.286,-1.3682 9.2472,4.2952 -7.3349,30.949 -13.776,62.19 -21.467,93.011 -1.6841,3.6799 -6.2215,0.98354 -8.3408,3.41 -1.9192,2.9401 1.7958,4.1558 3.8207,5.0317 4.4731,4.5396 -0.7342,11.143 -0.8275,16.375 -3.65,17.475 -8.5551,34.768 -11.422,52.362 -0.062,8.5654 7.2412,17.492 16.127,17.213 3.1639,-7.1199 3.4441,-15.325 5.7147,-22.788 3.5186,-16.743 8.1746,-33.323 10.954,-50.181 0.2377,-4.7257 -2.5315,-9.6224 -5.1255,-12.74 8.1976,-2.6759 12.104,-11.346 12.867,-19.36 5.4093,-24.745 11.649,-49.355 16.527,-74.192 0.5128,-9.6283 -7.6849,-17.831 -17.052,-18.698 -5.4962,-0.82937 -10.801,-3.061 -16.395,-3.1515 z m -471.67,10.609 c -7.7576,1.0375 -15.372,3.4832 -22.742,6.0604 -8.9259,4.1345 -11.969,15.685 -8.1009,24.352 10.74,38.418 20.735,77.088 31.965,115.34 4.0198,8.5186 14.84,12.233 23.443,8.6911 8.1656,-2.4413 18.626,-3.3014 23.077,-11.818 5.7557,-9.8507 -1.125,-20.802 -2.9767,-30.688 -2.225,-6.5871 -3.0559,-14.302 -6.3007,-20.118 -4.7034,-0.77453 -9.1979,3.2214 -11.912,6.7632 -5.6598,7.2691 -2.5058,16.744 0.013,24.539 1.3866,7.1896 4.9754,14.213 5.0246,21.495 -1.5575,5.4719 -10.101,4.0685 -10.14,-1.5828 -11.814,-43.636 -24.242,-87.164 -35.647,-130.87 0.2129,-6.1096 9.8812,-6.3336 10.279,-0.0726 3.2748,10.479 5.0602,21.525 9.3004,31.651 4.0482,7.0359 14.096,11.358 21.508,7.4183 1.8445,-4.2346 -2.1604,-9.0128 -2.4898,-13.411 -3.0887,-9.6395 -4.5475,-19.925 -8.6996,-29.165 -3.21,-5.3412 -9.3478,-8.8038 -15.602,-8.5869 z m 575.85,4.2775 c -2.2004,2.0821 -2.619,5.8892 -6.1471,6.8394 -9.0811,4.0141 -18.042,-2.7771 -26.989,-4.1883 -8.9323,-2.0739 -19.636,4.5179 -20.513,13.82 2.4604,3.6402 8.5883,3.0738 12.448,5.0694 2.5474,3.1454 -2.5901,10.415 -3.0523,15.175 -9.9742,33.51 -20.46,66.895 -30.08,100.49 -1.2683,8.6533 5.0406,18.654 13.948,19.674 4.1725,-1.6624 2.9106,-7.8741 4.9634,-11.205 11.852,-39.3 23.705,-78.599 35.558,-117.9 9.5855,1.5171 19.018,-5.842 20.547,-15.318 0.4881,-3.9046 4.0646,-8.2589 2.2549,-11.933 -0.7281,-0.69767 -2.0556,-1.0548 -2.9373,-0.52762 z"
         id="path40" />
    </g>
  </g>
</svg>
