<?xml version="1.0" encoding="UTF-8" standalone="no"?>
<!-- Created with Inkscape (http://www.inkscape.org/) -->

<svg
   xmlns:dc="http://purl.org/dc/elements/1.1/"
   xmlns:cc="http://creativecommons.org/ns#"
   xmlns:rdf="http://www.w3.org/1999/02/22-rdf-syntax-ns#"
   xmlns:svg="http://www.w3.org/2000/svg"
   xmlns="http://www.w3.org/2000/svg"
   xmlns:sodipodi="http://sodipodi.sourceforge.net/DTD/sodipodi-0.dtd"
   xmlns:inkscape="http://www.inkscape.org/namespaces/inkscape"
   width="80.433334mm"
   height="60.324997mm"
   viewBox="0 0 80.433335 60.324997"
   version="1.1"
   id="svg8"
   inkscape:version="0.92.4 5da689c313, 2019-01-14"
   sodipodi:docname="Fatakat.svg"
   inkscape:export-filename="/media/gobadri/01f0b433-191e-4a57-a8bf-de661da7cc46/2019/Bloomberg/TripleB3.png"
   inkscape:export-xdpi="72"
   inkscape:export-ydpi="72">
  <defs
     id="defs2" />
  <sodipodi:namedview
     id="base"
     pagecolor="#ffffff"
     bordercolor="#666666"
     borderopacity="1.0"
     inkscape:pageopacity="0.0"
     inkscape:pageshadow="2"
     inkscape:zoom="0.32"
     inkscape:cx="83.788727"
     inkscape:cy="9.8723779"
     inkscape:document-units="mm"
     inkscape:current-layer="layer1"
     showgrid="false"
     inkscape:snap-intersection-paths="false"
     inkscape:object-paths="false"
     showguides="false"
     inkscape:guide-bbox="true"
     inkscape:snap-object-midpoints="true"
     inkscape:snap-center="true"
     inkscape:window-width="1366"
     inkscape:window-height="674"
     inkscape:window-x="0"
     inkscape:window-y="26"
     inkscape:window-maximized="1"
     inkscape:snap-global="false"
     inkscape:snap-page="true">
    <sodipodi:guide
       position="3244.5475,335.64288"
       orientation="1,0"
       id="guide819"
       inkscape:locked="false" />
    <sodipodi:guide
       position="3244.5475,335.64288"
       orientation="0,1"
       id="guide821"
       inkscape:locked="false" />
  </sodipodi:namedview>
  <metadata
     id="metadata5">
    <rdf:RDF>
      <cc:Work
         rdf:about="">
        <dc:format>image/svg+xml</dc:format>
        <dc:type
           rdf:resource="http://purl.org/dc/dcmitype/StillImage" />
        <dc:title></dc:title>
      </cc:Work>
    </rdf:RDF>
  </metadata>
  <g
     inkscape:label="Layer 1"
     inkscape:groupmode="layer"
     id="layer1"
     transform="translate(6827.6724,-716.51331)">
    <rect
       y="716.51331"
       x="-6827.6724"
       height="60.324997"
       width="80.433334"
       id="rect986"
       style="opacity:1;fill:#b8252f;fill-opacity:1;fill-rule:nonzero;stroke:none;stroke-width:9.99999905;stroke-linecap:round;stroke-linejoin:round;stroke-miterlimit:4;stroke-dasharray:none;stroke-dashoffset:0;stroke-opacity:1;paint-order:markers fill stroke" />
    <g
       id="g1043"
       transform="matrix(0.01149985,0,0,0.01149985,-6909.9321,724.45964)"
       style="stroke-width:8.36111164">
      <path
         sodipodi:nodetypes="ccscccsccccccsccccccccsccccscccscccccccccccccccsccccccscccccccccsccsccccccsscccscccccscccsccccccccsccscccccscscccsccccsscccccccssccscccccccccsccccccccccccccccc"
         inkscape:connector-curvature="0"
         id="path1037"
         d="m 9536.4743,1014.5317 c -313.2098,0 -574.1198,223.9133 -639.0608,521.8165 -59.411,-51.1555 -140.433,-96.3627 -242.144,-94.6895 -94.701,1.5579 -169.019,-0.7605 -222.42,-12.6562 -54.179,-12.069 -85.827,-28.9478 -119.233,-67.4688 l -75.33,-86.8633 c -16.702,-19.2432 -44.294,-24.7759 -67.123,-13.4596 -22.83,11.3164 -35.134,36.625 -29.933,61.569 l 23.513,112.5488 0.02,0.1035 c 0,0 38.038,182.3091 201.635,303.6543 -57.561,63.9209 -106.731,155.3388 -153.211,282.1016 l -25.461,69.4375 c -7.847,21.4184 -1.911,45.4561 15.005,60.7589 16.916,15.3027 41.427,18.8081 61.954,8.8602 l 66.547,-32.2714 c 113.345,-54.9664 162.08,-63.9962 217.602,-46.1524 87.773,28.2096 171.896,49.5405 250.677,28.75 3.711,17.82 7.516,30.7832 7.516,30.7832 2.978,9.5435 8.457,18.1153 15.869,24.8242 0.594,2.676 1.426,6.5567 1.426,6.5567 6.096,26.8248 30.782,45.2425 58.232,43.4453 17.238,351.5144 302.768,633.0176 653.9183,633.0176 305.5651,0 561.4432,-213.1605 634.0882,-500.1231 32.765,14.2856 70.342,-5.3854 77.273,-40.4512 0,0 2.785,-14.2592 5.346,-34.9746 14.183,12.4272 23.723,18.8438 23.723,18.8438 22.303,15.0925 52.194,12.1605 71.14,-6.9783 18.946,-19.1388 21.575,-49.0572 6.258,-71.2073 -60.569,-87.4884 -53.832,-171.2246 -45.846,-307.0039 v 0 c 4.492,-76.3606 -24.055,-150.7609 -54.459,-214.2188 -26.73,-55.7921 -55.586,-101.2027 -72.558,-126.5078 -53.2,-313.0781 -321.2321,-552.0429 -644.9652,-552.043 z m 1128.8537,0 c -37.789,0 -61.341,18.9782 -84.492,40.2715 -0.01,0.01 -0.01,0.016 -0.02,0.024 -20.601,18.8867 -37.731,38.3471 -50.866,59.5644 -14.658,23.684 -9.67,54.5427 11.704,72.4024 l 19.685,16.4453 c -75.554,13.8434 -141.591,46.8547 -192.799,99.3594 -10.494,10.7611 -16.218,25.2911 -15.885,40.3183 0.907,40.7781 10.016,81.7156 26.292,121.9766 0.126,0.3137 0.256,0.6262 0.388,0.9375 17.288,40.6268 38.461,74.1289 71.994,96.0547 21.456,14.0263 49.698,11.6839 68.549,-5.6856 26.797,-24.6953 59.826,-37.4277 109.889,-37.4277 20.721,0 43.703,2.5164 68.805,7.6777 -44.941,13.2674 -86.722,30.5085 -125.094,52.0508 v 0 c -97.299,54.6238 -165.786,145.7029 -201.692,262.3965 l 0.606,-0.4472 c -1.425,3.6681 -2.501,7.3315 -2.887,10.8105 -3.619,32.6062 8.307,36.5825 11.559,40.7637 6.504,8.3624 7.948,8.4232 9.744,9.8926 3.592,2.9388 5.762,4.3996 8.722,6.4492 5.921,4.0991 13.749,9.236 24.377,16.0683 0.249,0.1595 0.499,0.3171 0.75,0.4727 25.563,15.8661 54.13,28.9633 85.498,39.7207 l -11.531,219.1777 c -15.64,0 -30.566,6.5468 -41.162,18.0508 -32.235,34.9983 -56.931,79.1085 -75.865,130.9707 -0.06,0.1586 -0.115,0.3175 -0.172,0.4766 -18.393,51.8343 -27.674,105.8513 -27.674,160.9707 0,67.7416 17.357,131.3046 52.158,185.7383 34.773,54.3882 85.112,96.9974 146.616,126.041 61.94,29.2492 132.434,43.1465 209.498,43.1465 66.215,0 133.599,-9.7147 201.754,-28.7344 0.137,-0.039 0.274,-0.078 0.412,-0.1172 73.058,-20.9938 137.502,-58.9631 190.021,-112.3281 111.389,-164.223 54.831,-102.5043 137.467,31.6445 41.114,65.4086 112.371,103.4409 191.051,103.9551 0.122,4e-4 0.243,4e-4 0.365,0 -4.956,0 -4.757,0.021 0.424,0.021 h 88.91 c 80.283,0 169.253,-5.3363 267.168,-15.8809 0.141,-0.015 0.281,-0.031 0.422,-0.047 78.732,-9.0844 141.661,-20.8797 192.082,-38.0312 40.716,34.5541 91.92,53.959 146.031,53.959 85.196,0 162.109,-21.3332 224.492,-64.3789 18.29,14.2786 38.099,26.6185 59.301,36.7148 0.153,0.073 0.306,0.1452 0.459,0.2168 39.672,18.4526 83.46,27.4432 129.15,27.4473 0.03,-10e-5 0.197,0 0.131,0 h 37.785 c 88.628,0 171.768,-15.2869 247.891,-46.3907 0.09,-0.038 0.185,-0.077 0.277,-0.1152 77.486,-32.1484 141.745,-79.981 188.832,-142.4726 48.846,-64.5822 73.52,-143.0395 73.52,-228.1817 0,-51.654 -7.981,-102.474 -23.813,-151.6328 -16.574,-51.4707 -43.92,-96.6742 -81.38,-132.3066 -24.888,-23.6732 -55.147,-40.3286 -88.106,-49.7324 l 38.742,-32.3672 c 20.144,-16.8318 25.883,-45.4022 13.801,-68.707 -6.753,-13.0245 -14.748,-25.3024 -23.848,-36.67 31.975,-8.5845 61.068,-23.1602 85.163,-44.7578 37.197,-32.7337 64.631,-73.9092 79.496,-120.3593 13.406,-41.8952 20.445,-83.6889 20.445,-124.8614 0,-85.7186 -12.976,-161.2868 -41.414,-225.9199 -27.182,-61.7753 -62.676,-111.619 -108.963,-145.7168 -43.383,-32.6731 -92.045,-52.1914 -142.311,-52.1914 -58.664,0 -112.823,30.3779 -157.378,77.5546 -43.4,45.9527 -76.41,101.3231 -98.737,164.168 -0.08,0.2286 -0.161,0.4578 -0.24,0.6875 -21.504,63.1235 -45.506,103.3989 -61.627,119.084 -0.183,0.1785 -0.364,0.3582 -0.545,0.5391 -18.063,18.0636 -32.137,23.6171 -52.672,23.6171 h -18.861 -0.03 c -26.073,0 -45.305,-3.6771 -59.453,-9.1543 -9.251,-58.9166 -25.764,-114.1914 -49.817,-165.2011 -27.036,-58.9026 -61.434,-107.827 -104.412,-144.5371 -43.006,-36.7347 -93.588,-58.9746 -146.371,-58.9746 -65.952,0 -128.977,31.2102 -187.957,82.7128 -22.341,19.5097 -43.959,41.3428 -64.951,65.3614 -4.863,-72.0014 -11.352,-134.1892 -19.684,-186.4942 -3.919,-24.5917 -23.614,-43.636 -48.324,-46.7265 -10.484,-1.3106 -20.594,-1.5449 -33.615,-1.5449 h -0.01 c -65.006,0 -125.892,22.2607 -171.641,65.1503 -14.874,13.9467 -20.986,34.8792 -15.955,54.6387 32.971,129.4435 51.544,244.0843 56.66,343.6582 h -35.771 c -2.522,0 -5.042,0.1753 -7.541,0.5176 -8.723,-0.9966 -14.488,-3.4561 -20.108,-7.6992 -6.589,-5.9612 -11.03,-12.6755 -14.296,-22.8653 v -6.2343 c 0,-52.7455 -2.292,-104.4514 -6.897,-155.1036 -4.6,-50.6005 -10.725,-93.1417 -19.006,-128.75 -5.469,-23.5132 -25.399,-40.8694 -49.441,-43.0566 -17.062,-1.5512 -29.492,-2.4512 -40.631,-2.4512 -28.652,0 -56.906,4.0643 -84.115,12.1348 -27.95,7.5436 -55.947,19.8737 -84.797,36.3594 -22.522,12.8721 -33.247,39.5336 -25.912,64.416 16.72,56.7045 28.149,102.044 34.238,134.5176 0.08,0.4457 0.173,0.8904 0.268,1.334 5.329,25.0501 8.876,58.3991 10.31,98.3476 -5.814,4.7708 -12.29,8.3593 -20.377,11.127 -14.236,4.1924 -39.165,7.7748 -72.42,8.3886 -3.199,-0.041 -6.155,-0.1737 -9.293,-0.2382 6.771,-26.1008 9.481,-54.6098 9.481,-85.9278 0,-22.5473 -1.592,-44.3158 -4.815,-65.3164 0,-0.042 -0.01,-0.081 -0.02,-0.123 -2.477,-21.4307 -5.74,-39.8198 -11.056,-56.8321 -5.661,-18.1115 -20.112,-32.1214 -38.391,-37.2168 -42.893,-11.9537 -80.232,-25.1569 -111.891,-39.2793 -33.249,-15.5824 -71.695,-35.3295 -115.109,-59.207 -0.07,-0.041 -0.148,-0.081 -0.223,-0.1211 -51.649,-28.1037 -95.586,-49.0798 -133.527,-63.1426 -7.146,-2.7829 -14.447,-5.2302 -21.822,-7.5097 l 30.004,-25.0664 c 20.144,-16.8318 25.882,-45.4023 13.8,-68.7071 -13.561,-26.1541 -32.101,-49.3159 -54.64,-68.0566 -22.683,-19.6078 -49.397,-35.498 -82.838,-35.4981 z m 2278.721,908.6895 c -0.655,-0.5414 -1.391,-1.1389 0.519,0.4531 -0.177,-0.147 -0.342,-0.3066 -0.519,-0.4531 z"
         style="font-style:normal;font-variant:normal;font-weight:normal;font-stretch:normal;font-size:1111.38146973px;line-height:1.25;font-family:MolsaqArabic-ExtraBold;-inkscape-font-specification:MolsaqArabic-ExtraBold;letter-spacing:0px;word-spacing:0px;fill:#ebd474;fill-opacity:1;stroke:none;stroke-width:232.30961609" />
      <path
         inkscape:connector-curvature="0"
         id="path1039"
         d="m 9536.474,1070.4945 c -323.6915,0 -586.0855,260.4322 -598.3435,586.8399 a 29.878963,29.878963 0 0 0 -0.319,4.6504 c -47.386,-63.1329 -145.905,-166.6037 -281.623,-164.3711 -95.872,1.5772 -173.422,-0.1581 -235.507,-13.9883 -62.086,-13.8301 -108.484,-38.3139 -149.342,-85.4277 l -75.33,-86.8633 23.513,112.5488 c 0,0 43.049,204.1279 238.295,306.8906 -70.341,52.0854 -132.614,147.4796 -192.088,309.6797 l -25.461,69.4375 66.547,-32.2715 c 117.583,-57.0214 186.89,-72.2971 259.143,-49.0761 104.636,33.6289 187.942,50.9007 259.211,12.0429 8.873,-4.8377 17.347,-10.4134 25.471,-16.7578 -9.126,37.6643 9.994,101.459 9.994,101.459 -8.44,-29.5384 15.474,-70.3301 15.474,-70.3301 -9.846,49.2306 2.813,105.4942 2.813,105.4942 -6.658,-68.8031 39.1,-179.3369 58.76,-223.0528 v 245.1055 c 0,337.497 267.242,610.7305 598.7925,610.7305 331.5507,0 598.793,-273.2335 598.793,-610.7305 v -102.0098 c 54.087,100.1805 57.648,217.3848 57.648,217.3848 0,0 17.903,-91.5021 1.989,-145.2109 -15.914,-53.7089 -9.946,-139.2461 -9.946,-139.2461 0,149.1915 123.332,232.7382 123.332,232.7382 -71.611,-103.4393 -63.655,-206.8776 -55.699,-342.1445 6.885,-117.0469 -96.298,-275.5604 -124.26,-316.2031 -43.941,-293.0975 -291.5108,-517.3184 -591.857,-517.3184 z m 1128.854,0 c -12.596,0 -28.155,8.5194 -46.678,25.5606 -17.782,16.3002 -31.489,32.2317 -41.121,47.791 l 87.799,73.3496 87.798,-73.3496 c -10.373,-20.0049 -24.08,-37.0475 -41.121,-51.125 -17.041,-14.8184 -32.6,-22.2266 -46.677,-22.2266 z m -1128.854,59.752 c 268.9385,0 490.421,198.3785 532.016,461.2031 -151.5714,-117.8024 -338.6465,-182.4414 -532.016,-182.4414 -193.3675,0 -380.4425,64.6365 -532.0155,182.4414 41.594,-262.8246 263.077,-461.2031 532.0155,-461.2031 z m 2226.621,88.0605 c -53.346,0 -97.801,16.6723 -133.365,50.0137 40.009,157.0753 60.014,294.5159 60.014,412.3223 v 1.1113 h -93.356 c -1.473,0.2104 -2.846,0.5544 -4.14,1.0039 -22.982,-0.9025 -42.755,-7.9016 -59.313,-21.0098 -17.041,-14.8185 -28.526,-34.0815 -34.453,-57.791 v -14.4472 c 0,-51.1236 -2.223,-101.1365 -6.668,-150.0372 -4.446,-48.9008 -10.372,-89.281 -17.781,-121.1406 -16.3,-1.4819 -28.156,-2.2226 -35.565,-2.2226 -23.709,0 -46.678,3.3336 -68.906,10.0019 -22.228,5.9273 -46.308,16.3008 -72.24,31.1192 17.041,57.7919 28.896,104.469 35.564,140.0332 7.409,34.8233 11.484,78.5391 12.225,131.1445 -15.559,20.7458 -35.563,35.1936 -60.014,43.3437 -22.127,6.7053 -51.868,10.365 -89.166,11.002 -46.87,-0.5724 -88.161,-3.4939 -123.838,-8.7793 -39.269,-6.6683 -70.016,-18.5233 -92.244,-35.5645 26.673,-1.4818 47.048,-2.2226 61.125,-2.2226 29.637,0 56.681,1.4816 81.131,4.4453 11.855,-24.4504 17.783,-57.7929 17.783,-100.0254 0,-20.7458 -1.481,-40.3793 -4.445,-58.9023 -2.223,-19.264 -5.188,-34.823 -8.893,-46.6778 -45.196,-12.5956 -85.204,-26.673 -120.027,-42.2324 -34.823,-16.3003 -74.463,-36.6766 -118.918,-61.1269 -50.383,-27.4142 -92.615,-47.4181 -126.697,-60.0137 -34.083,-13.3366 -72.241,-20.0059 -114.473,-20.0059 -100.024,0 -179.303,30.0089 -237.836,90.0235 0.741,33.3414 8.149,67.4228 22.227,102.2461 14.818,34.8232 31.861,58.5332 51.125,71.1289 37.787,-34.8233 87.057,-52.2364 147.812,-52.2364 79.279,0 174.857,28.8977 286.737,86.6895 -125.957,4.4455 -231.166,30.3779 -315.631,77.7969 -84.465,47.4189 -143,124.1028 -175.6,230.0546 -1.482,0 8.151,6.6693 28.896,20.0059 21.487,13.3365 46.308,24.8211 74.463,34.4531 28.896,10.3729 58.533,14.8178 88.91,13.336 27.415,-122.993 96.69,-207.0871 207.829,-252.2832 38.528,78.5376 89.281,135.9585 152.259,172.2636 55.612,31.6859 122.515,49.5408 200.702,53.5723 1.706,0.5815 3.578,0.8848 5.632,0.8848 4.348,0 8.643,-0.078 12.911,-0.1953 5.405,0.1264 10.86,0.1953 16.369,0.1953 2.649,0 5.006,-0.4862 7.076,-1.4532 77.399,-6.2926 140.862,-33.2128 190.367,-80.789 22.969,25.1913 50.012,45.1971 81.131,60.0156 31.48,14.6419 66.222,22.0366 104.213,22.2109 0.122,0 0.237,0.016 0.361,0.016 h 311.186 c 81.501,0 152.632,-6.6673 213.387,-20.0039 60.756,-13.3366 115.213,-37.0465 163.373,-71.1289 17.782,28.155 41.862,50.3833 72.24,66.6836 31.109,16.2952 71.473,24.4442 121.094,24.4492 h 0.05 32.197 c 30.377,0 61.867,-12.2254 94.467,-36.6758 33.342,-24.4504 64.829,-61.4951 94.466,-111.1367 20.005,46.678 47.42,84.4634 82.243,113.3593 35.565,28.8959 75.944,43.3438 121.14,43.3438 51.123,0 91.506,-13.3366 121.143,-40.0098 30.377,-26.6731 51.492,-58.532 63.347,-95.5781 11.855,-37.0461 17.782,-72.9814 17.782,-107.8047 0,-80.0194 -12.224,-147.8137 -36.674,-203.3828 -24.451,-55.5691 -54.83,-96.6901 -91.135,-123.3633 -36.305,-27.414 -72.611,-41.1211 -108.916,-41.1211 -40.01,0 -78.906,20.0059 -116.693,60.0157 -37.787,40.0097 -66.685,88.1685 -86.69,144.4785 -22.969,67.4238 -48.16,114.4733 -75.574,141.1465 -26.673,26.6731 -57.419,40.0097 -92.242,40.0097 h -18.861 -0.03 c -47.403,0 -84.436,-10.0076 -111.103,-30.0078 -7.409,-64.4601 -23.709,-123.3627 -48.901,-176.709 -24.45,-53.3463 -54.459,-95.2081 -90.023,-125.5859 -35.564,-30.3777 -72.238,-45.5664 -110.025,-45.5664 -48.16,0 -98.543,22.9671 -151.149,68.9043 -52.605,45.937 -102.618,107.4344 -150.037,184.4902 -4.446,-142.2569 -13.335,-255.2486 -26.672,-338.9726 -5.927,-0.7409 -14.819,-1.1114 -26.674,-1.1114 z m -2049.4941,270.1289 v 0 c 133.7122,30.0742 258.5039,93.9316 361.8771,186.6602 0.02,2.04 0.04,4.0814 0.04,6.1269 v 501.2832 c 0,306.087 -240.2323,550.9747 -539.0412,550.9747 -298.8083,0 -539.0403,-244.8878 -539.0403,-550.9747 V 1681.223 c 0,-2.0455 0.01,-4.0869 0.03,-6.1269 71.012,-63.7007 152.132,-113.7702 239.308,-148.627 16.779,48.7276 119.698,293.406 474.7461,218.4082 0,0 -190.9646,-55.6977 -171.0723,-183.0078 0,0 127.5233,186.5924 346.125,143.2246 0,0 -229.3578,-98.8077 -172.9746,-216.6582 z m 3173.0671,3.2715 c 26.673,0 47.048,18.8947 61.125,56.6817 14.078,37.787 21.117,80.0192 21.117,126.6972 0,12.5957 -0.37,21.8558 -1.111,27.7832 -52.605,-1.4818 -94.467,-8.5195 -125.586,-21.1152 -31.118,-12.5957 -58.534,-35.5649 -82.243,-68.9063 l 3.334,-8.8906 c 12.596,-36.3051 29.266,-64.0896 50.012,-83.3535 20.745,-19.2639 45.197,-28.8965 73.352,-28.8965 z m -790.158,15.5606 c 18.523,0 36.675,5.556 54.457,16.6699 18.523,11.1138 34.455,25.1912 47.791,42.2324 13.337,16.3002 22.225,31.8593 26.671,46.6777 0,1.4818 -11.855,8.1512 -35.564,20.0059 -23.71,11.8547 -55.568,22.9669 -95.578,33.3398 -39.268,10.3729 -84.465,15.5606 -135.588,15.5606 h -100.025 c 41.492,-56.31 83.724,-99.2831 126.697,-128.9199 42.974,-30.3778 80.02,-45.5664 111.139,-45.5664 z m -3779.8735,1.7617 c 28.175,14.8336 58.51,25.6688 91.052,32.918 71.122,15.8432 152.472,17.008 249.483,15.4121 86.464,-1.4223 160.562,60.6307 207.379,112.6367 -21.757,-3.954 -52.395,-7.4766 -92.532,-7.4766 -91.428,0 -126.589,-16.8789 -126.589,-16.8789 28.131,16.8792 74.547,35.1641 139.25,35.1641 52.264,0 86.145,20.1761 97.252,27.9394 -10.903,2.4032 -21.609,4.5819 -32.102,6.5157 -53.553,-5.9047 -114.059,-14.3573 -142.896,-22.4317 l -0.725,-0.2031 -0.733,-0.168 c -29.239,-6.6203 -58.987,-11.1296 -88.734,-11.5547 -31.261,-0.4464 -62.52,3.626 -93.185,14.4981 -109.823,-43.9268 -172.389,-122.8543 -206.92,-186.3711 z m 293.396,231.0058 c 25.826,-0.067 52.862,4.0642 81.901,10.6231 39.266,10.8223 100.854,18.5751 155.902,24.5078 -21.285,8.3992 -54.239,16.7598 -101.135,16.7598 -94.241,0 -135.031,52.0429 -135.031,52.0429 37.978,-37.9779 123.778,-39.3847 182.855,-39.3847 41.425,0 91.052,-14.4985 117.069,-23.1778 2.144,0.1909 4.425,0.3985 6.466,0.5782 -39.231,122.2347 -78.703,182.8101 -121.494,206.1406 -46.773,25.5023 -111.154,16.0488 -212.326,-16.4668 -73.288,-23.5539 -146.118,-13.7507 -235.724,22.0215 52.106,-121.976 104.556,-188.7013 154.769,-221.8262 33.074,-21.8187 66.235,-30.8697 101.578,-31.7461 1.718,-0.043 3.442,-0.067 5.17,-0.072 z m 660.529,111.7715 c -92.485,-3e-4 -174.384,61.301 -200.451,150.0371 a 49.79827,49.79827 0 1 0 95.551,28.0704 c 13.736,-46.7589 56.166,-78.5197 104.9,-78.5196 46.566,0 87.315,29.0348 102.836,72.416 v 142.6973 a 49.79827,49.79827 0 1 0 99.5862,0 v -150.791 a 49.79827,49.79827 0 0 0 -2.0332,-14.084 c -26.1374,-88.6304 -107.984,-149.8263 -200.389,-149.8262 z m 537.0804,0 c -92.4853,-3e-4 -174.3845,61.3014 -200.4511,150.0371 a 49.79827,49.79827 0 1 0 95.5508,28.0704 c 13.7357,-46.7592 56.1655,-78.5197 104.9003,-78.5196 48.691,-10e-5 91.0963,31.7039 104.8692,78.4063 a 49.79827,49.79827 0 1 0 95.5199,-28.168 c -26.1381,-88.6303 -107.985,-149.8263 -200.3891,-149.8262 z m 1572.1411,54.5039 c -12.596,0 -28.155,8.1509 -46.678,24.4512 -17.782,17.0412 -31.489,33.3411 -41.121,48.9004 l 87.799,73.3516 87.799,-73.3516 c -10.373,-20.0049 -24.08,-37.4179 -41.122,-52.2363 -17.041,-14.0775 -32.6,-21.1153 -46.677,-21.1153 z m 1481.947,37.8282 c -12.596,0 -28.154,8.5193 -46.678,25.5605 -17.781,16.3003 -31.489,32.2317 -41.121,47.791 l 87.799,73.3496 87.799,-73.3496 c -10.373,-20.0048 -24.079,-37.0474 -41.121,-51.125 -17.041,-14.8184 -32.601,-22.2265 -46.678,-22.2265 z m -412.426,50.0117 c -11.855,0 -26.302,7.4101 -43.343,22.2285 -17.041,14.8184 -31.119,30.3775 -42.233,46.6777 -10.373,-18.523 -23.709,-34.4524 -40.009,-47.789 -16.3,-13.3366 -31.119,-20.0059 -44.456,-20.0059 -12.596,0 -28.156,8.5213 -46.679,25.5625 -17.782,16.3003 -31.489,32.2297 -41.121,47.7891 l 87.8,73.3515 85.577,-71.1289 84.464,70.0176 87.799,-73.3516 c -10.373,-20.0048 -24.08,-37.0455 -41.121,-51.123 -17.041,-14.8184 -32.6,-22.2285 -46.678,-22.2285 z m -1567.256,10.0019 c -11.855,0 -26.304,7.4101 -43.345,22.2285 -17.042,14.8185 -31.119,30.3776 -42.233,46.6778 -10.373,-18.523 -23.709,-34.4525 -40.01,-47.7891 -16.3,-13.3365 -31.118,-20.0058 -44.455,-20.0058 -12.595,0 -28.154,8.5213 -46.677,25.5625 -17.783,16.3002 -31.49,32.2296 -41.122,47.789 l 87.799,73.3516 85.576,-71.1289 84.467,70.0176 87.799,-73.3516 c -10.373,-20.0049 -24.08,-37.0455 -41.121,-51.1231 -17.041,-14.8184 -32.6,-22.2285 -46.678,-22.2285 z m 513.678,87.7989 c -27.412,7e-4 -55.936,5.1883 -85.57,15.5605 -29.637,10.3729 -52.977,25.9319 -70.018,46.6777 10.373,80.7604 20.376,173.7463 30.008,278.9571 1.482,13.3366 4.075,38.1577 7.779,74.4629 8.15,82.9831 28.527,150.407 61.127,202.2714 32.337,51.4448 80.355,77.3591 144.037,77.7754 0.144,0 0.279,0.02 0.424,0.02 h 88.91 c 77.797,0 164.856,-5.1858 261.176,-15.5586 96.32,-11.1138 167.078,-27.0433 212.274,-47.7891 34.824,42.2325 78.908,63.3477 132.254,63.3477 94.097,0 169.671,-27.4141 226.722,-82.2422 22.968,25.1913 50.012,45.1972 81.131,60.0156 31.859,14.8184 67.052,22.2266 105.58,22.2266 h 0.05 c 0.02,1e-4 0.03,0 0.05,0 h 37.785 c 82.242,0 157.817,-14.0775 226.723,-42.2325 69.646,-28.8958 124.845,-70.3873 165.595,-124.4746 41.492,-54.8281 62.239,-119.6572 62.239,-194.4902 0,-45.9371 -7.039,-90.7642 -21.117,-134.4785 -14.077,-43.7143 -36.306,-80.0181 -66.684,-108.9141 -30.378,-28.8959 -68.534,-43.3437 -114.471,-43.3437 -42.973,0 -80.761,9.6305 -113.361,28.8945 -32.601,19.2639 -58.163,46.678 -76.686,82.2422 -17.782,34.8233 -26.673,74.4627 -26.673,118.918 0,72.6102 14.077,138.1821 42.232,196.7148 -22.969,2.9637 -49.271,4.4453 -78.908,4.4453 h -35.565 c -0.222,0 -0.428,0.022 -0.646,0.027 -0.192,-0.01 -0.374,-0.027 -0.569,-0.027 -25.191,0 -46.677,-7.0377 -64.459,-21.1152 -17.041,-14.8184 -28.525,-34.0835 -34.453,-57.793 v -14.4473 c 0,-51.1235 -2.222,-101.1363 -6.668,-150.0371 -4.445,-48.9008 -10.374,-89.281 -17.783,-121.1406 -16.3,-1.4818 -28.155,-2.2226 -35.564,-2.2226 -23.71,0 -46.677,3.3336 -68.905,10.0019 -22.227,5.9273 -46.308,16.3007 -72.24,31.1192 17.041,57.7918 28.896,104.4709 35.565,140.0351 7.409,34.8233 11.483,78.5372 12.224,131.1426 -15.559,20.7457 -35.562,35.1936 -60.013,43.3437 -24.45,7.4092 -58.164,11.1133 -101.137,11.1133 -22.228,0 -44.456,-4.4449 -66.684,-13.3359 -22.228,-9.632 -39.268,-25.191 -51.123,-46.6778 -3.704,-42.9734 -14.078,-77.0567 -31.119,-102.248 -17.041,-25.1913 -42.974,-43.3432 -77.797,-54.457 -34.082,-11.8548 -79.648,-17.7832 -136.699,-17.7832 -40.751,0 -93.727,2.9652 -158.928,8.8925 80.02,-22.9685 173.746,-60.7559 281.18,-113.3613 -7.409,-33.3415 -18.524,-61.4963 -33.342,-84.4648 -14.077,-23.7095 -28.896,-41.1226 -44.455,-52.2364 -34.082,18.523 -98.913,54.8288 -194.492,108.9161 -94.838,54.0872 -150.037,87.4297 -165.596,100.0253 1.482,25.1913 8.892,60.0136 22.228,104.4688 14.078,43.7144 32.971,80.0201 56.68,108.916 59.274,-21.4867 124.846,-32.2305 196.715,-32.2305 44.455,0 80.391,4.8154 107.805,14.4473 28.155,8.8911 40.751,21.1165 37.787,36.6758 -25.191,4.4455 -85.948,11.4852 -182.268,21.1172 -95.578,8.891 -167.077,13.3359 -214.496,13.3359 h -38.881 c -21.486,0 -38.527,-9.2621 -51.123,-27.7851 -11.855,-18.523 -17.783,-42.6015 -17.783,-72.2383 v -377.8711 c -3.704,-0.7407 -10.37,-1.1112 -19.998,-1.1113 v 0 z m -271.398,112.25 c -23.71,0 -46.677,3.3336 -68.905,10.0019 -22.227,5.9273 -46.308,16.3007 -72.24,31.1192 17.041,57.7918 28.896,104.4709 35.565,140.0351 7.409,34.8233 11.483,78.5372 12.224,131.1426 -29.637,20.0049 -68.535,36.6752 -116.695,50.0117 -47.419,12.5957 -94.467,18.8945 -141.145,18.8945 -63.719,0 -116.695,-11.4846 -158.928,-34.4531 -42.232,-23.7095 -63.349,-60.0152 -63.349,-108.916 0,-47.4189 22.969,-97.4317 68.906,-150.0371 -17.782,-19.2639 -36.304,-32.6006 -55.568,-40.0098 -18.523,-8.1501 -40.381,-12.2246 -65.572,-12.2246 -25.933,28.155 -47.418,65.572 -64.459,112.25 -16.301,45.9371 -24.452,93.3551 -24.452,142.2559 0,58.5328 14.448,110.3976 43.344,155.5937 28.896,45.1962 70.017,80.3907 123.363,105.5821 53.347,25.1912 115.214,37.7871 185.602,37.7871 60.755,0 122.992,-8.8918 186.711,-26.6739 64.46,-18.523 119.659,-51.1227 165.596,-97.8007 46.678,-47.419 70.017,-111.1389 70.017,-191.1583 0,-51.1235 -2.222,-101.1363 -6.668,-150.0371 -4.445,-48.9008 -10.374,-89.281 -17.783,-121.1406 -16.3,-1.4818 -28.155,-2.2226 -35.564,-2.2226 z m -1920.4205,72.1621 a 69.717579,69.717579 0 0 0 -53.738,114.4082 c 94.432,116.3732 236.437,184.0156 386.3045,184.0156 149.8197,0 291.7845,-67.5999 386.2187,-183.9102 a 69.717579,69.717579 0 1 0 -108.2402,-87.8808 c -68.0227,83.7805 -170.0606,132.371 -277.9785,132.3711 -107.9522,0 -210.0195,-48.6215 -278.0405,-132.4473 a 69.717579,69.717579 0 0 0 -54.526,-26.5566 z m 3677.8285,51.2011 c 22.227,0 40.75,9.2622 55.568,27.7852 14.818,17.7821 22.229,40.0085 22.229,66.6816 0,18.5231 -7.411,35.9361 -22.229,52.2364 -14.078,16.3002 -33.711,31.1184 -58.902,44.455 -41.492,-28.155 -70.76,-69.276 -87.801,-123.3632 11.114,-21.4868 24.821,-38.157 41.121,-50.0118 16.3,-11.8547 32.972,-17.7832 50.014,-17.7832 z"
         style="font-style:normal;font-variant:normal;font-weight:normal;font-stretch:normal;font-size:1111.38146973px;line-height:1.25;font-family:MolsaqArabic-ExtraBold;-inkscape-font-specification:MolsaqArabic-ExtraBold;letter-spacing:0px;word-spacing:0px;fill:#b8252f;fill-opacity:1;stroke:none;stroke-width:232.30961609" />
    </g>
  </g>
</svg>
