<?xml version="1.0" encoding="UTF-8" standalone="no"?>
<!-- Created with Inkscape (http://www.inkscape.org/) -->

<svg
   xmlns:dc="http://purl.org/dc/elements/1.1/"
   xmlns:cc="http://creativecommons.org/ns#"
   xmlns:rdf="http://www.w3.org/1999/02/22-rdf-syntax-ns#"
   xmlns:svg="http://www.w3.org/2000/svg"
   xmlns="http://www.w3.org/2000/svg"
   xmlns:sodipodi="http://sodipodi.sourceforge.net/DTD/sodipodi-0.dtd"
   xmlns:inkscape="http://www.inkscape.org/namespaces/inkscape"
   width="80.433334mm"
   height="60.324997mm"
   viewBox="0 0 80.433335 60.324997"
   version="1.1"
   id="svg8"
   inkscape:version="0.92.4 5da689c313, 2019-01-14"
   sodipodi:docname="Mercato.svg"
   inkscape:export-filename="/media/gobadri/01f0b433-191e-4a57-a8bf-de661da7cc46/2019/Bloomberg/TripleB3.png"
   inkscape:export-xdpi="72"
   inkscape:export-ydpi="72">
  <defs
     id="defs2" />
  <sodipodi:namedview
     id="base"
     pagecolor="#ffffff"
     bordercolor="#666666"
     borderopacity="1.0"
     inkscape:pageopacity="0.0"
     inkscape:pageshadow="2"
     inkscape:zoom="0.35000002"
     inkscape:cx="-375.19957"
     inkscape:cy="145.38455"
     inkscape:document-units="mm"
     inkscape:current-layer="layer1"
     showgrid="false"
     inkscape:snap-intersection-paths="true"
     inkscape:object-paths="true"
     showguides="false"
     inkscape:guide-bbox="true"
     inkscape:snap-object-midpoints="true"
     inkscape:snap-center="true"
     inkscape:window-width="1366"
     inkscape:window-height="674"
     inkscape:window-x="0"
     inkscape:window-y="26"
     inkscape:window-maximized="1"
     inkscape:snap-global="true"
     inkscape:snap-page="true">
    <sodipodi:guide
       position="3244.5475,335.64288"
       orientation="1,0"
       id="guide819"
       inkscape:locked="false" />
    <sodipodi:guide
       position="3244.5475,335.64288"
       orientation="0,1"
       id="guide821"
       inkscape:locked="false" />
  </sodipodi:namedview>
  <metadata
     id="metadata5">
    <rdf:RDF>
      <cc:Work
         rdf:about="">
        <dc:format>image/svg+xml</dc:format>
        <dc:type
           rdf:resource="http://purl.org/dc/dcmitype/StillImage" />
        <dc:title />
      </cc:Work>
    </rdf:RDF>
  </metadata>
  <g
     inkscape:label="Layer 1"
     inkscape:groupmode="layer"
     id="layer1"
     transform="translate(6827.6724,-716.51331)">
    <rect
       y="716.51331"
       x="-6827.6724"
       height="60.324997"
       width="80.433334"
       id="rect986"
       style="opacity:1;fill:#f2f2f2;fill-opacity:1;fill-rule:nonzero;stroke:none;stroke-width:9.99999905;stroke-linecap:round;stroke-linejoin:round;stroke-miterlimit:4;stroke-dasharray:none;stroke-dashoffset:0;stroke-opacity:1;paint-order:markers fill stroke" />
    <g
       id="g1045"
       transform="matrix(0.25353486,0,0,0.25353486,-6724.3025,789.27438)"
       style="stroke-width:3.94423056">
      <path
         d="m -269.1556,-160.82907 q 0,0.17067 -0.17067,2.38944 h -23.15478 q 0.6258,2.84456 2.95835,4.49441 2.33254,1.64985 5.80292,1.64985 2.38943,0 4.20996,-0.68269 1.87741,-0.73959 3.47037,-2.27566 l 4.72198,5.12023 q -4.32374,4.94954 -12.62988,4.94954 -5.17711,0 -9.15951,-1.99119 -3.98239,-2.04809 -6.14427,-5.63225 -2.16187,-3.58415 -2.16187,-8.13546 0,-4.49442 2.10498,-8.07858 2.16187,-3.64104 5.85981,-5.63224 3.75483,-2.04809 8.36303,-2.04809 4.49442,0 8.13547,1.93431 3.64104,1.9343 5.68913,5.57535 2.10498,3.58416 2.10498,8.36303 z m -15.87269,-9.15951 q -3.01524,0 -5.06333,1.70674 -2.04809,1.70674 -2.50322,4.66509 h 15.07621 q -0.45513,-2.90146 -2.50322,-4.6082 -2.04808,-1.76363 -5.00644,-1.76363 z"
         style="font-style:normal;font-variant:normal;font-weight:bold;font-stretch:normal;font-size:56.89136124px;line-height:1.25;font-family:Montserrat;-inkscape-font-specification:'Montserrat Bold';letter-spacing:0px;word-spacing:0px;fill:#003380;fill-opacity:1;stroke:none;stroke-width:5.60981655"
         id="path1021"
         inkscape:connector-curvature="0" />
      <path
         d="m -257.44559,-172.20734 q 1.59296,-2.21877 4.26685,-3.35659 2.73079,-1.13783 6.25805,-1.13783 v 8.19236 q -1.47918,-0.11379 -1.9912,-0.11379 -3.81172,0 -5.97359,2.16187 -2.16187,2.10499 -2.16187,6.37184 v 14.4504 h -8.87505 v -30.60755 h 8.47681 z"
         style="font-style:normal;font-variant:normal;font-weight:bold;font-stretch:normal;font-size:56.89136124px;line-height:1.25;font-family:Montserrat;-inkscape-font-specification:'Montserrat Bold';letter-spacing:0px;word-spacing:0px;fill:#003380;fill-opacity:1;stroke:none;stroke-width:5.60981655"
         id="path1023"
         inkscape:connector-curvature="0" />
      <path
         d="m -230.06252,-145.18395 q -4.89266,0 -8.81816,-1.99119 -3.86861,-2.04809 -6.08737,-5.63225 -2.16188,-3.58415 -2.16188,-8.13546 0,-4.55131 2.16188,-8.13547 2.21876,-3.58415 6.08737,-5.57535 3.9255,-2.04809 8.81816,-2.04809 4.83577,0 8.41992,2.04809 3.64105,1.9912 5.2909,5.74603 l -6.88385,3.69793 q -2.38944,-4.20996 -6.88386,-4.20996 -3.47037,0 -5.74603,2.27566 -2.27565,2.27565 -2.27565,6.20116 0,3.9255 2.27565,6.20116 2.27566,2.27565 5.74603,2.27565 4.55131,0 6.88386,-4.20996 l 6.88385,3.75483 q -1.64985,3.64105 -5.2909,5.68914 -3.58415,2.04808 -8.41992,2.04808 z"
         style="font-style:normal;font-variant:normal;font-weight:bold;font-stretch:normal;font-size:56.89136124px;line-height:1.25;font-family:Montserrat;-inkscape-font-specification:'Montserrat Bold';letter-spacing:0px;word-spacing:0px;fill:#003380;fill-opacity:1;stroke:none;stroke-width:5.60981655"
         id="path1025"
         inkscape:connector-curvature="0" />
      <path
         d="m -200.61152,-176.70176 q 7.11142,0 10.92314,3.41348 3.81172,3.35659 3.81172,10.18356 v 17.46564 h -8.30614 v -3.81172 q -2.50322,4.26685 -9.33018,4.26685 -3.52727,0 -6.14427,-1.19471 -2.56011,-1.19472 -3.9255,-3.2997 -1.3654,-2.10498 -1.3654,-4.77888 0,-4.26685 3.18592,-6.71318 3.24281,-2.44633 9.95599,-2.44633 h 7.05453 q 0,-2.90146 -1.76364,-4.43752 -1.76363,-1.59296 -5.29089,-1.59296 -2.44633,0 -4.83577,0.79648 -2.33254,0.73959 -3.98239,2.04809 l -3.18592,-6.20116 q 2.50322,-1.76363 5.97359,-2.73079 3.52727,-0.96715 7.22521,-0.96715 z m -0.6827,25.54422 q 2.27565,0 4.03929,-1.02404 1.76363,-1.08094 2.50322,-3.12903 v -3.12902 h -6.08738 q -5.46157,0 -5.46157,3.58415 0,1.70674 1.3085,2.73079 1.36539,0.96715 3.69794,0.96715 z"
         style="font-style:normal;font-variant:normal;font-weight:bold;font-stretch:normal;font-size:56.89136124px;line-height:1.25;font-family:Montserrat;-inkscape-font-specification:'Montserrat Bold';letter-spacing:0px;word-spacing:0px;fill:#003380;fill-opacity:1;stroke:none;stroke-width:5.60981655"
         id="path1027"
         inkscape:connector-curvature="0" />
      <path
         style="font-style:normal;font-variant:normal;font-weight:bold;font-stretch:normal;font-size:56.89136124px;line-height:1.25;font-family:Montserrat;-inkscape-font-specification:'Montserrat Bold';letter-spacing:0px;word-spacing:0px;fill:#003380;fill-opacity:1;stroke:none;stroke-width:5.60981655"
         d="m -181.69859,-184.43887 v 1.42214 7.45277 6.82698 2.04793 10.52494 c 0,3.60312 0.98625,6.33381 2.95848,8.19227 2.01016,1.85844 4.83544,2.78794 8.47649,2.78794 1.40332,0 2.73109,-0.15185 3.9827,-0.45527 1.28953,-0.34135 2.37036,-0.83421 3.24269,-1.47898 l -2.38951,-6.25802 c -0.98612,0.75856 -2.18096,1.13792 -3.58428,1.13792 -1.21368,0 -2.16157,-0.34153 -2.84427,-1.02423 -0.64477,-0.72062 -0.96738,-1.72578 -0.96738,-3.01532 v -10.41125 h 8.87491 v -8.87491 h -1.25109 -7.62382 v -7.45277 -1.42214 z"
         id="path1029"
         inkscape:connector-curvature="0" />
      <path
         d="m -145.91692,-145.18395 q -4.83577,0 -8.70438,-1.99119 -3.81172,-2.04809 -5.97359,-5.63225 -2.16187,-3.58415 -2.16187,-8.13546 0,-4.55131 2.16187,-8.13547 2.16187,-3.58415 5.97359,-5.57535 3.86861,-2.04809 8.70438,-2.04809 4.83577,0 8.64749,2.04809 3.81172,1.9912 5.97359,5.57535 2.16187,3.58416 2.16187,8.13547 0,4.55131 -2.16187,8.13546 -2.16187,3.58416 -5.97359,5.63225 -3.81172,1.99119 -8.64749,1.99119 z m 0,-7.28209 q 3.41348,0 5.57535,-2.27565 2.21877,-2.33255 2.21877,-6.20116 0,-3.86862 -2.21877,-6.14427 -2.16187,-2.33255 -5.57535,-2.33255 -3.41348,0 -5.63224,2.33255 -2.21877,2.27565 -2.21877,6.14427 0,3.86861 2.21877,6.20116 2.21876,2.27565 5.63224,2.27565 z"
         style="font-style:normal;font-variant:normal;font-weight:bold;font-stretch:normal;font-size:56.89136124px;line-height:1.25;font-family:Montserrat;-inkscape-font-specification:'Montserrat Bold';letter-spacing:0px;word-spacing:0px;fill:#003380;fill-opacity:1;stroke:none;stroke-width:5.60981655"
         id="path1031"
         inkscape:connector-curvature="0" />
      <path
         sodipodi:nodetypes="ccccc"
         d="m -362.93868,-190.85334 9.56816,1.54393 -11.50284,24.023 -4.1747,-1.29885 z"
         style="font-style:normal;font-variant:normal;font-weight:normal;font-stretch:normal;font-size:56.89136124px;line-height:1.25;font-family:Montserrat;-inkscape-font-specification:Montserrat;letter-spacing:0px;word-spacing:0px;fill:#aa0000;fill-opacity:1;stroke:none;stroke-width:12.03148365"
         id="path1033"
         inkscape:connector-curvature="0" />
      <path
         d="m -318.05092,-176.70185 q 5.74603,0 9.10262,3.41348 3.41348,3.35659 3.41348,10.12666 v 17.52254 h -8.87505 v -16.15714 q 0,-3.64105 -1.53607,-5.40468 -1.47917,-1.82053 -4.26685,-1.82053 -3.12903,0 -4.94955,2.04809 -1.82052,1.9912 -1.82052,5.9736 v 15.36066 h -8.87506 v -16.15714 q 0,-7.22521 -5.80291,-7.22521 -3.07214,0 -4.89266,2.04809 -1.82053,1.9912 -1.82053,5.9736 v 15.36066 h -8.87505 v -30.60755 h 8.47682 v 3.52727 q 1.70674,-1.93431 4.15306,-2.95836 2.50322,-1.02404 5.46158,-1.02404 3.2428,0 5.85981,1.3085 2.617,1.25161 4.20996,3.69794 1.87741,-2.38944 4.72198,-3.69794 2.90146,-1.3085 6.31494,-1.3085 z"
         style="font-style:normal;font-variant:normal;font-weight:bold;font-stretch:normal;font-size:56.89136124px;line-height:1.25;font-family:Montserrat;-inkscape-font-specification:'Montserrat Bold';letter-spacing:0px;word-spacing:0px;fill:#003380;fill-opacity:1;stroke:none;stroke-width:5.60981655"
         id="path1035"
         inkscape:connector-curvature="0" />
    </g>
  </g>
</svg>
