<?xml version="1.0" encoding="UTF-8" standalone="no"?>
<!-- Created with Inkscape (http://www.inkscape.org/) -->

<svg
   xmlns:dc="http://purl.org/dc/elements/1.1/"
   xmlns:cc="http://creativecommons.org/ns#"
   xmlns:rdf="http://www.w3.org/1999/02/22-rdf-syntax-ns#"
   xmlns:svg="http://www.w3.org/2000/svg"
   xmlns="http://www.w3.org/2000/svg"
   xmlns:sodipodi="http://sodipodi.sourceforge.net/DTD/sodipodi-0.dtd"
   xmlns:inkscape="http://www.inkscape.org/namespaces/inkscape"
   width="80.433334mm"
   height="60.324997mm"
   viewBox="0 0 80.433335 60.324997"
   version="1.1"
   id="svg8"
   inkscape:version="0.92.4 5da689c313, 2019-01-14"
   sodipodi:docname="MH Designs.svg"
   inkscape:export-filename="/media/gobadri/01f0b433-191e-4a57-a8bf-de661da7cc46/2019/Bloomberg/TripleB3.png"
   inkscape:export-xdpi="72"
   inkscape:export-ydpi="72">
  <defs
     id="defs2" />
  <sodipodi:namedview
     id="base"
     pagecolor="#ffffff"
     bordercolor="#666666"
     borderopacity="1.0"
     inkscape:pageopacity="0.0"
     inkscape:pageshadow="2"
     inkscape:zoom="0.35000002"
     inkscape:cx="-375.19957"
     inkscape:cy="145.38455"
     inkscape:document-units="mm"
     inkscape:current-layer="layer1"
     showgrid="false"
     inkscape:snap-intersection-paths="true"
     inkscape:object-paths="true"
     showguides="false"
     inkscape:guide-bbox="true"
     inkscape:snap-object-midpoints="true"
     inkscape:snap-center="true"
     inkscape:window-width="1366"
     inkscape:window-height="674"
     inkscape:window-x="0"
     inkscape:window-y="26"
     inkscape:window-maximized="1"
     inkscape:snap-global="true"
     inkscape:snap-page="true">
    <sodipodi:guide
       position="3244.5475,335.64288"
       orientation="1,0"
       id="guide819"
       inkscape:locked="false" />
    <sodipodi:guide
       position="3244.5475,335.64288"
       orientation="0,1"
       id="guide821"
       inkscape:locked="false" />
  </sodipodi:namedview>
  <metadata
     id="metadata5">
    <rdf:RDF>
      <cc:Work
         rdf:about="">
        <dc:format>image/svg+xml</dc:format>
        <dc:type
           rdf:resource="http://purl.org/dc/dcmitype/StillImage" />
        <dc:title />
      </cc:Work>
    </rdf:RDF>
  </metadata>
  <g
     inkscape:label="Layer 1"
     inkscape:groupmode="layer"
     id="layer1"
     transform="translate(6827.6724,-716.51331)">
    <rect
       y="716.51331"
       x="-6827.6724"
       height="60.324997"
       width="80.433334"
       id="rect986"
       style="opacity:1;fill:#f2f2f2;fill-opacity:1;fill-rule:nonzero;stroke:none;stroke-width:9.99999905;stroke-linecap:round;stroke-linejoin:round;stroke-miterlimit:4;stroke-dasharray:none;stroke-dashoffset:0;stroke-opacity:1;paint-order:markers fill stroke" />
    <g
       id="g840"
       transform="matrix(0.03038086,0,0,0.03038086,-6802.7706,726.30253)"
       style="stroke-width:8.70888329">
      <path
         sodipodi:nodetypes="cccccccccccccccccc"
         inkscape:connector-curvature="0"
         style="opacity:1;vector-effect:none;fill:#676767;fill-opacity:1;fill-rule:evenodd;stroke:none;stroke-width:27.19173431;stroke-linecap:square;stroke-linejoin:miter;stroke-miterlimit:4;stroke-dasharray:none;stroke-dashoffset:0;stroke-opacity:1;paint-order:markers fill stroke"
         d="m 382.5126,103.7335 -59.7313,59.7314 -30.1914,30.1914 -68.7403,68.7402 64.5528,64.5527 68.7383,-68.7383 55.5156,55.5157 -98.9297,98.9277 -120.0664,-120.0684 -106.2724,106.2718 217.78,219.7699 97.622,-98.0437 9.4258,-9.4024 99.0488,-98.8086 1.9375,-1.9316 24.6426,-24.584 66.6888,-66.5951 z"
         id="path945" />
      <path
         inkscape:connector-curvature="0"
         style="opacity:1;vector-effect:none;fill:#676767;fill-opacity:1;fill-rule:evenodd;stroke:none;stroke-width:27.38791466;stroke-linecap:square;stroke-linejoin:miter;stroke-miterlimit:4;stroke-dasharray:none;stroke-dashoffset:0;stroke-opacity:1;paint-order:markers fill stroke"
         d="M 879.09181,392.8438 553.125,718.8066 682.2324,847.91406 824.9629,705.1816 v 318.2208 h 182.5859 V 522.5938 l 0.6465,-0.6465 -0.6465,-0.6465 -27.38863,-27.3887 z M 0.002,548.6016 v 474.8008 H 182.584 V 731.1816 L 97.9317,646.5313 73.0391,621.6367 Z"
         id="path937" />
      <path
         inkscape:connector-curvature="0"
         style="opacity:1;vector-effect:none;fill:#a6cc39;fill-opacity:1;fill-rule:evenodd;stroke:none;stroke-width:27.19173431;stroke-linecap:square;stroke-linejoin:miter;stroke-miterlimit:4;stroke-dasharray:none;stroke-dashoffset:0;stroke-opacity:1;paint-order:markers fill stroke"
         d="M 486.2461,0 357.1426,129.1035 541.7617,313.7246 313.7266,541.7598 276.6504,504.6856 129.1055,357.1406 0,486.2442 147.545,633.791 374.4043,860.65036 521.9512,1008.1953 651.0566,879.08986 503.5098,731.5449 442.8321,670.8652 670.8672,442.8301 725.0898,497.0547 854.19337,367.9473 799.97267,313.7246 670.8652,184.6211 Z"
         id="path939" />
      <path
         sodipodi:nodetypes="csscccc"
         inkscape:connector-curvature="0"
         id="path959"
         d="m 399.5144,300.5847 c 7.0478,7.0478 9.3761,17.1829 -1.0845,27.6435 -12.5041,12.5041 10.6933,17.6483 12.767,17.1604 2.0737,-0.4879 5.2452,2.1956 9.3925,-9.3925 4.1473,-11.5882 5.6111,-15.8575 2.6836,-23.7862 -2.9276,-7.9288 1.2198,-11.2223 -8.2947,-14.6377 -9.5145,-3.4155 -15.4639,3.0125 -15.4639,3.0125 z"
         style="opacity:1;vector-effect:none;fill:#676767;fill-opacity:1;fill-rule:evenodd;stroke:none;stroke-width:26.12664604;stroke-linecap:square;stroke-linejoin:miter;stroke-miterlimit:4;stroke-dasharray:none;stroke-dashoffset:0;stroke-opacity:1;paint-order:markers fill stroke" />
      <path
         sodipodi:nodetypes="ccccccc"
         inkscape:connector-curvature="0"
         id="path961"
         d="m 504.8502,275.7667 c 28.3748,28.3748 15.5689,59.3005 -1.1345,76.0039 0,0 33.4676,14.4918 34.8476,13.8018 1.3801,-0.69 32.7763,3.4501 28.6362,-18.2857 -4.1402,-21.7359 -11.0405,-38.9866 -17.5957,-50.372 -6.5553,-11.3854 -18.2857,-28.2911 -28.2911,-31.7412 -10.0054,-3.4502 -16.4625,10.5932 -16.4625,10.5932 z"
         style="opacity:1;vector-effect:none;fill:#a6cc39;fill-opacity:1;fill-rule:evenodd;stroke:none;stroke-width:26.12664604;stroke-linecap:square;stroke-linejoin:miter;stroke-miterlimit:4;stroke-dasharray:none;stroke-dashoffset:0;stroke-opacity:1;paint-order:markers fill stroke" />
      <path
         style="opacity:1;vector-effect:none;fill:#676767;fill-opacity:1;fill-rule:evenodd;stroke:none;stroke-width:26.12664604;stroke-linecap:square;stroke-linejoin:miter;stroke-miterlimit:4;stroke-dasharray:none;stroke-dashoffset:0;stroke-opacity:1;paint-order:markers fill stroke"
         d="m 323.7697,402.8352 c -8.6317,4.9836 -15.0852,4.8834 -25.5458,-5.5772 -14.1995,-14.1995 -20.6896,3.1362 -20.7551,5.2655 -0.065,2.1294 -3.4783,4.4982 6.6415,11.5035 10.12,7.0052 13.8649,9.5241 22.2812,8.7484 8.4163,-0.7757 10.5242,4.0828 16.2857,-4.2235 5.7617,-8.3063 1.0925,-15.7167 1.0925,-15.7167 z"
         id="path963"
         inkscape:connector-curvature="0"
         sodipodi:nodetypes="csscccc" />
      <path
         style="opacity:1;vector-effect:none;fill:#a6cc39;fill-opacity:1;fill-rule:evenodd;stroke:none;stroke-width:26.12664604;stroke-linecap:square;stroke-linejoin:miter;stroke-miterlimit:4;stroke-dasharray:none;stroke-dashoffset:0;stroke-opacity:1;paint-order:markers fill stroke"
         d="m 339.8889,515.5707 c -34.7519,20.064 -61.3094,-0.3097 -73.1205,-20.7671 0,0 -22.6601,28.5764 -22.3508,30.088 0.3093,1.5116 -11.8156,30.7665 10.2511,32.3931 22.0668,1.6266 40.5156,-0.5738 53.2097,-3.9589 12.6941,-3.3852 32.0598,-10.3404 37.9819,-19.1119 5.9222,-8.7715 -5.9714,-18.6432 -5.9714,-18.6432 z"
         id="path965"
         inkscape:connector-curvature="0"
         sodipodi:nodetypes="ccccccc" />
      <path
         d="M 4.0701856,1130.3799 V 1317.843 H 37.894839 v -135.0896 l 22.918454,135.0896 h 33.612453 l 21.600194,-135.0896 v 135.0896 h 34.26515 V 1130.3799 H 92.679856 l -15.71303,114.3543 -15.725891,-114.3543 z m 162.8245744,0 v 187.4631 h 37.32609 v -85.1146 h 17.67113 v 85.1146 h 37.32608 v -187.4631 h -37.32608 v 66.9934 h -17.67113 v -66.9934 z"
         style="fill:#676767;fill-opacity:1;fill-rule:nonzero;stroke:none;stroke-width:28.00142288"
         id="path34"
         inkscape:connector-curvature="0" />
      <path
         d="m 643.42051,1120.7694 v 26.629 h 38.19422 v -26.629 z m -316.68174,9.6105 v 187.4631 h 50.41546 c 15.13428,0 25.97296,-4.6588 32.51604,-13.9638 6.54629,-9.3211 9.7487,-23.2111 9.61044,-41.6861 l -0.44048,-87.7287 c -0.15112,-14.5587 -3.56574,-25.5357 -10.25994,-32.9565 -6.6942,-7.424 -16.73228,-11.128 -30.12067,-11.128 z M 480.2069,1156.34 c -15.13429,0 -26.91504,3.8551 -35.35514,11.5686 -8.44008,7.7102 -12.66174,18.9121 -12.66174,33.6091 v 64.1673 c 0,17.8961 3.56896,31.3488 10.69079,40.3644 7.13146,9.0189 18.91223,13.5396 35.35512,13.5396 17.60684,0 29.97919,-4.3696 37.10103,-13.0991 7.28259,-8.8805 10.91262,-22.6194 10.91262,-41.2454 v -9.17 h -37.96592 v 15.5008 c 0,4.3567 -0.15117,7.7102 -0.4405,10.0349 -0.15118,2.1831 -0.87777,4.1445 -2.18639,5.8904 -1.16715,1.7458 -3.2024,2.6236 -6.10259,2.6236 -3.78115,0 -6.26655,-1.5304 -7.42406,-4.585 -1.16714,-3.2024 -1.74587,-7.559 -1.74587,-13.0861 v -30.9984 h 55.42806 c 0.29901,-7.2697 0.43727,-16.7292 0.43727,-28.3716 v -11.5654 c 0,-30.1206 -15.34649,-45.1777 -46.04268,-45.1777 z m 104.37093,0 c -8.72948,0 -16.65513,1.4565 -23.77695,4.3695 -7.13146,2.9034 -12.88358,7.273 -17.24349,13.0991 -4.21844,5.6652 -6.33089,12.5748 -6.33089,20.7256 0,10.4754 1.52084,18.6261 4.58499,24.4393 3.05128,5.6782 8.07676,11.2052 15.06034,16.5908 l 20.29479,15.713 c 5.23768,3.9323 9.01885,7.6363 11.34348,11.1281 2.47254,3.4917 3.70398,8.289 3.70398,14.4076 0,8.2889 -2.53684,12.4334 -7.63625,12.4334 -3.34067,0 -5.73926,-0.942 -7.19578,-2.8391 -1.45974,-2.0352 -2.18639,-4.9354 -2.18639,-8.7166 l -0.21542,-18.7771 h -38.19099 l -0.2283,12.6617 c 0,32.0016 15.787,48.0137 47.36417,48.0137 15.13428,0 26.91504,-4.0063 35.35514,-12.0059 8.44008,-7.9996 12.65851,-19.417 12.65851,-34.2619 0,-11.2052 -2.26033,-20.4491 -6.76814,-27.7188 -4.50782,-7.4241 -10.97693,-14.2565 -19.41704,-20.5103 l -23.57435,-17.2467 c -4.51105,-3.2024 -6.77138,-7.7102 -6.77138,-13.5266 0,-2.6237 0.66557,-4.659 1.97419,-6.1155 1.45652,-1.5947 3.49177,-2.3985 6.11544,-2.3985 2.90018,0 4.93545,1.3825 6.10259,4.1444 1.30861,2.6237 1.96131,5.8261 1.96131,9.6072 v 6.1058 h 39.49962 v -3.0544 c 0,-30.8442 -15.48477,-46.2678 -46.48318,-46.2678 z m 143.7837,0 c -11.78073,0 -20.08257,3.7812 -24.88297,11.3531 -4.65892,7.4241 -6.98357,18.1855 -6.98357,32.3038 v 60.0099 c 0,12.3723 2.54008,22.256 7.63627,29.6769 5.23768,7.4241 13.31444,11.1281 24.23027,11.1281 13.08615,0 21.16292,-5.4499 24.21423,-16.3625 v 8.7262 c 0,6.5591 -1.52084,11.7197 -4.57214,15.5009 -3.06413,3.7811 -7.57193,5.6749 -13.53947,5.6749 -9.17,0 -18.40103,-2.7748 -27.71886,-8.3019 l -13.08616,22.0439 c 6.2537,5.0995 12.58458,8.5141 18.97654,10.26 6.55593,1.897 15.49761,2.839 26.85394,2.839 18.1856,0 31.42283,-3.9322 39.71183,-11.7936 8.30184,-7.8485 12.44631,-20.7223 12.44631,-38.6218 v -132.6911 h -39.07199 v 17.8963 c -1.3054,-6.2537 -3.99339,-11.0509 -8.07677,-14.4044 -3.91941,-3.4919 -9.305,-5.2377 -16.13746,-5.2377 z m 140.30161,0 c -6.54311,0 -11.78074,2.0481 -15.70978,6.1155 -3.9323,4.0705 -6.69419,9.3821 -8.28901,15.9252 v -20.2949 h -38.19419 v 159.7572 h 38.19419 v -112.3961 c 0,-5.9644 0.57557,-10.7005 1.73301,-14.1923 1.31829,-3.63 3.9291,-5.4498 7.86133,-5.4498 2.91305,0 5.02227,1.2443 6.33087,3.7168 1.45656,2.4757 2.18321,5.4499 2.18321,8.9417 v 119.3797 h 37.52862 v -123.3088 c 0,-12.2213 -2.61084,-21.6034 -7.8484,-28.1465 -5.09948,-6.6942 -13.0251,-10.0477 -23.78985,-10.0477 z m 91.02111,0 c -8.72948,0 -16.66794,1.4565 -23.79938,4.3695 -7.12184,2.9034 -12.8611,7.273 -17.23392,13.0991 -4.21839,5.6652 -6.33082,12.5748 -6.33082,20.7256 0,10.4754 1.53366,18.6261 4.58499,24.4393 3.05124,5.6782 8.07673,11.2052 15.06021,16.5908 l 20.29486,15.713 c 5.23774,3.9323 9.01883,7.6363 11.34351,11.1281 2.47256,3.4917 3.71688,8.289 3.71688,14.4076 0,8.2889 -2.54973,12.4334 -7.63633,12.4334 -3.35346,0 -5.75213,-0.942 -7.20861,-2.8391 -1.45648,-2.0352 -2.18641,-4.9354 -2.18641,-8.7166 l -0.21217,-18.7771 h -38.19423 l -0.21546,12.6617 c 0,32.0016 15.79024,48.0137 47.36422,48.0137 15.12137,0 26.90217,-4.0063 35.34227,-12.0059 8.44014,-7.9996 12.66174,-19.417 12.66174,-34.2619 0,-11.2052 -2.2636,-20.4491 -6.7714,-27.7188 -4.50784,-7.4241 -10.97694,-14.2565 -19.41694,-20.5103 l -23.57446,-17.2467 c -4.50782,-3.2024 -6.75853,-7.7102 -6.75853,-13.5266 0,-2.6237 0.65275,-4.659 1.96137,-6.1155 1.45648,-1.5947 3.49183,-2.3985 6.11545,-2.3985 2.90018,0 4.94823,1.3825 6.10578,4.1444 1.31829,2.6237 1.97096,5.8261 1.97096,9.6072 v 6.1058 h 39.49957 v -3.0544 c 0,-30.8442 -15.49764,-46.2678 -46.48315,-46.2678 z m -316.26374,1.7458 v 159.7572 h 38.19422 v -159.7572 z m -278.92481,5.0223 h 4.14448 c 3.64291,0 6.32766,0.3665 8.07356,1.0932 1.74588,0.7299 2.91625,2.1735 3.49177,4.3599 0.72987,2.0321 1.0932,5.1734 1.0932,9.3919 v 96.6735 c 0,6.6942 -3.41462,10.0349 -10.24707,10.0349 h -6.55594 z m 115.2707,21.6034 c 5.67818,0 8.51726,5.7521 8.51726,17.2435 v 20.5102 h -18.12448 v -20.5102 c 0,-11.4914 3.20239,-17.2435 9.60722,-17.2435 z m 263.65225,0.6528 c 2.614,0 4.79721,1.4564 6.54311,4.3727 1.7459,2.913 2.614,5.9644 2.614,9.1668 v 56.9585 c 0,10.7648 -2.97732,16.1503 -8.94168,16.1503 -3.49181,0 -5.81639,-1.4565 -6.98353,-4.3696 -1.17041,-3.0513 -1.74591,-6.9835 -1.74591,-11.7807 v -56.9585 c 0,-4.2185 0.5755,-7.4981 1.74591,-9.8228 1.16714,-2.4724 3.41456,-3.7167 6.7681,-3.7167 z"
         style="fill:#a6cc38;fill-opacity:1;fill-rule:nonzero;stroke:none;stroke-width:28.00142288"
         id="path36"
         inkscape:connector-curvature="0" />
    </g>
  </g>
</svg>
