<?xml version="1.0" encoding="UTF-8" standalone="no"?>
<!-- Created with Inkscape (http://www.inkscape.org/) -->

<svg
   xmlns:dc="http://purl.org/dc/elements/1.1/"
   xmlns:cc="http://creativecommons.org/ns#"
   xmlns:rdf="http://www.w3.org/1999/02/22-rdf-syntax-ns#"
   xmlns:svg="http://www.w3.org/2000/svg"
   xmlns="http://www.w3.org/2000/svg"
   xmlns:sodipodi="http://sodipodi.sourceforge.net/DTD/sodipodi-0.dtd"
   xmlns:inkscape="http://www.inkscape.org/namespaces/inkscape"
   width="80.433334mm"
   height="60.324997mm"
   viewBox="0 0 80.433335 60.324997"
   version="1.1"
   id="svg8"
   inkscape:version="0.92.4 5da689c313, 2019-01-14"
   sodipodi:docname="Shahyn.svg"
   inkscape:export-filename="/media/gobadri/01f0b433-191e-4a57-a8bf-de661da7cc46/2019/Bloomberg/TripleB3.png"
   inkscape:export-xdpi="72"
   inkscape:export-ydpi="72">
  <defs
     id="defs2">
    <clipPath
       clipPathUnits="userSpaceOnUse"
       id="clipPath984">
      <rect
         style="opacity:1;fill:#f2f2f2;fill-opacity:1;fill-rule:nonzero;stroke:none;stroke-width:9.99999905;stroke-linecap:round;stroke-linejoin:round;stroke-miterlimit:4;stroke-dasharray:none;stroke-dashoffset:0;stroke-opacity:1;paint-order:markers fill stroke"
         id="rect986"
         width="705.5556"
         height="529.16669"
         x="-7082.5547"
         y="440.8175" />
    </clipPath>
  </defs>
  <sodipodi:namedview
     id="base"
     pagecolor="#ffffff"
     bordercolor="#666666"
     borderopacity="1.0"
     inkscape:pageopacity="0.0"
     inkscape:pageshadow="2"
     inkscape:zoom="0.35000002"
     inkscape:cx="30.514689"
     inkscape:cy="185.38461"
     inkscape:document-units="mm"
     inkscape:current-layer="layer1"
     showgrid="false"
     inkscape:snap-intersection-paths="true"
     inkscape:object-paths="true"
     showguides="false"
     inkscape:guide-bbox="true"
     inkscape:snap-object-midpoints="true"
     inkscape:snap-center="true"
     inkscape:window-width="1366"
     inkscape:window-height="674"
     inkscape:window-x="0"
     inkscape:window-y="26"
     inkscape:window-maximized="1"
     inkscape:snap-global="true"
     inkscape:snap-page="true">
    <sodipodi:guide
       position="3244.5475,335.6429"
       orientation="1,0"
       id="guide819"
       inkscape:locked="false" />
    <sodipodi:guide
       position="3244.5475,335.6429"
       orientation="0,1"
       id="guide821"
       inkscape:locked="false" />
  </sodipodi:namedview>
  <metadata
     id="metadata5">
    <rdf:RDF>
      <cc:Work
         rdf:about="">
        <dc:format>image/svg+xml</dc:format>
        <dc:type
           rdf:resource="http://purl.org/dc/dcmitype/StillImage" />
        <dc:title />
      </cc:Work>
    </rdf:RDF>
  </metadata>
  <g
     inkscape:label="Layer 1"
     inkscape:groupmode="layer"
     id="layer1"
     transform="translate(6827.6724,-716.51332)">
    <g
       id="g982"
       transform="matrix(0.11399999,0,0,0.11399999,-6020.2612,666.26013)"
       style="stroke-width:8.77192974"
       clip-path="url(#clipPath984)">
      <rect
         y="308.52582"
         x="-7126.6514"
         height="793.75"
         width="793.75"
         id="rect860"
         style="opacity:1;fill:#ffdf00;fill-opacity:1;stroke:none;stroke-width:87.71930695;stroke-linecap:round;stroke-linejoin:miter;stroke-miterlimit:4;stroke-dasharray:none;stroke-dashoffset:0;stroke-opacity:1;paint-order:markers fill stroke" />
      <path
         id="rect916"
         d="m -7126.6516,308.52583 v 44.09705 h 44.0971 v -44.09705 z m 44.0971,44.09705 v 44.09705 h -44.0971 v 44.09757 h 44.0971 v -44.09705 h 44.0975 v 44.09705 h 44.0971 v -44.09705 h 44.097 v 44.09705 h -44.097 v 44.09705 h 44.097 v 44.09705 h -44.097 v 44.09705 h 44.097 v 44.09756 h -44.097 v 44.097 h 44.097 v 44.0971 h -44.097 v 44.0971 h 44.097 v 44.0975 h -44.097 v 44.0971 h 44.097 v 44.097 h -44.097 v 44.0971 h 44.097 v 44.097 h -44.097 v -44.097 h -44.0971 v 44.097 h -44.0975 v -44.097 h -44.0971 v 44.0975 h 44.0971 v 44.09709 h 44.0975 v -44.09709 h 44.0971 v 44.09709 h 44.097 v 44.097 h -44.097 v 44.0971 h 44.0975 v -44.0971 h 44.0971 v -44.097 h -44.0971 v -44.09709 h 44.0971 v 44.09709 h 44.097 v -44.09709 h 44.0971 v -44.0975 h -44.0971 v 44.097 h -44.097 v -44.097 h -44.0971 v -44.0971 h 44.0971 v -44.097 h -44.0971 v -44.0971 h 44.0971 v -44.0975 h -44.0971 v -44.0971 h 44.0971 v -44.0971 h -44.0971 v -44.097 h 44.0971 v -44.09756 h -44.0971 V 529.0116 h 44.0971 v -44.09705 h -44.0971 V 440.8175 h 44.0971 v -44.09705 h 44.097 v 44.09705 h 44.0971 v -44.09757 h -44.0971 v -44.09705 h -44.097 v 44.09705 h -44.0971 v -44.09705 h 44.0971 v -44.09705 h -44.0976 v 44.09705 h -44.097 v 44.09705 h -44.0971 v -44.09705 z m 44.0975,0 h 44.0971 v -44.09705 h -44.0971 z m 176.3887,0 h 44.0971 v -44.09705 h -44.0971 z m 0,88.19462 h -44.097 v 44.09705 h 44.097 z m 0,44.09705 v 44.09705 h 44.0971 v -44.09705 z m 0,44.09705 h -44.097 v 44.09705 h 44.097 z m 0,44.09705 v 44.09756 h 44.0971 v -44.09756 z m 0,44.09756 h -44.097 v 44.097 h 44.097 z m 0,44.097 v 44.0971 h 44.0971 v -44.0971 z m 0,44.0971 h -44.097 v 44.0971 h 44.097 z m 0,44.0971 v 44.0975 h 44.0971 v -44.0975 z m 0,44.0975 h -44.097 v 44.0971 h 44.097 z m 0,44.0971 v 44.097 h 44.0971 v -44.097 z m 0,44.097 h -44.097 v 44.0971 h 44.097 z m 0,132.29169 v 44.097 h 44.0971 v -44.097 z m 0,44.097 h -44.097 v 44.0971 h 44.097 z m -132.2916,0 v -44.097 h -44.0971 v 44.097 z m -44.0971,0 h -44.0975 v 44.0971 h 44.0975 z m -44.0975,0 v -44.097 h -44.0971 v 44.097 z m 0,-132.29159 h 44.0975 v -44.0971 h -44.0975 z m 0,-44.0971 v -44.097 h -44.0971 v 44.097 z m 0,-44.097 h 44.0975 v -44.0971 h -44.0975 z m 0,-44.0971 v -44.0975 h -44.0971 v 44.0975 z m 0,-44.0975 h 44.0975 v -44.0971 h -44.0975 z m 0,-44.0971 v -44.0971 h -44.0971 v 44.0971 z m 0,-44.0971 h 44.0975 v -44.097 h -44.0975 z m 0,-44.097 v -44.09756 h -44.0971 v 44.09756 z m 0,-44.09756 h 44.0975 V 529.0116 h -44.0975 z m 0,-44.09705 v -44.09705 h -44.0971 v 44.09705 z m 0,-44.09705 h 44.0975 V 440.8175 h -44.0975 z m 44.0975,0 v 44.09705 h 44.0971 v -44.09705 z m 0,88.1941 v 44.09756 h 44.0971 v -44.09756 z m 0,88.19456 v 44.0971 h 44.0971 v -44.0971 z m 0,88.1942 v 44.0975 h 44.0971 v -44.0975 z m 0,88.1946 v 44.097 h 44.0971 v -44.097 z m 264.5834,-529.16618 v 44.09705 h 44.097 v -44.09705 z m 44.097,44.09705 v 44.09705 h -44.097 v -44.09705 h -44.0971 v 44.09757 h 44.0971 v 44.09705 h 44.097 v -44.09705 h 44.097 v 44.09705 h 44.0976 v -44.09705 h 44.0971 v 44.09705 h 44.097 v -44.09705 h 44.0976 v 44.09705 h 44.097 v -44.09705 h 44.0971 v 44.09705 h 44.0976 v -44.09705 h 44.097 v -44.09757 h -44.097 v 44.09705 h -44.0976 v -44.09705 h -44.0971 v 44.09705 h -44.097 v -44.09705 h -44.0976 v 44.09705 h -44.097 v -44.09705 h -44.0971 v 44.09705 h -44.0976 v -44.09705 z m 44.097,0 h 44.0976 v -44.09705 h -44.0976 z m 88.1947,0 h 44.097 v -44.09705 h -44.097 z m 88.1946,0 h 44.097 v -44.09705 h -44.097 z m 88.1941,0 h 44.0976 v -44.09705 h -44.0976 z m 44.0976,88.19462 v 44.09705 h 44.097 V 440.8175 Z m 0,44.09705 h -44.0976 v 44.09705 h 44.0976 z m 0,44.09705 v 44.09705 h 44.097 V 529.0116 Z m 0,44.09705 h -44.0976 v 44.09756 h 44.0976 z m 0,44.09756 v 44.097 h 44.097 v -44.097 z m 0,44.097 h -44.0976 v 44.0971 h 44.0976 z m 0,44.0971 v 44.0971 h 44.097 v -44.0971 z m 0,44.0971 h -44.0976 v 44.0975 h 44.0976 z m 0,44.0975 v 44.0971 h 44.097 v -44.0971 z m 0,44.0971 h -44.0976 v 44.097 h 44.0976 z m 0,44.097 v 44.0971 h 44.097 v -44.0971 z m 0,44.0971 h -44.0976 v 44.097 h -44.0971 v -44.097 h -44.097 v 44.097 h -44.0976 v -44.097 h -44.097 v 44.097 h -44.0971 v -44.097 h -44.0976 v 44.097 h -44.097 v -44.097 h -44.097 v 44.097 h -44.0971 v 44.09759 h 44.0971 v -44.09709 h 44.097 v 44.09709 h 44.097 v -44.09709 h 44.0976 v 44.09709 h 44.0971 v -44.09709 h 44.097 v 44.09709 h 44.0976 v -44.09709 h 44.097 v 44.09709 h 44.0971 v -44.09709 h 44.0976 v 44.09709 h 44.097 v -44.09759 h -44.097 z m 0,88.19459 h -44.0976 v 44.097 h 44.0976 z m 0,44.097 v 44.0971 h 44.097 v -44.0971 z m -44.0976,0 h -44.0971 v 44.0971 h 44.0971 z m -44.0971,0 v -44.097 h -44.097 v 44.097 z m -44.097,0 h -44.0976 v 44.0971 h 44.0976 z m -44.0976,0 v -44.097 h -44.097 v 44.097 z m -44.097,0 h -44.0971 v 44.0971 h 44.0971 z m -44.0971,0 v -44.097 h -44.0976 v 44.097 z m -44.0976,0 h -44.097 v 44.0971 h 44.097 z m -44.097,0 v -44.097 h -44.097 v 44.097 z m -44.097,0 h -44.0971 v 44.0971 h 44.0971 z m 0,-132.29159 v -44.0971 h -44.0971 v 44.0971 z m 0,-44.0971 h 44.097 v -44.097 h -44.097 z m 0,-44.097 v -44.0971 h -44.0971 v 44.0971 z m 0,-44.0971 h 44.097 v -44.0975 h -44.097 z m 0,-44.0975 v -44.0971 h -44.0971 v 44.0971 z m 0,-44.0971 h 44.097 v -44.0971 h -44.097 z m 0,-44.0971 v -44.097 h -44.0971 v 44.097 z m 0,-44.097 h 44.097 v -44.09756 h -44.097 z m 0,-44.09756 V 529.0116 h -44.0971 v 44.09705 z m 0,-44.09705 h 44.097 v -44.09705 h -44.097 z m 0,-44.09705 V 440.8175 h -44.0971 v 44.09705 z m 44.097,0 h 44.097 V 440.8175 h -44.097 z m 44.097,0 v 44.09705 h 44.0976 v -44.09705 z m 44.0976,0 h 44.0971 V 440.8175 h -44.0971 z m 44.0971,0 v 44.09705 h 44.097 v -44.09705 z m 44.097,0 h 44.0976 V 440.8175 h -44.0976 z m 44.0976,0 v 44.09705 h 44.097 v -44.09705 z m 44.097,0 h 44.0971 V 440.8175 h -44.0971 z m 0,44.09705 v 44.09705 h 44.0971 V 529.0116 Z m 0,44.09705 h -44.097 v 44.09756 h 44.097 z m 0,44.09756 v 44.097 h 44.0971 v -44.097 z m 0,44.097 h -44.097 v 44.0971 h 44.097 z m 0,44.0971 v 44.0971 h 44.0971 v -44.0971 z m 0,44.0971 h -44.097 v 44.0975 h 44.097 z m 0,44.0975 v 44.0971 h 44.0971 v -44.0971 z m 0,44.0971 h -44.097 v 44.097 h 44.097 z m 0,44.097 v 44.0971 h 44.0971 v -44.0971 z m -44.097,0 h -44.0976 v 44.0971 h 44.0976 z m -44.0976,0 v -44.097 h -44.097 v 44.097 z m -44.097,0 h -44.0971 v 44.0971 h 44.0971 z m -44.0971,0 v -44.097 h -44.0976 v 44.097 z m -44.0976,0 h -44.097 v 44.0971 h 44.097 z m 0,-44.097 v -44.0971 h -44.097 v 44.0971 z m 0,-44.0971 h 44.0976 v -44.0975 h -44.0976 z m 0,-44.0975 v -44.0971 h -44.097 v 44.0971 z m 0,-44.0971 h 44.0976 v -44.0971 h -44.0976 z m 0,-44.0971 v -44.097 h -44.097 v 44.097 z m 0,-44.097 h 44.0976 v -44.09756 h -44.0976 z m 0,-44.09756 V 529.0116 h -44.097 v 44.09705 z m 44.0976,0 h 44.0971 V 529.0116 h -44.0971 z m 44.0971,0 v 44.09756 h 44.097 v -44.09756 z m 44.097,0 h 44.0976 V 529.0116 h -44.0976 z m 0,44.09756 v 44.097 h 44.0976 v -44.097 z m 0,44.097 h -44.097 v 44.0971 h 44.097 z m 0,44.0971 v 44.0971 h 44.0976 v -44.0971 z m 0,44.0971 h -44.097 v 44.0975 h 44.097 z m 0,44.0975 v 44.0971 h 44.0976 v -44.0971 z m -44.097,0 h -44.0971 v 44.0971 h 44.0971 z m 0,-44.0975 v -44.0971 h -44.0971 v 44.0971 z m 0,-88.1942 v -44.097 h -44.0971 v 44.097 z"
         style="opacity:0.35;fill:#ffff00;fill-opacity:1;stroke:none;stroke-width:144.98040771;stroke-linecap:round;stroke-linejoin:round;stroke-miterlimit:4;stroke-dasharray:none;stroke-dashoffset:0;stroke-opacity:1;paint-order:markers fill stroke"
         inkscape:connector-curvature="0" />
    </g>
    <path
       style="color:#000000;font-style:normal;font-variant:normal;font-weight:normal;font-stretch:normal;font-size:medium;line-height:normal;font-family:sans-serif;font-variant-ligatures:normal;font-variant-position:normal;font-variant-caps:normal;font-variant-numeric:normal;font-variant-alternates:normal;font-feature-settings:normal;text-indent:0;text-align:start;text-decoration:none;text-decoration-line:none;text-decoration-style:solid;text-decoration-color:#000000;letter-spacing:normal;word-spacing:normal;text-transform:none;writing-mode:lr-tb;direction:ltr;text-orientation:mixed;dominant-baseline:auto;baseline-shift:baseline;text-anchor:start;white-space:normal;shape-padding:0;clip-rule:nonzero;display:inline;overflow:visible;visibility:visible;opacity:1;isolation:auto;mix-blend-mode:normal;color-interpolation:sRGB;color-interpolation-filters:linearRGB;solid-color:#000000;solid-opacity:1;vector-effect:none;fill:#000000;fill-opacity:1;fill-rule:nonzero;stroke:none;stroke-width:17;stroke-linecap:square;stroke-linejoin:miter;stroke-miterlimit:4;stroke-dasharray:none;stroke-dashoffset:0;stroke-opacity:1;paint-order:markers fill stroke;color-rendering:auto;image-rendering:auto;shape-rendering:auto;text-rendering:auto;enable-background:accumulate"
       d="m -6777.5175,728.80424 -3.6348,2.82699 -1.0015,0.77905 1.5581,2.00296 0.5406,-0.42041 v 14.99938 l -0.8829,-0.5612 -1.1997,-0.76246 v -4.04034 l 0.1787,-0.30964 -0.1787,0.10321 v -10.51271 l -10.8626,10.86232 4.8821,3.10299 -5.9192,3.41735 2.0001,-3.46425 -11.9617,3.20506 v 5.04418 l -11.7409,-20.33632 -2.3246,0.96272 4.3377,16.18952 0.3287,1.22547 2.451,-0.65663 -0.3283,-1.22569 -1.8434,-6.88014 11.6575,20.19175 v -12.56759 l 4.1632,-1.11546 -3.6725,6.36059 12.0787,-6.97348 -1.1111,1.92429 7.8653,7.86531 v -9.36563 l 0.9093,0.57817 1.1733,-1.8459 v 8.29189 l 8.1822,-6.45563 v 3.29956 l 6.5344,-1.7508 -2.378,2.37788 -0.8971,0.89715 1.7942,1.79453 0.8975,-0.89715 9.0749,-9.07526 -12.4882,3.34623 v -5.22678 l -8.1823,6.4554 z m 5.6446,9.08668 v 6.82598 h 2.5377 v -2.43048 l 5.3116,3.06659 1.2689,-2.19775 z m -12.8025,1.14439 v 5.85153 l -0.9636,0.55627 -3.3287,-2.11552 z m -18.8404,2.70742 -3.4311,5.94303 2.1977,1.26889 3.4311,-5.94311 z m 18.4016,7.04074 0.4388,0.27902 v 4.8521 l -2.1565,-2.15633 z m -9.7211,6.94116 -4.8685,2.81086 1.2689,2.19775 1.0619,-0.61312 v 2.35026 l 6.2401,-3.6028 -1.2688,-2.19775 -2.4336,1.40528 z"
       id="path898"
       inkscape:connector-curvature="0" />
  </g>
</svg>
