<?xml version="1.0" encoding="UTF-8" standalone="no"?>
<!-- Created with Inkscape (http://www.inkscape.org/) -->

<svg
   xmlns:dc="http://purl.org/dc/elements/1.1/"
   xmlns:cc="http://creativecommons.org/ns#"
   xmlns:rdf="http://www.w3.org/1999/02/22-rdf-syntax-ns#"
   xmlns:svg="http://www.w3.org/2000/svg"
   xmlns="http://www.w3.org/2000/svg"
   xmlns:xlink="http://www.w3.org/1999/xlink"
   xmlns:sodipodi="http://sodipodi.sourceforge.net/DTD/sodipodi-0.dtd"
   xmlns:inkscape="http://www.inkscape.org/namespaces/inkscape"
   width="1000"
   height="999.74182"
   version="1.1"
   viewBox="0 0 999.99999 999.74181"
   id="svg197"
   sodipodi:docname="IslamIcon.svg"
   inkscape:version="0.92.4 5da689c313, 2019-01-14">
  <sodipodi:namedview
     pagecolor="#ffffff"
     bordercolor="#666666"
     borderopacity="1"
     objecttolerance="10"
     gridtolerance="10"
     guidetolerance="10"
     inkscape:pageopacity="0"
     inkscape:pageshadow="2"
     inkscape:window-width="1366"
     inkscape:window-height="728"
     id="namedview199"
     showgrid="false"
     inkscape:zoom="0.29238751"
     inkscape:cx="345.31177"
     inkscape:cy="488.90332"
     inkscape:window-x="0"
     inkscape:window-y="0"
     inkscape:window-maximized="1"
     inkscape:current-layer="svg197"
     inkscape:snap-smooth-nodes="false"
     inkscape:object-paths="true" />
  <metadata
     id="metadata2">
    <rdf:RDF>
      <cc:Work
         rdf:about="">
        <dc:format>image/svg+xml</dc:format>
        <dc:type
           rdf:resource="http://purl.org/dc/dcmitype/StillImage" />
        <dc:title></dc:title>
      </cc:Work>
    </rdf:RDF>
  </metadata>
  <defs
     id="defs11">
    <linearGradient
       id="linearGradient974">
      <stop
         stop-color="#d18b10"
         offset="0"
         id="stop4" />
      <stop
         stop-color="#614008"
         offset="1"
         id="stop6" />
    </linearGradient>
    <radialGradient
       id="radialGradient1149"
       cx="1538.3"
       cy="7611.3999"
       r="40.353001"
       gradientTransform="matrix(0.40717122,0,0,0.27107424,-285.83045,-1670.0448)"
       gradientUnits="userSpaceOnUse"
       xlink:href="#linearGradient974" />
    <radialGradient
       id="radialGradient1151"
       cx="1538.3"
       cy="7611.3999"
       r="40.353001"
       gradientTransform="matrix(-0.40717122,0,0,0.27107424,789.67161,-1660.232)"
       gradientUnits="userSpaceOnUse"
       xlink:href="#linearGradient974" />
  </defs>
  <rect
     style="opacity:1;fill:#101314;fill-opacity:1;stroke:none;stroke-width:4.61570978;stroke-linecap:round;stroke-miterlimit:4;stroke-dasharray:none;stroke-dashoffset:0;stroke-opacity:1"
     id="rect876"
     width="1000"
     height="942.22522"
     x="0"
     y="28.758324"
     ry="121.73524" />
  <path
     inkscape:connector-curvature="0"
     style="fill:#f0f3f3;fill-opacity:1;stroke:none;stroke-width:1.35593235px;stroke-linecap:butt;stroke-linejoin:miter;stroke-opacity:1"
     d="m 655.0005,229.14416 c -8.64393,0.0706 -16.5729,2.06604 -21.66319,7.23596 -16.28909,16.54368 35.01955,43.03794 35.01955,43.03794 0,0 -8.78028,10.0567 -34.14609,1.35261 -25.36595,-8.70408 -33.93377,-37.90224 -33.93377,-37.90224 0,0 4.19427,13.53033 -95.51976,16.14155 -99.71403,2.61124 -101.46163,-51.35383 -153.06794,-13.0559 -51.60645,38.29794 -68.52323,13.85109 -68.52323,13.85109 -32.66082,40.83378 -24.19508,76.67275 -15.44825,97.56254 8.74683,20.88978 0.87536,14.79611 -7.87147,37.42671 -8.74683,22.63061 -10.49525,70.5029 -10.72007,100.79087 -0.22482,30.28797 -7.11491,52.74138 -7.11491,52.74138 -21.3352,47.34198 13.46251,98.8861 13.46251,98.8861 0,0 51.26921,75.98773 83.09531,124.46953 31.8261,48.4818 66.47633,107.05929 94.39946,118.54127 27.92326,11.482 112.02456,7.66711 141.76379,-1.90739 29.73937,-9.57448 69.97657,-75.72548 67.85952,-101.35357 -2.11704,-25.62808 68.43816,-81.40516 76.56177,-96.97607 8.12375,-15.57089 27.01636,-42.77302 39.26193,-65.40364 12.24556,-22.63059 4.37518,-77.46618 4.37518,-77.46618 l -7.54239,-73.37403 c 0,0 -35.31777,-71.11348 -30.94435,-112.89305 4.37341,-41.77959 -19.66196,-109.95536 -24.49059,-117.50569 -3.31958,-5.19085 -25.79643,-14.35502 -44.81301,-14.19979 z M 187.68614,470.47212 c -32.79893,46.95355 -13.93513,93.29072 -13.93513,93.29072 -1.25079,102.81681 51.30673,109.65946 51.30673,109.65946 0,0 10.29802,-20.11521 -4.57159,-71.46925 -14.86962,-51.35408 6.12373,-42.65103 -8.03336,-60.54533 -14.15709,-17.8943 -24.76665,-70.9356 -24.76665,-70.9356 z m 619.16373,0 c 0,0 -10.60685,53.0413 -24.76394,70.9356 -14.15709,17.8943 6.83612,9.19125 -8.03349,60.54533 -14.86962,51.35404 -4.57418,71.46925 -4.57418,71.46925 0,0 48.84653,-39.46263 51.3067,-109.65946 0,0 18.86386,-46.33717 -13.93509,-93.29072 z"
     id="path1830"
     sodipodi:nodetypes="cccccsccsssccsccscsccscccccssccssccc" />
  <path
     id="path1834"
     d="m 210.56206,457.89703 c -0.50524,-0.0142 -1.00694,0.17838 -1.51055,0.51517 l -2.73972,12.88681 c -15.30118,33.52952 1.39528,35.93977 36.62293,52.11261 0,4.80778 7.00141,-0.52679 6.47768,10.0495 l 4.29295,35.9288 6.96879,-35.30004 17.1022,-22.05923 49.40593,-10.71524 c 0,0 66.50977,-10e-4 69.04343,0.62875 2.53311,0.63006 49.40594,9.45509 49.40594,9.45509 l 14.56949,30.25681 6.96621,30.25416 11.40241,-28.36526 c 0,0 15.20305,-1.88998 17.7367,-2.5203 2.53366,-0.63033 24.06854,1.26016 24.06854,1.26016 0,0 20.90446,46.01427 22.8047,48.53558 1.89997,2.5213 5.69992,-10.71524 5.69992,-10.71524 l -10.13613,-42.8636 19.00312,-33.40585 57.64373,-15.12708 68.41165,-4.41185 41.8051,10.71524 17.73684,28.99401 7.60071,10.71523 0.86272,-0.92199 c -0.1464,-0.0899 -0.58666,-0.354 -0.58666,-0.354 l 2.17957,-2.74751 c 0.19343,0.22026 0.39623,0.49098 0.5974,0.76086 l 5.29091,-5.65086 c 0.0204,-0.86185 0.0449,-1.69393 0.0584,-2.60747 8.25193,-28.05296 14.93622,-49.06916 20.31984,-64.36014 l -4.25829,6.88725 -11.19798,10.25028 -5.43704,-2.42519 -3.51763,0.14529 -44.72805,-0.40419 -38.12831,-0.34345 -31.43816,4.84776 h -0.0136 l -58.49585,9.01918 -63.34365,12.60678 -49.40581,5.04325 -30.89664,-11.27531 c -7.10131,-0.94338 -16.74417,-2.31286 -29.30372,-3.50042 l -56.71455,-2.31952 c -6.06855,-0.0623 -12.70064,-0.12585 -17.7367,-0.18491 l -66.77631,5.93351 -19.08536,0.15059 -0.0639,2.31688 -18.36332,0.44648 c -2.30612,-5.08847 -4.33712,-9.75067 -6.16968,-13.96997 l -11.22979,-22.46343 c -0.97173,-1.08694 -1.8925,-1.6784 -2.80089,-1.70398 z m 582.18767,45.78809 c -0.32854,2.39433 -0.66359,4.78942 -1.00613,7.20162 l 1.00613,-0.11894 z"
     style="fill:#101314;fill-opacity:1;stroke-width:0.55209666"
     inkscape:connector-curvature="0" />
  <path
     sodipodi:nodetypes="cccccccccccccccccsccccccccccccccccccccccccccccccccccccccccccccccccccccccccccccccccccccccccccccccccccccccccccccsscscsccccccccccccssccccccsccccccccccccccccccccccccccccccccccccccccccccccccccccccccccccccccccccccccccccccccccccccccccsccccccccccssccsscccccccccccccccccccccccccccccccccccccccccsccccccsccccccscccccccccccccccccccccccccccccccccccccccccccccccccccccccccccccccccccccccccccccccc"
     inkscape:connector-curvature="0"
     id="path1836"
     d="m 489.04556,4.6155449 c -10.83601,0.0821 -20.45236,1.32926 -28.87895,3.20453 l -23.81884,1.50056 -27.76926,16.0464401 -57.33042,4.45675 -51.95714,25.85025 -9.52554,11.06132 c -19.10031,21.74501 -54.75123,44.996275 -60.03834,88.247475 -30.85668,33.88569 -52.91025,182.41594 -33.66559,335.61995 l -6.88913,-10.28199 c -11.86321,-70.81852 -6.81437,-40.65728 1.73088,10.36388 l 5.8194,0.89293 c 13.93866,-52.49456 14.85942,-37.86308 34.03979,4.45677 l 18.36332,-0.44648 1.34335,-49.02696 c 1.67624,-33.88117 4.07017,-37.67774 21.05262,-64.62694 0,0 -5.8228,-16.93713 -6.27067,-18.71996 -0.44788,-1.78274 -1.79164,-26.74283 -4.47863,-40.55992 -2.68698,-13.8171 7.61389,-36.99346 7.61389,-36.99346 l 17.01997,-27.18702 10.74928,6.68384 25.9772,-1.33677 16.574,-12.92644 39.41321,-20.05674 c 0,0 64.49766,20.50321 119.59088,26.7432 55.09336,6.2399 101.67367,-17.38322 101.67367,-17.38322 l 20.60392,31.64641 c 0,0 32.24979,8.4678 34.93718,8.91352 1.68806,0.27994 7.06679,-1.32779 10.98037,-2.59691 0.82398,-0.0918 1.32106,-0.257 1.51054,-0.48611 1.5626,-0.5212 2.73714,-0.92727 2.73714,-0.92727 l -26.48435,-14.00167 c -0.93191,-1.43804 -1.83581,-2.91859 -2.57253,-4.27184 l -0.71674,-5.6984 c 2.66741,-4.96844 11.84567,-13.49973 11.84567,-13.49973 l 21.49859,-8.02321 12.54134,9.80645 2.67597,-2.36708 15.70053,12.2026 11.64396,33.8761 4.47862,49.91725 2.24074,52.59344 13.88456,54.82313 14.33325,28.07993 12.98732,5.79353 11.19798,-10.25028 7.16534,-11.58968 c 6.42005,11.0574 4.88341,53.44483 17.02254,34.31993 l 0.21504,-0.79519 2.02298,1.23901 1.58232,-14.59872 4.23966,-15.70828 3.584,-32.98053 c 0,0 -0.42444,-6.36115 -0.91319,-15.07424 -2.7e-4,-0.004 1.4e-4,-0.003 0,-0.008 l 1.36185,-12.55395 -0.70352,-54.70687 c 1.19556,-8.3361 1.77491,-20.8468 1.85039,-31.48261 l 2.43711,-19.89031 -6.46711,-13.40989 c -1.73496,-7.05594 -3.72016,-14.7161 -5.62013,-21.62862 0.0258,-8.28696 2.20961,-17.41925 11.81646,-16.76502 3.63575,1.01716 8.33076,4.11333 8.33076,4.11333 l 4.51848,-1.63529 c 2.47053,0.79408 3.42125,1.50167 3.70345,2.02628 l 0.59999,-3.58495 1.03271,-0.3725 2.68666,-11.14321 -3.95035,-2.7343 -7.69361,-9.74303 -9.33694,-1.09372 -4.10167,-2.47275 2.30701,-4.19521 5.97862,-8.72596 c 1.05057,-1.46585 1.76149,-2.51667 2.21411,-3.23359 l 1.14688,-1.67227 0.12478,-3.57967 1.21855,-2.2165 -0.96901,-5.03002 v -0.003 l 0.52034,-15.02405 -12.54128,-13.37028 -1.19201,2.76864 -1.49464,-1.43187 c 0,0 -0.28367,2.91744 -0.65312,6.417 v 0.003 l -7.40946,17.20357 -5.96538,12.61469 c -0.0489,0.049 -0.30529,0.30911 -0.30529,0.30911 l -2.14518,-0.49139 -13.08287,-28.47886 -17.26681,-14.72553 c -0.98451,-4.45723 -0.82656,-10.10119 -2.43973,-22.7144 -0.71375,-5.58067 -3.20323,-10.62197 -6.60518,-15.09274 v -0.003 l -0.56016,-2.73165 -33.14254,-25.850235 c 0,0 -7.05265,-8.41363 -15.25184,-17.10317 -0.45385,-0.71262 -0.84478,-1.30678 -1.32215,-2.06327 -1.88951,-2.99459 -5.26536,-5.9573 -9.61825,-8.82369 -4.15444,-3.78869 -7.94188,-6.72756 -10.53698,-7.66657 -9.85368,-3.56569 -54.64385,-19.61026 -54.64371,-19.61026 l -8.71843,-0.49138 c -0.53772,-0.13526 -1.57959,-0.40155 -1.57959,-0.40155 0,0 -1.22089,0.1796 -1.51598,0.22719 l -35.66193,-2.01042 -24.18788,-16.0438 -48.37046,-5.3496901 -4.05658,0.25626 c 0,-1.2e-4 0,1.1e-4 0,0 -1.31739,-0.09 -2.63886,-0.17913 -4.00084,-0.25626 -3.44328,-0.195 -6.78148,-0.27282 -10.01122,-0.24833 z M 831.555,244.59882 l -0.15929,0.94578 c 0,0 0.47462,-0.35954 0.15929,-0.94578 z M 619.04062,440.62479 c -16.06848,0.3343 -22.78879,5.90448 -22.78879,5.90448 0,0 -18.36223,10.69824 -22.39325,11.58967 -4.03075,0.89137 -12.09265,2.67353 -12.09265,2.67353 l -1.34064,2.01572 c -3.52877,3.57613 -9.03962,11.10887 -9.03962,11.10887 0,0 -4.19426,5.75866 -4.55039,9.34675 l -3.43254,5.16215 1.34064,2.67351 69.42579,-11.14057 26.79223,-2.161 31.43816,-4.84776 38.12831,0.34345 c -3.63099,-2.09307 -7.77918,-4.45138 -12.59965,-7.15143 -37.40029,-20.94814 -62.81898,-25.85169 -78.8876,-25.51737 z m -278.42765,14.97386 c -8.28604,-0.0557 -13.99887,1.17032 -13.99887,1.17032 l -5.45553,2.12404 28.29747,-2.55994 c 0,0 31.8015,8.02097 -4.02993,6.68381 -35.83198,-1.33721 -39.41594,16.04645 -39.41594,16.04645 0,0 -1.79055,4.45676 -7.16533,4.45676 -1.17916,0 -2.15647,-0.46433 -2.97595,-1.16769 l 0.28407,4.27711 c 0,0 22.39665,0.44721 71.21771,0.89293 48.82323,0.44555 76.59289,7.57525 83.75904,6.68382 7.16629,-0.89112 -0.4472,-12.47869 -2.68671,-22.73025 -2.23925,-10.25129 -18.36319,-11.14321 -18.36319,-11.14321 0,0 -1.69023,2.00197 -3.68753,4.24804 -3.76256,0.95477 -7.17281,2.47821 -8.95996,3.01169 -1.83364,0.54744 -6.01921,1.75907 -10.63512,3.10151 -10.74861,-0.39185 -25.03742,-2.75685 -36.73724,-8.57802 -10.30169,-5.12564 -21.16095,-6.46166 -29.44699,-6.51737 z m -32.91432,8.53574 -1.68576,0.65516 -0.51774,0.76348 z m 451.64837,59.0659 c -0.0897,6.25696 -0.37284,11.37547 -0.58407,14.34244 0.62077,0.2852 1.24589,0.55965 1.86368,0.80576 2.48459,0.98986 3.58844,21.45448 3.77507,41.15698 1.03236,10.44086 1.33982,20.08774 -0.27865,24.64557 -0.19288,5.07993 -0.46758,8.98751 -0.80971,10.86055 -1.66849,9.12972 -30.12567,55.34349 -44.16002,74.97495 -2.07844,3.9887 -8.12375,15.57091 -8.12375,15.57091 l -6.04231,5.70634 c -4.98345,8.18081 -9.54282,14.63981 -19.15971,18.74109 -0.44964,0.19177 -0.90595,0.41342 -1.36456,0.64989 l -20.75793,19.61027 c -1.23828,1.54587 -2.42165,3.07684 -3.56275,4.58885 l -14.98638,35.79671 c 0,0 -0.99457,-1.49224 -2.56451,-3.68799 -0.73618,0.83841 -1.43089,1.03921 -2.00165,0.0925 -1.07381,-1.78116 -8.28699,-8.43913 -17.00406,-16.08872 -2.43592,-2.4378 -5.01852,-4.66583 -7.72276,-6.70231 0,-0.001 0,-0.003 -0.0136,-0.005 -11.23169,-9.63151 -22.85879,-19.1767 -26.77373,-21.7739 -5.1819,-3.43776 -17.73643,-6.31149 -28.68254,-8.29004 -17.02037,-0.84102 -31.16401,0.81531 -41.36715,2.80032 -8.22243,2.54192 -15.04999,5.04324 -15.04999,5.04324 l -4.19998,-0.96955 c -1.11853,-0.0838 -2.33697,-0.22288 -3.71404,-0.43853 l -0.59739,1.42922 -18.74554,-5.39725 c -1.51299,-0.31812 -3.05222,-0.6266 -4.59539,-0.92727 l -21.82249,-1.63529 -19.88189,3.297 c -10.4088,3.93214 -24.07003,10.37703 -36.80874,17.78475 -7.97491,6.87255 -19.07747,16.71747 -19.07747,16.71747 l -10.85287,11.35455 c -1.62146,-2.68443 -12.20248,-15.66062 -24.32068,-29.06535 l -3.06622,-5.11193 -7.81043,-6.53323 c -8.28958,-8.56397 -16.27414,-16.00595 -21.75345,-19.354 -0.58435,-0.84094 -3.4373,-4.90764 -4.95124,-7.08007 l -6.28126,-5.50822 -2.97338,-5.12779 -3.09816,-2.63389 -9.71652,-17.72399 c -0.53963,-0.70686 -1.1426,-1.50854 -1.47874,-1.91005 -3.19249,-3.81186 -12.82896,-22.08032 -18.51461,-33.21829 l -13.2873,-22.91782 -1.7548,-8.38515 c -1.1184,-2.33223 -2.73592,-5.71347 -3.29458,-6.87666 7.72454,42.56467 35.35379,184.09825 73.84854,259.05724 l -10.56606,-14.27114 -21.49858,-36.10051 c -14.2116,9.85368 0.44598,2.6656 0.44598,2.6656 l 34.04249,56.60635 6.10348,6.26114 c -2.88679,-4.64647 -5.72003,-9.70974 -8.49809,-15.11652 l 19.70926,26.61901 26.57189,27.25042 36.42923,28.51056 -1.1362,-2.54936 -1.26629,-4.58885 c 0,0 19.70695,7.57773 18.36318,17.3832 -0.7934,5.78949 3.09368,6.90783 6.41407,6.86082 l 0.31848,-0.15323 0.1169,0.14531 c 2.11854,-0.0932 3.89998,-0.6129 3.89998,-0.61293 0,0 4.92732,0.44487 8.06258,5.79355 1.02978,1.75671 2.83501,2.58959 4.79194,2.92976 l 5.5247,-2.0157 0.6239,1.85984 c 1.45332,-0.25401 2.49547,-0.54421 2.49547,-0.54421 0,0 7.16656,2.67433 8.06258,9.35998 0.23366,1.74338 1.23706,2.04254 2.58055,1.56131 l 2.80878,-2.43047 c 0,0 2.38441,-3.15544 5.7237,-4.6179 1.11989,-1.20496 1.877,-2.09234 1.877,-2.09234 l 20.66767,0.74236 c 14.37186,-0.51798 31.60196,-1.16504 34.88675,-1.16504 1.67134,0 2.99513,0.82097 4.02735,1.94966 l 7.15459,-0.18756 8.95738,4.01028 13.05623,-12.75737 10.13613,0.94578 12.82529,10.55673 3.37423,-7.80924 4.51587,4.18465 c 0,0 0.44787,-12.92739 4.47862,-19.61289 4.03088,-6.6855 36.2793,-38.32749 49.71653,-41.45022 3.44409,-0.80036 15.20699,-24.21596 23.01715,-30.09301 6.50283,-4.89334 8.76111,8.69335 15.15887,-1.05937 15.89817,-24.23463 27.97722,-62.07727 30.35239,-64.67714 4.47917,-4.90328 11.64668,10.25027 11.64668,10.25027 0,0 3.58396,-14.26153 3.58396,-24.06701 0,-9.80326 22.84343,-73.98195 31.35321,-83.79073 8.50978,-9.80878 15.22792,-64.62966 12.09265,-77.10955 -3.13527,-12.4799 3.58287,-42.3419 7.61403,-44.5702 9.66582,-41.27561 55.33484,-324.88306 -16.50236,-80.66809 z m -557.6945,-11.14587 1.115,3.03282 5.9628,-0.49931 c 0,0 2.64961,-0.47874 6.42454,-0.85595 z m 433.21871,6.85817 c -12.50042,1.3e-4 -22.63343,10.08491 -22.6322,22.5242 1.3e-4,12.43824 10.13287,22.52142 22.6322,22.52156 12.49934,-1.4e-4 22.63208,-10.08332 22.63221,-22.52156 0.001,-12.43929 -10.13178,-22.52407 -22.63221,-22.5242 z m -430.66208,0.0898 8.24309,22.40531 -1.84505,-12.85511 z m 171.78425,7.98624 c -12.49934,1.4e-4 -22.63194,10.0833 -22.63207,22.52155 1.3e-4,12.43824 10.13273,22.52141 22.63207,22.52154 12.49947,-1.3e-4 22.63207,-10.0833 22.63221,-22.52154 -1.4e-4,-12.43825 -10.13274,-22.52141 -22.63221,-22.52155 z m 377.40686,3.70911 -2.17957,2.74751 c 0,0 2.59184,1.62742 5.7025,3.20189 -1.29592,-2.81367 -2.46529,-4.74541 -3.52293,-5.9494 z m -540.28959,15.29088 -2.50076,30.69536 2.74774,9.05882 0.38494,-35.35025 z m 7.18124,68.40739 3.82033,21.38821 c 0.42559,-4.27453 0.66522,-7.71383 0.37964,-8.28213 -0.34593,-0.68844 -2.18378,-6.56405 -4.19997,-13.10608 z m 4.64853,66.44186 v 4.15297 l 1.2425,3.67476 z m 76.26992,40.50447 c 0.001,-4.1e-4 0,3.9e-4 0,0 0.001,0.029 1.28246,20.80966 20.27199,44.1158 18.98939,23.30554 12.04671,56.04537 12.03692,56.0912 l -0.0136,0.008 c 0,0 6.96851,-32.77726 -12.0342,-56.09913 -18.98967,-23.30624 -20.27036,-44.08692 -20.27213,-44.1158 z m 178.60448,47.88832 41.80782,2.5203 c 0,0 16.39293,6.74277 31.93198,8.32439 7.41734,0.75497 16.3228,-5.31777 20.00667,-3.28114 11.40106,6.30323 45.6079,10.08669 49.40852,22.69326 3.80049,12.60657 8.86699,32.77723 2.53257,39.0805 -1.9924,1.98268 -4.27419,6.30119 -6.84672,11.28324 -1.2304,0.8445 -1.99376,1.29448 -1.99376,1.29448 l -2.04677,6.38001 c -4.91522,9.03519 -10.86511,18.1188 -18.24914,20.12278 -13.9354,3.78196 -29.13817,21.43097 -38.00611,20.17033 -8.86795,-1.26068 -25.33755,-10.08649 -25.33755,-10.08649 l -17.7367,-6.3034 -5.06541,-1.26014 10.13341,-11.34664 h 12.6687 l 6.33442,-6.30339 -6.33442,-11.344 -21.53569,-5.04323 h -21.53583 l -16.47028,2.52029 -11.40242,7.56356 3.80172,10.08647 16.46769,2.5203 8.86971,10.08648 -3.80171,3.78045 -20.26941,3.78309 -16.46769,10.08385 -34.20726,-15.12709 -26.60369,-27.73385 -15.20141,-30.25683 2.53529,-12.60677 21.53583,-23.95079 28.10105,-12.52486 11.07579,11.66363 6.87337,-8.48025 16.21025,7.84094 z m -68.69574,0.49667 c -2.7e-4,3.3e-4 -0.0136,0.005 -0.0136,0.005 0.0136,-0.0135 -0.22686,0.0578 -0.35572,0.0925 0.13049,-0.0349 0.38535,-0.11366 0.36646,-0.0978 z m -65.56291,37.33425 c 0,0 -0.63301,39.07859 -7.60071,50.4245 -1.30652,2.12735 -1.49953,3.41347 -0.95039,4.09747 0.18295,0.22799 0.4491,0.38795 0.78307,0.49137 -0.33424,-0.10282 -0.5993,-0.26453 -0.78307,-0.49137 v 0 c -0.55172,-0.683 -0.36034,-1.96766 0.94767,-4.09747 6.96553,-11.34234 7.6003,-50.39196 7.60071,-50.41658 z m 10.13599,49.16435 c 0,0 4.43228,46.01388 24.0684,56.09913 0.61371,0.31515 1.1759,0.56663 1.68848,0.75555 0.51053,0.18821 0.97268,0.31418 1.38848,0.38308 -0.41566,-0.0684 -0.87795,-0.19517 -1.38848,-0.38308 -0.5138,-0.18914 -1.07817,-0.43936 -1.69378,-0.75555 -19.633,-10.0836 -24.0669,-56.08148 -24.0684,-56.0965 v -0.003 z m 230.54313,110.58674 -0.95039,8.66783 -2.28057,-1.19146 z m -16.2793,10.01252 -2.88313,1.49263 -0.37692,0.71329 2.23,0.12422 z m -18.08454,2.12139 c 0,0 -0.79802,1.55742 -1.07775,2.0976 l 1.40968,-1.94967 z m -124.17036,0.0397 1.93001,2.39877 3.18842,-1.16505 c -1.45319,-0.30515 -3.23096,-0.74305 -5.11843,-1.23372 z m 101.60462,6.51208 c 0.43728,1.20275 0.65299,2.12668 0.65299,2.12668 l 10.77852,4.21371 c -2.94932,-1.48412 -6.48272,-3.54304 -6.75905,-3.9099 -0.23679,-0.31419 -2.48174,-1.40893 -4.67246,-2.43049 z m -75.64603,5.96261 c -1.74964,0.79144 -3.4827,1.57019 -4.85555,2.1478 l 0.53351,1.59302 z"
     style="fill:#1c2224;fill-opacity:1;stroke-width:0.55209666" />
  <path
     style="fill:#fbfcfc;fill-opacity:1;stroke:none;stroke-width:1.35593235px;stroke-linecap:butt;stroke-linejoin:miter;stroke-opacity:1"
     d="m 275.53397,91.394175 -23.27473,7.9149 -16.57128,28.970245 -4.02993,21.39348 -6.71936,10.25029 c 0,0 -12.54215,23.62402 -16.12516,25.85289 -3.58301,2.22887 -8.50869,24.51396 -11.6441,29.4167 -3.13513,4.90279 -11.19784,-1.78323 -11.19784,-1.78324 l 2.2406,13.81675 2.68671,18.71996 c 0,0 -3.58192,22.28561 -5.37342,23.17673 -1.79164,0.89143 -8.95997,41.89668 -8.95997,41.89668 l 8.51141,52.14695 -1.34607,33.87347 -2.23802,37.43993 6.06093,36.19034 c -32.60713,46.8855 -13.80232,93.09259 -13.80232,93.09259 -1.13729,93.49423 42.09449,107.58474 49.96609,109.37943 l 3.01321,18.9868 15.67661,49.91725 19.26056,49.0296 8.95738,19.92465 12.54121,9.49207 21.49857,36.10051 10.58211,14.29229 c -45.63752,-88.84831 -76.11592,-271.83576 -76.11592,-271.83576 0,0 3.80171,-60.51016 3.80171,-75.63806 0,-8.50943 -10.82351,-10.23717 -20.29333,-10.12083 -7.36542,0.0905 -22.10386,-12.24221 -22.10386,-12.24221 l 1.11241,14.13375 8.95725,13.37028 1.84506,12.85247 c -8.39519,-10.61383 -15.52111,-33.53515 -19.94808,-50.47469 l -1.59822,-0.24568 c -8.54104,-50.99585 -13.57152,-81.04186 -1.73101,-10.35858 l 1.09909,1.63792 5.78746,8.63877 11.40241,-45.3839 c 0,0 -21.538,-83.20046 -2.53529,-107.15237 19.00272,-23.95193 13.93771,-21.43048 13.93771,-21.43048 0,0 -57.01127,24.58353 15.20141,-163.25151 9.8216,-25.54908 45.57324,-39.27292 41.47059,-61.985105 z m 39.71319,779.491265 c 4.4706,8.70348 9.08433,16.51963 13.83154,23.15557 53.20766,74.37817 6.93957,4.8953 6.93957,4.8953 z M 382.7216,232.24566 c -5.11938,0.30064 -10.517,1.72605 -16.61369,4.70509 l -1.52386,0.77406 c -3.9655,2.06556 -8.22121,4.76121 -12.89448,8.22927 -10.70851,7.94699 -19.90241,13.16229 -27.78244,16.48498 l -1.77342,1.38168 -1.98846,0.10309 c -22.79818,8.31032 -33.34547,-0.17345 -36.16906,-3.16226 l -15.58894,24.89919 c 0,0 -10.30101,23.17636 -7.61402,36.99346 1.27879,6.57563 2.24427,15.64387 2.96278,23.56771 1.21585,4.05624 2.58585,7.81104 3.98222,11.14585 4.79641,11.45508 4.57703,14.80096 1.97514,19.21398 0.77736,2.27496 1.82915,5.35234 1.82915,5.35234 -8.41354,13.35142 -13.23945,21.02316 -16.17831,29.48275 -2.82848,14.37318 -4.40631,32.2262 -5.26455,49.43117 l -0.52562,19.1585 -0.42735,15.57884 v 0.003 c -0.0136,1.46269 0,2.25287 -0.0136,3.61137 -3.12236,0.44446 -6.53179,0.74871 -9.57313,-0.008 -25.337,-6.30329 -24.47727,-35.65936 -24.47727,-35.65936 -18.08752,-2.0542 -9.12035,8.10229 -8.8538,15.14559 l 19.73848,26.71412 c -0.0662,-4.93085 5.03378,2.52207 11.94924,2.53615 4.79805,-0.17997 8.43665,0.28792 11.18997,1.17825 -1.4e-4,18.49156 0.32119,24.35498 0.32119,24.35498 -15.88512,35.24855 -4.76094,81.02713 1.96196,102.13555 l 8.34408,14.39001 c 2.38713,4.67634 5.46599,10.55692 8.47675,16.14947 8.20422,12.18627 17.27143,25.68364 33.36287,49.77725 l 0.22305,0.19551 c 1.51394,2.17243 4.36689,6.23913 4.95124,7.08007 5.47931,3.34805 13.46387,10.79003 21.75344,19.354 l 7.81044,6.53323 3.06622,5.11193 c 12.1182,13.40473 22.69922,26.38092 24.32068,29.06535 l 8.69708,-9.1011 c -1.15496,-2.32868 -2.82807,-4.9199 -5.15553,-7.84355 -38.06034,-47.81009 9.11954,-24.12428 5.37601,-57.568 -3.68142,-32.8852 -87.51997,-53.39955 -89.79618,-67.63332 -10.98023,-68.66714 38.32484,-97.47273 38.32484,-97.47273 -21.59605,-6.82674 -46.52974,-17.99934 -35.37525,-33.52212 2.76147,-3.84292 7.90559,-7.96741 14.05717,-12.14974 5.39966,-3.6712 11.56838,-7.38661 17.68097,-11.00055 -13.98093,-0.19328 -21.3367,-0.33287 -21.3367,-0.33287 l -0.28407,-4.27711 c 0.81949,0.70336 1.79693,1.16769 2.97609,1.16769 5.37478,0 7.16533,-4.45676 7.16533,-4.45676 0,0 3.34826,-16.1912 35.80262,-16.11513 -10.62914,-1.25075 -32.25849,-0.31395 -31.67971,-5.38932 2.32474,-20.38621 -1.3999,-57.52038 -6.39817,-87.27001 -6.42998,-38.27076 -1.15782,-15.93663 103.65955,-14.87389 -50.64722,-21.91287 5.79629,-69.44721 112.76006,-42.91115 -118.28613,-46.6688 -12.38326,-53.57323 -15.39783,-53.49428 -45.50337,1.19159 -70.59584,-9.39573 -89.34478,-17.62361 -15.12828,-3.91837 -26.71569,-7.32794 -32.69127,-9.1407 z m -75.022,231.88873 -2.2035,1.41864 0.51761,-0.76348 z m -94.58798,81.86747 0.6292,4.39071 -0.38494,35.34232 -2.74516,-9.05089 z m 7.18382,68.41267 c 1.49138,4.84004 2.86804,9.2583 3.6053,11.43646 0.21626,0.64718 0.34716,1.00897 0.45658,1.28393 0.0285,0.0713 0.11281,0.32749 0.1332,0.36719 0.0489,0.0971 0.0775,0.30807 0.0979,0.55744 0,0.075 0.0149,0.15007 0.019,0.23776 0,0.10498 0.001,0.25272 0,0.37515 0,0.34649 -0.0136,0.77136 -0.0326,1.24165 -0.0136,0.28963 -0.0435,0.68768 -0.0639,1.01974 -0.0843,1.35354 -0.2115,2.92286 -0.39282,4.75264 0,0.0312 0,0.0612 -0.0136,0.0925 z m 278.41717,8.47498 c -1.75942,0.86291 -6.61143,55.95168 -9.99001,62.21494 -12.86702,23.85366 -28.97723,-11.77989 -28.97723,-11.77989 l -6.02899,36.65795 47.56877,22.68006 -2.17957,-47.15128 c 1.49124,-35.90832 1.24453,-19.39013 0.26274,-55.22997 -0.0584,-5.41385 -0.29047,-7.57091 -0.65571,-7.39181 z M 395.57353,946.151 l 1.26628,4.58884 7.44412,16.70425 3.64241,10.40086 11.0838,-5.20175 2.69202,4.72886 c 0,0 12.35308,3.46689 13.3032,3.1517 0.95026,-0.31513 6.96621,0.15586 6.96621,0.15586 0,0 3.48391,13.39517 3.64227,14.02546 0.15835,0.6306 18.05272,-7.87792 18.05272,-7.87792 l 1.4256,-2.83733 4.74952,-1.26015 55.10831,0.78726 c 0,0 8.55164,3.78153 9.02643,4.41185 0.47492,0.63033 10.60942,6.30315 10.76778,5.35763 0.15835,-0.94563 7.12551,-3.98652 7.12551,-3.98652 l 12.03692,-4.99569 3.16449,-5.98637 11.87761,5.35498 6.33442,-8.1923 3.19902,-20.16769 c -2.66062,2.78581 -5.92651,5.71946 -9.69274,8.1923 l -4.80254,15.23804 -7.86345,-5.62708 -10.13613,-0.94578 -13.05636,12.75737 -8.95725,-4.01028 -17.01996,0.44382 -49.7164,-1.78324 c 0,0 -12.09428,14.26491 -12.99003,7.5794 -0.89603,-6.68565 -8.06259,-9.35998 -8.06259,-9.35998 0,0 -10.30073,3.11881 -13.436,-2.22969 -3.1354,-5.34868 -8.06258,-5.79354 -8.06258,-5.79354 0,0 -12.09292,3.56549 -10.74929,-6.23998 1.34376,-9.80547 -18.36332,-17.38319 -18.36332,-17.38319 z"
     id="path1838"
     inkscape:connector-curvature="0"
     sodipodi:nodetypes="cccccsccccccccccccccccccccssccccccccccscccccccccccccccccccccccccccccccccccccccccccccccccccccccsccsccccccccccccccccccccccccccccccccccccccccccccccccccccccccccccccccccccccc" />
  <path
     id="path1840"
     style="fill:none;stroke:#101314;stroke-width:11.04193306;stroke-opacity:1"
     d="m 461.90483,807.73047 c 0,0 36.32688,11.55513 103.25449,10.58641 M 242.93417,523.41156 c 0,0 -13.51456,57.26946 0.81828,92.92526 14.33271,35.65636 42.10224,90.92257 77.04048,115.88235 0,0 38.5191,30.30806 35.83157,57.94392 -0.66346,4.95152 55.74349,-91.99101 144.67207,-46.35349 m -30.71505,25.16747 c -1.44353,0.14858 -7.37126,18.04975 -8.9011,18.23647 -4.21915,0.51576 -11.13546,-7.60135 -15.99753,-6.73068 -1.32678,0.23758 -6.47674,7.22948 -8.45772,7.57369 -1.99064,0.34559 -10.07565,-8.939 -11.45067,-8.6427 -15.94873,3.43583 -16.97756,2.9437 -32.43655,11.62949 -59.32445,33.33111 42.36281,124.44093 69.87326,98.94692 11.45312,-10.61395 26.59173,-9.21837 26.59173,-9.21837 -0.95025,-21.43115 -20.90282,-12.92214 -20.90282,-12.92214 0,0 -23.91399,-23.63689 32.38245,-23.63689 56.29657,0 32.38244,23.63689 32.38244,23.63689 0,0 -19.95243,-8.50901 -20.90268,12.92214 0,0 15.13847,-1.39558 26.59159,9.21837 27.50814,25.49236 129.19772,-65.61581 69.87326,-98.94692 -13.57723,-7.62837 -29.24609,-12.83676 -44.40061,-16.37146 -1.426,-0.33259 -8.73895,8.32002 -10.15353,8.0164 -2.33507,-0.50112 -8.02343,-9.93383 -10.31202,-10.36064 -21.57633,-5.37015 -41.04106,-6.63666 -73.7795,-3.35057 z M 757.91898,537.00195 c 0,0 15.22874,43.67907 0.89576,79.33487 -14.33271,35.65636 -42.1021,90.92257 -77.04037,115.88235 0,0 -38.51909,30.30806 -35.83156,57.94392 0.66345,4.95152 -55.74363,-91.99101 -144.67207,-46.35349 m -39.61425,-98.86155 -7.94038,65.03366 z m 79.25419,0 7.94038,65.03366 z m -39.62703,-103.48507 -17.18076,0.20977 -13.30117,25.8432 -17.10274,142.45579 47.58467,22.69128 47.58468,-22.69128 -17.10288,-142.45579 -13.30103,-25.8432 z M 249.12574,495.58589 c 0,0 -4.47903,-83.34981 16.12421,-106.52518 20.60338,-23.17701 -34.04006,-40.11353 17.91585,-129.25443 0,0 20.60323,21.3937 58.22847,-9.80549 37.62375,-31.19971 60.91289,-10.69711 77.93149,-8.02269 17.02038,2.67419 128.99288,34.76526 180.95097,0.89139 0,0 15.22873,49.919 68.07999,36.548 -31.35308,-12.47988 -49.26879,-27.63365 1.79164,-49.91901 0,0 56.60703,6.2036 51.0603,122.12228 -3.58328,74.87935 34.04006,122.12229 34.04006,122.12229 m -308.5907,20.02538 c 13.30986,-13.00365 1.96467,-33.50185 -37.62361,-41.45075 0,0 11.82949,11.44008 15.67647,13.8171 -23.45307,15.55856 -116.89996,-39.66798 -130.786,16.93708 60.91274,-1.33716 152.73028,10.69711 152.73028,10.69711 z m 20.25636,66.91556 c 0,0 -7.21712,-32.7754 -17.96615,-45.70085 -10.7497,-12.92544 -42.55432,-17.27798 -103.91604,-16.83242 -61.36115,0.44571 -64.18923,10.96753 -80.75955,32.36124 -16.57209,21.39372 9.06653,92.9493 9.06653,92.9493 0,0 156.39988,91.43476 193.57521,-62.77946 z M 192.75672,534.13808 c 0,0 -22.91181,30.33174 -16.57753,59.95964 m 11.5079,-123.62582 c 0,0 -31.67128,46.64428 -13.9354,93.29076 0,0 -3.80049,76.26723 51.30714,109.67545 m 0,-0.0165 c 0,0 2.53379,-54.20766 -8.86794,-73.75032 -11.4016,-19.54264 -1.90025,-57.36012 -1.90025,-57.36012 0,0 -37.37174,-52.94758 -31.67128,-143.71152 5.7006,-90.76836 -17.10206,-79.42299 3.16721,-127.95469 20.26968,-48.53499 -10.4353,-50.65094 -14.5873,-47.34538 -5.25068,4.18 -5.41977,-14.93016 -5.41977,-14.93016 0,0 30.77512,6.80666 33.30892,11.84928 0.85429,-35.81881 13.974,-51.03702 32.93797,-68.70549 -4.58369,-36.21647 16.80004,-49.82263 38.63871,-63.032805 0,0 41.17235,-65.55523 143.15566,-61.14376 19.00272,-26.47378009 90.3399,-21.4311501 90.3399,-21.4311501 M 503.5528,981.61875 c 0,0 -26.91442,-0.38415 -40.74896,-1.90928 -2.55962,-0.28219 -1.72367,5.71398 -3.81666,7.66307 -2.87375,2.67609 -7.24145,7.80462 -10.80679,6.63484 -2.75304,-0.90339 -3.32203,-16.68263 -6.15935,-17.9488 -2.08279,-0.92943 -13.97237,6.95593 -15.94044,5.81753 -2.00708,-1.16081 -5.95953,-13.35503 -7.80486,-14.75393 -2.21002,-1.67562 -9.57191,12.62364 -11.38054,11.22419 -2.15143,-1.66467 -6.06583,-20.75978 -7.78814,-22.12233 -14.26026,-11.28421 -8.99191,-12.08115 -41.63955,-33.22426 -3.80647,-2.46515 -8.05103,-6.11163 -12.61922,-10.75111 -18.28938,-18.57389 -41.76678,-53.05991 -63.0934,-91.34663 -2.43634,-4.37374 -9.8602,2.27143 -8.25682,-4.76049 2.5516,-11.18894 -8.10989,-7.79485 -8.36393,-11.65283 -0.49246,-7.48683 -4.83325,-24.84798 -8.90831,-33.67147 -17.11824,-37.06628 -29.54758,-72.9242 -31.14376,-97.42686 M 545.17236,493.76843 c -2.6984,-10.81885 8.50652,-25.64381 25.08241,-38.33078 l -3.1354,10.69713 c 0,0 41.6545,-59.72283 137.50497,5.79439 -60.91276,-1.33715 -159.44926,21.8398 -159.44926,21.8398 z m -2.21382,65.97931 c 0,0 -6.71841,-31.19973 4.03102,-44.12518 10.7497,-12.92544 55.53878,-32.09085 116.89995,-31.64528 61.36118,0.44571 59.11962,6.23995 75.69551,27.63365 16.57196,21.39371 -7.16601,104.29466 -7.16601,104.29466 0,0 -152.28772,98.05471 -189.46305,-56.1595 z M 210.16271,453.23356 c -36.15086,60.33489 30.51659,52.08872 39.24861,80.2282 3.13526,16.04541 6.42059,73.33175 21.64878,91.15937 15.22819,17.82818 101.49736,46.1277 143.15567,22.95123 41.65436,-23.17704 55.16797,-76.93364 62.7835,-93.86906 7.61443,-16.93706 24.29934,-12.21885 24.29934,-12.21885 0,0 17.01969,-5.34856 24.63412,11.58825 7.6143,16.93708 22.39597,65.96278 64.05087,89.14365 41.65436,23.17647 125.86033,-2.67403 141.0858,-20.50205 15.22547,-17.82801 18.364,-72.20272 21.4994,-88.25145 23.96701,-33.77821 11.64179,-57.48517 29.11316,-80.22818 l -15.67593,20.05705 c 0,0 -4.47889,-0.44561 -62.70602,-1.33705 -58.22862,-0.89139 -146.01705,16.49151 -158.10998,22.28591 -12.09292,5.79439 -43.89482,8.46771 -43.89482,8.46771 0,0 -42.55039,-2.67354 -54.64331,-8.46771 -12.09346,-5.7944 -95.0553,-14.67846 -152.40936,-4.63672 -51.89217,9.08564 -63.9734,3.85836 -63.9734,3.85836 z m 588.93299,80.90452 c 0,0 22.9118,30.33174 16.57754,59.95964 M 804.13216,470.4719 c 0,0 31.6712,46.64428 13.93532,93.29076 0,0 3.80054,76.26723 -51.30719,109.67545 m 27.24363,-477.18235 c 7.42848,-6.31263 13.22151,-16.69364 13.93539,-39.71039 8.4501,6.38093 16.31519,13.57697 16.46906,31.5164 0,0 -10.1348,24.58252 -20.90269,28.36448 m -36.73153,456.99533 c 0,0 -2.53366,-54.20766 8.86794,-73.75032 11.40174,-19.54264 1.90025,-57.36012 1.90025,-57.36012 0,0 37.37185,-52.94758 31.67128,-143.71152 -5.70046,-90.76835 17.10221,-79.42298 -3.16708,-127.95467 -20.26968,-48.53499 25.33696,-27.73444 25.33696,-27.73444 0,0 8.86796,-15.75793 -4.43392,-22.06121 -13.30164,-6.30328 -31.67122,-5.67268 -34.20488,-0.63028 -0.85443,-35.81882 -13.97414,-51.03702 -32.93811,-68.70549 4.58369,-36.21647 -16.80004,-49.82264 -38.63871,-63.032815 0,0 -41.17237,-65.55523 -143.15568,-61.14375 C 559.00949,0.86317491 501.29276,5.9058049 501.29276,5.9058049 m -0.0136,975.7129151 c 49.50979,-0.57457 38.18118,8.67678 54.46538,10.99312 4.69012,-2.93904 6.34488,-22.94052 8.19008,-24.33942 2.21002,-1.67564 14.19555,24.12624 16.00432,22.72679 2.1513,-1.66467 11.0747,-33.41265 12.79715,-34.7752 14.26013,-11.28421 8.99191,-12.08115 41.63941,-33.22426 3.80647,-2.46515 8.05103,-6.11163 12.61923,-10.75111 5.79017,-5.88022 17.6194,-27.04802 23.77888,-25.85857 5.27025,1.01774 -6.65901,28.73573 -0.73944,19.77213 9.01461,-13.65048 31.25617,-69.46584 40.05397,-85.26019 2.43634,-4.37374 12.55724,18.37507 10.954,11.34316 -2.5516,-11.18895 5.4127,-23.8985 5.66675,-27.75648 0.49246,-7.48683 4.83325,-24.84798 8.90831,-33.67147 17.11824,-37.06628 29.54771,-72.9242 31.14375,-97.42686"
     inkscape:connector-curvature="0"
     sodipodi:nodetypes="cccccccccccccccscccccccccccccccccccccccccccccccccccccccccccccccccccccccccscccccccccccccccccccscccccccccccccccccccccccccccsccccscccccccccccccccsccccccccccccccccccssccccc" />
  <path
     id="path1842"
     d="m 634.87123,523.79733 a 17.723969,17.637318 0 0 0 -17.72609,17.63681 17.723969,17.637318 0 0 0 2.12384,8.34024 8.0913768,8.0518186 0 0 1 3.62378,-0.86387 8.0913768,8.0518186 0 0 1 8.09194,8.05227 8.0913768,8.0518186 0 0 1 -0.1699,1.62208 17.723969,17.637318 0 0 0 4.05643,0.48874 17.723969,17.637318 0 0 0 17.72352,-17.63946 17.723969,17.637318 0 0 0 -17.72352,-17.63681 z m -258.92296,8.11568 a 17.723969,17.637318 0 0 0 -17.7261,17.63681 17.723969,17.637318 0 0 0 2.12384,8.34024 8.0913768,8.0518186 0 0 1 3.62379,-0.86387 8.0913768,8.0518186 0 0 1 8.09194,8.05228 8.0913768,8.0518186 0 0 1 -0.16991,1.62207 17.723969,17.637318 0 0 0 4.05644,0.48875 17.723969,17.637318 0 0 0 17.72352,-17.63947 17.723969,17.637318 0 0 0 -17.72352,-17.63681 z"
     style="opacity:1;fill:#1a1a1a;fill-opacity:1;stroke:none;stroke-width:9.4915266;stroke-linecap:round;stroke-miterlimit:4;stroke-dasharray:none;stroke-opacity:1"
     inkscape:connector-curvature="0" />
</svg>
