<?xml version="1.0" encoding="UTF-8" standalone="no"?>
<!-- Generator: Adobe Illustrator 19.0.0, SVG Export Plug-In . SVG Version: 6.00 Build 0)  -->

<svg
   xmlns:dc="http://purl.org/dc/elements/1.1/"
   xmlns:cc="http://creativecommons.org/ns#"
   xmlns:rdf="http://www.w3.org/1999/02/22-rdf-syntax-ns#"
   xmlns:svg="http://www.w3.org/2000/svg"
   xmlns="http://www.w3.org/2000/svg"
   xmlns:sodipodi="http://sodipodi.sourceforge.net/DTD/sodipodi-0.dtd"
   xmlns:inkscape="http://www.inkscape.org/namespaces/inkscape"
   version="1.1"
   id="Layer_1"
   x="0px"
   y="0px"
   viewBox="0 0 499.99999 499.99999"
   xml:space="preserve"
   sodipodi:docname="email.svg"
   width="500"
   height="500"
   inkscape:version="0.92.4 5da689c313, 2019-01-14"><metadata
   id="metadata43"><rdf:RDF><cc:Work
       rdf:about=""><dc:format>image/svg+xml</dc:format><dc:type
         rdf:resource="http://purl.org/dc/dcmitype/StillImage" /><dc:title></dc:title></cc:Work></rdf:RDF></metadata><defs
   id="defs41" /><sodipodi:namedview
   pagecolor="#ffffff"
   bordercolor="#666666"
   borderopacity="1"
   objecttolerance="10"
   gridtolerance="10"
   guidetolerance="10"
   inkscape:pageopacity="0"
   inkscape:pageshadow="2"
   inkscape:window-width="1366"
   inkscape:window-height="674"
   id="namedview39"
   showgrid="false"
   inkscape:zoom="0.564411"
   inkscape:cx="522.66878"
   inkscape:cy="237.77974"
   inkscape:window-x="0"
   inkscape:window-y="26"
   inkscape:window-maximized="1"
   inkscape:current-layer="g6" />
<g
   id="g6"
   transform="translate(809.69366,53.152756)">
	
	
<g
   id="g1026"
   transform="matrix(0.97656059,0,0,0.97656059,-809.69366,-53.152267)"
   style="fill:#1c1f24;fill-opacity:1;stroke-width:1.02400196"><g
     id="g965"
     style="fill:#1c1f24;fill-opacity:1;stroke-width:1.02400196">
	<g
   id="g963"
   style="fill:#1c1f24;fill-opacity:1;stroke-width:1.02400196">
		<g
   id="g961"
   style="fill:#1c1f24;fill-opacity:1;stroke-width:1.02400196">
			<path
   id="path953"
   d="m 10.688,95.156 c 70.27,59.511 193.572,164.209 229.812,196.854 4.865,4.406 10.083,6.646 15.5,6.646 5.406,0 10.615,-2.219 15.469,-6.604 36.271,-32.677 159.573,-137.385 229.844,-196.896 4.375,-3.698 5.042,-10.198 1.5,-14.719 C 494.625,69.99 482.417,64 469.333,64 H 42.667 c -13.083,0 -25.292,5.99 -33.479,16.438 -3.542,4.52 -2.875,11.02 1.5,14.718 z"
   inkscape:connector-curvature="0"
   style="fill:#1c1f24;fill-opacity:1;stroke-width:1.02400196" />
			<path
   id="path955"
   d="m 505.813,127.406 c -3.781,-1.76 -8.229,-1.146 -11.375,1.542 -46.021,39.01 -106.656,90.552 -152.385,129.885 -2.406,2.063 -3.76,5.094 -3.708,8.271 0.052,3.167 1.521,6.156 4,8.135 42.49,34.031 106.521,80.844 152.76,114.115 1.844,1.333 4.031,2.01 6.229,2.01 1.667,0 3.333,-0.385 4.865,-1.177 3.563,-1.823 5.802,-5.49 5.802,-9.49 V 137.083 c -10e-4,-4.156 -2.418,-7.937 -6.188,-9.677 z"
   inkscape:connector-curvature="0"
   style="fill:#1c1f24;fill-opacity:1;stroke-width:1.02400196" />
			<path
   id="path957"
   d="m 16.896,389.354 c 46.25,-33.271 110.292,-80.083 152.771,-114.115 2.479,-1.979 3.948,-4.969 4,-8.135 0.052,-3.177 -1.302,-6.208 -3.708,-8.271 C 124.229,219.5 63.583,167.958 17.563,128.948 14.396,126.26 9.938,125.667 6.188,127.406 2.417,129.146 0,132.927 0,137.083 v 243.615 c 0,4 2.24,7.667 5.802,9.49 1.531,0.792 3.198,1.177 4.865,1.177 2.198,0 4.385,-0.677 6.229,-2.011 z"
   inkscape:connector-curvature="0"
   style="fill:#1c1f24;fill-opacity:1;stroke-width:1.02400196" />
			<path
   id="path959"
   d="M 498.927,418.375 C 454.271,386.427 372.01,326.865 322.906,287.01 c -4,-3.26 -9.792,-3.156 -13.729,0.24 -9.635,8.406 -17.698,15.49 -23.417,20.635 -17.563,15.854 -41.938,15.854 -59.542,-0.021 -5.698,-5.135 -13.76,-12.24 -23.396,-20.615 -3.906,-3.417 -9.708,-3.521 -13.719,-0.24 -48.938,39.719 -131.292,99.354 -176.021,131.365 -2.49,1.792 -4.094,4.552 -4.406,7.604 -0.302,3.052 0.708,6.083 2.802,8.333 C 19.552,443.01 30.927,448 42.667,448 h 426.667 c 11.74,0 23.104,-4.99 31.198,-13.688 2.083,-2.24 3.104,-5.271 2.802,-8.323 -0.313,-3.051 -1.917,-5.822 -4.407,-7.614 z"
   inkscape:connector-curvature="0"
   style="fill:#1c1f24;fill-opacity:1;stroke-width:1.02400196" />
		</g>
	</g>
</g><g
     id="g967"
     style="fill:#1c1f24;fill-opacity:1;stroke-width:1.02400196">
</g><g
     id="g969"
     style="fill:#1c1f24;fill-opacity:1;stroke-width:1.02400196">
</g><g
     id="g971"
     style="fill:#1c1f24;fill-opacity:1;stroke-width:1.02400196">
</g><g
     id="g973"
     style="fill:#1c1f24;fill-opacity:1;stroke-width:1.02400196">
</g><g
     id="g975"
     style="fill:#1c1f24;fill-opacity:1;stroke-width:1.02400196">
</g><g
     id="g977"
     style="fill:#1c1f24;fill-opacity:1;stroke-width:1.02400196">
</g><g
     id="g979"
     style="fill:#1c1f24;fill-opacity:1;stroke-width:1.02400196">
</g><g
     id="g981"
     style="fill:#1c1f24;fill-opacity:1;stroke-width:1.02400196">
</g><g
     id="g983"
     style="fill:#1c1f24;fill-opacity:1;stroke-width:1.02400196">
</g><g
     id="g985"
     style="fill:#1c1f24;fill-opacity:1;stroke-width:1.02400196">
</g><g
     id="g987"
     style="fill:#1c1f24;fill-opacity:1;stroke-width:1.02400196">
</g><g
     id="g989"
     style="fill:#1c1f24;fill-opacity:1;stroke-width:1.02400196">
</g><g
     id="g991"
     style="fill:#1c1f24;fill-opacity:1;stroke-width:1.02400196">
</g><g
     id="g993"
     style="fill:#1c1f24;fill-opacity:1;stroke-width:1.02400196">
</g><g
     id="g995"
     style="fill:#1c1f24;fill-opacity:1;stroke-width:1.02400196">
</g></g></g>
<g
   id="g8"
   transform="translate(809.69366,53.152756)">
</g>
<g
   id="g10"
   transform="translate(809.69366,53.152756)">
</g>
<g
   id="g12"
   transform="translate(809.69366,53.152756)">
</g>
<g
   id="g14"
   transform="translate(809.69366,53.152756)">
</g>
<g
   id="g16"
   transform="translate(809.69366,53.152756)">
</g>
<g
   id="g18"
   transform="translate(809.69366,53.152756)">
</g>
<g
   id="g20"
   transform="translate(809.69366,53.152756)">
</g>
<g
   id="g22"
   transform="translate(809.69366,53.152756)">
</g>
<g
   id="g24"
   transform="translate(809.69366,53.152756)">
</g>
<g
   id="g26"
   transform="translate(809.69366,53.152756)">
</g>
<g
   id="g28"
   transform="translate(809.69366,53.152756)">
</g>
<g
   id="g30"
   transform="translate(809.69366,53.152756)">
</g>
<g
   id="g32"
   transform="translate(809.69366,53.152756)">
</g>
<g
   id="g34"
   transform="translate(809.69366,53.152756)">
</g>
<g
   id="g36"
   transform="translate(809.69366,53.152756)">
</g>
</svg>