<?xml version="1.0" encoding="UTF-8" standalone="no"?>
<!-- Generator: Adobe Illustrator 19.0.0, SVG Export Plug-In . SVG Version: 6.00 Build 0)  -->

<svg
   xmlns:dc="http://purl.org/dc/elements/1.1/"
   xmlns:cc="http://creativecommons.org/ns#"
   xmlns:rdf="http://www.w3.org/1999/02/22-rdf-syntax-ns#"
   xmlns:svg="http://www.w3.org/2000/svg"
   xmlns="http://www.w3.org/2000/svg"
   xmlns:sodipodi="http://sodipodi.sourceforge.net/DTD/sodipodi-0.dtd"
   xmlns:inkscape="http://www.inkscape.org/namespaces/inkscape"
   version="1.1"
   id="Layer_1"
   x="0px"
   y="0px"
   viewBox="0 0 499.99999 499.99999"
   xml:space="preserve"
   sodipodi:docname="facebook.svg"
   width="500"
   height="500"
   inkscape:version="0.92.4 5da689c313, 2019-01-14"><metadata
   id="metadata43"><rdf:RDF><cc:Work
       rdf:about=""><dc:format>image/svg+xml</dc:format><dc:type
         rdf:resource="http://purl.org/dc/dcmitype/StillImage" /><dc:title></dc:title></cc:Work></rdf:RDF></metadata><defs
   id="defs41">














</defs><sodipodi:namedview
   pagecolor="#ffffff"
   bordercolor="#666666"
   borderopacity="1"
   objecttolerance="10"
   gridtolerance="10"
   guidetolerance="10"
   inkscape:pageopacity="0"
   inkscape:pageshadow="2"
   inkscape:window-width="1366"
   inkscape:window-height="674"
   id="namedview39"
   showgrid="false"
   inkscape:zoom="0.564411"
   inkscape:cx="522.66878"
   inkscape:cy="237.77974"
   inkscape:window-x="0"
   inkscape:window-y="26"
   inkscape:window-maximized="1"
   inkscape:current-layer="g6" />
<g
   id="g6"
   transform="translate(809.69366,53.152756)">
	
	
<path
   style="opacity:1;fill:#ffffff;fill-opacity:1;fill-rule:nonzero;stroke:none;stroke-width:37.79527664;stroke-linecap:round;stroke-linejoin:round;stroke-miterlimit:4;stroke-dasharray:none;stroke-dashoffset:0;stroke-opacity:1;paint-order:markers fill stroke"
   d="m -503.07042,-53.152511 c -69.65022,0 -117.33471,42.515001 -117.33471,120.592564 v 67.279877 h -56.01891 c -7.33308,0 -13.27035,5.95827 -13.24225,13.29135 l 0.27148,69.63084 c 0.0281,7.29315 5.94622,13.19026 13.23937,13.19026 h 56.11999 l -0.37257,216.01186 94.21203,0.003 0.36969,-216.01185 h 74.60716 c 6.70905,0 12.36018,-5.02233 13.14983,-11.68554 l 8.25438,-69.62796 c 0.93457,-7.87577 -5.21934,-14.80185 -13.14983,-14.80185 h -83.23123 V 76.474364 c 0,-26.414768 7.33341,-44.414253 45.21138,-44.414253 l 35.07391,-0.01479 c 7.30943,-0.0044 13.23649,-5.931353 13.23649,-13.242253 v -58.71357 c 0,-7.313858 -5.92987,-13.242253 -13.24225,-13.242253 z"
   id="path1370"
   inkscape:connector-curvature="0"
   sodipodi:nodetypes="cscsccsccccsccscsccsscc" /></g>
<g
   id="g8"
   transform="translate(809.69366,53.152756)">
</g>
<g
   id="g10"
   transform="translate(809.69366,53.152756)">
</g>
<g
   id="g12"
   transform="translate(809.69366,53.152756)">
</g>
<g
   id="g14"
   transform="translate(809.69366,53.152756)">
</g>
<g
   id="g16"
   transform="translate(809.69366,53.152756)">
</g>
<g
   id="g18"
   transform="translate(809.69366,53.152756)">
</g>
<g
   id="g20"
   transform="translate(809.69366,53.152756)">
</g>
<g
   id="g22"
   transform="translate(809.69366,53.152756)">
</g>
<g
   id="g24"
   transform="translate(809.69366,53.152756)">
</g>
<g
   id="g26"
   transform="translate(809.69366,53.152756)">
</g>
<g
   id="g28"
   transform="translate(809.69366,53.152756)">
</g>
<g
   id="g30"
   transform="translate(809.69366,53.152756)">
</g>
<g
   id="g32"
   transform="translate(809.69366,53.152756)">
</g>
<g
   id="g34"
   transform="translate(809.69366,53.152756)">
</g>
<g
   id="g36"
   transform="translate(809.69366,53.152756)">
</g>
</svg>