<?xml version="1.0" encoding="UTF-8" standalone="no"?>
<!-- Generator: Adobe Illustrator 19.0.0, SVG Export Plug-In . SVG Version: 6.00 Build 0)  -->

<svg
   xmlns:dc="http://purl.org/dc/elements/1.1/"
   xmlns:cc="http://creativecommons.org/ns#"
   xmlns:rdf="http://www.w3.org/1999/02/22-rdf-syntax-ns#"
   xmlns:svg="http://www.w3.org/2000/svg"
   xmlns="http://www.w3.org/2000/svg"
   xmlns:sodipodi="http://sodipodi.sourceforge.net/DTD/sodipodi-0.dtd"
   xmlns:inkscape="http://www.inkscape.org/namespaces/inkscape"
   version="1.1"
   id="Layer_1"
   x="0px"
   y="0px"
   viewBox="0 0 499.99999 499.99999"
   xml:space="preserve"
   sodipodi:docname="instagram.svg"
   width="500"
   height="500"
   inkscape:version="0.92.4 5da689c313, 2019-01-14"><metadata
   id="metadata43"><rdf:RDF><cc:Work
       rdf:about=""><dc:format>image/svg+xml</dc:format><dc:type
         rdf:resource="http://purl.org/dc/dcmitype/StillImage" /><dc:title></dc:title></cc:Work></rdf:RDF></metadata><defs
   id="defs41">














</defs><sodipodi:namedview
   pagecolor="#ffffff"
   bordercolor="#666666"
   borderopacity="1"
   objecttolerance="10"
   gridtolerance="10"
   guidetolerance="10"
   inkscape:pageopacity="0"
   inkscape:pageshadow="2"
   inkscape:window-width="1366"
   inkscape:window-height="674"
   id="namedview39"
   showgrid="false"
   inkscape:zoom="0.564411"
   inkscape:cx="522.66878"
   inkscape:cy="237.77974"
   inkscape:window-x="0"
   inkscape:window-y="26"
   inkscape:window-maximized="1"
   inkscape:current-layer="g6" />
<g
   id="g6"
   transform="translate(809.69366,53.152756)">
	
	
<g
   id="g1501"
   transform="matrix(0.90738503,0,0,0.90738503,-809.69366,-53.152757)"
   style="stroke-width:1.10206795;fill:#ffffff"><g
     id="g1428"
     style="stroke-width:1.10206795;fill:#ffffff">
	
		<linearGradient
   gradientTransform="matrix(1,0,0,-1,0,554)"
   y2="549.71997"
   x2="275.517"
   y1="4.5700002"
   x1="275.517"
   gradientUnits="userSpaceOnUse"
   id="SVGID_1_">
		<stop
   id="stop1395"
   style="stop-color:#E09B3D"
   offset="0" />
		<stop
   id="stop1397"
   style="stop-color:#C74C4D"
   offset="0.3" />
		<stop
   id="stop1399"
   style="stop-color:#C21975"
   offset="0.6" />
		<stop
   id="stop1401"
   style="stop-color:#7024C4"
   offset="1" />
	</linearGradient>
	<path
   id="path1404"
   d="M 386.878,0 H 164.156 C 73.64,0 0,73.64 0,164.156 v 222.722 c 0,90.516 73.64,164.156 164.156,164.156 h 222.722 c 90.516,0 164.156,-73.64 164.156,-164.156 V 164.156 C 551.033,73.64 477.393,0 386.878,0 Z M 495.6,386.878 C 495.6,446.923 446.923,495.6 386.878,495.6 H 164.156 C 104.111,495.6 55.434,446.923 55.434,386.878 V 164.156 c 0,-60.046 48.677,-108.722 108.722,-108.722 h 222.722 c 60.045,0 108.722,48.676 108.722,108.722 z"
   style="fill:#ffffff;stroke-width:1.10206795"
   inkscape:connector-curvature="0" />
	
		<linearGradient
   gradientTransform="matrix(1,0,0,-1,0,554)"
   y2="549.71997"
   x2="275.517"
   y1="4.5700002"
   x1="275.517"
   gradientUnits="userSpaceOnUse"
   id="SVGID_2_">
		<stop
   id="stop1406"
   style="stop-color:#E09B3D"
   offset="0" />
		<stop
   id="stop1408"
   style="stop-color:#C74C4D"
   offset="0.3" />
		<stop
   id="stop1410"
   style="stop-color:#C21975"
   offset="0.6" />
		<stop
   id="stop1412"
   style="stop-color:#7024C4"
   offset="1" />
	</linearGradient>
	<path
   id="path1415"
   d="M 275.517,133 C 196.933,133 133,196.933 133,275.516 c 0,78.583 63.933,142.517 142.517,142.517 78.584,0 142.517,-63.933 142.517,-142.517 C 418.034,196.932 354.101,133 275.517,133 Z m 0,229.6 c -48.095,0 -87.083,-38.988 -87.083,-87.083 0,-48.095 38.989,-87.083 87.083,-87.083 48.095,0 87.083,38.988 87.083,87.083 0,48.094 -38.989,87.083 -87.083,87.083 z"
   style="fill:#ffffff;stroke-width:1.10206795"
   inkscape:connector-curvature="0" />
	
		<linearGradient
   gradientTransform="matrix(1,0,0,-1,0,554)"
   y2="549.71997"
   x2="418.31"
   y1="4.5700002"
   x1="418.31"
   gradientUnits="userSpaceOnUse"
   id="SVGID_3_">
		<stop
   id="stop1417"
   style="stop-color:#E09B3D"
   offset="0" />
		<stop
   id="stop1419"
   style="stop-color:#C74C4D"
   offset="0.3" />
		<stop
   id="stop1421"
   style="stop-color:#C21975"
   offset="0.6" />
		<stop
   id="stop1423"
   style="stop-color:#7024C4"
   offset="1" />
	</linearGradient>
	<circle
   id="circle1426"
   r="34.150002"
   cy="134.07001"
   cx="418.31"
   style="fill:#ffffff;stroke-width:1.10206795" />
</g><g
     id="g1430"
     style="stroke-width:1.10206795;fill:#ffffff">
</g><g
     id="g1432"
     style="stroke-width:1.10206795;fill:#ffffff">
</g><g
     id="g1434"
     style="stroke-width:1.10206795;fill:#ffffff">
</g><g
     id="g1436"
     style="stroke-width:1.10206795;fill:#ffffff">
</g><g
     id="g1438"
     style="stroke-width:1.10206795;fill:#ffffff">
</g><g
     id="g1440"
     style="stroke-width:1.10206795;fill:#ffffff">
</g><g
     id="g1442"
     style="stroke-width:1.10206795;fill:#ffffff">
</g><g
     id="g1444"
     style="stroke-width:1.10206795;fill:#ffffff">
</g><g
     id="g1446"
     style="stroke-width:1.10206795;fill:#ffffff">
</g><g
     id="g1448"
     style="stroke-width:1.10206795;fill:#ffffff">
</g><g
     id="g1450"
     style="stroke-width:1.10206795;fill:#ffffff">
</g><g
     id="g1452"
     style="stroke-width:1.10206795;fill:#ffffff">
</g><g
     id="g1454"
     style="stroke-width:1.10206795;fill:#ffffff">
</g><g
     id="g1456"
     style="stroke-width:1.10206795;fill:#ffffff">
</g><g
     id="g1458"
     style="stroke-width:1.10206795;fill:#ffffff">
</g></g></g>
<g
   id="g8"
   transform="translate(809.69366,53.152756)">
</g>
<g
   id="g10"
   transform="translate(809.69366,53.152756)">
</g>
<g
   id="g12"
   transform="translate(809.69366,53.152756)">
</g>
<g
   id="g14"
   transform="translate(809.69366,53.152756)">
</g>
<g
   id="g16"
   transform="translate(809.69366,53.152756)">
</g>
<g
   id="g18"
   transform="translate(809.69366,53.152756)">
</g>
<g
   id="g20"
   transform="translate(809.69366,53.152756)">
</g>
<g
   id="g22"
   transform="translate(809.69366,53.152756)">
</g>
<g
   id="g24"
   transform="translate(809.69366,53.152756)">
</g>
<g
   id="g26"
   transform="translate(809.69366,53.152756)">
</g>
<g
   id="g28"
   transform="translate(809.69366,53.152756)">
</g>
<g
   id="g30"
   transform="translate(809.69366,53.152756)">
</g>
<g
   id="g32"
   transform="translate(809.69366,53.152756)">
</g>
<g
   id="g34"
   transform="translate(809.69366,53.152756)">
</g>
<g
   id="g36"
   transform="translate(809.69366,53.152756)">
</g>
</svg>