<?xml version="1.0" encoding="UTF-8" standalone="no"?>
<!-- Generator: Adobe Illustrator 19.0.0, SVG Export Plug-In . SVG Version: 6.00 Build 0)  -->

<svg
   xmlns:dc="http://purl.org/dc/elements/1.1/"
   xmlns:cc="http://creativecommons.org/ns#"
   xmlns:rdf="http://www.w3.org/1999/02/22-rdf-syntax-ns#"
   xmlns:svg="http://www.w3.org/2000/svg"
   xmlns="http://www.w3.org/2000/svg"
   xmlns:sodipodi="http://sodipodi.sourceforge.net/DTD/sodipodi-0.dtd"
   xmlns:inkscape="http://www.inkscape.org/namespaces/inkscape"
   version="1.1"
   id="Layer_1"
   x="0px"
   y="0px"
   viewBox="0 0 499.99999 499.99999"
   xml:space="preserve"
   sodipodi:docname="phone.svg"
   width="500"
   height="500"
   inkscape:version="0.92.4 5da689c313, 2019-01-14"><metadata
   id="metadata43"><rdf:RDF><cc:Work
       rdf:about=""><dc:format>image/svg+xml</dc:format><dc:type
         rdf:resource="http://purl.org/dc/dcmitype/StillImage" /><dc:title></dc:title></cc:Work></rdf:RDF></metadata><defs
   id="defs41" /><sodipodi:namedview
   pagecolor="#ffffff"
   bordercolor="#666666"
   borderopacity="1"
   objecttolerance="10"
   gridtolerance="10"
   guidetolerance="10"
   inkscape:pageopacity="0"
   inkscape:pageshadow="2"
   inkscape:window-width="1366"
   inkscape:window-height="674"
   id="namedview39"
   showgrid="false"
   inkscape:zoom="0.564411"
   inkscape:cx="522.66878"
   inkscape:cy="237.77974"
   inkscape:window-x="0"
   inkscape:window-y="26"
   inkscape:window-maximized="1"
   inkscape:current-layer="g6" />
<g
   id="g6"
   transform="translate(809.69366,53.152756)">
	
	<path
   style="fill:#1c1f24;stroke-width:0.99999988;fill-opacity:1"
   d="m -334.79511,299.86069 -92.99493,-26.70228 c -12.226,-3.50968 -25.39193,-0.0416 -34.3004,9.03581 l -22.74115,23.16944 c -9.58912,9.76968 -24.13946,12.90895 -36.8308,7.77407 -43.99138,-17.80305 -136.53024,-100.08142 -160.1627,-141.23682 -6.81795,-11.87178 -5.69049,-26.71385 2.68088,-37.54615 l 19.85422,-25.68595 c 7.77871,-10.063708 9.42012,-23.579215 4.27598,-35.212557 l -39.12506,-88.489764 c -9.37149,-21.194667 -36.45575,-27.364389 -54.15,-12.399634 -25.9545,21.9517037 -56.74986,55.309865 -60.49336,92.265678 -6.60032,65.155957 21.34283,147.290797 127.01059,245.913717 122.0748,113.93725 219.83188,128.98997 283.4807,113.57146 36.10155,-8.74409 64.95222,-43.79922 83.16043,-72.50174 12.41352,-19.56946 2.61142,-45.55869 -19.6644,-51.95528 z"
   id="path4"
   inkscape:connector-curvature="0" />
</g>
<g
   id="g8"
   transform="translate(809.69366,53.152756)">
</g>
<g
   id="g10"
   transform="translate(809.69366,53.152756)">
</g>
<g
   id="g12"
   transform="translate(809.69366,53.152756)">
</g>
<g
   id="g14"
   transform="translate(809.69366,53.152756)">
</g>
<g
   id="g16"
   transform="translate(809.69366,53.152756)">
</g>
<g
   id="g18"
   transform="translate(809.69366,53.152756)">
</g>
<g
   id="g20"
   transform="translate(809.69366,53.152756)">
</g>
<g
   id="g22"
   transform="translate(809.69366,53.152756)">
</g>
<g
   id="g24"
   transform="translate(809.69366,53.152756)">
</g>
<g
   id="g26"
   transform="translate(809.69366,53.152756)">
</g>
<g
   id="g28"
   transform="translate(809.69366,53.152756)">
</g>
<g
   id="g30"
   transform="translate(809.69366,53.152756)">
</g>
<g
   id="g32"
   transform="translate(809.69366,53.152756)">
</g>
<g
   id="g34"
   transform="translate(809.69366,53.152756)">
</g>
<g
   id="g36"
   transform="translate(809.69366,53.152756)">
</g>
</svg>