<?xml version="1.0" encoding="UTF-8" standalone="no"?>
<!-- Generator: Adobe Illustrator 19.0.0, SVG Export Plug-In . SVG Version: 6.00 Build 0)  -->

<svg
   xmlns:dc="http://purl.org/dc/elements/1.1/"
   xmlns:cc="http://creativecommons.org/ns#"
   xmlns:rdf="http://www.w3.org/1999/02/22-rdf-syntax-ns#"
   xmlns:svg="http://www.w3.org/2000/svg"
   xmlns="http://www.w3.org/2000/svg"
   xmlns:sodipodi="http://sodipodi.sourceforge.net/DTD/sodipodi-0.dtd"
   xmlns:inkscape="http://www.inkscape.org/namespaces/inkscape"
   version="1.1"
   id="Layer_1"
   x="0px"
   y="0px"
   viewBox="0 0 499.99999 499.99999"
   xml:space="preserve"
   sodipodi:docname="whatsapp.svg"
   width="500"
   height="500"
   inkscape:version="0.92.4 5da689c313, 2019-01-14"><metadata
   id="metadata43"><rdf:RDF><cc:Work
       rdf:about=""><dc:format>image/svg+xml</dc:format><dc:type
         rdf:resource="http://purl.org/dc/dcmitype/StillImage" /><dc:title></dc:title></cc:Work></rdf:RDF></metadata><defs
   id="defs41" /><sodipodi:namedview
   pagecolor="#ffffff"
   bordercolor="#666666"
   borderopacity="1"
   objecttolerance="10"
   gridtolerance="10"
   guidetolerance="10"
   inkscape:pageopacity="0"
   inkscape:pageshadow="2"
   inkscape:window-width="1366"
   inkscape:window-height="674"
   id="namedview39"
   showgrid="false"
   inkscape:zoom="0.564411"
   inkscape:cx="522.66878"
   inkscape:cy="237.77974"
   inkscape:window-x="0"
   inkscape:window-y="26"
   inkscape:window-maximized="1"
   inkscape:current-layer="g6" />
<g
   id="g6"
   transform="translate(809.69366,53.152756)">
	
	
<g
   id="g932"
   transform="matrix(1.1957857,0,0,1.1957857,-809.69388,-53.152978)"
   style="stroke-width:0.83627021;fill:#1c1f24;fill-opacity:1"><g
     id="g875"
     style="stroke-width:0.83627021;fill:#1c1f24;fill-opacity:1">
	<path
   id="path871"
   d="M 198.929,0.242 C 88.5,5.5 1.356,97.466 1.691,208.02 c 0.102,33.672 8.231,65.454 22.571,93.536 L 2.245,408.429 c -1.191,5.781 4.023,10.843 9.766,9.483 l 104.723,-24.811 c 26.905,13.402 57.125,21.143 89.108,21.631 112.869,1.724 206.982,-87.897 210.5,-200.724 C 420.113,93.065 320.295,-5.538 198.929,0.242 Z m 124.957,321.955 c -30.669,30.669 -71.446,47.559 -114.818,47.559 -25.396,0 -49.71,-5.698 -72.269,-16.935 l -14.584,-7.265 -64.206,15.212 13.515,-65.607 -7.185,-14.07 C 52.628,258.156 46.69,233.355 46.69,207.378 c 0,-43.373 16.89,-84.149 47.559,-114.819 30.395,-30.395 71.837,-47.56 114.822,-47.56 43.372,10e-4 84.147,16.891 114.816,47.559 30.669,30.669 47.559,71.445 47.56,114.817 -10e-4,42.986 -17.166,84.428 -47.561,114.822 z"
   style="fill:#1c1f24;stroke-width:0.83627021;fill-opacity:1"
   inkscape:connector-curvature="0" />
	<path
   id="path873"
   d="m 309.712,252.351 -40.169,-11.534 c -5.281,-1.516 -10.968,-0.018 -14.816,3.903 l -9.823,10.008 c -4.142,4.22 -10.427,5.576 -15.909,3.358 -19.002,-7.69 -58.974,-43.23 -69.182,-61.007 -2.945,-5.128 -2.458,-11.539 1.158,-16.218 l 8.576,-11.095 c 3.36,-4.347 4.069,-10.185 1.847,-15.21 l -16.9,-38.223 c -4.048,-9.155 -15.747,-11.82 -23.39,-5.356 -11.211,9.482 -24.513,23.891 -26.13,39.854 -2.851,28.144 9.219,63.622 54.862,106.222 52.73,49.215 94.956,55.717 122.449,49.057 15.594,-3.777 28.056,-18.919 35.921,-31.317 5.362,-8.453 1.128,-19.679 -8.494,-22.442 z"
   style="fill:#1c1f24;stroke-width:0.83627021;fill-opacity:1"
   inkscape:connector-curvature="0" />
</g><g
     id="g877"
     style="stroke-width:0.83627021;fill:#1c1f24;fill-opacity:1">
</g><g
     id="g879"
     style="stroke-width:0.83627021;fill:#1c1f24;fill-opacity:1">
</g><g
     id="g881"
     style="stroke-width:0.83627021;fill:#1c1f24;fill-opacity:1">
</g><g
     id="g883"
     style="stroke-width:0.83627021;fill:#1c1f24;fill-opacity:1">
</g><g
     id="g885"
     style="stroke-width:0.83627021;fill:#1c1f24;fill-opacity:1">
</g><g
     id="g887"
     style="stroke-width:0.83627021;fill:#1c1f24;fill-opacity:1">
</g><g
     id="g889"
     style="stroke-width:0.83627021;fill:#1c1f24;fill-opacity:1">
</g><g
     id="g891"
     style="stroke-width:0.83627021;fill:#1c1f24;fill-opacity:1">
</g><g
     id="g893"
     style="stroke-width:0.83627021;fill:#1c1f24;fill-opacity:1">
</g><g
     id="g895"
     style="stroke-width:0.83627021;fill:#1c1f24;fill-opacity:1">
</g><g
     id="g897"
     style="stroke-width:0.83627021;fill:#1c1f24;fill-opacity:1">
</g><g
     id="g899"
     style="stroke-width:0.83627021;fill:#1c1f24;fill-opacity:1">
</g><g
     id="g901"
     style="stroke-width:0.83627021;fill:#1c1f24;fill-opacity:1">
</g><g
     id="g903"
     style="stroke-width:0.83627021;fill:#1c1f24;fill-opacity:1">
</g><g
     id="g905"
     style="stroke-width:0.83627021;fill:#1c1f24;fill-opacity:1">
</g></g></g>
<g
   id="g8"
   transform="translate(809.69366,53.152756)">
</g>
<g
   id="g10"
   transform="translate(809.69366,53.152756)">
</g>
<g
   id="g12"
   transform="translate(809.69366,53.152756)">
</g>
<g
   id="g14"
   transform="translate(809.69366,53.152756)">
</g>
<g
   id="g16"
   transform="translate(809.69366,53.152756)">
</g>
<g
   id="g18"
   transform="translate(809.69366,53.152756)">
</g>
<g
   id="g20"
   transform="translate(809.69366,53.152756)">
</g>
<g
   id="g22"
   transform="translate(809.69366,53.152756)">
</g>
<g
   id="g24"
   transform="translate(809.69366,53.152756)">
</g>
<g
   id="g26"
   transform="translate(809.69366,53.152756)">
</g>
<g
   id="g28"
   transform="translate(809.69366,53.152756)">
</g>
<g
   id="g30"
   transform="translate(809.69366,53.152756)">
</g>
<g
   id="g32"
   transform="translate(809.69366,53.152756)">
</g>
<g
   id="g34"
   transform="translate(809.69366,53.152756)">
</g>
<g
   id="g36"
   transform="translate(809.69366,53.152756)">
</g>
</svg>