<?xml version="1.0" encoding="UTF-8" standalone="no"?>
<!-- Created with Inkscape (http://www.inkscape.org/) -->

<svg
   xmlns:dc="http://purl.org/dc/elements/1.1/"
   xmlns:cc="http://creativecommons.org/ns#"
   xmlns:rdf="http://www.w3.org/1999/02/22-rdf-syntax-ns#"
   xmlns:svg="http://www.w3.org/2000/svg"
   xmlns="http://www.w3.org/2000/svg"
   xmlns:sodipodi="http://sodipodi.sourceforge.net/DTD/sodipodi-0.dtd"
   xmlns:inkscape="http://www.inkscape.org/namespaces/inkscape"
   version="1.1"
   id="svg2"
   width="1920"
   height="1080"
   viewBox="0 0 1920 1080"
   sodipodi:docname="1.svg"
   inkscape:version="0.92.4 5da689c313, 2019-01-14">
  <metadata
     id="metadata8">
    <rdf:RDF>
      <cc:Work
         rdf:about="">
        <dc:format>image/svg+xml</dc:format>
        <dc:type
           rdf:resource="http://purl.org/dc/dcmitype/StillImage" />
        <dc:title></dc:title>
      </cc:Work>
    </rdf:RDF>
  </metadata>
  <defs
     id="defs6" />
  <sodipodi:namedview
     pagecolor="#ffffff"
     bordercolor="#666666"
     borderopacity="1"
     objecttolerance="10"
     gridtolerance="10"
     guidetolerance="10"
     inkscape:pageopacity="0"
     inkscape:pageshadow="2"
     inkscape:window-width="1366"
     inkscape:window-height="674"
     id="namedview4"
     showgrid="false"
     inkscape:zoom="0.19895833"
     inkscape:cx="1096.8797"
     inkscape:cy="336.19422"
     inkscape:window-x="0"
     inkscape:window-y="26"
     inkscape:window-maximized="1"
     inkscape:current-layer="svg2">
    <sodipodi:guide
       position="0,1080"
       orientation="1080,0"
       id="guide819"
       inkscape:locked="false" />
    <sodipodi:guide
       position="0,0"
       orientation="0,1920"
       id="guide821"
       inkscape:locked="false" />
    <sodipodi:guide
       position="1920,0"
       orientation="-1080,0"
       id="guide823"
       inkscape:locked="false" />
    <sodipodi:guide
       position="1920,1080"
       orientation="0,-1920"
       id="guide825"
       inkscape:locked="false" />
    <sodipodi:guide
       position="472.46017,811.26938"
       orientation="543.54916,0"
       id="guide829"
       inkscape:locked="false" />
    <sodipodi:guide
       position="472.46017,267.72021"
       orientation="0,965.86075"
       id="guide831"
       inkscape:locked="false" />
    <sodipodi:guide
       position="1438.3209,267.72021"
       orientation="-543.54916,0"
       id="guide833"
       inkscape:locked="false" />
    <sodipodi:guide
       position="1438.3209,811.26938"
       orientation="0,-965.86075"
       id="guide835"
       inkscape:locked="false" />
  </sodipodi:namedview>
  <rect
     style="opacity:1;fill:#f9f9f9;fill-opacity:1;fill-rule:nonzero;stroke:none;stroke-width:37.79527664;stroke-linecap:round;stroke-linejoin:round;stroke-miterlimit:4;stroke-dasharray:none;stroke-dashoffset:0;stroke-opacity:1;paint-order:markers fill stroke"
     id="rect819"
     width="1920"
     height="1080"
     x="0"
     y="0" />
  <g
     id="g829"
     transform="matrix(0.92960233,0,0,0.92960233,4290.8814,129.86381)"
     style="stroke-width:4.06574583">
    <path
       style="font-style:normal;font-variant:normal;font-weight:bold;font-stretch:normal;font-size:113.99649811px;line-height:1.25;font-family:Montserrat;-inkscape-font-specification:'Montserrat Bold';letter-spacing:-5.62370157px;word-spacing:0px;fill:#999999;fill-opacity:1;stroke:none;stroke-width:43.79346848"
       d="m 2834.3691,1631.8516 v 112.4531 c -16.6596,-18.6703 -39.782,-28.0059 -69.3671,-28.0059 -21.8298,0 -41.6504,4.8825 -59.459,14.6485 -17.5214,9.766 -31.3081,23.6971 -41.3614,41.7929 -10.0533,18.0959 -15.08,39.0638 -15.08,62.9043 0,23.8406 5.0267,44.8085 15.08,62.9043 10.0533,18.0959 23.84,32.027 41.3614,41.793 17.8086,9.766 37.6292,14.6504 59.459,14.6504 31.5958,0 55.7231,-10.0537 72.3828,-30.1602 v 26.7129 h 64.1972 v -319.6933 z m -894.0214,18.0957 v 301.5976 h 155.9687 c 39.3512,0 69.2253,-7.0368 89.6191,-21.1113 20.6809,-14.3618 31.0196,-34.756 31.0196,-61.1816 0,-18.6703 -4.8824,-34.3246 -14.6485,-46.9629 -9.766,-12.9256 -23.2661,-22.1168 -40.5,-27.5743 12.6383,-6.6064 22.4053,-15.6551 29.2989,-27.1445 7.1808,-11.4894 10.7715,-24.558 10.7715,-39.207 0,-24.1278 -9.9114,-43.2302 -29.7305,-57.3047 -19.5321,-14.0745 -47.6793,-21.1113 -84.4453,-21.1113 z m 69.3671,52.5644 h 69.3672 c 17.2342,0 30.3047,3.0149 39.209,9.0469 8.9043,5.7447 13.3555,14.5065 13.3555,26.2832 0,11.7766 -4.4512,20.6809 -13.3555,26.7129 -8.9043,6.0319 -21.9748,9.0469 -39.209,9.0469 h -69.3672 z m 344.5391,13.7871 c -24.415,0 -46.3881,5.1693 -65.9199,15.5098 -19.2449,10.0532 -34.3252,24.1288 -45.2402,42.2246 -10.9148,18.0958 -16.3711,38.6325 -16.3711,61.6113 0,22.9789 5.4563,43.5175 16.3711,61.6133 10.915,18.0958 25.9953,32.3138 45.2402,42.6543 19.5318,10.0533 41.5049,15.0801 65.9199,15.0801 24.415,0 46.2454,-5.0268 65.4902,-15.0801 19.2449,-10.3405 34.3255,-24.5585 45.2403,-42.6543 10.915,-18.0958 16.3711,-38.6344 16.3711,-61.6133 0,-22.9788 -5.4561,-43.5155 -16.3711,-61.6113 -10.9148,-18.0958 -25.9954,-32.1714 -45.2403,-42.2246 -19.2448,-10.3405 -41.0752,-15.5098 -65.4902,-15.5098 z m 294.5606,0 c -17.8084,0 -33.6071,2.8725 -47.3946,8.6172 -13.4999,5.7447 -24.2699,14.2178 -32.3125,25.4199 v -30.5898 h -64.1972 v 231.7988 h 67.2128 v -109.4375 c 0,-21.5426 5.4564,-37.6281 16.3711,-48.2558 10.9151,-10.915 25.9954,-16.3711 45.2403,-16.3711 2.5849,0 7.612,0.2868 15.0801,0.8613 z m 399.9746,0 c -23.2661,0 -44.3767,5.1693 -63.334,15.5098 -18.6704,10.0532 -33.4639,24.2732 -44.3789,42.6562 -10.6276,18.0959 -15.9414,38.4882 -15.9414,61.1797 0,22.9789 5.4582,43.5175 16.373,61.6133 10.915,18.0958 26.4249,32.3138 46.5313,42.6543 20.1065,10.0533 43.2287,15.0801 69.3671,15.0801 41.9364,0 73.8206,-12.4949 95.6504,-37.4844 l -35.7617,-38.7773 c -8.0426,7.7553 -16.8024,13.5003 -26.2812,17.2343 -9.1916,3.4469 -19.8191,5.17 -31.8828,5.17 -17.5214,0 -32.1706,-4.1643 -43.9473,-12.4942 -11.7765,-8.3298 -19.2446,-19.6773 -22.4043,-34.039 h 175.3574 c 0.8618,-11.2022 1.291,-17.234 1.291,-18.0957 0,-24.1278 -5.3136,-45.2382 -15.9414,-63.334 -10.3405,-18.3831 -24.7008,-32.4586 -43.084,-42.2246 -18.3828,-9.766 -38.9215,-14.6485 -61.6132,-14.6485 z m 288.0976,0 c -17.8086,0 -33.6073,2.8725 -47.3945,8.6172 -13.5002,5.7447 -24.2719,14.2178 -32.3145,25.4199 v -30.5898 h -64.1953 v 231.7988 h 67.2129 v -109.4375 c 0,-21.5426 5.4561,-37.6281 16.3711,-48.2558 10.915,-10.915 25.9956,-16.3711 45.2402,-16.3711 2.5852,0 7.612,0.2868 15.0801,0.8613 z m 110.1543,0 c -22.117,0 -41.3619,3.1594 -57.7344,9.4785 -16.0851,6.3192 -28.4356,15.2235 -37.0527,26.7129 -8.3298,11.2022 -12.4941,24.1284 -12.4941,38.7774 0,17.5213 4.4511,31.0212 13.3554,40.5 9.1913,9.4788 19.9632,16.0843 32.3145,19.8183 12.351,3.7341 28.0053,7.0379 46.9629,9.9102 16.0851,2.0107 28.0044,4.4519 35.7597,7.3242 7.7554,2.8724 11.6329,7.6123 11.6329,14.2188 0,14.0745 -14.2162,21.1113 -42.6524,21.1113 -14.0744,0 -28.4367,-2.01 -43.0859,-6.0313 -14.649,-4.3085 -27.1439,-9.7666 -37.4844,-16.373 l -22.4043,48.2559 c 10.915,7.1809 25.5642,13.2127 43.9473,18.0957 18.3828,4.5957 37.1965,6.8945 56.4414,6.8945 22.6915,0 42.2233,-3.0169 58.5957,-9.0488 16.6596,-6.3192 29.2989,-15.0791 37.916,-26.2813 8.6171,-11.2022 12.9238,-23.9859 12.9238,-38.3476 0,-16.9469 -4.4511,-30.158 -13.3554,-39.6368 -8.9044,-9.4787 -19.3894,-15.9418 -31.4532,-19.3886 -12.064,-3.7341 -27.5739,-7.1822 -46.5312,-10.3418 -16.9469,-2.5851 -29.2974,-5.3132 -37.0528,-8.1856 -7.7555,-2.8723 -11.6347,-7.8992 -11.6347,-15.0801 0,-6.3191 3.5923,-11.4884 10.7734,-15.5097 7.1809,-4.0213 17.9508,-6.0332 32.3125,-6.0332 24.1278,0 46.3894,5.7449 66.7832,17.2343 l 22.4043,-47.8242 c -10.6278,-6.3192 -24.1276,-11.2016 -40.5,-14.6484 -16.0851,-3.7341 -32.3151,-5.6016 -48.6875,-5.6016 z m -397.8203,50.8399 c 14.9364,0 27.5738,4.4531 37.9141,13.3574 10.3405,8.617 16.661,20.2494 18.959,34.8984 H 2991.918 c 2.2979,-14.9362 8.6165,-26.713 18.957,-35.33 10.3403,-8.6171 23.1223,-12.9258 38.3457,-12.9258 z m -694.9668,4.3086 c 17.2341,0 31.3096,5.8893 42.2246,17.666 11.2023,11.4894 16.8027,26.9992 16.8027,46.5312 0,19.532 -5.6004,35.1863 -16.8027,46.9629 -10.915,11.4894 -24.9905,17.2344 -42.2246,17.2344 -17.2339,0 -31.452,-5.745 -42.6543,-17.2344 -11.2023,-11.7766 -16.8027,-27.4309 -16.8027,-46.9629 0,-19.532 5.6004,-35.0418 16.8027,-46.5312 11.2023,-11.7767 25.4204,-17.666 42.6543,-17.666 z m 422.3809,0 c 16.9469,0 31.0204,5.8893 42.2226,17.666 11.202,11.4894 16.8028,26.9992 16.8028,46.5312 0,19.532 -5.6008,35.1863 -16.8028,46.9629 -11.2022,11.4894 -25.2757,17.2344 -42.2226,17.2344 -17.2342,0 -31.4523,-5.745 -42.6543,-17.2344 -11.2023,-11.7766 -16.8047,-27.4309 -16.8047,-46.9629 0,-19.532 5.6024,-35.0418 16.8047,-46.5312 11.202,-11.7767 25.4201,-17.666 42.6543,-17.666 z m -766.92,52.9961 h 81.4317 c 37.0535,0 55.5801,12.4949 55.5801,37.4843 0,12.6384 -4.738,21.972 -14.2168,28.0039 -9.1916,6.032 -22.9802,9.0489 -41.3633,9.0489 h -81.4317 z m 956.2559,341.3769 c -12.3512,0 -22.4048,3.5906 -30.1602,10.7715 -7.7553,7.1809 -11.6328,16.0852 -11.6328,26.7129 0,10.6277 3.8775,19.532 11.6328,26.7129 7.7554,7.1809 17.809,10.7695 30.1602,10.7695 12.351,0 22.4048,-3.5886 30.1602,-10.7695 7.7553,-7.4681 11.6328,-16.8037 11.6328,-28.0059 0,-10.3404 -3.8775,-18.9579 -11.6328,-25.8515 -7.7554,-6.8937 -17.8092,-10.3399 -30.1602,-10.3399 z m 493.7578,0 c -12.3512,0 -22.4048,3.5906 -30.1601,10.7715 -7.7554,7.1809 -11.6329,16.0852 -11.6329,26.7129 0,10.6277 3.8775,19.532 11.6329,26.7129 7.7553,7.1809 17.8089,10.7695 30.1601,10.7695 12.351,0 22.4029,-3.5886 30.1582,-10.7695 7.7554,-7.4681 11.6348,-16.8037 11.6348,-28.0059 0,-10.3404 -3.8794,-18.9579 -11.6348,-25.8515 -7.7553,-6.8937 -17.8072,-10.3399 -30.1582,-10.3399 z m -418.9336,19.3867 v 319.6934 h 67.2129 V 2185.207 Z m 277.3262,0 v 112.4532 c -16.6597,-18.6704 -39.7818,-28.0059 -69.3672,-28.0059 -21.8298,0 -41.6503,4.8844 -59.459,14.6504 -17.5214,9.766 -31.308,23.6972 -41.3613,41.793 -10.053,18.0958 -15.0801,39.0637 -15.0801,62.9043 0,23.8405 5.0271,44.8084 15.0801,62.9042 10.0533,18.0959 23.8399,32.027 41.3613,41.793 17.8087,9.766 37.6292,14.6485 59.459,14.6485 31.5958,0 55.7232,-10.0537 72.3828,-30.1602 v 26.7129 h 64.1973 V 2185.207 Z m -964.1055,18.0977 v 301.5957 h 155.9688 c 39.3512,0 69.2233,-7.0368 89.6172,-21.1113 20.6808,-14.3618 31.0214,-34.756 31.0214,-61.1817 0,-18.6703 -4.8823,-34.3245 -14.6484,-46.9629 -9.766,-12.9255 -23.2658,-22.1167 -40.5,-27.5742 12.6385,-6.6064 22.4033,-15.6551 29.2969,-27.1445 7.1808,-11.4894 10.7715,-24.5581 10.7715,-39.207 0,-24.1278 -9.9095,-43.2283 -29.7285,-57.3028 -19.5321,-14.0745 -47.6813,-21.1113 -84.4473,-21.1113 z m 69.3672,52.5625 h 69.3672 c 17.2341,0 30.3047,3.0169 39.209,9.0488 8.9043,5.7447 13.3555,14.5046 13.3555,26.2813 0,11.7766 -4.4512,20.6809 -13.3555,26.7129 -8.9043,6.0319 -21.9749,9.0488 -39.209,9.0488 h -69.3672 z m 1252.0586,13.7871 c -15.7979,0 -30.3029,2.73 -43.5156,8.1875 -13.213,5.1702 -24.2715,12.6383 -33.1758,22.4043 v -27.1445 h -64.1973 v 231.7988 h 67.2129 v -114.6055 c 0,-20.6809 5.0268,-36.1927 15.0801,-46.5332 10.0533,-10.6277 23.5531,-15.9414 40.5,-15.9414 15.2234,0 26.8559,4.5956 34.8984,13.7871 8.0426,8.9043 12.0645,22.5486 12.0645,40.9317 v 122.3613 h 67.2129 v -132.7031 c 0,-33.8938 -8.9043,-59.4573 -26.7129,-76.6914 -17.5211,-17.2342 -40.6435,-25.8516 -69.3672,-25.8516 z m 236.8262,0 c -21.2553,0 -40.7871,4.74 -58.5957,14.2187 -17.5214,9.1916 -31.4527,22.2602 -41.793,39.2071 -10.3405,16.9469 -15.5117,36.4805 -15.5117,58.5976 0,22.1171 5.1712,41.6488 15.5117,58.5957 10.3403,16.9469 24.2716,30.16 41.793,39.6387 17.8086,9.1915 37.3404,13.7871 58.5957,13.7871 31.3088,0 55.7227,-9.6224 73.2441,-28.8672 v 9.9082 c 0,21.2554 -5.6004,37.0541 -16.8027,47.3946 -10.915,10.6277 -28.0055,15.9414 -51.2715,15.9414 -14.9362,0 -29.8724,-2.4412 -44.8086,-7.3242 -14.9362,-4.5958 -27.2867,-10.9145 -37.0527,-18.9571 l -26.7129,48.2559 c 13.2127,10.3405 29.8719,18.2378 49.9785,23.6953 20.1063,5.4575 41.3611,8.1875 63.7656,8.1875 42.5106,0 74.8241,-10.3406 96.9414,-31.0215 22.1171,-20.6809 33.1758,-52.2763 33.1758,-94.7871 v -193.0234 h -63.7656 v 29.7285 c -17.5214,-22.1171 -43.0849,-33.1758 -76.6914,-33.1758 z m -1255.9356,3.4473 v 130.9804 c 0,34.4683 8.9026,60.463 26.711,77.9844 17.8086,17.5213 41.9379,26.2813 72.3847,26.2813 14.362,0 27.7174,-2.5857 40.0684,-7.7559 12.3512,-5.4575 22.9804,-13.2124 31.8848,-23.2656 v 27.5742 h 63.7656 v -231.7988 h -67.2129 v 114.6074 c 0,20.6809 -4.8843,36.3352 -14.6504,46.9629 -9.766,10.3405 -22.6902,15.5097 -38.7754,15.5097 -31.3086,0 -46.9629,-18.6691 -46.9629,-56.0097 v -121.0703 z m 276.0313,0 v 231.7988 h 67.2129 v -231.7988 z m 493.7578,0 v 231.7988 h 67.2129 v -231.7988 z m -1446.627,24.5546 c -14.0565,0 -24.9681,3.8842 -32.7363,11.6524 -7.5832,7.7682 -11.375,18.3101 -11.375,31.6269 v 18.0352 h -26.0781 v 16.6445 h 26.0781 v 129.2852 h 19.6973 v -129.2852 h 44.3906 v -16.6445 h -44.9453 v -17.2012 c 0,-9.0629 2.1269,-15.9073 6.3808,-20.5312 4.439,-4.6239 10.9137,-6.9356 19.4219,-6.9356 8.6929,0 15.9052,2.404 21.6387,7.2129 l 6.6582,-14.7031 c -3.5142,-2.9593 -7.8604,-5.1785 -13.0391,-6.6582 -5.1787,-1.6646 -10.5429,-2.4981 -16.0918,-2.4981 z m 1280.8926,27.1485 c 16.9469,0 31.0204,5.8874 42.2227,17.6641 11.202,11.4894 16.8047,27.0012 16.8047,46.5332 0,19.532 -5.6027,35.1862 -16.8047,46.9628 -11.2023,11.4895 -25.2758,17.2344 -42.2227,17.2344 -17.2341,0 -31.4523,-5.7449 -42.6543,-17.2344 -11.2022,-11.7766 -16.8027,-27.4308 -16.8027,-46.9628 0,-19.532 5.6005,-35.0438 16.8027,-46.5332 11.202,-11.7767 25.4202,-17.6641 42.6543,-17.6641 z m 665.2363,0 c 17.8087,0 32.3154,5.3137 43.5176,15.9414 11.4893,10.3405 17.2324,23.9848 17.2324,40.9316 0,16.9469 -5.7431,30.7337 -17.2324,41.3614 -11.2022,10.3404 -25.7089,15.5097 -43.5176,15.5097 -17.8083,0 -32.4577,-5.1693 -43.9472,-15.5097 -11.4895,-10.6277 -17.2344,-24.4145 -17.2344,-41.3614 0,-16.9468 5.7449,-30.5911 17.2344,-40.9316 11.4895,-10.6277 26.1389,-15.9414 43.9472,-15.9414 z M 2062,2357.8594 c -14.0568,0 -26.7254,3.145 -38.0078,9.4336 -11.2824,6.2885 -20.1615,15.0731 -26.6348,26.3554 -6.4736,11.2824 -9.709,24.0455 -9.709,38.2871 0,14.2417 3.2354,27.0028 9.709,38.2852 6.4733,11.2824 15.3524,20.1613 26.6348,26.6348 11.2824,6.2885 23.951,9.4316 38.0078,9.4316 14.0566,0 26.7274,-3.1431 38.0098,-9.4316 11.2824,-6.4735 20.0668,-15.3524 26.3554,-26.6348 6.4736,-11.2824 9.711,-24.0435 9.711,-38.2852 0,-14.2416 -3.2374,-27.0047 -9.711,-38.2871 -6.2886,-11.2823 -15.073,-20.0669 -26.3554,-26.3554 -11.2824,-6.2886 -23.9532,-9.4336 -38.0098,-9.4336 z m 166.5684,0 c -13.5018,0 -24.8751,2.4983 -34.1231,7.4922 -9.0628,4.9938 -15.9074,12.3906 -20.5312,22.1933 v -28.5742 h -18.8653 v 145.9297 h 19.6973 v -74.3516 c 0,-17.016 4.3461,-30.241 13.0391,-39.6738 8.6931,-9.4328 20.7169,-14.1484 36.0683,-14.1484 l 4.7149,0.2773 z M 2062,2375.0605 c 10.3574,0 19.6058,2.404 27.7441,7.2129 8.3231,4.624 14.7961,11.2836 19.42,19.9766 4.6238,8.693 6.9355,18.5881 6.9355,29.6855 0,11.0975 -2.3117,20.9926 -6.9355,29.6856 -4.6239,8.693 -11.0969,15.4431 -19.42,20.2519 -8.1383,4.624 -17.3867,6.9356 -27.7441,6.9356 -10.3577,0 -19.6965,-2.3116 -28.0195,-6.9356 -8.1381,-4.8088 -14.6131,-11.5589 -19.4219,-20.2519 -4.6241,-8.693 -6.9356,-18.5881 -6.9356,-29.6856 0,-11.0974 2.3115,-20.9925 6.9356,-29.6855 4.8088,-8.693 11.2838,-15.3526 19.4219,-19.9766 8.323,-4.8089 17.6618,-7.2129 28.0195,-7.2129 z m 361.3828,2.7383 h 81.4317 c 37.0534,0 55.58,12.4949 55.58,37.4844 0,12.6384 -4.7399,21.9739 -14.2187,28.0059 -9.1916,6.0319 -22.9782,9.0468 -41.3613,9.0468 h -81.4317 z m 918.2402,341.377 c -12.3512,0 -22.4028,3.5906 -30.1582,10.7715 -7.7553,7.1808 -11.6328,16.0851 -11.6328,26.7129 0,10.6277 3.8775,19.532 11.6328,26.7128 7.7554,7.1809 17.807,10.7715 30.1582,10.7715 12.351,0 22.4049,-3.5906 30.1602,-10.7715 7.7553,-7.4681 11.6328,-16.8036 11.6328,-28.0058 0,-10.3405 -3.8775,-18.9579 -11.6328,-25.8516 -7.7553,-6.8936 -17.8092,-10.3398 -30.1602,-10.3398 z m -819.4804,37.4844 v 301.5976 h 155.9687 c 39.3515,0 69.2236,-7.0388 89.6172,-21.1133 20.6811,-14.3617 31.0215,-34.754 31.0215,-61.1797 0,-18.6702 -4.8843,-34.3245 -14.6504,-46.9628 -9.766,-12.9256 -23.2658,-22.1168 -40.5,-27.5743 12.6385,-6.6064 22.4052,-15.6551 29.2988,-27.1445 7.1809,-11.4894 10.7715,-24.558 10.7715,-39.207 0,-24.1278 -9.9092,-43.2302 -29.7285,-57.3047 -19.5318,-14.0745 -47.681,-21.1113 -84.4473,-21.1113 z m 69.3672,52.5644 h 69.3672 c 17.2341,0 30.3027,3.015 39.207,9.0469 8.9043,5.7447 13.3574,14.5065 13.3574,26.2832 0,11.7766 -4.4531,20.681 -13.3574,26.7129 -8.9043,6.0319 -21.9729,9.0469 -39.207,9.0469 h -69.3672 z m 599.459,13.7871 c -22.1171,0 -41.362,3.1594 -57.7344,9.4785 -16.0852,6.3192 -28.4357,15.2235 -37.0528,26.7129 -8.3298,11.2022 -12.4941,24.1284 -12.4941,38.7774 0,17.5213 4.4512,31.0212 13.3555,40.5 9.1913,9.4787 19.9632,16.0843 32.3144,19.8183 12.351,3.7341 28.0053,7.0378 46.9629,9.9102 16.0852,2.0106 28.0044,4.4518 35.7598,7.3242 7.7553,2.8723 11.6347,7.6123 11.6347,14.2188 0,14.0745 -14.2181,21.1113 -42.6543,21.1113 -14.0747,0 -28.4369,-2.01 -43.0859,-6.0313 -14.6489,-4.3085 -27.1438,-9.7666 -37.4844,-16.373 l -22.4043,48.2558 c 10.9151,7.1809 25.5644,13.2127 43.9473,18.0957 18.3831,4.5958 37.1966,6.8926 56.4414,6.8926 22.6915,0 42.2233,-3.0149 58.5957,-9.0469 16.6597,-6.3191 29.299,-15.079 37.916,-26.2812 8.6171,-11.2022 12.9258,-23.9859 12.9258,-38.3477 0,-16.9468 -4.4531,-30.1579 -13.3574,-39.6367 -8.9043,-9.4788 -19.3874,-15.9418 -31.4512,-19.3886 -12.064,-3.7341 -27.5756,-7.1823 -46.5332,-10.3418 -16.9469,-2.5852 -29.2974,-5.3133 -37.0527,-8.1856 -7.7554,-2.8724 -11.6328,-7.8992 -11.6328,-15.0801 0,-6.3192 3.5886,-11.4884 10.7695,-15.5097 7.1811,-4.0213 17.9527,-6.0332 32.3145,-6.0332 24.1277,0 46.3896,5.7449 66.7832,17.2343 l 22.4042,-47.8242 c -10.6277,-6.3191 -24.1275,-11.2016 -40.5,-14.6484 -16.0851,-3.7341 -32.315,-5.6016 -48.6874,-5.6016 z m 366.3691,0 c -15.7979,0 -30.3029,2.7281 -43.5156,8.1856 -13.213,5.1702 -24.2715,12.6383 -33.1758,22.4043 v -27.1426 h -64.1973 v 231.7988 h 67.2129 v -114.6074 c 0,-20.681 5.0268,-36.1908 15.0801,-46.5313 10.0533,-10.6277 23.5533,-15.9433 40.5,-15.9433 15.2237,0 26.8558,4.5975 34.8984,13.789 8.0426,8.9043 12.0645,22.5467 12.0645,40.9297 v 122.3633 h 67.2129 v -132.7031 c 0,-33.8938 -8.9043,-59.4573 -26.7129,-76.6914 -17.5214,-17.2341 -40.6438,-25.8516 -69.3672,-25.8516 z m 244.5801,0 c -23.266,0 -44.3784,5.1693 -63.336,15.5098 -18.6703,10.0532 -33.4619,24.2712 -44.3769,42.6543 -10.6275,18.0958 -15.9414,38.49 -15.9414,61.1816 0,22.9788 5.4563,43.5175 16.3711,61.6133 10.915,18.0958 26.4266,32.3138 46.5332,42.6543 20.1063,10.0532 43.2287,15.0781 69.3672,15.0781 41.9363,0 73.8186,-12.4929 95.6484,-37.4824 l -35.7598,-38.7773 c -8.0426,7.7553 -16.8024,13.5003 -26.2812,17.2343 -9.1916,3.4468 -19.821,5.17 -31.8848,5.17 -17.5214,0 -32.1705,-4.1644 -43.9473,-12.4942 -11.7765,-8.3298 -19.2446,-19.6773 -22.4043,-34.039 h 175.3575 c 0.8617,-11.2022 1.2929,-17.234 1.2929,-18.0957 0,-24.1278 -5.3136,-45.2382 -15.9414,-63.334 -10.3405,-18.3831 -24.703,-32.4586 -43.0859,-42.2246 -18.3831,-9.766 -38.9198,-14.6485 -61.6113,-14.6485 z m 234.6718,0 c -22.117,0 -41.3619,3.1594 -57.7343,9.4785 -16.0852,6.3192 -28.4376,15.2235 -37.0547,26.7129 -8.3298,11.2022 -12.4942,24.1284 -12.4942,38.7774 0,17.5213 4.4531,31.0212 13.3575,40.5 9.1915,9.4787 19.9615,16.0843 32.3125,19.8183 12.3512,3.7341 28.0055,7.0378 46.9629,9.9102 16.0851,2.0106 28.0061,4.4518 35.7617,7.3242 7.7553,2.8723 11.6328,7.6123 11.6328,14.2188 0,14.0745 -14.2179,21.1113 -42.6543,21.1113 -14.0745,0 -28.437,-2.01 -43.0859,-6.0313 -14.6492,-4.3085 -27.1441,-9.7666 -37.4844,-16.373 l -22.4043,48.2558 c 10.915,7.1809 25.5641,13.2127 43.9472,18.0957 18.3832,4.5958 37.1969,6.8926 56.4415,6.8926 22.6917,0 42.2252,-3.0149 58.5976,-9.0469 16.6594,-6.3191 29.297,-15.079 37.9141,-26.2812 8.617,-11.2022 12.9257,-23.9859 12.9257,-38.3477 0,-16.9468 -4.4531,-30.1579 -13.3574,-39.6367 -8.904,-9.4788 -19.3871,-15.9418 -31.4511,-19.3886 -12.064,-3.7341 -27.5759,-7.1823 -46.5332,-10.3418 -16.9469,-2.5852 -29.2974,-5.3133 -37.0528,-8.1856 -7.7553,-2.8724 -11.6328,-7.8992 -11.6328,-15.0801 0,-6.3192 3.5906,-11.4884 10.7715,-15.5097 7.1808,-4.0213 17.9527,-6.0332 32.3144,-6.0332 24.1278,0 46.3875,5.7449 66.7813,17.2343 l 22.4043,-47.8242 c -10.6278,-6.3191 -24.1276,-11.2016 -40.5,-14.6484 -16.0852,-3.7341 -32.3131,-5.6016 -48.6856,-5.6016 z m 207.5274,0 c -22.1171,0 -41.362,3.1594 -57.7344,9.4785 -16.0852,6.3192 -28.4376,15.2235 -37.0547,26.7129 -8.3298,11.2022 -12.4941,24.1284 -12.4941,38.7774 0,17.5213 4.4531,31.0212 13.3574,40.5 9.1913,9.4787 19.9613,16.0843 32.3125,19.8183 12.351,3.7341 28.0053,7.0378 46.9629,9.9102 16.0852,2.0106 28.0064,4.4518 35.7617,7.3242 7.7554,2.8723 11.6328,7.6123 11.6328,14.2188 0,14.0745 -14.2181,21.1113 -42.6543,21.1113 -14.0747,0 -28.437,-2.01 -43.0859,-6.0313 -14.649,-4.3085 -27.1438,-9.7666 -37.4844,-16.373 l -22.4043,48.2558 c 10.915,7.1809 25.5642,13.2127 43.9473,18.0957 18.3829,4.5958 37.1965,6.8926 56.4414,6.8926 22.6915,0 42.2233,-3.0149 58.5957,-9.0469 16.6597,-6.3191 29.2989,-15.079 37.916,-26.2812 8.6171,-11.2022 12.9258,-23.9859 12.9258,-38.3477 0,-16.9468 -4.4531,-30.1579 -13.3574,-39.6367 -8.9043,-9.4788 -19.3875,-15.9418 -31.4512,-19.3886 -12.064,-3.7341 -27.5756,-7.1823 -46.5332,-10.3418 -16.9466,-2.5852 -29.2971,-5.3133 -37.0527,-8.1856 -7.7554,-2.8724 -11.6329,-7.8992 -11.6329,-15.0801 0,-6.3192 3.5904,-11.4884 10.7715,-15.5097 7.1809,-4.0213 17.9528,-6.0332 32.3145,-6.0332 24.1277,0 46.3877,5.7449 66.7812,17.2343 l 22.4043,-47.8242 c -10.6277,-6.3191 -24.1276,-11.2016 -40.5,-14.6484 -16.0851,-3.7341 -32.3131,-5.6016 -48.6855,-5.6016 z m -1419.6602,3.4473 v 130.9785 c 0,34.4682 8.9043,60.463 26.7129,77.9844 17.8087,17.5213 41.936,26.2812 72.3828,26.2812 14.3617,0 27.7191,-2.5836 40.0703,-7.7539 12.351,-5.4574 22.9785,-13.2124 31.8829,-23.2656 v 27.5742 h 63.7656 V 2826.459 h -67.2129 v 114.6055 c 0,20.6809 -4.8826,36.3351 -14.6484,46.9628 -9.7661,10.3405 -22.6922,15.5118 -38.7774,15.5118 -31.3086,0 -46.9629,-18.6712 -46.9629,-56.0118 V 2826.459 Z m 483.5606,0 v 231.7988 h 67.2129 V 2826.459 Z m -952.9375,25.9414 v 81.0117 c -5.9188,-7.7682 -13.3175,-13.5944 -22.1953,-17.4785 -8.8779,-4.0691 -18.5883,-6.1035 -29.1309,-6.1035 -14.2418,0 -27.0028,3.1431 -38.2851,9.4316 -11.2824,6.2885 -20.1615,15.0751 -26.6348,26.3574 -6.2886,11.2824 -9.4317,24.3207 -9.4317,39.1172 0,14.7966 3.1431,27.9292 9.4317,39.3965 6.4733,11.2824 15.3524,20.067 26.6348,26.3555 11.2823,6.2885 24.0433,9.4336 38.2851,9.4336 10.9125,0 20.9001,-2.1269 29.9629,-6.3809 9.0628,-4.254 16.5539,-10.4498 22.4727,-18.5879 v 23.3047 h 25.5234 v -205.8574 z m 1447.2695,21.4512 c 14.9362,0 27.5735,4.4531 37.9141,13.3574 10.3403,8.6171 16.6591,20.2494 18.957,34.8984 h -114.1758 c 2.298,-14.9362 8.6185,-26.713 18.959,-35.3301 10.3405,-8.617 23.1223,-12.9257 38.3457,-12.9257 z m -1818.9707,35.9785 c -11.8372,0 -23.0277,1.6629 -33.5703,4.9922 -10.5424,3.1442 -19.6043,7.7694 -27.1875,13.873 l 11.0977,19.9746 c 5.7337,-4.8088 12.7609,-8.6006 21.0839,-11.375 8.3231,-2.9593 16.8323,-4.4394 25.5254,-4.4394 12.9469,0 22.7497,3.0526 29.4082,9.1562 6.6583,6.1036 9.9864,14.8882 9.9864,26.3555 v 5.2715 h -42.17 c -20.5301,0 -35.5104,3.9765 -44.9433,11.9297 -9.4327,7.7681 -14.1504,18.1272 -14.1504,31.0742 0,12.947 4.9025,23.3964 14.7051,31.3496 9.9877,7.9531 23.2107,11.9297 39.6718,11.9297 11.2824,0 20.9928,-1.7573 29.1309,-5.2715 8.323,-3.6991 14.7053,-8.971 19.1445,-15.8145 v 19.4219 h 25.2461 v -88.7793 c 0,-19.7904 -5.4566,-34.6803 -16.3691,-44.668 -10.7276,-9.9876 -26.2642,-14.9804 -46.6094,-14.9804 z m 169.6211,0 c -11.6523,0 -22.1016,2.0344 -31.3496,6.1035 -9.0628,4.069 -16.2767,9.8953 -21.6406,17.4785 v -22.1953 h -25.5235 v 147.041 h 26.6328 v -75.7402 c 0,-15.7214 4.1614,-27.7434 12.4844,-36.0664 8.323,-8.508 19.6983,-12.7617 34.125,-12.7617 12.762,0 22.5648,3.605 29.4082,10.8183 6.8435,7.2133 10.2656,17.9419 10.2656,32.1836 v 81.5664 h 26.6329 v -84.6191 c 0,-20.9002 -5.5491,-36.714 -16.6465,-47.4414 -10.9125,-10.9125 -25.7083,-16.3672 -44.3887,-16.3672 z m 438.5098,21.3261 h 81.4316 c 37.0532,0 55.5781,12.495 55.5781,37.4844 0,12.6384 -4.7382,21.972 -14.2168,28.0039 -9.1915,6.032 -22.9782,9.0489 -41.3613,9.0489 h -81.4316 z m -285.5352,1.9786 c 9.248,0 17.6629,2.1268 25.2461,6.3808 7.5832,4.254 13.5019,10.3574 17.7559,18.3106 4.2539,7.7682 6.3808,16.7375 6.3808,26.9101 0,10.1727 -2.1269,19.2363 -6.3808,27.1895 -4.254,7.7682 -10.1727,13.8716 -17.7559,18.3105 -7.5832,4.254 -15.9981,6.3809 -25.2461,6.3809 -9.4327,0 -17.9421,-2.1269 -25.5254,-6.3809 -7.3983,-4.4389 -13.3169,-10.5423 -17.7558,-18.3105 -4.254,-7.9532 -6.3809,-17.0168 -6.3809,-27.1895 0,-10.1726 2.1269,-19.1419 6.3809,-26.9101 4.4389,-7.9532 10.3575,-14.0566 17.7558,-18.3106 7.5833,-4.254 16.0927,-6.3808 25.5254,-6.3808 z m -327.3125,59.6484 h 41.0606 v 20.5293 c -3.3293,8.323 -8.6918,14.796 -16.0899,19.4199 -7.3983,4.439 -16.1847,6.6602 -26.3574,6.6602 -10.1727,0 -18.1258,-2.1288 -23.8594,-6.3828 -5.7338,-4.254 -8.5996,-10.0803 -8.5996,-17.4786 0,-15.1664 11.2809,-22.748 33.8457,-22.748 z"
       id="path825"
       inkscape:connector-curvature="0"
       transform="matrix(0.26458333,0,0,0.26458333,-4215.1011,-190.78073)" />
    <path
       style="color:#000000;font-style:normal;font-variant:normal;font-weight:normal;font-stretch:normal;font-size:medium;line-height:normal;font-family:sans-serif;font-variant-ligatures:normal;font-variant-position:normal;font-variant-caps:normal;font-variant-numeric:normal;font-variant-alternates:normal;font-feature-settings:normal;text-indent:0;text-align:start;text-decoration:none;text-decoration-line:none;text-decoration-style:solid;text-decoration-color:#000000;letter-spacing:normal;word-spacing:normal;text-transform:none;writing-mode:lr-tb;direction:ltr;text-orientation:mixed;dominant-baseline:auto;baseline-shift:baseline;text-anchor:start;white-space:normal;shape-padding:0;clip-rule:nonzero;display:inline;overflow:visible;visibility:visible;opacity:1;isolation:auto;mix-blend-mode:normal;color-interpolation:sRGB;color-interpolation-filters:linearRGB;solid-color:#000000;solid-opacity:1;vector-effect:none;fill:#efff1f;fill-opacity:1;fill-rule:nonzero;stroke:none;stroke-width:100.28307343;stroke-linecap:butt;stroke-linejoin:miter;stroke-miterlimit:4;stroke-dasharray:none;stroke-dashoffset:0;stroke-opacity:1;color-rendering:auto;image-rendering:auto;shape-rendering:auto;text-rendering:auto;enable-background:accumulate"
       d="m -4099.7207,228.7207 v 424.94922 h 246.2754 l 57.4609,-57.45898 V 460.03125 h -151.8672 v 24.66406 h 127.2012 v 101.29883 l -43.0117,43.00977 h -211.3926 V 253.38672 h 254.4043 v 134.05664 l -35.8594,35.86133 17.4395,17.4414 43.0859,-43.08593 V 228.7207 Z M -3960.1855,320 v 84.88477 h 72.9218 V 380.2207 h -48.2558 V 320 Z"
       id="path827"
       inkscape:connector-curvature="0" />
  </g>
</svg>
