<?xml version="1.0" encoding="UTF-8" standalone="no"?>
<!-- Created with Inkscape (http://www.inkscape.org/) -->

<svg
   xmlns:dc="http://purl.org/dc/elements/1.1/"
   xmlns:cc="http://creativecommons.org/ns#"
   xmlns:rdf="http://www.w3.org/1999/02/22-rdf-syntax-ns#"
   xmlns:svg="http://www.w3.org/2000/svg"
   xmlns="http://www.w3.org/2000/svg"
   xmlns:sodipodi="http://sodipodi.sourceforge.net/DTD/sodipodi-0.dtd"
   xmlns:inkscape="http://www.inkscape.org/namespaces/inkscape"
   version="1.1"
   id="svg2"
   width="1920"
   height="1080"
   viewBox="0 0 1920 1080"
   sodipodi:docname="12.svg"
   inkscape:version="0.92.4 5da689c313, 2019-01-14">
  <metadata
     id="metadata8">
    <rdf:RDF>
      <cc:Work
         rdf:about="">
        <dc:format>image/svg+xml</dc:format>
        <dc:type
           rdf:resource="http://purl.org/dc/dcmitype/StillImage" />
        <dc:title></dc:title>
      </cc:Work>
    </rdf:RDF>
  </metadata>
  <defs
     id="defs6" />
  <sodipodi:namedview
     pagecolor="#ffffff"
     bordercolor="#666666"
     borderopacity="1"
     objecttolerance="10"
     gridtolerance="10"
     guidetolerance="10"
     inkscape:pageopacity="0"
     inkscape:pageshadow="2"
     inkscape:window-width="1366"
     inkscape:window-height="674"
     id="namedview4"
     showgrid="false"
     inkscape:zoom="0.28136957"
     inkscape:cx="626.78795"
     inkscape:cy="588.32126"
     inkscape:window-x="0"
     inkscape:window-y="26"
     inkscape:window-maximized="1"
     inkscape:current-layer="svg2">
    <sodipodi:guide
       position="0,1080"
       orientation="1080,0"
       id="guide819"
       inkscape:locked="false" />
    <sodipodi:guide
       position="0,0"
       orientation="0,1920"
       id="guide821"
       inkscape:locked="false" />
    <sodipodi:guide
       position="1920,0"
       orientation="-1080,0"
       id="guide823"
       inkscape:locked="false" />
    <sodipodi:guide
       position="1920,1080"
       orientation="0,-1920"
       id="guide825"
       inkscape:locked="false" />
    <sodipodi:guide
       position="472.46017,811.26938"
       orientation="543.54916,0"
       id="guide829"
       inkscape:locked="false" />
    <sodipodi:guide
       position="472.46017,267.72021"
       orientation="0,965.86075"
       id="guide831"
       inkscape:locked="false" />
    <sodipodi:guide
       position="1438.3209,267.72021"
       orientation="-543.54916,0"
       id="guide833"
       inkscape:locked="false" />
    <sodipodi:guide
       position="1438.3209,811.26938"
       orientation="0,-965.86075"
       id="guide835"
       inkscape:locked="false" />
  </sodipodi:namedview>
  <rect
     y="4.4183535e-06"
     x="0.00010052939"
     height="1080"
     width="1920"
     id="rect1355"
     style="opacity:1;fill:#f2f2f2;fill-opacity:1;fill-rule:nonzero;stroke:none;stroke-width:37.79527664;stroke-linecap:round;stroke-linejoin:round;stroke-miterlimit:4;stroke-dasharray:none;stroke-dashoffset:0;stroke-opacity:1;paint-order:markers fill stroke" />
  <path
     inkscape:connector-curvature="0"
     style="fill:#376cc5;stroke-width:0.31999999"
     d="M 772.05837,540.005 V 268.73061 H 1147.9419 V 811.26936 H 772.05837 Z m 367.82403,0 V 276.7898 H 780.11765 V 803.21008 H 1139.8824 Z M 911.4839,790.98527 c -1.27385,-0.26139 -1.76782,-0.95775 -1.51329,-2.13872 0.23249,-1.05188 0.69737,-1.29374 2.67092,-1.38545 0.92985,-0.0464 1.85386,-0.17436 2.0933,-0.29645 0.45329,-0.23248 0.98794,-0.89498 1.16228,-1.44009 0.11624,-0.31961 0,-0.32776 -1.43659,-0.26262 -1.84107,0.0812 -2.67906,-0.17683 -3.72513,-1.13906 -1.31918,-1.21622 -1.99216,-2.91955 -1.98865,-5.03176 0,-2.64374 1.06928,-4.63869 2.97659,-5.57759 0.9647,-0.47653 1.11581,-0.50209 2.52915,-0.44747 1.20297,0.0464 1.65859,0.13715 2.28157,0.45329 2.35826,1.20065 3.33227,3.91585 3.3288,9.27214 0,4.69238 -1.3448,6.9284 -4.63057,7.72676 -1.17507,0.28599 -3.01497,0.41611 -3.74721,0.266 z m 3.81231,-9.10747 c 0.94145,-0.99259 1.05769,-2.91524 0.26724,-4.55485 -0.46491,-0.98681 -1.33664,-1.28283 -2.299,-0.78455 -1.26109,0.65204 -1.51562,3.52044 -0.45329,5.098 0.73224,1.08792 1.6016,1.17264 2.47915,0.24171 z m 6.29844,9.10396 c -0.97635,-0.19773 -1.40639,-0.71597 -1.40639,-1.71308 0,-1.4424 0.63928,-1.83178 3.03706,-1.83968 1.45866,-0.006 2.1572,-0.30799 2.73952,-1.18541 l 0.43004,-0.64739 0.11624,-5.81468 c 0,-3.19826 0.13931,-5.93218 0.20912,-6.07527 0.29061,-0.57882 1.74807,-0.82871 2.59422,-0.44283 0.2208,0.10455 0.47654,0.40214 0.5695,0.6683 0.11624,0.28723 0.17436,2.0854 0.17436,4.41029 v 3.92505 h 2.21065 l -0.2208,-0.8415 c -0.15099,-0.57648 -0.2208,-1.89811 -0.2208,-4.2033 v -3.36201 l 0.48816,-0.49049 c 0.45329,-0.4556 0.55791,-0.48466 1.39707,-0.41494 1.44474,0.11962 1.49702,0.24417 1.50052,3.56777 0,1.51943 0.11625,3.0818 0.16268,3.47186 0.2208,0.93216 0.70899,1.61033 1.3959,1.89535 0.49979,0.20696 0.61603,0.20111 1.13906,-0.0581 1.11579,-0.54975 1.23086,-0.97167 1.32152,-4.85755 0.11624,-3.37505 0.11624,-3.44571 0.45328,-3.74755 0.47654,-0.38471 1.88407,-0.42075 2.39781,-0.0581 0.54625,0.38241 0.68574,1.22495 0.68574,4.15216 0,2.405 0,2.77809 0.33705,3.351 0.58115,1.13322 1.89802,1.62882 2.56402,0.96353 0.79036,-0.79153 0.8717,-1.19866 0.9647,-4.73796 0.11624,-3.28577 0.11624,-3.36598 0.46491,-3.66688 0.59278,-0.47771 2.01193,-0.42891 2.52915,0.0929 l 0.39516,0.39636 v 3.52777 c 0,2.56177 -0.11624,3.73337 -0.23248,4.27873 l -0.23249,0.75081 h 1.92475 c 1.83409,0 1.91543,-0.0123 1.76086,-0.30321 -0.33707,-0.64623 -0.52303,-2.56098 -0.34869,-3.71038 0.23248,-1.49701 0.66249,-2.44209 1.54468,-3.38458 1.10418,-1.18414 2.01888,-1.51679 3.94362,-1.43948 1.31457,0.0581 1.65395,0.12547 2.26647,0.487 2.47801,1.46272 3.52755,4.80791 2.50707,7.98827 -0.11625,0.36032 -0.11625,0.36263 1.58767,0.36263 h 1.70275 v -6.82876 c 0,-6.66446 0,-6.83879 0.33707,-7.25327 0.29061,-0.3661 0.45329,-0.42423 1.2169,-0.42423 0.72061,0 0.95307,0.0698 1.27735,0.39634 l 0.39519,0.39516 v 15.99669 l -0.94144,0.94262 h -2.95802 c -3.21259,0 -3.53801,-0.0815 -3.7414,-0.888 l -0.11625,-0.41147 -0.68574,0.46261 c -1.18903,0.8078 -1.42149,0.83686 -6.87492,0.83686 -5.59643,0 -5.68128,-0.0123 -5.93231,-0.9682 l -0.11624,-0.46956 -0.70899,0.47884 c -1.79805,1.20936 -4.20865,1.28261 -5.98111,0.18144 l -0.76711,-0.48121 -0.58116,0.39633 c -1.9015,1.29166 -4.62242,1.20764 -6.46696,-0.19988 -0.70899,-0.53931 -0.72062,-0.54164 -0.72062,-0.1673 0,0.20912 -0.15099,0.57535 -0.33707,0.81478 -0.32542,0.41027 -0.40679,0.43238 -1.56209,0.39864 l -1.22043,-0.0347 -0.18605,0.8717 c -0.48816,2.37561 -2.16418,4.0035 -4.59449,4.46934 -1.30759,0.25094 -2.89876,0.33938 -3.59032,0.20112 z m 37.51742,-9.06466 c 1.30989,-1.02979 1.40058,-3.59391 0.17437,-4.93064 -1.25761,-1.3729 -3.07427,-0.20451 -3.0731,1.97634 0,2.41546 1.56095,4.00572 2.89756,2.9543 z m 32.75905,9.06466 c -0.97632,-0.19773 -1.40753,-0.71597 -1.40753,-1.71308 0,-1.4424 0.63925,-1.83178 3.03939,-1.83968 1.4575,-0.006 2.1572,-0.30799 2.73833,-1.18541 l 0.43007,-0.64739 0.16267,-11.73875 0.45329,-0.38818 c 0.63925,-0.54628 1.84455,-0.54628 2.48032,0 l 0.45324,0.38818 v 5.61535 c 0,6.01623 0,6.95712 -0.70895,8.3041 -1.05766,2.09825 -2.7581,3.01192 -6.02994,3.25065 -0.58113,0.0464 -1.32035,0.0246 -1.65508,-0.0464 z m 33.08678,0.006 c -1.2738,-0.26139 -1.7667,-0.95771 -1.5133,-2.13859 0.2208,-1.05188 0.6974,-1.29387 2.6721,-1.38557 0.9298,-0.0464 1.8527,-0.17437 2.0922,-0.29645 0.4532,-0.23249 0.9879,-0.89495 1.1622,-1.44007 0.1163,-0.31963 0,-0.32778 -1.4354,-0.26262 -1.8422,0.0815 -2.6802,-0.17559 -3.7251,-1.13903 -1.3192,-1.21622 -1.9933,-2.91945 -1.9899,-5.03188 0,-2.64352 1.0693,-4.6386 2.9767,-5.57749 0.9647,-0.47654 1.1157,-0.50209 2.5302,-0.44747 1.203,0.0464 1.6586,0.13715 2.2816,0.45328 2.3571,1.20066 3.3311,3.91586 3.3276,9.27215 0,4.6925 -1.3436,6.92852 -4.6305,7.72688 -1.1739,0.28599 -3.015,0.4161 -3.7472,0.266 z m 3.8123,-9.10743 c 0.9415,-0.99259 1.0461,-2.91515 0.279,-4.55477 -0.465,-0.9868 -1.3367,-1.28295 -2.299,-0.78455 -1.2611,0.65204 -1.5157,3.52045 -0.4534,5.09801 0.7323,1.08791 1.6005,1.17276 2.4792,0.24171 z m 30.6379,9.10396 c -0.9763,-0.19774 -1.4064,-0.71597 -1.4064,-1.71311 0,-1.4424 0.6393,-1.83175 3.0382,-1.83953 1.4575,-0.006 2.1561,-0.30802 2.7384,-1.18544 l 0.43,-0.64739 0.1627,-11.73887 0.4533,-0.38819 c 0.6393,-0.54628 1.8457,-0.54628 2.4815,1.3e-4 l 0.4533,0.38818 v 5.61525 c 0,6.01682 0,6.95722 -0.709,8.30407 -1.0577,2.09828 -2.7581,3.01196 -6.03,3.25078 -0.5811,0.0464 -1.3203,0.0246 -1.655,-0.0464 z m -12.6724,-0.55791 c -0.5347,-0.29768 -0.8136,-0.86241 -0.8136,-1.68137 0,-0.56021 0.1162,-0.79036 0.4649,-1.16855 0.3952,-0.39403 0.6044,-0.47073 1.268,-0.47073 0.9647,0 1.5657,0.40796 1.7888,1.21622 0.2091,0.73805 0,1.57885 -0.5695,2.00018 -0.4882,0.38238 -1.5366,0.43352 -2.1305,0.10456 z m 4.7247,0.0348 c -0.7439,-0.35798 -1.1042,-1.64441 -0.6974,-2.44547 0.5114,-0.99376 1.9701,-1.25678 2.8523,-0.51371 0.86,0.72178 0.7787,2.23076 -0.151,2.8812 -0.4184,0.28937 -1.4854,0.33123 -2.0084,0.0812 z m -33.3832,-4.10833 c 0,-0.14423 0,-0.38124 0.1162,-0.52537 0.1163,-0.15468 0.1163,-0.41143 0,-0.62532 -0.1743,-0.45676 0.1163,-1.09253 0.4882,-1.3164 0.1744,-0.0929 0.6857,-0.17099 1.139,-0.17099 0.7904,0 0.8136,0.0123 0.8136,0.46956 0,0.42192 -0.1162,0.48001 -0.6392,0.57765 -0.3487,0.0581 -0.6858,0.16729 -0.7207,0.2371 -0.1162,0.18943 0.2442,0.43471 0.8369,0.55907 0.5347,0.11624 0.7555,0.40913 0.5927,0.81475 -0.1393,0.36613 -2.4454,0.34753 -2.5872,-0.0246 z m -46.5519,-0.89846 c -0.72061,-0.41494 -0.72061,-0.31149 -0.72061,-8.55688 v -7.86483 l 0.39516,-0.39633 c 0.32545,-0.32195 0.55791,-0.3952 1.26226,-0.3952 0.72061,0 0.92982,0.0698 1.25641,0.41611 l 0.39519,0.4161 v 7.44722 c 0,8.06639 0,8.52469 -0.76711,8.92114 -0.49978,0.25217 -1.42496,0.25924 -1.85386,0.0123 z m 30.6251,0 c -0.7207,-0.41494 -0.709,-0.31149 -0.7207,-8.55688 v -7.86483 l 0.3952,-0.39633 c 0.3255,-0.32195 0.558,-0.3952 1.2611,-0.3952 0.7206,0 0.9299,0.0698 1.2564,0.41611 l 0.3952,0.4161 v 7.44722 c 0,8.06639 0,8.52469 -0.7671,8.92114 -0.4998,0.25217 -1.4249,0.25924 -1.8538,0.0123 z m 112.8301,0 c -0.7205,-0.41494 -0.7205,-0.31149 -0.7205,-8.55688 v -7.86483 l 0.3951,-0.39633 c 0.3254,-0.32195 0.5579,-0.3952 1.2612,-0.3952 0.7205,0 0.9296,0.0698 1.2562,0.41611 l 0.3952,0.4161 v 7.44722 c 0,8.06639 0,8.52469 -0.767,8.92114 -0.4997,0.25217 -1.4263,0.25924 -1.854,0.0123 z m -251.82796,-0.28814 c -0.47653,-0.17099 -0.97632,-0.39984 -1.1274,-0.50911 -1.26225,-0.94609 -1.94449,-1.99981 -2.26065,-3.48812 -0.23249,-1.12276 -0.23249,-6.81926 0,-7.341 0.11624,-0.21619 0.34869,-0.47306 0.56953,-0.57184 0.91819,-0.42075 2.3943,-0.0347 2.54541,0.67064 0,0.19743 0.11625,1.70171 0.12793,3.34169 0,2.70649 0.11625,3.04495 0.40679,3.66458 0.67415,1.28593 0.4417,1.24561 7.39796,1.29897 l 6.17291,0.0464 v -4.02777 c 0,-4.00212 0,-4.03072 0.38354,-4.47087 0.32545,-0.3789 0.49978,-0.44283 1.23088,-0.44283 0.72062,0 0.90658,0.0698 1.23086,0.44283 l 0.38354,0.44283 v 10.32285 l -0.94145,0.94262 -7.62924,-0.006 c -7.11319,-0.006 -7.68619,-0.0246 -8.49051,-0.31616 z m 18.66167,-0.14884 -0.46491,-0.47073 v -7.88854 c 0,-7.73688 0,-7.89706 0.33708,-8.31363 0.29061,-0.37309 0.45328,-0.42423 1.27852,-0.42423 0.8252,0 0.98794,0.0464 1.27735,0.42423 0.32542,0.4138 0.33704,0.59044 0.33704,7.17272 v 6.7481 h 11.5578 l -0.2208,-0.84614 c -0.2906,-1.06581 -0.18605,-3.44151 0.19774,-4.51897 0.37192,-1.05652 1.63534,-2.39719 2.69417,-2.86736 0.75548,-0.3324 1.16227,-0.38471 3.46014,-0.4405 l 2.61049,-0.0581 0.41841,0.41147 c 0.56953,0.57066 0.59278,1.81803 0,2.463 -0.37192,0.42887 -0.44166,0.44513 -2.46869,0.53465 -1.6028,0.0698 -2.18743,0.15807 -2.51867,0.37426 -1.6342,1.07045 -1.50516,3.93886 0.20912,4.67633 0.2208,0.0929 1.76899,0.21495 3.44037,0.26508 2.94289,0.0929 3.04517,0.10456 3.34389,0.47189 0.46492,0.57534 0.43004,1.94883 -0.11624,2.41211 l -0.37192,0.351 h -24.58352 z m 101.15379,0.27553 c -2.10256,-0.74269 -3.45894,-3.07272 -3.46362,-5.95229 0,-2.41103 0.99957,-4.3832 2.73836,-5.36035 0.82523,-0.46608 0.99957,-0.49978 2.49892,-0.49861 1.43659,0 1.70041,0.0464 2.43151,0.43237 2.11652,1.11578 3.29042,3.94132 2.82087,6.78577 -0.24418,1.49074 -0.62766,2.33342 -1.49124,3.27093 -1.03441,1.1274 -1.99215,1.51817 -3.68094,1.50445 -0.75549,-0.006 -1.5877,-0.0929 -1.85386,-0.18144 z m 2.76625,-3.04935 c 0.83686,-0.69506 1.20065,-2.50415 0.79036,-3.92422 -0.62765,-2.15883 -2.38618,-2.5432 -3.3137,-0.72412 -0.68574,1.34199 -0.2208,3.98317 0.82523,4.73934 0.41842,0.2986 1.28086,0.25216 1.69577,-0.0929 z m 20.43765,2.8498 c -0.5114,-0.5114 -0.5579,-1.78457 -0.1163,-2.36699 0.3023,-0.37542 0.3487,-0.38123 3.7879,-0.43004 l 3.4799,-0.0464 v -1.72379 c 0,-2.19545 -0.2789,-2.88713 -1.3192,-3.39307 -0.3952,-0.18943 -0.9647,-0.34753 -1.2669,-0.34983 -0.9182,-0.006 -1.8283,-0.28354 -2.1258,-0.6509 -0.1978,-0.23587 -0.2789,-0.62996 -0.2789,-1.22425 0,-0.72642 0.1162,-0.94725 0.4184,-1.29211 0.4068,-0.40445 0.4649,-0.41377 2.0549,-0.34285 2.0828,0.0929 3.3172,0.59274 4.3783,1.77412 1.1914,1.32523 1.4076,2.13697 1.4936,5.60824 0,1.96522 0,3.21514 -0.1163,3.66587 -0.3138,1.1402 -0.4416,1.16972 -5.572,1.16972 h -4.448 z m 36.8863,0.0929 c -2.5779,-0.89034 -3.5949,-2.72661 -3.5949,-6.49477 0,-1.73027 0,-1.92693 0.3603,-2.30887 0.4649,-0.53696 1.3168,-0.67876 2.1037,-0.34984 0.7671,0.31847 0.9182,0.73689 0.9182,2.47346 0,1.62267 0.2091,2.41893 0.8136,3.14561 l 0.4417,0.52884 10.3966,0.0929 -0.1162,-0.65785 c -0.1163,-0.82987 -0.4533,-1.3665 -1.1275,-1.72842 -0.43,-0.23495 -1.0809,-0.2986 -3.703,-0.36614 l -3.1789,-0.0812 -0.4416,-0.44634 c -0.4184,-0.42189 -0.4417,-0.54044 -0.4998,-2.12559 -0.1393,-4.46294 1.8876,-6.56226 6.3937,-6.60107 1.633,-0.0123 1.6737,-0.006 2.0561,0.43819 0.5463,0.63112 0.5579,1.89799 0,2.43323 -0.3138,0.31383 -0.616,0.39169 -1.8887,0.49167 -2.192,0.1719 -3.0231,0.6683 -3.2939,1.96853 l -0.1162,0.50911 2.5489,0.0581 c 2.2153,0.0464 2.6488,0.10455 3.3264,0.4138 1.2797,0.5881 1.984,1.2541 2.5605,2.42441 0.4998,1.02512 0.5347,1.17402 0.5812,3.23497 0.1162,2.33387 0,2.75509 -0.7206,3.06857 -0.2673,0.12209 -2.4129,0.17683 -6.7122,0.17437 -5.6534,-0.006 -6.4065,-0.0347 -7.1562,-0.29522 z m 26.3746,-0.16853 -0.4765,-0.47303 v -7.88857 c 0,-7.73687 0,-7.89703 0.337,-8.3136 0.2906,-0.37309 0.4533,-0.42423 1.2774,-0.42423 0.8252,0 0.9879,0.0464 1.2785,0.42423 0.3254,0.41377 0.3371,0.59044 0.3371,7.17269 v 6.74813 h 12.8631 l -0.2429,-0.76594 c -0.2922,-0.91937 -0.3371,-3.40771 -0.1169,-4.31173 0.4881,-1.7009 1.8944,-3.20665 3.388,-3.62147 0.3253,-0.0929 1.8319,-0.16513 3.3449,-0.16513 3.7613,0 3.4532,-0.43004 3.4532,4.80477 v 4.05954 h 1.0695 c 0.953,0 1.0459,-0.0348 0.953,-0.28231 -0.5114,-1.30398 -0.4766,-3.77569 0,-5.18417 0.9297,-2.45719 3.3938,-3.57518 7.4027,-3.36481 1.2494,0.0698 1.4038,0.11625 1.7492,0.51141 0.5344,0.616 0.5344,1.89138 0,2.41721 -0.3254,0.32893 -0.5812,0.38007 -2.2748,0.4719 -2.1698,0.11624 -2.8661,0.36379 -3.439,1.22387 -0.2921,0.43819 -0.3604,0.77293 -0.3604,1.66824 0,1.05302 0,1.15299 0.5348,1.65195 0.2921,0.29184 0.8134,0.61135 1.168,0.70782 0.3834,0.10456 2.1618,0.17775 4.3852,0.17775 h 3.7472 v -6.82867 c 0,-6.66455 0,-6.83888 0.337,-7.25336 0.2891,-0.36611 0.4533,-0.42423 1.2159,-0.42423 0.7206,0 0.9531,0.0698 1.2784,0.39517 l 0.3952,0.39633 v 15.99666 l -0.4764,0.47423 -0.4766,0.4742 -8.5928,-0.0581 c -4.7257,-0.0348 -8.6647,-0.0581 -8.7542,-0.0581 -0.1169,0 -5.7313,0.0246 -12.5423,0.0581 l -12.3807,0.0581 -0.4766,-0.47303 z m 22.2545,-5.57641 v -2.82086 h -1.0926 c -2.026,0 -2.8652,0.85312 -2.7198,2.76625 0.1169,1.25862 0.5579,2.27959 1.1914,2.62232 0.2675,0.143 0.8832,0.24295 1.5305,0.24633 l 1.0926,0.006 z m -308.65929,5.81668 c 0,-0.0464 0.73227,-0.22326 1.52377,-0.39984 8.90078,-1.98287 15.96633,-7.94236 19.27188,-16.25248 0.80196,-2.00006 1.06929,-2.97325 1.69808,-6.00762 0.11624,-0.31032 0.16268,-28.41697 0.20911,-62.45918 l 0.11624,-61.89511 43.4393,-0.0815 v 61.8699 c 0,60.42926 0,61.90511 -0.31382,63.30545 -0.65087,2.99578 -1.31804,4.949 -2.53146,7.36169 -2.36874,4.70877 -6.6448,9.01469 -11.51594,11.59763 -1.46331,0.77526 -4.15053,1.7934 -5.79051,2.19312 -0.75549,0.18359 -1.73295,0.42305 -2.17695,0.53232 -0.61602,0.15099 -6.00439,0.21157 -22.39726,0.25555 -11.8751,0.0347 -21.55575,0.0246 -21.51276,-0.0246 z m 235.53619,-3.18479 c -0.6625,-0.32311 -0.6974,-0.67879 -0.6974,-7.16005 v -6.20566 l 0.3952,-0.39634 c 0.3254,-0.32197 0.5579,-0.39519 1.2495,-0.39052 1.0344,0.006 1.3993,0.25463 1.5888,1.07045 0.1162,0.33938 0.1393,3.11889 0.1393,6.17743 0,5.96638 -0.1162,6.51891 -0.7903,6.88412 -0.4766,0.24171 -1.3959,0.25217 -1.876,0.0246 z M 867.0311,771.9026 c -0.88333,-0.51371 -1.189,-1.86115 -0.616,-2.73402 0.33704,-0.5242 1.21459,-0.83686 1.94913,-0.69853 1.30061,0.24417 1.83409,1.984 0.91823,3.00565 -0.52303,0.58115 -1.62605,0.79036 -2.25253,0.42656 z m 4.60732,-0.0581 c -0.74387,-0.47654 -1.0112,-1.62525 -0.59278,-2.53881 0.25555,-0.55556 1.16228,-0.96119 1.89338,-0.84497 1.37846,0.21957 1.96774,1.9594 1.02281,3.01857 -0.5579,0.62882 -1.64348,0.79968 -2.31994,0.36496 z m 109.97319,-0.28138 c -0.53465,-0.29645 -0.81361,-0.86242 -0.81361,-1.68135 0,-0.56024 0.11625,-0.79036 0.46494,-1.16858 0.39517,-0.39399 0.60438,-0.47072 1.26804,-0.47072 0.96469,0 1.56559,0.40796 1.78876,1.21634 0.20911,0.73688 0,1.57872 -0.56953,2.00006 -0.48816,0.3824 -1.53653,0.43354 -2.13162,0.10455 z m 4.7247,0.0348 c -0.74386,-0.35799 -1.10418,-1.64441 -0.69736,-2.44545 0.5114,-0.99375 1.97007,-1.25677 2.85223,-0.51374 0.86011,0.72178 0.77873,2.23079 -0.151,2.88132 -0.41841,0.28938 -1.48539,0.33123 -2.00842,0.0812 z m 100.91679,-0.93447 c -0.6627,-0.27308 -0.9647,-0.80432 -0.9647,-1.71449 0,-0.71714 0.1169,-0.93797 0.4183,-1.28458 0.9065,-0.90658 2.5745,-0.55671 3.03,0.63694 0.5929,1.54342 -0.9414,2.99464 -2.4814,2.36201 z m 4.635,-0.0123 c -0.4647,-0.18697 -1.0111,-1.07629 -1.0111,-1.65557 0,-0.96005 0.8718,-1.88594 1.7691,-1.88594 0.6277,0 1.4294,0.45332 1.6852,0.94612 0.8368,1.62021 -0.7322,3.28461 -2.4466,2.59502 z m -154.05283,-0.14761 c -0.6625,-0.27308 -0.9647,-0.80432 -0.9647,-1.71449 0,-0.71714 0.11625,-0.93798 0.41842,-1.28468 0.90657,-0.9066 2.57448,-0.55673 3.03007,0.63691 0.59278,1.54355 -0.94145,2.99477 -2.48149,2.36214 z m 4.63518,-0.0123 c -0.46491,-0.18728 -1.01116,-1.0763 -1.01116,-1.65557 0,-0.96122 0.8717,-1.88594 1.77015,-1.88594 0.616,0 1.42844,0.45329 1.68415,0.94612 0.83685,1.62021 -0.73224,3.28461 -2.44662,2.59502 z m -2.62793,-4.46832 c -0.63924,-0.57184 -0.81358,-1.55418 -0.38354,-2.26643 0.34867,-0.59395 0.84845,-0.83686 1.70739,-0.83686 0.53466,0 0.75549,0.10455 1.22274,0.56836 0.53466,0.52768 0.55791,0.62298 0.48816,1.32453 -0.11624,1.03908 -0.79036,1.65302 -1.81084,1.65302 -0.55791,0 -0.83686,-0.10456 -1.21576,-0.44284 z m -59.82402,-4.17946 c -1.13906,-0.73224 -1.05769,-2.63048 0.151,-3.20115 1.27618,-0.60557 2.62211,0.22418 2.62211,1.61824 0,1.01236 -0.616,1.69706 -1.61673,1.79399 -0.49979,0.0464 -0.84849,-0.0123 -1.16228,-0.21035 z m 4.93274,0.11624 c -1.06931,-0.43004 -1.38314,-2.01983 -0.59278,-2.91198 1.05769,-1.17938 3.09284,-0.46725 3.13703,1.09603 0,1.43973 -1.23436,2.34805 -2.55006,1.81629 z m 6.38443,-0.15007 c -1.27385,-0.2614 -1.76668,-0.95772 -1.51212,-2.1386 0.2208,-1.05188 0.69737,-1.29374 2.67092,-1.38545 0.92982,-0.0464 1.85269,-0.17436 2.09327,-0.29645 0.45332,-0.23248 0.98794,-0.89495 1.16231,-1.43843 0.11624,-0.3173 0,-0.32662 -1.47961,-0.26385 -2.01424,0.0815 -2.88363,-0.24633 -4.05289,-1.52457 -1.01119,-1.11114 -1.46796,-2.29122 -1.57839,-4.10751 -0.17436,-2.9141 0.87174,-5.10104 2.93711,-6.11654 0.9647,-0.47537 1.11578,-0.50212 2.53029,-0.44747 1.20296,0.0464 1.65859,0.13715 2.28156,0.45328 1.29362,0.65902 2.25949,1.94984 2.78716,3.72652 0.20912,0.70435 0.53466,3.30672 0.53466,4.37729 0,0.4405 0,0.44283 1.10419,0.44283 h 1.10415 l -0.2208,-0.8415 c -0.15099,-0.57648 -0.2208,-1.89811 -0.2208,-4.2033 v -3.36201 l 0.48816,-0.49049 c 0.45329,-0.45563 0.55791,-0.48583 1.39591,-0.41494 1.44473,0.11962 1.49704,0.24417 1.50168,3.56777 0,1.51943 0.11625,3.0818 0.16268,3.47186 0.2208,0.93216 0.70899,1.61046 1.39707,1.89535 0.49979,0.20696 0.616,0.20112 1.13903,-0.0581 1.11581,-0.54975 1.23089,-0.97167 1.32155,-4.85767 0.11624,-3.37505 0.11624,-3.44572 0.45328,-3.74755 0.58113,-0.46955 1.9631,-0.42539 2.55237,0.0815 l 0.45329,0.38818 0.11624,3.27824 c 0.11624,3.63946 0.19743,4.05627 1.17738,4.65483 0.98794,0.59976 1.68067,0.3452 2.31296,-0.84381 0.23249,-0.44052 0.30229,-1.11581 0.37195,-3.89156 0.11624,-3.28581 0.11624,-3.36598 0.46491,-3.66701 0.59275,-0.4777 2.01073,-0.4289 2.52795,0.0929 l 0.3952,0.39634 v 3.52788 c 0,2.56181 -0.11625,3.73341 -0.23249,4.27874 l -0.23249,0.75084 h 6.09385 v -3.87366 c 0,-4.25758 0.11624,-4.85488 0.89498,-5.15394 0.94145,-0.35916 2.00726,-0.0929 2.31644,0.59044 0.11624,0.25463 0.18605,1.81038 0.18605,4.41484 v 4.02198 h 4.8351 v -6.82867 c 0,-6.66454 0,-6.83879 0.33707,-7.25336 0.29061,-0.36613 0.45329,-0.42425 1.21576,-0.42425 0.72061,0 0.95307,0.0698 1.27852,0.39519 l 0.39517,0.39517 v 15.99666 l -0.94145,0.94261 h -3.4241 c -2.91386,0 -3.46826,-0.0348 -3.71003,-0.25801 -0.25555,-0.23587 -0.3138,-0.23587 -0.65087,0 -0.31383,0.2208 -0.98795,0.25801 -4.72935,0.25801 -4.78977,0 -4.94783,-0.0246 -5.19542,-0.96817 l -0.11624,-0.46958 -0.70902,0.47887 c -1.79805,1.20948 -4.20979,1.2827 -5.98112,0.18144 l -0.77873,-0.48118 -0.58113,0.39633 c -1.90152,1.29178 -4.62241,1.20761 -6.46696,-0.19989 -0.70902,-0.5393 -0.72061,-0.5416 -0.72061,-0.16729 0,0.20912 -0.151,0.57184 -0.33708,0.80546 -0.30229,0.38354 -0.44166,0.42423 -1.41798,0.42423 -0.59278,0 -1.16231,-0.0698 -1.24946,-0.16514 -0.11624,-0.11625 -0.2208,0.13592 -0.33708,0.77409 -0.46491,2.50578 -1.89451,4.02048 -4.35625,4.6187 -1.17508,0.28599 -3.01498,0.41608 -3.74722,0.26508 z m 3.81348,-9.10744 c 0.92982,-0.99259 1.04603,-2.91512 0.27892,-4.55476 -0.46491,-0.98678 -1.33544,-1.28283 -2.299,-0.78455 -1.26105,0.65204 -1.51562,3.52032 -0.45329,5.09803 0.73224,1.08789 1.60047,1.17261 2.47918,0.24171 z m 49.86207,9.10744 c -1.27501,-0.2614 -1.76668,-0.95772 -1.51331,-2.1386 0.23249,-1.05188 0.6974,-1.29374 2.67095,-1.38545 0.92982,-0.0464 1.85383,-0.17436 2.09327,-0.29645 0.45328,-0.23248 0.98794,-0.89495 1.1623,-1.44018 0.11625,-0.31964 0,-0.32776 -1.43544,-0.26262 -1.84104,0.0815 -2.68021,-0.17683 -3.72511,-1.13903 -1.3192,-1.21622 -1.99218,-2.91955 -1.98868,-5.03176 0,-2.64374 1.06932,-4.63869 2.97663,-5.57759 0.96469,-0.47539 1.11578,-0.50212 2.52912,-0.4475 1.20296,0.0464 1.65858,0.13715 2.28273,0.45332 2.35595,1.20075 3.3311,3.91598 3.32646,9.27223 0,4.69238 -1.34242,6.9284 -4.6294,7.72676 -1.17507,0.286 -3.01494,0.41611 -3.74718,0.26508 z m 3.81229,-9.10744 c 0.94147,-0.99259 1.04606,-2.91512 0.27892,-4.55476 -0.46491,-0.98678 -1.33661,-1.28283 -2.30017,-0.78455 -1.26105,0.65204 -1.51562,3.52032 -0.45329,5.09803 0.73224,1.08789 1.60047,1.17261 2.47801,0.24171 z m 66.94659,9.10744 c -1.2727,-0.2614 -1.7667,-0.95772 -1.5122,-2.1386 0.2325,-1.05188 0.6974,-1.29374 2.6721,-1.38545 0.9298,-0.0464 1.8527,-0.17436 2.0921,-0.29645 0.4533,-0.23248 0.988,-0.89495 1.1623,-1.44018 0.1163,-0.31964 0,-0.32776 -1.4366,-0.26262 -1.841,0.0815 -2.6802,-0.17683 -3.7251,-1.13903 -1.3192,-1.21622 -1.9922,-2.91955 -1.9898,-5.03176 0,-2.64374 1.0693,-4.63869 2.9777,-5.57759 0.9647,-0.47539 1.1159,-0.50212 2.5292,-0.4475 1.203,0.0464 1.6597,0.13715 2.2816,0.45332 2.3582,1.20075 3.3322,3.91598 3.3276,9.27223 0,4.69238 -1.3436,6.9284 -4.6294,7.72676 -1.1751,0.286 -3.015,0.41611 -3.7484,0.26508 z m 3.8134,-9.10744 c 0.9415,-0.99259 1.0461,-2.91512 0.2789,-4.55476 -0.4649,-0.98678 -1.3354,-1.28283 -2.299,-0.78455 -1.261,0.65204 -1.5156,3.52032 -0.4533,5.09803 0.7323,1.08789 1.6005,1.17261 2.478,0.24171 z m 10.65,9.10396 c -0.9763,-0.1965 -1.4063,-0.71597 -1.4063,-1.71311 0,-1.44227 0.6392,-1.83175 3.0382,-1.83953 1.4575,-0.006 2.1572,-0.30801 2.7383,-1.18543 l 0.4301,-0.6474 0.1627,-11.73884 0.4532,-0.38821 c 0.6393,-0.54628 1.8458,-0.54628 2.4815,1.2e-4 l 0.4533,0.38822 v 5.61534 c 0,6.01623 0,6.95709 -0.709,8.30407 -1.0577,2.09816 -2.7581,3.01196 -6.0299,3.25069 -0.5812,0.0464 -1.3215,0.0246 -1.6563,-0.0464 z m -161.86459,-0.19189 c -3.04287,-0.27892 -5.1222,-1.56504 -6.17989,-3.81988 -0.43004,-0.90657 -0.43004,-0.94726 -0.43004,-4.59554 v -3.68073 l 0.45329,-0.38938 c 0.67411,-0.58229 1.75271,-0.54511 2.38037,0.0815 0.53465,0.52768 0.5114,0.36611 0.53465,3.96143 0,2.4889 0,2.60456 0.45329,3.31238 0.63925,1.09023 1.75038,1.64487 3.47173,1.73519 0.97632,0.0464 1.55514,-0.006 2.17815,-0.20696 0.90657,-0.29276 1.79457,-0.88216 2.0433,-1.34719 0.13961,-0.25801 0,-0.28015 -1.32736,-0.27554 -1.30057,0.006 -1.58884,-0.0464 -2.40011,-0.44748 -2.08048,-1.02164 -3.15096,-3.24813 -2.98822,-6.22033 0.13961,-2.55132 1.15065,-4.23734 3.03588,-5.08533 0.90658,-0.40912 1.12741,-0.44166 2.46636,-0.37776 2.24902,0.10456 3.46712,0.92288 4.49922,3.01903 0.49979,1.0147 0.52303,1.13325 0.58116,3.43238 v 2.38138 h 6.89583 v -8.23503 l 0.39516,-0.39633 c 0.55791,-0.55904 1.96196,-0.57184 2.47801,-0.0246 0.33708,0.3673 0.34867,0.45562 0.34867,5.57143 0,5.29746 0,5.64197 -0.62762,6.09886 -0.31383,0.23956 -8.98446,0.28722 -9.35757,0.0464 -0.18605,-0.11962 -0.27893,0.0123 -0.44167,0.66831 -0.27892,1.08094 -1.23202,2.48404 -2.17347,3.19211 -1.58536,1.19192 -4.02152,1.80456 -6.33331,1.59222 z m 4.69564,-9.25053 c 1.02278,-1.15763 0.96469,-3.45291 -0.11624,-4.56153 -0.6625,-0.68223 -1.12741,-0.78104 -1.85617,-0.40097 -0.82524,0.43004 -1.1867,1.17448 -1.18436,2.46429 0,2.65674 1.78061,4.06033 3.16258,2.49809 z m 126.91234,8.07835 c 0,-0.21957 0.11621,-0.44514 0.16271,-0.49978 0.1162,-0.0698 0.1162,-0.19989 0,-0.40215 -0.26726,-0.49745 -0.18608,-1.09487 0.1977,-1.45215 0.2906,-0.27215 0.5347,-0.32662 1.2495,-0.28815 0.8252,0.0464 0.8949,0.0698 0.8949,0.44982 0,0.34288 -0.1162,0.42308 -0.6857,0.54628 -0.9763,0.20573 -0.9531,0.67295 0,0.94028 0.6508,0.17313 0.7206,0.24294 0.6857,0.6044 0,0.39286 -0.1162,0.40913 -1.2971,0.45445 -1.23551,0.0464 -1.24944,0.0464 -1.24944,-0.35334 z m -61.33035,-4.16006 c -0.72061,-0.41494 -0.70899,-0.31149 -0.72061,-8.55685 v -7.86486 l 0.39516,-0.39517 c 0.32545,-0.32194 0.55791,-0.39633 1.26109,-0.39633 0.72061,0 0.92982,0.0698 1.25644,0.41607 l 0.39516,0.41611 v 7.44734 c 0,8.06629 0,8.52469 -0.76711,8.92102 -0.49978,0.2534 -1.42496,0.25924 -1.85383,0.0123 z m 38.92615,0.0929 c -0.95311,-0.17098 -2.00148,-0.60788 -2.66748,-1.11695 -0.70899,-0.5393 -0.72061,-0.54164 -0.72061,-0.16729 0,0.20912 -0.151,0.57184 -0.33705,0.80546 l -0.33707,0.42426 h -4.83744 l -0.94145,-0.94262 v -7.88857 c 0,-7.73688 0,-7.89703 0.33708,-8.3136 0.29061,-0.37309 0.44166,-0.42423 1.27735,-0.42423 0.82521,0 0.98795,0.0464 1.27849,0.42423 0.32545,0.41377 0.33708,0.59044 0.33708,7.17282 v 6.748 h 2.36991 l -0.2208,-0.8415 c -0.15099,-0.57648 -0.2208,-1.89811 -0.2208,-4.2033 v -3.36213 l 0.48816,-0.4905 c 0.45332,-0.45559 0.55791,-0.48465 1.39707,-0.41494 1.44357,0.11963 1.49588,0.24418 1.50169,3.5679 0,1.51943 0.11624,3.08168 0.16268,3.47174 0.2208,0.93215 0.70899,1.61046 1.3959,1.89534 0.49979,0.20697 0.61603,0.20112 1.13906,-0.0581 1.11578,-0.54975 1.23202,-0.97167 1.32151,-4.85755 0.11625,-3.37505 0.11625,-3.44572 0.46491,-3.74755 0.47654,-0.38471 1.88407,-0.42075 2.39781,-0.0581 0.54625,0.3824 0.68574,1.22495 0.68574,4.15216 0,2.405 0,2.77809 0.33708,3.351 0.58112,1.13322 1.89799,1.62882 2.56399,0.96236 0.79036,-0.7915 0.8717,-1.19854 0.9647,-4.73784 0.11624,-3.28577 0.11624,-3.36597 0.46491,-3.66701 0.59278,-0.4777 2.01076,-0.42887 2.52798,0.0929 l 0.39516,0.39633 v 3.52776 c 0,2.56194 -0.11624,3.7335 -0.23248,4.27886 l -0.2208,0.75081 h 2.70812 v -4.16027 c 0,-3.95667 0,-4.17771 0.32545,-4.51131 0.40679,-0.43585 0.9647,-0.58346 1.73646,-0.46024 1.16925,0.18697 1.16227,0.13716 1.16227,6.09932 v 5.31361 l -0.94144,0.94261 h -2.63608 c -2.90801,0 -3.24045,-0.0929 -3.47056,-0.96817 l -0.11625,-0.46955 -0.70899,0.47884 c -1.79805,1.20948 -4.20865,1.28258 -5.98114,0.18144 l -0.76708,-0.48118 -0.58116,0.39633 c -1.01119,0.69042 -2.73835,1.10649 -3.79835,0.91706 z m 31.83381,-0.0929 c -0.7206,-0.41494 -0.7206,-0.31149 -0.7206,-8.55685 v -7.86486 l 0.3952,-0.39517 c 0.3254,-0.32194 0.5579,-0.39633 1.2622,-0.39633 0.7206,0 0.9299,0.0698 1.2565,0.41607 l 0.3951,0.41611 v 7.44734 c 0,8.06629 0,8.52469 -0.7671,8.92102 -0.4997,0.2534 -1.4261,0.25924 -1.855,0.0123 z m 75.6764,0.0929 c -0.953,-0.17098 -2.0013,-0.60788 -2.6673,-1.11695 -0.709,-0.5393 -0.7207,-0.54164 -0.7207,-0.16729 0,0.20912 -0.1509,0.57184 -0.337,0.80546 -0.3255,0.41146 -0.3836,0.42426 -2.0422,0.42426 -1.3401,0 -1.7701,-0.0581 -1.9945,-0.25801 -0.2555,-0.23587 -0.3138,-0.23587 -0.6508,0 -0.3255,0.22203 -1.0345,0.25801 -5.1954,0.25801 -4.1982,0 -4.8654,-0.0348 -5.1118,-0.25801 -0.2558,-0.23587 -0.3138,-0.23587 -0.6509,0 -0.3138,0.2208 -0.9879,0.25801 -4.7293,0.25801 -4.7293,0 -4.9293,-0.0348 -5.1443,-0.888 l -0.1162,-0.41147 -0.6858,0.46261 c -1.2099,0.8229 -1.3413,0.83686 -8.0511,0.83686 h -6.2741 l -0.9414,-0.94262 v -7.88845 c 0,-7.737 0,-7.89715 0.3254,-8.31372 0.2907,-0.37309 0.4533,-0.42423 1.2774,-0.42423 0.8252,0 0.9879,0.0464 1.2785,0.42423 0.3254,0.41377 0.3371,0.59044 0.3371,7.17282 v 6.748 h 2.1002 c 2.0085,0 2.0944,-0.0123 1.9399,-0.30352 -0.3487,-0.64623 -0.523,-2.56107 -0.3487,-3.71034 0.2325,-1.49717 0.6625,-2.44209 1.5458,-3.38458 1.1042,-1.18415 2.0189,-1.51691 3.9437,-1.43951 1.3145,0.0581 1.6539,0.12547 2.2664,0.48699 2.4769,1.46263 3.5276,4.80782 2.5071,7.9883 l -0.1163,0.36263 h 6.1474 v -3.87366 c 0,-4.25745 0.1162,-4.85475 0.8949,-5.15382 0.9415,-0.35915 2.0073,-0.0929 2.3164,0.59044 0.1163,0.25463 0.1744,1.81051 0.1744,4.41481 v 4.02211 h 7.5758 v -3.87366 c 0,-4.25758 0.1162,-4.85488 0.8949,-5.15394 0.9415,-0.35913 2.0073,-0.0929 2.3165,0.59044 0.1162,0.25463 0.1743,1.8105 0.1743,4.41484 v 4.02198 h 3.4997 l -0.2208,-0.8415 c -0.151,-0.57651 -0.2091,-1.89802 -0.2091,-4.20317 V 744.689 l 0.4882,-0.49047 c 0.4532,-0.45562 0.5579,-0.48468 1.397,-0.41493 1.4435,0.11962 1.4958,0.24417 1.5016,3.56786 0,1.51947 0.1169,3.08168 0.163,3.47177 0.2214,0.93213 0.7208,1.61046 1.3962,1.89531 0.4997,0.20697 0.6159,0.20112 1.139,-0.0581 1.1157,-0.54979 1.2319,-0.97167 1.3227,-4.85755 0.1168,-3.37505 0.1168,-3.44572 0.4646,-3.74758 0.5812,-0.46955 1.962,-0.42539 2.5512,0.0815 l 0.4533,0.38822 0.1169,3.27821 c 0.1168,3.63958 0.1968,4.05627 1.1753,4.65486 0.9878,0.59973 1.6819,0.3452 2.3141,-0.84384 0.2337,-0.44049 0.3014,-1.11578 0.3718,-3.89168 0.1169,-3.28578 0.1169,-3.36598 0.465,-3.66701 0.2675,-0.21865 0.6393,-0.30691 1.2565,-0.30691 0.7205,0 0.953,0.0698 1.2818,0.40682 l 0.4068,0.40679 v 3.7442 c 0,3.42711 -0.1168,3.82031 -0.4182,4.64354 -1.195,2.98081 -5.0923,4.30269 -7.8292,2.65515 l -0.8952,-0.53583 -0.5809,0.39403 c -1.0114,0.68808 -2.7373,1.10302 -3.7951,0.91472 z m -32.158,-3.62795 c 1.3098,-1.0298 1.4005,-3.59404 0.1743,-4.93077 -1.2576,-1.37278 -3.0742,-0.20451 -3.073,1.97647 0,2.41546 1.5609,4.00568 2.8975,2.9543 z m -93.72915,3.25124 c -0.2208,-0.22326 -0.32542,-0.53697 -0.32542,-1.02279 0,-0.77757 0.27892,-1.13672 1.02282,-1.32213 l 0.45328,-0.11624 -0.39519,-0.42309 c -0.9182,-0.98213 -1.19599,-2.52552 -0.65087,-3.65886 0.38354,-0.81361 1.38311,-1.62882 2.33968,-1.913 1.15066,-0.34172 3.96571,-0.34405 4.45039,-0.006 0.44167,0.31032 0.61603,1.1767 0.37195,1.90614 -0.2208,0.68461 -0.76711,0.91008 -2.16769,0.91008 -1.33197,0 -2.09327,0.38124 -2.16067,1.07977 -0.11625,1.09952 0.75548,1.70878 2.68721,1.90046 1.49702,0.14884 1.79571,0.40331 1.79571,1.53213 0,0.59158 -0.11624,0.89147 -0.32542,1.12857 -0.30229,0.30107 -0.53465,0.32195 -3.54615,0.32195 -3.00916,0 -3.24509,-0.0246 -3.54613,-0.32195 z m 38.85757,-0.10456 c -0.23249,-0.2986 -0.33705,-0.65902 -0.33705,-1.21609 0,-1.10536 0.47654,-1.58282 1.58884,-1.58282 h 0.80199 l -0.11628,-0.60437 c -0.11624,-1.08094 -0.87173,-10.07622 -0.87173,-10.47105 0,-0.62298 0.68578,-1.17473 1.45051,-1.17473 0.9647,0 1.568,0.36844 1.7621,1.08906 0.1393,0.51955 0.9763,9.78552 0.9763,10.79846 0,0.27892 0.1162,0.36263 0.4068,0.36263 h 0.4068 v -6.50368 c 0,-4.33301 0.1162,-6.67466 0.1743,-7.01509 0.2208,-0.63577 0.5695,-0.8264 1.4912,-0.8264 1.7784,0 1.7156,-0.31383 1.7156,8.62032 0,7.99387 0,8.37406 -0.7788,8.77457 -0.2091,0.11625 -1.7771,0.17437 -4.3539,0.17437 h -4.02961 z m 102.03018,0 c -0.2337,-0.2986 -0.337,-0.65902 -0.337,-1.21609 0,-1.10536 0.4763,-1.58282 1.5886,-1.58282 h 0.8021 l -0.1169,-0.60437 c -0.1169,-1.08094 -0.8715,-10.07622 -0.8715,-10.47105 0,-0.62298 0.6858,-1.17473 1.4503,-1.17473 0.9763,0 1.568,0.36844 1.7633,1.08906 0.1384,0.51955 0.9764,9.78552 0.9764,10.79846 0,0.27892 0.1168,0.36263 0.4068,0.36263 h 0.4069 v -6.50368 c 0,-4.33301 0.1168,-6.67466 0.1753,-7.01509 0.2214,-0.63577 0.5695,-0.8264 1.4899,-0.8264 1.7609,0 1.7166,-0.19866 1.7166,7.72885 v 6.61657 h 4.6737 v -6.82867 c 0,-6.66446 0,-6.83879 0.337,-7.25327 0.2922,-0.3661 0.4533,-0.42422 1.2157,-0.42422 0.7205,0 0.953,0.0698 1.2787,0.39633 l 0.3951,0.3952 v 15.99665 l -0.9416,0.94262 -3.3566,-0.006 c -2.6536,-0.006 -3.4206,-0.0581 -3.6614,-0.23464 -0.2675,-0.19989 -0.3484,-0.19866 -0.639,0.006 -0.2798,0.19189 -1.0926,0.23495 -4.3994,0.23495 h -4.062 z M 868.18759,740.9412 c -0.46494,-0.46377 -0.54628,-0.66135 -0.54628,-1.28688 0,-0.58927 0.11625,-0.84615 0.46491,-1.26539 0.41842,-0.46608 0.56953,-0.52651 1.30177,-0.52651 0.73224,0 0.88333,0.0581 1.30291,0.52651 0.76711,0.86475 0.6044,2.27658 -0.33707,2.8319 -0.76709,0.45215 -1.56209,0.35218 -2.19322,-0.28015 z m 5.15588,0.39053 c -1.05766,-0.42887 -1.38311,-2.02251 -0.58112,-2.90759 1.1274,-1.25201 3.16722,-0.47189 3.16722,1.21191 0,1.37432 -1.2855,2.21905 -2.58143,1.69568 z m 50.28516,-0.143 c -1.49354,-0.93911 -0.77873,-3.40503 0.98795,-3.40503 0.6509,0 1.50052,0.54163 1.71089,1.08675 0.25555,0.65434 0.11625,1.63823 -0.39519,2.0972 -0.54625,0.54745 -1.62602,0.6509 -2.31063,0.2208 z m 4.74912,0.0348 c -0.81361,-0.51953 -1.09256,-1.66369 -0.62765,-2.53669 0.30229,-0.56602 1.20065,-0.96122 1.92358,-0.84614 1.37963,0.21957 1.96777,1.95925 1.02281,3.01845 -0.55787,0.62995 -1.64345,0.79964 -2.32108,0.36379 z m 50.56178,0.11624 c -0.6625,-0.27308 -0.9647,-0.80432 -0.9647,-1.71449 0,-0.71714 0.11624,-0.93797 0.41842,-1.28467 0.90657,-0.90661 2.57447,-0.55674 3.03007,0.6369 0.59278,1.54342 -0.94145,2.99465 -2.48149,2.36202 z m 4.63404,-0.0123 c -0.46494,-0.18728 -1.01119,-1.07626 -1.01119,-1.65554 0,-0.96005 0.8717,-1.88582 1.76898,-1.88582 0.62766,0 1.42961,0.45329 1.68415,0.94609 0.83685,1.62024 -0.73224,3.28464 -2.44661,2.59506 z m 10.51751,0.0123 c -0.67411,-0.27554 -0.96469,-0.80315 -0.96469,-1.73218 0,-0.76711 0.11624,-0.93446 0.45329,-1.27141 0.6044,-0.51956 1.13903,-0.6323 1.90848,-0.40215 1.09256,0.32659 1.56909,1.54025 1.02281,2.59653 -0.41841,0.79851 -1.52841,1.1723 -2.41524,0.80897 z m 67.18832,-0.14884 c -1.4936,-0.93914 -0.7788,-3.40503 0.9879,-3.40503 0.6509,0 1.4994,0.54161 1.7097,1.08672 0.2556,0.65437 0.1163,1.63826 -0.3951,2.09723 -0.5463,0.54745 -1.6272,0.65087 -2.3118,0.2208 z m 4.7491,0.0348 c -0.8136,-0.51956 -1.0926,-1.66372 -0.6276,-2.53671 0.3022,-0.56603 1.2017,-0.96002 1.9247,-0.84615 1.3785,0.21957 1.9677,1.95928 1.0228,3.01848 -0.5579,0.62996 -1.6435,0.79965 -2.3211,0.3638 z m 6.2112,-0.0348 c -1.4935,-0.93914 -0.7787,-3.40503 0.988,-3.40503 0.6508,0 1.4993,0.54161 1.7097,1.08672 0.2556,0.65437 0.1162,1.63826 -0.3836,2.09723 -0.5462,0.54745 -1.6272,0.65087 -2.3117,0.2208 z m 4.7491,0.0348 c -0.8136,-0.51956 -1.0925,-1.66372 -0.6276,-2.53671 0.3023,-0.56603 1.2007,-0.96002 1.9236,-0.84615 1.3796,0.21957 1.9677,1.95928 1.0228,3.01848 -0.5579,0.62996 -1.6435,0.79965 -2.3223,0.3638 z m -96.04549,-4.36659 c -0.63928,-0.57304 -0.81361,-1.55421 -0.38358,-2.26646 0.3487,-0.59395 0.84849,-0.83686 1.70859,-0.83686 0.53463,0 0.75546,0.10455 1.22154,0.56836 0.52303,0.52767 0.55791,0.62298 0.48816,1.32465 -0.11624,1.03908 -0.79033,1.6529 -1.80967,1.6529 -0.55791,0 -0.83683,-0.10456 -1.21576,-0.44284 z m 82.64199,0.11624 c -0.5346,-0.42075 -0.7787,-1.26259 -0.5695,-2.00018 0.2208,-0.79036 0.8252,-1.21643 1.7365,-1.21539 1.0228,0 1.6179,0.487 1.7423,1.40741 0.1743,1.31942 -0.5347,2.1378 -1.855,2.1378 -0.3952,0 -0.7904,-0.12424 -1.0461,-0.32893 z M 859.58086,630.69884 c 0,-80.44636 0,-100.83636 0.19774,-100.96223 0.17437,-0.143 2.51168,-1.50375 8.01976,-4.6731 0.83686,-0.48466 1.74808,-1.00769 2.01424,-1.16262 2.23974,-1.30386 3.8216,-2.21206 4.43299,-2.54634 0.39516,-0.21865 1.05765,-0.59859 1.44934,-0.84381 0.3952,-0.24632 1.23437,-0.73457 1.85504,-1.08558 0.61599,-0.35217 3.73906,-2.14536 6.9307,-3.98677 3.19165,-1.84129 6.0555,-3.49151 6.36582,-3.66701 0.31383,-0.17559 1.43545,-0.82754 2.49892,-1.44972 3.56941,-2.08632 4.83046,-2.81831 5.56039,-3.22627 0.39517,-0.22326 2.57562,-1.47576 4.83627,-2.78368 2.26065,-1.30805 4.43296,-2.56028 4.82698,-2.78286 0.39517,-0.22203 1.08091,-0.62184 1.53189,-0.888 0.8717,-0.51488 1.52608,-0.89495 2.62445,-1.51224 l 0.68574,-0.38357 0.63925,0.40682 c 0.3487,0.22326 0.68577,0.40679 0.72062,0.40679 0,0 0.98794,0.54395 2.10956,1.2089 1.11578,0.66483 2.06304,1.2089 2.10373,1.2089 0,0 0.33707,0.16975 0.67415,0.37773 0.32542,0.20819 0.92982,0.56024 1.32615,0.78338 1.19598,0.66947 1.7911,1.01236 3.11609,1.79817 0.69736,0.41146 1.28664,0.74854 1.3157,0.74854 0,0 0.79036,0.43468 1.68067,0.967 0.89498,0.53118 1.65511,0.96703 1.68647,0.96703 0,0 0.72062,0.39984 1.53657,0.88683 0.81358,0.48699 1.50516,0.88683 1.54,0.88683 0,0 0.6509,0.36263 1.37499,0.80546 0.72062,0.44283 1.34246,0.80546 1.37847,0.80546 0,0 0.46491,0.25463 0.9531,0.56372 0.48816,0.31032 0.92982,0.56369 0.98791,0.56369 0,0 0.51141,0.2454 1.0112,0.54628 2.15954,1.29408 5.37209,3.16154 5.43833,3.16154 0,0 0.3487,0.16975 0.67415,0.37773 0.33704,0.20819 0.92982,0.56024 1.32732,0.78338 1.19599,0.6695 1.79107,1.01236 3.11609,1.79807 0.69737,0.41144 1.29362,0.74851 1.33197,0.74851 0,0 0.6509,0.36263 1.37035,0.80546 0.70899,0.44283 1.32385,0.80546 1.35407,0.80546 0,0 0.69737,0.37426 1.47841,0.83105 0.77874,0.45676 1.78529,1.02863 2.22929,1.27003 0.44166,0.24172 0.80195,0.53232 0.80195,0.6474 0,0.11624 -0.36029,0.40098 -0.80195,0.63807 -0.44169,0.2371 -1.49588,0.83105 -2.33738,1.31933 -4.96992,2.88468 -9.84921,5.70391 -10.47683,6.05492 -0.3952,0.22326 -1.16231,0.66019 -1.69229,0.97168 -0.53466,0.31148 -1.65628,0.96235 -2.49892,1.44704 -0.83686,0.48468 -1.74925,1.00655 -2.01541,1.16114 -0.90657,0.52881 -3.70538,2.1488 -4.19004,2.42671 -0.39519,0.22542 -11.6554,6.7294 -13.37793,7.7263 -0.26723,0.15345 -1.68066,0.96937 -3.14397,1.81155 -3.5659,2.05387 -7.40143,4.26827 -7.89774,4.5586 -0.2208,0.13009 -1.50981,0.87287 -2.86038,1.65035 l -2.45941,1.41426 v 133.0582 h 10.31646 v -49.8062 h 97.195 v 49.8062 h 10.9604 v -49.8062 h 97.194 v 43.68117 h -53.6745 v 6.12503 h 53.6745 v 43.35873 H 859.57751 Z m 107.34992,54.3799 v -3.06252 h -10.31646 v 6.12503 h 10.31646 z M 805.7449,562.61328 c 0,-57.01921 0,-64.47901 0.24418,-64.78121 0.12793,-0.18943 0.83686,-0.67759 1.5714,-1.08441 0.73224,-0.40679 1.62024,-0.91005 1.97475,-1.11929 0.6625,-0.38935 3.488,-2.02887 4.35159,-2.52435 0.26723,-0.15222 3.27648,-1.89046 6.69013,-3.86204 3.41247,-1.97158 6.53203,-3.76686 6.9307,-3.98957 0.39517,-0.22203 1.37847,-0.78452 2.17581,-1.24992 0.80196,-0.46491 2.32108,-1.3523 3.38458,-1.97226 1.91777,-1.11698 3.66815,-2.12817 4.75607,-2.74522 0.31383,-0.17682 3.35669,-1.93335 6.76914,-3.90494 3.41247,-1.97158 6.53206,-3.76707 6.93073,-3.99 0.39517,-0.22326 1.30525,-0.74737 2.01424,-1.16403 1.83058,-1.07629 6.64828,-3.86425 8.30105,-4.80302 0.3138,-0.1756 2.66861,-1.53564 5.23959,-3.02116 2.5698,-1.48539 4.99667,-2.8828 5.39066,-3.10563 0.3952,-0.22203 1.08094,-0.6218 1.53076,-0.88796 0.44166,-0.26509 1.03444,-0.60788 1.29826,-0.76014 0.26724,-0.15222 1.46331,-0.84267 2.66046,-1.53527 2.87434,-1.66264 7.00977,-4.04569 7.81754,-4.50445 0.3487,-0.20112 2.49427,-1.43705 4.75376,-2.74531 2.26065,-1.30829 4.32836,-2.50415 4.59452,-2.65769 0.26724,-0.15345 1.20878,-0.6997 2.09444,-1.21296 2.33969,-1.35509 2.38268,-1.38043 4.67473,-2.6973 1.15065,-0.66253 4.18771,-2.41119 6.74475,-3.88646 2.55701,-1.4753 4.71191,-2.68233 4.79094,-2.68233 0.11624,0 0.8717,0.43469 1.76317,0.96701 0.89495,0.53235 1.65161,0.96703 1.69229,0.96703 0,0 0.53466,0.27769 1.08094,0.61716 0.55788,0.33942 1.33662,0.80082 1.73645,1.02516 1.11579,0.62879 1.77831,1.00768 2.70696,1.55861 0.46491,0.27769 0.89495,0.5056 0.92983,0.5056 0,0 0.16267,0.0698 0.27892,0.16729 0.16268,0.14423 3.52755,2.09176 7.28638,4.22479 0.616,0.35217 1.45516,0.8415 1.85384,1.08672 0.39519,0.2451 1.04606,0.62648 1.45054,0.84384 1.18553,0.64856 4.21677,2.38711 4.99668,2.86561 0.39516,0.24417 1.05766,0.62298 1.45051,0.8415 0.39517,0.21865 1.77714,1.01119 3.06378,1.76259 1.28433,0.75085 2.6628,1.54247 3.06147,1.75798 0.3952,0.21496 0.75549,0.44631 0.77874,0.51255 0,0.0698 0.11624,0.12085 0.19773,0.12085 0.11625,0 1.61209,0.85777 3.41131,1.90501 1.79922,1.0472 3.83092,2.22076 4.51316,2.60676 0.68577,0.38588 1.20877,0.75549 1.16812,0.82173 -0.11625,0.11625 -0.37195,0.29399 -2.32806,1.39892 -0.3952,0.22541 -1.2332,0.71483 -1.85387,1.08675 -0.61599,0.37308 -1.45516,0.85894 -1.85383,1.08094 -0.3952,0.22203 -1.84922,1.05535 -3.22304,1.85057 -1.37382,0.79617 -2.82551,1.62965 -3.22418,1.8534 -0.39517,0.22326 -1.84919,1.06 -3.22418,1.85722 -2.85223,1.65625 -9.63302,5.56838 -10.47683,6.04492 -0.31383,0.17559 -1.13906,0.66483 -1.85269,1.08675 -0.709,0.42306 -1.61674,0.94956 -2.01541,1.17043 -0.39516,0.2208 -1.84919,1.05301 -3.22418,1.8486 -1.37382,0.79617 -2.82437,1.62999 -3.22301,1.8542 -0.3952,0.22418 -2.06771,1.1882 -3.70769,2.14232 -1.64002,0.95424 -3.30789,1.91814 -3.70656,2.1422 -0.39517,0.22418 -0.99954,0.57767 -1.32733,0.78454 -0.33704,0.2082 -0.63924,0.37776 -0.68574,0.37776 0,0 -0.36029,0.17099 -0.68574,0.3789 -0.9647,0.60554 -3.41946,2.03853 -3.49849,2.03853 0,0 -0.73224,0.39984 -1.54004,0.88917 -0.80195,0.4893 -1.98751,1.16483 -2.62442,1.50166 -0.63927,0.33707 -1.4122,0.76013 -1.72252,0.94144 -1.98517,1.15881 -3.89018,2.253 -4.51315,2.59423 -0.39517,0.21864 -1.05769,0.59859 -1.45055,0.84384 -0.39517,0.24509 -1.23317,0.73454 -1.85384,1.08555 -0.61602,0.35103 -3.74023,2.14699 -6.93187,3.99141 -3.19164,1.84445 -6.49138,3.74967 -7.33285,4.23362 -0.84849,0.48469 -1.74925,1.00655 -2.01541,1.16231 -0.26723,0.15468 -0.77873,0.44981 -1.12743,0.65321 -0.34867,0.2045 -1.22505,0.71246 -1.93404,1.12974 -0.70899,0.41724 -1.61559,0.94144 -2.01423,1.16378 -0.99957,0.55674 -7.341,4.21702 -12.57247,7.25231 -0.31383,0.18021 -0.89495,0.51024 -1.29014,0.73341 -0.39517,0.22326 -0.99957,0.57535 -1.32616,0.78338 -0.33708,0.2082 -0.63925,0.37659 -0.67412,0.37659 0,0 -0.96469,0.52885 -2.05843,1.17471 -1.09253,0.64625 -2.54772,1.4932 -3.23463,1.88246 l -1.24946,0.70782 v 104.0702 h -43.51947 z m 108.15541,42.67834 v -21.75998 h 43.3591 v 43.51996 h -43.3591 z m 107.51029,-14.26289 v -36.02286 l -0.6044,-0.3789 c -0.3254,-0.20911 -0.9298,-0.56255 -1.3296,-0.78685 -0.3952,-0.22419 -4.2796,-2.45848 -8.623,-4.96531 -4.3446,-2.5067 -8.4068,-4.84697 -9.0275,-5.20065 -0.616,-0.35334 -1.6528,-0.96005 -2.29317,-1.3466 -0.63928,-0.38705 -1.19602,-0.70321 -1.2332,-0.70321 0,0 -0.53465,-0.27893 -1.09256,-0.61951 -0.56953,-0.34055 -1.35057,-0.80312 -1.74924,-1.02629 -0.39517,-0.22326 -4.02617,-2.31259 -8.05928,-4.64182 -4.03432,-2.32911 -8.27781,-4.77664 -9.42963,-5.43892 -1.15068,-0.66249 -2.16766,-1.25804 -2.25718,-1.32394 -0.11624,-0.0698 -0.55787,-0.33825 -1.04603,-0.60557 -0.48816,-0.26724 -1.97475,-1.12043 -3.30438,-1.89686 -1.32967,-0.7764 -2.5989,-1.49108 -2.8209,-1.58847 -0.2208,-0.0929 -1.09253,-0.58349 -1.93403,-1.08094 -0.83683,-0.49745 -1.85734,-1.08906 -2.25715,-1.31398 -0.63928,-0.35795 -11.54618,-6.65129 -17.48777,-10.08501 -1.15065,-0.666 -2.42219,-1.39222 -2.82086,-1.61363 -0.3952,-0.2208 -1.2332,-0.70666 -1.85387,-1.07974 -0.61599,-0.37312 -1.45516,-0.86011 -1.85383,-1.08441 -0.39516,-0.22419 -2.57448,-1.47798 -4.8351,-2.78636 -2.26065,-1.30839 -4.43646,-2.56086 -4.83513,-2.78323 -0.39517,-0.22203 -1.37847,-0.78452 -2.17695,-1.24875 -0.80198,-0.46491 -2.1758,-1.26272 -3.06147,-1.77388 -0.88332,-0.51141 -1.88289,-1.10068 -2.21298,-1.3093 -0.33708,-0.20912 -0.63928,-0.38007 -0.68575,-0.38007 0,0 -0.43006,-0.21034 -0.84848,-0.46725 -0.43004,-0.25678 -1.06931,-0.6381 -1.43425,-0.84614 -2.73602,-1.55259 -6.52044,-3.77243 -6.83427,-4.00953 l -0.38354,-0.28723 0.72062,-0.42422 c 2.41057,-1.42613 4.85718,-2.83028 4.93274,-2.83028 0,0 0.27892,-0.13592 0.51141,-0.30229 0.23248,-0.16729 1.01119,-0.62648 1.71784,-1.02282 0.70902,-0.39633 1.94219,-1.10302 2.73953,-1.57152 0.80198,-0.46839 1.77713,-1.03445 2.1758,-1.25875 0.39517,-0.22419 1.1867,-0.68574 1.74925,-1.02629 0.55787,-0.34055 1.05766,-0.61951 1.08091,-0.61951 0,0 0.79036,-0.43471 1.69112,-0.96703 0.89498,-0.53232 1.65628,-0.96703 1.69112,-0.96703 0,0 0.52303,-0.27769 1.06932,-0.61717 0.5579,-0.33938 1.33664,-0.80081 1.73645,-1.02512 0.39519,-0.22449 0.97632,-0.55326 1.28897,-0.73224 3.61704,-2.08235 4.88628,-2.81634 5.60803,-3.24466 0.46494,-0.27769 0.89498,-0.5056 0.94148,-0.5056 0,0 0.27892,-0.13592 0.523,-0.30321 0.23249,-0.16637 1.01119,-0.62648 1.71788,-1.02282 0.70899,-0.39633 1.94218,-1.10302 2.73949,-1.57165 0.80199,-0.46839 1.77714,-1.03444 2.17581,-1.25921 0.86011,-0.48351 1.74343,-1.00307 2.18279,-1.28433 0.17436,-0.11624 0.43003,-0.25217 0.55787,-0.31266 0.12793,-0.0581 1.01119,-0.56719 1.95615,-1.1274 0.94144,-0.56025 1.81314,-1.01701 1.93403,-1.01701 0.27892,0.002 0.79036,0.27554 2.96848,1.56535 0.44169,0.26631 1.13906,0.66483 1.53188,0.888 0.3952,0.22203 3.32763,1.91254 6.51928,3.75545 6.51927,3.76511 7.78152,4.49271 10.88017,6.2752 1.19598,0.68807 2.24786,1.30582 2.33735,1.37185 0.11624,0.0698 0.55791,0.33938 1.04607,0.60671 0.48816,0.26723 3.42523,1.95544 6.52856,3.75001 7.13527,4.12728 6.59944,3.81763 7.21199,4.16747 0.49979,0.28261 3.10677,1.79018 6.32631,3.65225 5.7022,3.29731 13.2442,7.64634 14.1846,8.17866 0.6159,0.35217 1.4551,0.84033 1.8538,1.08675 0.3952,0.24632 1.0577,0.62531 1.4505,0.84381 0.3952,0.21865 1.4506,0.81708 2.3374,1.33095 8.4963,4.92401 13.7998,7.98422 18.3757,10.60248 0.616,0.35452 1.6528,0.96239 2.2932,1.34932 0.6393,0.38701 1.2053,0.70318 1.253,0.70318 0,0 0.3835,0.18482 0.7438,0.41143 0.6974,0.44052 15.8734,9.20578 19.6113,11.32685 l 1.0112,0.57184 v 97.29534 h -43.5207 z m 53.6698,-16.08024 v -52.10307 l -4.2075,-2.4178 c -2.3141,-1.32975 -4.5074,-2.58678 -4.8735,-2.79356 -0.3603,-0.20696 -1.139,-0.65087 -1.7132,-0.98794 -2.2537,-1.31687 -4.1459,-2.40617 -4.9165,-2.83098 -0.4416,-0.24417 -1.3134,-0.74968 -1.934,-1.1216 -0.616,-0.37308 -1.454,-0.8601 -1.8539,-1.08441 -1.6539,-0.92868 -12.3771,-7.13505 -12.9315,-7.48455 -0.3255,-0.20912 -0.6393,-0.3789 -0.6742,-0.3789 0,0 -0.9879,-0.54394 -2.1095,-1.2089 -1.1158,-0.66483 -2.0677,-1.20889 -2.1154,-1.20889 0,0 -0.2789,-0.13378 -0.5114,-0.29738 -0.2442,-0.16391 -0.8252,-0.51608 -1.3146,-0.78224 -0.4881,-0.26601 -1.139,-0.63227 -1.4516,-0.81244 -0.3139,-0.18021 -3.1022,-1.79245 -6.2055,-3.58272 -3.1021,-1.7903 -5.7033,-3.31475 -5.7789,-3.38763 -0.1279,-0.1267 4.0738,-2.74297 4.4086,-2.74297 0.1162,0 0.1627,-0.0698 0.1627,-0.16145 0,-0.0929 0.1162,-0.16145 0.1396,-0.16145 0.1162,0 1.4656,-0.76126 3.0835,-1.69238 1.6179,-0.93099 3.0046,-1.69241 3.0824,-1.69241 0.1163,0 0.1396,-0.0698 0.1396,-0.16145 0,-0.0929 0.1163,-0.16145 0.1627,-0.16145 0.1163,0 0.6276,-0.28938 1.2111,-0.64506 0.5811,-0.35451 1.0926,-0.64509 1.1274,-0.64509 0,0 0.4649,-0.25339 0.9531,-0.56368 0.4882,-0.31035 0.9182,-0.56372 0.9531,-0.56372 0,0 0.5463,-0.29061 1.1274,-0.64509 0.5811,-0.35448 1.0925,-0.64506 1.1274,-0.64506 0,0 0.988,-0.54394 2.1096,-1.20877 1.1274,-0.66483 2.0805,-1.2089 2.127,-1.2089 0,0 0.2789,-0.13377 0.5114,-0.29768 0.2324,-0.16391 0.8252,-0.51608 1.3145,-0.78341 0.4882,-0.26601 1.7062,-0.967 2.7081,-1.55581 0.9996,-0.58928 1.8911,-1.07049 1.9748,-1.07049 0.1162,0 0.151,-0.0698 0.151,-0.16145 0,-0.0929 0.1162,-0.16145 0.1626,-0.16145 0.1163,0 0.6277,-0.2906 1.2112,-0.64505 0.5811,-0.35451 1.0809,-0.64509 1.1157,-0.64509 0,0 0.8601,-0.47186 1.8411,-1.0472 0.9763,-0.57651 1.8527,-1.04724 1.9468,-1.04724 0.1163,0 0.1744,-0.0698 0.1744,-0.16145 0,-0.0929 0.1162,-0.16145 0.1627,-0.16145 0.1162,0 0.6392,-0.28937 1.2122,-0.64505 0.5812,-0.35451 1.081,-0.64506 1.1275,-0.64506 0,0 0.4649,-0.2534 0.953,-0.56372 0.4882,-0.31035 0.9299,-0.56372 0.988,-0.56372 0,0 0.3023,-0.13377 0.5346,-0.29768 0.2442,-0.16391 0.9415,-0.573 1.5563,-0.90888 0.616,-0.3359 1.2634,-0.70434 1.4285,-0.81825 0.2441,-0.17313 0.3835,-0.1593 0.802,0.0815 0.2789,0.1593 1.848,1.06932 3.488,2.02331 1.6411,0.95424 3.309,1.91721 3.7077,2.14047 0.3952,0.22326 1.8352,1.05188 3.1904,1.84015 1.3576,0.78919 2.807,1.62221 3.2242,1.8522 0.4185,0.23003 1.2657,0.72296 1.8864,1.09604 0.616,0.37309 1.4551,0.86011 1.8539,1.08442 0.3952,0.22449 3.5172,2.0218 6.9307,3.99513 3.4137,1.97321 6.604,3.80647 7.0923,4.07371 0.4881,0.26724 0.953,0.54044 1.0459,0.60671 0.163,0.12424 3.9566,2.31072 5.2386,3.02229 0.3952,0.2208 1.2332,0.70665 1.8538,1.07977 0.6159,0.37308 1.4552,0.86008 1.8537,1.08441 0.3952,0.22419 2.5746,1.47783 4.8352,2.78621 2.2606,1.30838 4.4375,2.56239 4.8364,2.78682 0.3951,0.22419 0.8484,0.48586 1.0111,0.58233 0.2675,0.16606 0.2798,3.42778 0.2798,64.85172 v 64.67566 h -43.5206 v -52.1032 z m -108.63314,30.18192 v -21.75998 h 43.51954 V 626.8904 H 966.44726 Z M 1010.7722,492.4621 c 0,-0.0929 -0.1162,-0.16145 -0.1627,-0.16145 -0.1509,0 -2.2315,-1.1839 -3.5856,-2.03853 -0.3371,-0.20911 -0.6276,-0.3789 -0.6625,-0.3789 0,0 -0.5463,-0.28937 -1.1275,-0.64508 -0.5811,-0.35448 -1.0925,-0.64506 -1.1274,-0.64506 0,0 -0.9879,-0.54395 -2.1095,-1.2089 -1.1274,-0.66483 -2.0654,-1.2089 -2.09446,-1.2089 0,0 -0.53463,-0.28938 -1.11579,-0.64506 -0.58115,-0.35451 -1.10418,-0.64508 -1.15065,-0.64508 0,0 -0.39519,-0.19282 -0.76711,-0.43004 -1.19368,-0.75315 -3.38342,-1.98773 -3.52638,-1.98773 -0.11625,0 -0.13962,-0.0698 -0.13962,-0.16145 0,-0.0929 -0.11624,-0.16145 -0.16268,-0.16145 -0.11624,0 -0.63924,-0.28937 -1.22504,-0.64508 -0.58115,-0.35449 -1.08094,-0.64506 -1.11581,-0.64506 0,0 -0.97632,-0.54395 -2.09558,-1.20902 -1.12743,-0.66483 -2.07005,-1.20878 -2.10375,-1.20878 -0.11624,0 -2.59305,-1.47367 -3.48803,-2.03853 -0.33705,-0.20911 -0.63925,-0.3789 -0.68575,-0.3789 0,0 -0.55787,-0.2906 -1.13902,-0.64508 -0.58116,-0.35448 -1.08094,-0.64506 -1.11582,-0.64506 0,0 -0.97632,-0.54395 -2.10372,-1.2089 -1.12741,-0.66483 -2.06655,-1.2089 -2.09561,-1.2089 0,0 -0.53465,-0.29061 -1.11578,-0.64505 -0.58115,-0.35452 -1.13906,-0.64509 -1.22507,-0.64509 -0.11624,0 -0.16268,-0.0698 -0.16268,-0.16145 0,-0.0929 -0.11624,-0.16145 -0.16268,-0.16145 -0.11624,0 -0.95307,-0.47189 -1.91663,-1.0472 -0.96469,-0.57651 -1.8236,-1.04724 -1.91543,-1.04724 -0.11624,0 -0.18605,-0.0581 -0.2208,-0.12085 0,-0.0698 -0.33707,-0.28016 -0.69739,-0.47423 -0.34867,-0.19528 -0.63925,-0.43004 -0.63925,-0.52304 0,-0.13715 2.39895,-1.5893 6.20545,-3.75662 2.16418,-1.23178 4.11799,-2.36456 5.11522,-2.96534 0.63925,-0.38704 1.20066,-0.70201 1.24365,-0.70201 0,0 0.72061,-0.38587 1.49354,-0.85777 0.77874,-0.47189 1.81431,-1.07743 2.30247,-1.34722 0.48816,-0.26969 2.01076,-1.14253 3.38459,-1.94018 1.37382,-0.79734 2.82554,-1.63266 3.22418,-1.85537 0.39519,-0.22203 2.06654,-1.18553 3.70652,-2.13955 1.64002,-0.95421 3.1998,-1.85919 3.46596,-2.01156 0.26723,-0.15223 1.24481,-0.71364 2.17585,-1.24691 0.9298,-0.53349 2.0188,-1.14949 2.4175,-1.36952 0.3952,-0.21957 1.7051,-0.98096 2.9011,-1.69112 1.1971,-0.71016 2.5035,-1.47331 2.9022,-1.69555 0.3952,-0.22203 1.8492,-1.05652 3.223,-1.85337 1.375,-0.79734 2.8255,-1.63128 3.2242,-1.85362 0.3952,-0.22203 1.8132,-1.04025 3.1428,-1.81653 1.3297,-0.7764 2.6721,-1.56015 2.9824,-1.74076 0.3139,-0.1802 0.7788,-0.43702 1.0461,-0.56836 0.2672,-0.13254 2.3699,-1.3292 4.6747,-2.65978 2.3048,-1.33059 4.8433,-2.79494 5.6418,-3.25429 0.8019,-0.4591 2.4303,-1.40079 3.6263,-2.09222 1.1971,-0.69156 2.4117,-1.3916 2.7,-1.55606 0.2906,-0.16514 0.7555,-0.43471 1.046,-0.60207 4.6364,-2.67952 11.9193,-6.89177 12.2912,-7.10737 2.1793,-1.26782 3.8216,-2.21278 4.4318,-2.55111 0.3952,-0.2208 1.3064,-0.74156 2.0154,-1.1565 2.5222,-1.47702 4.3621,-2.54363 5.0769,-2.94347 0.5928,-0.32893 5.5162,-3.17433 9.7516,-5.63035 0.4416,-0.25678 1.046,-0.58697 1.3296,-0.73341 l 0.523,-0.26601 v -39.91698 c 0,-21.95442 0,-39.96578 0.1163,-40.02531 0.1162,-0.0581 0.2789,0.003 0.4881,0.14299 0.7439,0.48933 3.158,1.84618 3.28,1.84618 0.1162,0 0.151,0.0581 0.1744,0.12085 0,0.11625 1.1158,0.73224 1.8666,1.08094 0.1977,0.0929 0.3603,0.22203 0.3603,0.28938 0,0.0698 0.1162,0.12086 0.151,0.12086 0.1162,0 1.0693,0.54397 2.192,1.20889 1.1273,0.66484 2.0724,1.2089 2.1096,1.2089 0,0 0.5464,0.28938 1.1273,0.64506 0.5813,0.35451 1.0927,0.64509 1.1274,0.64509 0,0 0.465,0.25463 0.9533,0.56372 0.4881,0.31032 0.918,0.56368 0.953,0.56368 0,0 0.5462,0.28938 1.1274,0.64509 0.5812,0.35448 1.0809,0.64506 1.1157,0.64506 0,0 0.9764,0.54394 2.105,1.2089 1.1274,0.66483 2.0653,1.20889 2.0945,1.20889 0,0 0.5345,0.28938 1.1157,0.64506 0.5812,0.35451 1.1274,0.64509 1.2123,0.64509 0.1168,0 0.1752,0.0581 0.2091,0.12086 0,0.0698 0.3139,0.25924 0.6159,0.4289 0.314,0.16975 1.2683,0.69038 2.1284,1.15763 0.8601,0.46722 2.1105,1.1803 2.7778,1.58546 0.6624,0.40565 1.2495,0.73691 1.2935,0.73691 0,0 0.5347,0.27769 1.0926,0.61717 0.5578,0.33938 1.3368,0.80198 1.7353,1.02629 0.3952,0.22541 1.3657,0.78104 2.149,1.23599 0.779,0.45443 1.4564,0.82637 1.497,0.82637 0,0 0.163,0.0815 0.2676,0.16729 0.1168,0.0929 0.8484,0.53583 1.6458,0.98564 0.802,0.44981 2.1213,1.21087 2.9405,1.69146 l 1.4912,0.87404 v 80.5825 l -0.3601,0.002 c -0.1968,0.002 -0.651,0.17191 -1.0111,0.3789 -1.5564,0.91008 -14.917,8.61931 -16.0385,9.25449 -0.3952,0.22542 -1.4389,0.83452 -2.312,1.35162 -0.8715,0.51722 -1.612,0.94028 -1.6446,0.94028 0,0 -0.4416,0.23003 -0.9066,0.5091 -1.2876,0.76942 -11.8469,6.87246 -12.8617,7.43467 -0.4882,0.2697 -1.3471,0.76829 -1.9108,1.10883 -0.5579,0.34055 -1.0461,0.61834 -1.0693,0.61834 0,0 -0.616,0.33704 -1.3122,0.74851 -0.6974,0.41143 -1.4808,0.87287 -1.747,1.02512 -0.2672,0.15222 -1.2088,0.69623 -2.0944,1.2104 -0.8833,0.51375 -1.8294,1.05886 -2.0956,1.21133 -0.2673,0.15222 -3.2765,1.89046 -6.6901,3.86207 -3.4125,1.97168 -6.5321,3.76696 -6.9307,3.98954 -0.3952,0.22203 -1.3774,0.78455 -2.1758,1.24992 -0.802,0.46491 -2.3211,1.35233 -3.3846,1.97229 -1.9538,1.13786 -3.7193,2.15801 -4.7549,2.7446 -0.3138,0.17683 -2.6675,1.53506 -5.2385,3.02045 -2.5709,1.48539 -5.0013,2.88434 -5.3999,3.10864 -0.3952,0.22419 -1.1867,0.68691 -1.7493,1.02746 -0.5579,0.34055 -1.0577,0.61951 -1.0925,0.61951 0,0 -0.5928,0.3173 -1.232,0.70317 -0.6393,0.38705 -1.6737,0.99145 -2.2944,1.3443 -0.616,0.35218 -4.6817,2.69257 -9.0263,5.20032 -4.3435,2.50787 -8.2243,4.74318 -8.623,4.96749 -0.3952,0.22418 -0.9763,0.56605 -1.2902,0.76013 -1.7411,1.08558 -2.5791,1.42591 -2.5791,1.04723 z M 857.16328,460.23258 c -0.84845,-0.50674 -1.8573,-1.10416 -2.25714,-1.32976 -0.39517,-0.22541 -3.5171,-2.02367 -6.93071,-3.99701 -3.41247,-1.97321 -6.60412,-3.80915 -7.09228,-4.07974 -0.48816,-0.27092 -1.52377,-0.87751 -2.30247,-1.34928 -0.77874,-0.47189 -1.4424,-0.85777 -1.47611,-0.85777 0,0 -0.79036,-0.43471 -1.68881,-0.96703 -0.89495,-0.53115 -1.65625,-0.967 -1.68996,-0.967 0,0 -0.52303,-0.27892 -1.08094,-0.6195 -0.5579,-0.34055 -1.35057,-0.80316 -1.74924,-1.02746 -0.39517,-0.22449 -2.82785,-1.62396 -5.39999,-3.11031 -2.57097,-1.48631 -5.68939,-3.28159 -6.9307,-3.98954 -1.24131,-0.70782 -2.76392,-1.59327 -3.38459,-1.96715 -0.61599,-0.37425 -1.45516,-0.86358 -1.85383,-1.08675 -0.39519,-0.22418 -2.18743,-1.25085 -3.97385,-2.2819 -1.78646,-1.03097 -3.32763,-1.87456 -3.42527,-1.87456 -0.12793,0 -0.17437,-11.03022 -0.17437,-39.69185 v -39.68901 l 1.02282,-0.59742 c 0.55788,-0.32893 1.44935,-0.82871 1.97121,-1.11114 0.52304,-0.2823 1.02282,-0.56836 1.11581,-0.6346 0.11625,-0.0698 0.41842,-0.26262 0.72062,-0.43819 0.31383,-0.17436 1.28898,-0.73688 2.17581,-1.25096 0.88332,-0.51375 1.93868,-1.11465 2.33735,-1.33582 0.73224,-0.40331 2.06307,-1.18171 4.7549,-2.77172 0.80198,-0.47186 1.84921,-1.07626 2.33737,-1.34371 0.87171,-0.48002 2.75346,-1.57977 3.22418,-1.88616 0.12793,-0.0812 0.34867,-0.20696 0.48816,-0.26723 0.12793,-0.0581 0.60438,-0.32542 1.04607,-0.58928 0.44166,-0.26385 1.24014,-0.70782 1.77246,-0.98911 0.53466,-0.28015 2.12817,-1.18448 3.54616,-2.00901 1.41915,-0.8252 2.90571,-1.68368 3.30438,-1.90915 0.39516,-0.22542 1.43425,-0.83339 2.3013,-1.35011 0.87174,-0.51723 1.60862,-0.94031 1.64814,-0.94031 0,0 0.54628,-0.28938 1.12743,-0.64506 0.58112,-0.35451 1.08091,-0.64506 1.11578,-0.64506 0,0 0.97632,-0.54397 2.09791,-1.2088 1.11581,-0.6648 2.06541,-1.20899 2.1084,-1.20899 0,0 0.3487,-0.16976 0.68574,-0.37776 0.81361,-0.50791 2.41642,-1.39544 2.52682,-1.39544 0,0 0.11624,17.75254 0.11624,39.45009 v 39.4501 l 0.44166,0.25556 c 2.63955,1.53025 4.9281,2.84574 5.51971,3.17316 0.88332,0.49046 2.45008,1.40971 3.26019,1.91647 0.32545,0.20696 0.62765,0.37542 0.66252,0.37542 0,0 0.54628,0.28938 1.12741,0.64506 0.58115,0.35451 1.10418,0.64509 1.15068,0.64509 0,0 0.38354,0.18728 0.74384,0.41724 0.36032,0.22911 3.24512,1.90698 6.40419,3.7284 3.15911,1.82142 6.68666,3.85659 7.83848,4.52269 1.15066,0.66599 2.4222,1.39147 2.82087,1.61208 0.88332,0.4905 2.45125,1.40975 3.26136,1.91651 0.33707,0.20696 0.6509,0.37542 0.69739,0.37542 0,0 0.29061,0.13377 0.53463,0.29738 0.23249,0.1639 0.82523,0.51722 1.31339,0.78571 0.48816,0.26847 2.22926,1.26828 3.86927,2.22219 1.63998,0.9542 3.27182,1.89903 3.62633,2.10024 0.34866,0.20112 1.80503,1.03558 3.22418,1.85384 1.41798,0.81825 3.34042,1.92207 4.27141,2.45254 2.2188,1.26435 2.17811,1.22818 1.78409,1.59466 -0.17437,0.16514 -0.34867,0.2986 -0.38354,0.2986 -0.11625,0 -2.22926,1.23679 -3.41482,1.94569 -0.26723,0.1593 -0.84845,0.48465 -1.29011,0.72292 -0.44169,0.23956 -0.99957,0.5707 -1.23319,0.73575 -0.23249,0.16606 -0.46491,0.30229 -0.51141,0.30229 0,0 -0.99957,0.54394 -2.12233,1.20887 -1.12744,0.66483 -2.08051,1.2089 -2.12701,1.2089 0,0 -0.27892,0.13377 -0.5114,0.29768 -0.23249,0.16391 -0.82521,0.51605 -1.31454,0.78338 -0.48816,0.266 -1.71203,0.96703 -2.71975,1.55584 -1.01119,0.58927 -1.89802,1.07045 -1.97472,1.07045 -0.11624,0 -0.13961,0.0698 -0.13961,0.16145 0,0.0929 -0.11624,0.16145 -0.15099,0.16145 -0.11625,0 -1.46913,0.7613 -3.08005,1.69241 -1.61095,0.931 -2.99289,1.69242 -3.07309,1.69242 -0.11625,0 -0.13962,0.0698 -0.13962,0.16145 0,0.0929 -0.11624,0.16145 -0.1393,0.16145 -0.13931,0 -2.33271,1.23445 -3.52639,1.98772 -0.37191,0.23587 -0.72061,0.43004 -0.76711,0.43004 0,0 -0.55787,0.29061 -1.1274,0.64509 -0.58116,0.35448 -1.08094,0.64506 -1.11581,0.64506 0,0 -0.97632,0.54394 -2.10373,1.2089 -1.1274,0.66483 -2.10954,1.20889 -2.19207,1.20889 -0.11625,0 -0.151,0.0698 -0.151,0.14177 0,0.0815 -0.12793,0.18236 -0.27892,0.23249 -0.30229,0.0929 -1.21692,0.60554 -4.05058,2.26123 -1.01119,0.58928 -1.89104,1.07163 -1.96193,1.07163 -0.11624,0 -0.15099,0.0581 -0.18605,0.12085 0,0.0698 -0.3487,0.27554 -0.6974,0.46491 l -0.63924,0.34286 -1.53072,-0.92054 z m 109.9279,0.37542 c -0.39519,-0.23003 -1.37846,-0.79965 -2.17581,-1.26736 -0.80198,-0.46725 -1.70391,-0.99376 -2.01423,-1.1696 -0.73224,-0.41377 -2.29088,-1.31582 -4.11101,-2.37794 -0.80199,-0.46491 -1.77714,-1.0286 -2.17581,-1.25013 -0.39516,-0.22204 -2.06771,-1.1839 -3.70653,-2.13734 -1.64115,-0.95307 -3.30902,-1.9166 -3.70769,-2.14057 -0.39517,-0.22418 -1.85036,-1.05769 -3.22418,-1.85361 -1.37382,-0.79501 -2.75229,-1.58943 -3.06264,-1.76438 -0.31379,-0.17436 -1.21689,-0.70084 -2.01424,-1.16821 -0.80195,-0.46722 -1.70505,-0.9949 -2.0154,-1.17215 -0.31379,-0.17683 -3.35669,-1.93545 -6.76913,-3.90737 -3.41365,-1.97183 -6.53207,-3.76815 -6.93074,-3.99166 -1.09253,-0.61135 -3.63912,-2.09432 -4.95482,-2.88397 -0.63925,-0.38471 -1.19598,-0.6997 -1.23319,-0.6997 0,0 -0.77874,-0.42306 -1.65508,-0.94028 -0.87173,-0.51722 -1.91313,-1.1251 -2.3118,-1.35024 -0.39516,-0.22541 -3.51823,-2.02343 -6.9307,-3.99627 -3.41365,-1.97266 -6.53207,-3.76942 -6.93071,-3.99271 -0.3952,-0.22326 -1.43545,-0.82987 -2.30367,-1.34919 -0.87171,-0.51835 -1.60394,-0.94261 -1.63534,-0.94261 0,0 -0.53463,-0.28938 -1.11578,-0.64506 -0.58116,-0.35448 -1.09257,-0.64506 -1.12744,-0.64506 0,0 -0.77871,-0.42308 -1.65508,-0.9403 -0.8717,-0.51723 -1.91312,-1.12507 -2.31296,-1.35033 -0.39517,-0.22542 -2.57445,-1.47983 -4.8351,-2.78775 -7.15505,-4.14007 -8.28362,-4.79026 -9.02632,-5.20228 -0.39516,-0.2208 -1.23319,-0.70782 -1.85269,-1.07977 -0.616,-0.37308 -1.45516,-0.86007 -1.85383,-1.08441 -0.3952,-0.22418 -2.57565,-1.47795 -4.83627,-2.78633 -2.26065,-1.30841 -4.40623,-2.54659 -4.76886,-2.75161 -0.36032,-0.2045 -1.45055,-0.83219 -2.41758,-1.39289 l -1.75853,-1.02048 v -39.11616 -39.11607 l 1.09256,-0.59973 c 0.59275,-0.33009 1.2692,-0.72295 1.4912,-0.87287 0.2208,-0.15007 0.90658,-0.54745 1.53072,-0.88336 0.61603,-0.33587 1.32154,-0.74386 1.55631,-0.90774 0.23248,-0.16391 0.46491,-0.29737 0.5114,-0.29737 0,0 0.99957,-0.54398 2.11538,-1.2089 1.11578,-0.66483 2.10142,-1.2089 2.18627,-1.2089 0.11624,0 0.15099,-0.0581 0.16268,-0.12085 0,-0.0698 0.16268,-0.19866 0.36029,-0.29522 0.59278,-0.28938 2.03053,-1.0937 3.95645,-2.22252 0.99957,-0.58811 1.89101,-1.06932 1.97589,-1.06932 0.11624,0 0.15099,-0.0698 0.15099,-0.16145 0,-0.0929 0.11624,-0.16145 0.13931,-0.16145 0.11624,0 0.96469,-0.48001 1.97475,-1.06811 3.04286,-1.77286 3.75533,-2.17058 4.04938,-2.26462 0.15099,-0.0464 0.27892,-0.15468 0.27892,-0.23249 0,-0.0815 0.11624,-0.14176 0.13962,-0.14176 0.1393,0 2.33384,-1.23446 3.52635,-1.98773 0.37194,-0.2371 0.70902,-0.43007 0.74386,-0.43007 0,0 0.54628,-0.29061 1.12744,-0.64506 0.58112,-0.35451 1.09253,-0.64505 1.1274,-0.64505 0,0 0.97632,-0.54398 2.09794,-1.2089 1.11578,-0.66483 2.10373,-1.2089 2.19208,-1.2089 0.11624,0 0.16268,-0.0698 0.16268,-0.16145 0,-0.0929 0.11624,-0.16145 0.13961,-0.16145 0.11625,0 1.46448,-0.7613 3.08355,-1.69254 1.61674,-0.93099 3.00452,-1.69238 3.08125,-1.69238 0.11624,0 0.1393,-0.0698 0.1393,-0.16145 0,-0.0929 0.11625,-0.16145 0.16268,-0.16145 0.11625,0 0.51141,-0.21742 0.94145,-0.48351 0.43007,-0.26601 0.87173,-0.48352 0.97635,-0.48352 0.13931,0 0.18605,9.8993 0.18605,38.88592 v 38.88592 l 5.67891,3.26846 c 6.89934,3.9706 6.06715,3.48917 8.55094,4.94772 1.13906,0.66717 2.10376,1.21308 2.15139,1.21308 0,0 0.27893,0.13377 0.51141,0.29768 0.23249,0.16391 0.82524,0.51722 1.31457,0.78455 0.48816,0.26724 1.53886,0.86589 2.33734,1.3308 0.80199,0.46377 1.73996,1.00888 2.09444,1.20982 0.3487,0.20112 2.49545,1.43603 4.75493,2.74441 2.26179,1.30851 4.4376,2.5627 4.83627,2.78738 0.39516,0.22449 1.43889,0.83222 2.31179,1.34919 0.8717,0.51722 1.6144,0.94028 1.6481,0.94028 0,0 0.76712,0.42309 1.63768,0.94031 0.8717,0.51722 1.9015,1.12393 2.30017,1.34882 0.39516,0.22418 2.57561,1.47936 4.83627,2.78786 2.25948,1.30851 4.50851,2.59958 4.99667,2.86912 0.48816,0.2697 1.17624,0.67178 1.53072,0.89378 0.3487,0.22203 1.15065,0.67181 1.77249,0.99957 0.616,0.32775 2.97893,1.66615 5.23959,2.97499 6.81215,3.94458 8.26734,4.78338 9.02514,5.20275 0.88336,0.49049 2.45128,1.40974 3.26139,1.9165 0.33704,0.20696 0.65087,0.37539 0.69737,0.37539 0,0 0.2906,0.135 0.53465,0.29768 0.23249,0.16391 0.82521,0.51722 1.31453,0.78572 0.48816,0.26847 2.22812,1.26828 3.8681,2.22228 1.63999,0.95423 3.30786,1.91767 3.7077,2.14164 0.39516,0.22418 1.84919,1.05766 3.22301,1.85361 3.54615,2.05329 6.60876,3.82124 7.17248,4.1418 0.53466,0.30352 3.00916,1.73774 4.51316,2.61676 0.53465,0.31035 1.29366,0.74737 1.69226,0.97051 0.3952,0.22326 2.0677,1.18531 3.7077,2.13875 1.64,0.95307 3.2358,1.87557 3.5461,2.04945 2.4048,1.34755 3.7066,2.15849 3.7066,2.30736 0,0.0929 -0.2325,0.29645 -0.5231,0.44634 -0.2906,0.14884 -0.7438,0.40097 -1.0111,0.56021 -0.2673,0.1593 -1.0228,0.59742 -1.6923,0.97515 -0.6625,0.37659 -1.3169,0.75432 -1.4506,0.83917 -0.2324,0.14761 -2.392,1.3851 -3.8681,2.21812 -0.3951,0.22541 -1.4342,0.83218 -2.3013,1.34928 -0.86007,0.51722 -1.60858,0.94031 -1.64927,0.94031 0,0 -0.54628,0.28938 -1.1274,0.64506 -0.58116,0.35451 -1.08094,0.64505 -1.12744,0.64505 0,0 -0.72061,0.3952 -1.52143,0.87871 -0.80195,0.48352 -1.76201,1.04721 -2.1409,1.2526 -0.38358,0.20573 -1.2367,0.69156 -1.90153,1.08091 -2.11535,1.23691 -4.09241,2.3741 -4.6747,2.6886 -0.31383,0.16729 -0.59278,0.35915 -0.61603,0.42539 0,0.0698 -0.11624,0.12086 -0.17436,0.12086 -0.11625,0 -1.45984,0.77059 -3.08936,1.71286 -1.6307,0.94262 -3.29042,1.89652 -3.68909,2.12095 -0.39517,0.22418 -0.97632,0.56602 -1.29015,0.76013 -0.31379,0.19282 -0.89495,0.53466 -1.28898,0.7578 -0.39516,0.22326 -0.97632,0.55209 -1.29011,0.7311 -3.61473,2.08164 -4.88394,2.8161 -5.60338,3.24241 -1.18439,0.70088 -1.45289,0.72994 -2.29436,0.2451 z m 43.27072,-31.46426 c -0.4416,-0.23587 -0.8252,-0.48465 -0.8484,-0.55092 0,-0.0698 -0.1163,-0.12086 -0.1978,-0.12086 -0.1162,0 -0.9647,-0.48238 -1.9607,-1.07165 -2.7117,-1.59361 -3.7263,-2.16138 -4.0401,-2.26133 -0.151,-0.0464 -0.279,-0.15345 -0.279,-0.23249 0,-0.0815 -0.1162,-0.14176 -0.151,-0.14176 -0.1162,0 -1.0693,-0.54395 -2.192,-1.2089 -1.12744,-0.66483 -2.06424,-1.2089 -2.09097,-1.2089 0,0 -0.5114,-0.27892 -1.06931,-0.6195 -0.55791,-0.34055 -1.3494,-0.80312 -1.74808,-1.02629 -0.39519,-0.22419 -1.36684,-0.77991 -2.14908,-1.23412 -0.77874,-0.45445 -1.49003,-0.8264 -1.5714,-0.8264 -0.11625,0 -0.151,-0.0698 -0.151,-0.16145 0,-0.0929 -0.11624,-0.16145 -0.13961,-0.16145 -0.11624,0 -1.46098,-0.7613 -3.07193,-1.69251 -1.61092,-0.93099 -2.99753,-1.69241 -3.08004,-1.69241 -0.11624,0 -0.15099,-0.0698 -0.15099,-0.16145 0,-0.0929 -0.11625,-0.16145 -0.13931,-0.16145 -0.11624,0 -0.9647,-0.48118 -1.97472,-1.06931 -1.01119,-0.58811 -2.05145,-1.19469 -2.31761,-1.34753 -0.26723,-0.15345 -0.8717,-0.5056 -1.33661,-0.78455 -0.46494,-0.27769 -0.88335,-0.5056 -0.9066,-0.5056 0,0 -0.97632,-0.54394 -2.10025,-1.20889 -1.12741,-0.66483 -2.08048,-1.2089 -2.12698,-1.2089 0,0 -0.27892,-0.13593 -0.5114,-0.3023 -0.23249,-0.16606 -0.79036,-0.49744 -1.2332,-0.73571 -0.44166,-0.23956 -1.02281,-0.56372 -1.29014,-0.72295 -1.56212,-0.93447 -3.36715,-1.94566 -3.47174,-1.94566 -0.11624,0 -0.16267,-0.10456 -0.20911,-0.22203 -0.11624,-0.23003 0.16268,-0.58346 0.41841,-0.58346 0.11625,0 0.81361,-0.39052 1.62138,-0.86823 0.81361,-0.47653 1.83643,-1.06814 2.28043,-1.31315 0.74386,-0.40798 2.13512,-1.21913 4.43295,-2.57284 0.48816,-0.28692 1.21225,-0.70435 1.61092,-0.92635 0.3952,-0.22203 3.51823,-2.01762 6.93188,-3.99037 3.41247,-1.97272 6.53089,-3.77102 6.9307,-3.99627 0.3952,-0.22542 1.43893,-0.83336 2.3118,-1.35024 0.87173,-0.51722 1.61673,-0.94028 1.65511,-0.94028 0,0 0.59275,-0.31499 1.23316,-0.6997 1.32966,-0.79848 3.88094,-2.28273 4.95364,-2.88339 0.3952,-0.22326 2.8291,-1.6222 5.4,-3.10901 4.7259,-2.73288 7.205,-4.16286 8.3813,-4.83418 0.3487,-0.20235 1.3947,-0.8101 2.3106,-1.35162 0.9182,-0.54163 1.6969,-0.9833 1.7365,-0.9833 0,0 0.3603,-0.19066 0.709,-0.42422 l 0.6392,-0.42426 v -39.30747 c 0,-33.63726 0,-39.30747 0.2325,-39.30747 0.2325,0 1.4064,0.64041 4.0924,2.23402 0.4649,0.27769 0.8833,0.50677 0.9066,0.50677 0,0 0.9763,0.54394 2.0991,1.20877 1.1274,0.66483 2.0805,1.2089 2.1269,1.2089 0,0 0.279,0.13592 0.5115,0.30229 0.2324,0.16606 0.7903,0.49745 1.2343,0.73572 0.4417,0.23956 1.0228,0.56372 1.289,0.72295 1.6446,0.9833 3.3706,1.94578 3.488,1.94578 0.1162,0 0.1396,0.0698 0.1396,0.16145 0,0.0929 0.1163,0.16145 0.1627,0.16145 0.1162,0 0.7555,0.35334 1.4901,0.78455 0.7322,0.4312 2.027,1.19309 2.8778,1.6925 0.8484,0.49862 1.6295,0.90775 1.7318,0.90775 0.1162,0 0.186,0.0698 0.186,0.16145 0,0.0929 0.1163,0.16144 0.1396,0.16144 0.1163,0 1.0693,0.54398 2.1874,1.20903 1.1275,0.66483 2.0666,1.20889 2.0957,1.20889 0,0 0.5346,0.28938 1.1158,0.64506 0.5811,0.35451 1.0925,0.64509 1.1274,0.64509 0,0 0.9879,0.54394 2.1084,1.2089 1.1274,0.6648 2.1049,1.20886 2.1792,1.20886 0.1163,0 0.1627,0.0581 0.1861,0.12086 0,0.11624 1.1158,0.73224 1.8655,1.08094 0.1977,0.0929 0.3603,0.22203 0.3603,0.28815 0,0.0698 0.1162,0.12085 0.151,0.12085 0.1162,0 0.9414,0.47189 1.9224,1.04721 0.9763,0.57651 1.8538,1.04723 1.948,1.04723 0.1163,0 0.1744,0.0698 0.1744,0.16145 0,0.0929 0.1162,0.16145 0.151,0.16145 0.1162,0 0.8484,0.40912 1.6923,0.91008 l 1.5412,0.91005 v 79.04116 l -0.4417,0.22665 c -0.2442,0.12423 -1.0809,0.60904 -1.8597,1.07512 -0.7787,0.46608 -1.447,0.84732 -1.4854,0.84732 0,0 -0.8833,0.48001 -1.8887,1.06697 -2.8209,1.65533 -4.6526,2.71892 -5.4453,3.16212 -0.5579,0.31149 -9.2123,5.30712 -12.5318,7.23325 -0.2906,0.16729 -0.7555,0.43819 -1.046,0.60324 -0.2906,0.1639 -1.5029,0.86588 -2.7,1.55698 -1.196,0.69155 -3.1184,1.79817 -4.2714,2.45882 -1.1507,0.66018 -2.1677,1.25515 -2.256,1.32117 -0.1163,0.0698 -0.5579,0.33938 -1.0461,0.60554 -0.4881,0.26724 -2.736,1.55677 -4.9955,2.86527 -2.2606,1.30863 -4.4376,2.56307 -4.8363,2.78787 -0.3951,0.22418 -1.4342,0.83218 -2.3001,1.34873 -0.8717,0.51722 -1.604,0.94028 -1.6377,0.94028 0,0 -0.7787,0.42305 -1.6481,0.94144 -0.8717,0.51722 -1.9887,1.16437 -2.4815,1.43742 l -0.895,0.49628 z"
     id="path4" />
</svg>
