<?xml version="1.0" encoding="UTF-8" standalone="no"?>
<!-- Created with Inkscape (http://www.inkscape.org/) -->

<svg
   xmlns:dc="http://purl.org/dc/elements/1.1/"
   xmlns:cc="http://creativecommons.org/ns#"
   xmlns:rdf="http://www.w3.org/1999/02/22-rdf-syntax-ns#"
   xmlns:svg="http://www.w3.org/2000/svg"
   xmlns="http://www.w3.org/2000/svg"
   xmlns:xlink="http://www.w3.org/1999/xlink"
   xmlns:sodipodi="http://sodipodi.sourceforge.net/DTD/sodipodi-0.dtd"
   xmlns:inkscape="http://www.inkscape.org/namespaces/inkscape"
   version="1.1"
   id="svg2"
   width="1920"
   height="1080"
   viewBox="0 0 1920 1080"
   sodipodi:docname="14.svg"
   inkscape:version="0.92.4 5da689c313, 2019-01-14">
  <metadata
     id="metadata8">
    <rdf:RDF>
      <cc:Work
         rdf:about="">
        <dc:format>image/svg+xml</dc:format>
        <dc:type
           rdf:resource="http://purl.org/dc/dcmitype/StillImage" />
        <dc:title></dc:title>
      </cc:Work>
    </rdf:RDF>
  </metadata>
  <defs
     id="defs6">
    <radialGradient
       gradientUnits="userSpaceOnUse"
       gradientTransform="matrix(0.51896,-0.12191,0.0086537,0.036838,-2385.4,51.82)"
       r="1648.8"
       cy="7733.5"
       cx="1623.1"
       id="radialGradient1895">
      <stop
         id="stop8"
         offset="0"
         stop-color="#4d4d4d" />
      <stop
         id="stop10"
         offset="1"
         stop-color="#1a1a1a" />
    </radialGradient>
    <radialGradient
       xlink:href="#linearGradient1885-3"
       gradientUnits="userSpaceOnUse"
       gradientTransform="matrix(0.59527,-0.21363,0.016254,0.045291,-2568,103.92)"
       r="1653.7"
       cy="7637.2002"
       cx="1476.2"
       id="radialGradient1887" />
    <linearGradient
       id="linearGradient1885-3">
      <stop
         id="stop2"
         offset="0"
         stop-color="#ffe680" />
      <stop
         id="stop4"
         offset="1"
         stop-color="#d4aa00" />
    </linearGradient>
    <radialGradient
       xlink:href="#linearGradient1885-3"
       gradientUnits="userSpaceOnUse"
       gradientTransform="matrix(0.57052,-0.29723,0.030608,0.05875,-2637.2,162.14)"
       r="1339.8"
       cy="7557.2998"
       cx="1635.4"
       id="radialGradient1913" />
    <radialGradient
       gradientUnits="userSpaceOnUse"
       gradientTransform="matrix(0.51896,-0.12191,0.0086537,0.036838,-2385.4,51.82)"
       r="1648.8"
       cy="7733.5"
       cx="1623.1"
       id="radialGradient1895-6">
      <stop
         id="stop8-9"
         offset="0"
         stop-color="#4d4d4d" />
      <stop
         id="stop10-1"
         offset="1"
         stop-color="#1a1a1a" />
    </radialGradient>
    <radialGradient
       xlink:href="#linearGradient1885-3"
       gradientUnits="userSpaceOnUse"
       gradientTransform="matrix(0.59527,-0.21363,0.016254,0.045291,-2568,103.92)"
       r="1653.7"
       cy="7637.2002"
       cx="1476.2"
       id="radialGradient1887-9" />
    <radialGradient
       xlink:href="#linearGradient1885-3"
       gradientUnits="userSpaceOnUse"
       gradientTransform="matrix(0.57052,-0.29723,0.030608,0.05875,-2637.2,162.14)"
       r="1339.8"
       cy="7557.2998"
       cx="1635.4"
       id="radialGradient1913-4" />
  </defs>
  <sodipodi:namedview
     pagecolor="#ffffff"
     bordercolor="#666666"
     borderopacity="1"
     objecttolerance="10"
     gridtolerance="10"
     guidetolerance="10"
     inkscape:pageopacity="0"
     inkscape:pageshadow="2"
     inkscape:window-width="1366"
     inkscape:window-height="674"
     id="namedview4"
     showgrid="false"
     inkscape:zoom="0.28136957"
     inkscape:cx="626.78795"
     inkscape:cy="588.32126"
     inkscape:window-x="0"
     inkscape:window-y="26"
     inkscape:window-maximized="1"
     inkscape:current-layer="svg2">
    <sodipodi:guide
       position="0,1080"
       orientation="1080,0"
       id="guide819"
       inkscape:locked="false" />
    <sodipodi:guide
       position="0,0"
       orientation="0,1920"
       id="guide821"
       inkscape:locked="false" />
    <sodipodi:guide
       position="1920,0"
       orientation="-1080,0"
       id="guide823"
       inkscape:locked="false" />
    <sodipodi:guide
       position="1920,1080"
       orientation="0,-1920"
       id="guide825"
       inkscape:locked="false" />
    <sodipodi:guide
       position="472.46017,811.26938"
       orientation="543.54916,0"
       id="guide829"
       inkscape:locked="false" />
    <sodipodi:guide
       position="472.46017,267.72021"
       orientation="0,965.86075"
       id="guide831"
       inkscape:locked="false" />
    <sodipodi:guide
       position="1438.3209,267.72021"
       orientation="-543.54916,0"
       id="guide833"
       inkscape:locked="false" />
    <sodipodi:guide
       position="1438.3209,811.26938"
       orientation="0,-965.86075"
       id="guide835"
       inkscape:locked="false" />
  </sodipodi:namedview>
  <rect
     y="4.4183535e-06"
     x="0.00010052939"
     height="1080"
     width="1920"
     id="rect1355"
     style="opacity:1;fill:#f2f2f2;fill-opacity:1;fill-rule:nonzero;stroke:none;stroke-width:37.79527664;stroke-linecap:round;stroke-linejoin:round;stroke-miterlimit:4;stroke-dasharray:none;stroke-dashoffset:0;stroke-opacity:1;paint-order:markers fill stroke" />
  <g
     id="g935"
     transform="matrix(0.81072757,0,0,0.81072757,6432.5443,-27.832963)"
     style="stroke-width:4.66189623">
    <g
       transform="translate(-6081.3386,432.62954)"
       id="g1041"
       style="stroke-width:4.66189623">
      <path
         inkscape:connector-curvature="0"
         style="opacity:1;vector-effect:none;fill:#0088aa;fill-opacity:1;fill-rule:nonzero;stroke:none;stroke-width:93.23791504;stroke-linecap:square;stroke-linejoin:miter;stroke-miterlimit:19;stroke-dasharray:none;stroke-dashoffset:0;stroke-opacity:1;paint-order:markers stroke fill"
         d="M 604.41406,170.03711 0.77929688,496.11914 V 1148.2852 L 604.41406,1474.3672 1208.0488,1148.2852 V 496.11914 l -299.84372,-161.97461 -33.375,19.26758 298.69722,161.35742 V 1129.6367 L 604.41406,1437.0703 35.300781,1129.6367 V 514.76953 l 569.113279,-307.43555 56.40039,30.4668 33.375,-19.26758 z"
         transform="matrix(0.26458333,0,0,0.26458333,-1260.2725,50.228715)"
         id="path1012" />
      <g
         id="g1021"
         style="stroke-width:4.66189623">
        <path
           inkscape:connector-curvature="0"
           id="rect836"
           transform="matrix(0.26458333,0,0,0.26458333,-1260.2725,50.228715)"
           d="M 604.41211,270.36523 76.410156,575.20703 v 214.43359 l 29.267574,7.8418 602.30079,-347.73828 z"
           style="opacity:1;vector-effect:none;fill:#006680;fill-opacity:1;fill-rule:nonzero;stroke:none;stroke-width:93.23791504;stroke-linecap:square;stroke-linejoin:miter;stroke-miterlimit:19;stroke-dasharray:none;stroke-dashoffset:0;stroke-opacity:1;paint-order:markers stroke fill" />
        <path
           id="rect838"
           d="m -1240.0554,270.73878 v 63.28141 l 139.701,80.65606 27.4014,-47.46068 z"
           style="opacity:1;vector-effect:none;fill:#006680;fill-opacity:1;fill-rule:nonzero;stroke:none;stroke-width:24.66919899;stroke-linecap:square;stroke-linejoin:miter;stroke-miterlimit:19;stroke-dasharray:none;stroke-dashoffset:0;stroke-opacity:1;paint-order:markers stroke fill"
           inkscape:connector-curvature="0" />
        <path
           inkscape:connector-curvature="0"
           id="rect840"
           transform="matrix(0.26458333,0,0,0.26458333,-1260.2725,50.228715)"
           d="m 1103.1504,850.32031 -602.30274,347.74019 103.5664,179.379 528.00194,-304.8418 V 858.16211 Z"
           style="opacity:1;vector-effect:none;fill:#0088aa;fill-opacity:1;fill-rule:nonzero;stroke:none;stroke-width:93.23791504;stroke-linecap:square;stroke-linejoin:miter;stroke-miterlimit:19;stroke-dasharray:none;stroke-dashoffset:0;stroke-opacity:1;paint-order:markers stroke fill" />
        <path
           id="path863"
           d="m -1008.1145,298.14021 -147.0433,84.89558 54.8029,31.64046 v 0 l 139.70049,-80.65606 z"
           style="fill:#0088aa;stroke:none;stroke-width:1.23345995px;stroke-linecap:butt;stroke-linejoin:miter;stroke-opacity:1"
           inkscape:connector-curvature="0" />
        <path
           id="rect842"
           d="m -1240.0554,202.41892 v 56.73607 l 279.40152,74.8652 v -56.73607 z"
           style="opacity:1;vector-effect:none;fill:#00aad4;fill-opacity:1;fill-rule:nonzero;stroke:none;stroke-width:24.66919899;stroke-linecap:square;stroke-linejoin:miter;stroke-miterlimit:19;stroke-dasharray:none;stroke-dashoffset:0;stroke-opacity:1;paint-order:markers stroke fill"
           inkscape:connector-curvature="0" />
        <rect
           transform="rotate(-30)"
           style="opacity:1;vector-effect:none;fill:#006680;fill-opacity:1;fill-rule:nonzero;stroke:none;stroke-width:24.66919899;stroke-linecap:square;stroke-linejoin:miter;stroke-miterlimit:19;stroke-dasharray:none;stroke-dashoffset:0;stroke-opacity:1;paint-order:markers stroke fill"
           id="rect859"
           width="46.882431"
           height="30.826803"
           x="-1037.2578"
           y="-432.2326" />
        <rect
           y="-424.46469"
           x="-1001.5391"
           height="14.681212"
           width="22.327679"
           id="rect861"
           style="opacity:1;vector-effect:none;fill:#006680;fill-opacity:1;fill-rule:nonzero;stroke:none;stroke-width:24.66919899;stroke-linecap:square;stroke-linejoin:miter;stroke-miterlimit:19;stroke-dasharray:none;stroke-dashoffset:0;stroke-opacity:1;paint-order:markers stroke fill"
           transform="rotate(-30)" />
      </g>
    </g>
    <g
       id="g976"
       transform="translate(-6081.3386,455.77542)"
       style="stroke-width:4.66189623">
      <path
         inkscape:connector-curvature="0"
         style="font-style:normal;font-variant:normal;font-weight:900;font-stretch:normal;font-size:medium;line-height:1.25;font-family:SST;-inkscape-font-specification:'SST Heavy';letter-spacing:0px;word-spacing:0px;fill:#006680;fill-opacity:1;stroke:none;stroke-width:4.66189337"
         d="m -3209.6406,381.25977 c -30.7332,0 -60.8267,3.84016 -90.2793,11.52343 -29.4526,7.68328 -56.3435,19.84897 -80.6739,36.4961 -24.3303,16.00683 -43.8596,37.77685 -58.5859,65.30859 -14.086,26.89149 -21.1289,58.58451 -21.1289,95.08008 0,28.17202 4.8021,52.82215 14.4063,73.95117 10.2443,21.12902 24.0114,40.01696 41.2988,56.66406 17.9276,16.00683 38.0963,30.41329 60.5058,43.21875 23.0499,12.16522 47.7,23.37088 73.9512,33.61524 22.4096,8.96383 40.9769,16.96676 55.7031,24.00976 15.3666,7.04303 27.5323,14.40657 36.4961,22.08985 9.6041,7.043 16.647,14.72527 21.1289,23.04882 4.482,7.68328 6.7227,16.6482 6.7227,26.89258 0,20.48875 -8.6443,36.17396 -25.9316,47.0586 -16.6471,10.88466 -43.2174,16.32812 -79.7129,16.32812 -24.3304,0 -51.8626,-2.5614 -82.5957,-7.68359 -30.0929,-5.12219 -61.1465,-13.12513 -93.1602,-24.00977 l -26.8906,134.45704 c 34.5747,10.8847 70.4305,18.5669 107.5664,23.0488 37.1358,5.1222 71.709,7.6836 103.7226,7.6836 36.4956,0 70.4314,-4.1608 101.8047,-12.4844 32.0137,-8.9638 60.1853,-22.0895 84.5157,-39.3769 24.3303,-17.2874 43.5389,-38.73673 57.625,-64.34767 14.086,-26.25121 21.1289,-56.66354 21.1289,-91.23828 0,-31.3734 -4.8022,-58.26621 -14.4063,-80.67578 -8.9638,-22.40955 -22.4102,-41.61619 -40.3379,-57.62305 -17.2874,-16.6471 -37.1354,-30.73485 -59.5449,-42.25976 -21.7693,-12.16519 -46.0987,-24.01025 -72.9902,-35.53516 -42.8984,-17.28738 -73.952,-32.3332 -93.1602,-45.13867 -19.2082,-12.80547 -29.1332,-29.132 -29.7734,-48.98047 0,-11.52491 2.5614,-20.80854 7.6836,-27.85156 5.1222,-7.68328 11.8444,-13.44547 20.1679,-17.28711 8.9639,-4.48192 19.2095,-7.68464 30.7344,-9.60547 12.1652,-1.92081 24.6496,-2.88086 37.4551,-2.88086 22.4096,0 46.0996,1.92008 71.0703,5.76172 24.9707,3.20136 49.3021,8.64485 72.9922,16.32812 l 26.8906,-132.53711 c -24.9706,-7.68327 -53.4629,-13.44547 -85.4766,-17.28711 -31.3734,-3.84163 -64.3471,-5.76171 -98.9218,-5.76171 z m 1002.082,0 c -61.4662,0 -116.5287,8.96296 -165.1894,26.89062 -48.0206,17.92766 -88.0372,42.89845 -120.0508,74.91211 -31.3734,31.37338 -55.3842,68.82859 -72.0313,112.36719 -16.0068,43.53859 -24.0097,91.23944 -24.0097,143.10156 0,51.86215 8.3236,99.24231 24.9707,142.14063 16.6471,42.89831 40.3371,80.03482 71.0703,111.4082 30.7331,30.73312 68.1883,54.74382 112.3672,72.03122 44.8191,17.2874 94.7607,25.9297 149.8242,25.9297 43.5386,0 86.1166,-3.8401 127.7344,-11.5234 41.6177,-7.043 80.3536,-18.5694 116.2089,-34.5762 V 667.46094 h -269.875 v 133.49804 h 101.8028 v 149.82227 c -15.3666,3.84164 -36.4953,5.76367 -63.3867,5.76367 -33.2943,0 -62.7465,-5.44346 -88.3575,-16.32812 -24.9706,-11.52492 -46.0993,-26.89142 -63.3867,-46.09961 -16.6471,-19.84849 -29.4522,-42.57659 -38.416,-68.1875 -8.3236,-26.25122 -12.4863,-54.42473 -12.4863,-84.51758 0,-37.77613 5.1228,-70.74986 15.3672,-98.92188 10.8846,-28.81229 25.6117,-52.50237 44.1796,-71.07031 19.2083,-18.56794 41.9364,-32.65373 68.1875,-42.25781 26.2513,-9.60411 55.0641,-14.40625 86.4375,-14.40625 10.2444,0 23.0495,0.96005 38.4161,2.88086 15.3665,1.92083 30.4143,4.80289 45.1406,8.64453 14.7263,3.84164 27.8501,8.00246 39.375,12.48437 12.1652,4.48192 22.7315,9.60472 31.6953,15.36719 l 44.1777,-133.49609 c -28.8123,-12.80547 -61.1466,-22.40975 -97.0019,-28.8125 -35.8553,-7.043 -70.1098,-10.56445 -102.7637,-10.56445 z m -666.8242,11.52343 v 685.7344 h 168.0723 V 392.7832 Z m 1022.3125,0 v 685.7344 h 152.7051 V 535.88477 h 1.9199 l 124.8535,542.63283 h 209.3691 l 123.8926,-542.63283 h 1.9219 v 542.63283 h 158.4668 V 392.7832 h -282.3594 l -102.7656,524.38477 h -2.8809 L -1571.6309,392.7832 Z m 1084.46678,0 -240.10158,685.7344 h 178.63479 l 49.9414,-148.86526 h 248.7461 l 51.86328,148.86526 h 180.55664 L -536.14453,392.7832 Z m 114.28907,131.57618 84.51562,271.79687 h -170.95312 z"
         transform="scale(0.26458333)"
         id="path941" />
      <path
         inkscape:connector-curvature="0"
         style="font-style:normal;font-variant:normal;font-weight:300;font-stretch:normal;font-size:medium;line-height:1.25;font-family:SST;-inkscape-font-specification:'SST Light';letter-spacing:0px;word-spacing:0px;fill:#0088aa;fill-opacity:1;stroke:none;stroke-width:4.66189337"
         d="m -2259.6641,1134.0078 v 328.4942 h 24.5801 v -44.2461 h 0.8945 c 7.1509,14.3018 17.5793,26.072 31.2852,35.3086 13.7059,9.2365 29.647,14.0028 47.8223,14.3007 15.4936,0 29.199,-3.1277 41.1172,-9.3847 12.2161,-6.2571 22.4951,-14.8976 30.8378,-25.9219 8.6407,-11.3223 15.1967,-24.5817 19.6661,-39.7774 4.4693,-15.1956 6.7031,-31.4334 6.7031,-48.7148 0,-17.2814 -2.2338,-33.3718 -6.7031,-48.2695 -4.1714,-14.8978 -10.4288,-27.8585 -18.7715,-38.8828 -8.0448,-11.3223 -18.1745,-20.1121 -30.3906,-26.3692 -11.9182,-6.257 -25.4762,-9.3847 -40.6719,-9.3847 -18.1752,0.2979 -34.4131,5.3628 -48.7149,15.1953 -14.0038,9.5345 -24.4322,21.7507 -31.2851,36.6484 h -0.8946 v -138.9961 z m -942.789,3.5762 v 30.8379 h 29.0508 v -30.8379 z m 2414.47849,0 v 30.8379 h 29.05078 v -30.8379 z m -2682.80469,5.8086 v 319.1094 h 103.6875 c 16.9834,0 31.732,-2.2339 44.2461,-6.7032 12.812,-4.4693 23.3897,-10.5774 31.7324,-18.3242 8.3427,-7.7468 14.6001,-16.9846 18.7715,-27.7109 4.1714,-11.0243 6.2578,-22.7926 6.2578,-35.3067 0,-12.2161 -1.9371,-22.7938 -5.8105,-31.7324 -3.8734,-8.9386 -8.9383,-16.3866 -15.1953,-22.3457 -6.2571,-5.9591 -13.707,-10.7273 -22.3477,-14.3027 -8.3427,-3.8734 -17.1326,-6.7045 -26.3691,-8.4922 v -0.8926 c 18.1752,-3.8734 32.9238,-11.9186 44.2461,-24.1348 11.3222,-12.5141 16.9843,-28.7519 16.9843,-48.7148 0,-13.7059 -2.2357,-25.6254 -6.705,-35.7559 -4.4694,-10.1304 -11.1727,-18.4723 -20.1114,-25.0273 -8.6407,-6.853 -18.7704,-11.7705 -30.3906,-14.75 -11.3223,-3.2775 -24.1357,-4.916 -38.4375,-4.916 z m 758.5625,0 v 319.1094 h 161.3418 v -22.3458 h -135.4199 v -296.7636 z m -732.6406,22.3476 h 69.2734 c 10.4284,0 20.1122,1.0432 29.0508,3.1289 9.2366,1.7878 17.2818,4.9155 24.1348,9.3848 6.8529,4.4693 12.2164,10.5774 16.0898,18.3242 3.8734,7.7468 5.8106,17.2813 5.8106,28.6035 0,20.8569 -6.8527,36.3501 -20.5586,46.4805 -13.7059,10.1305 -32.9241,15.1953 -57.6543,15.1953 h -66.1465 z m 2110.3066,2.6817 v 58.0996 h -44.2461 v 21.0058 h 44.2461 v 159.1094 c 0,21.1548 3.725,36.3494 11.1738,45.586 7.7469,8.9386 21.6016,13.4082 41.5645,13.4082 5.9591,0 11.6192,-0.446 16.9824,-1.3399 5.6611,-0.5959 10.4293,-1.1931 14.3028,-1.789 v -19.6641 c -4.1714,0.5959 -7.8964,1.0419 -11.1739,1.3398 -3.2775,0.298 -7.8944,0.4473 -13.8535,0.4473 -6.8529,0 -12.3657,-0.446 -16.5371,-1.3398 -4.1714,-1.1919 -7.5977,-3.2783 -10.2793,-6.2579 -2.3836,-2.9795 -4.1715,-7.0011 -5.3633,-12.0664 -0.8938,-5.3631 -1.3418,-12.0685 -1.3418,-20.1132 v -157.3204 h 57.2071 v -21.0058 h -57.2071 v -58.0996 z m 742.9258,52.291 c -16.08955,0 -30.83814,3.277 -44.24609,9.832 -13.11,6.2571 -24.13364,15.0469 -33.07227,26.3692 -8.64068,11.0243 -15.1967,23.985 -19.66602,38.8828 -4.46931,14.5997 -6.70312,30.0929 -6.70312,46.4804 0,17.5794 2.38312,34.1158 7.15039,49.6094 5.06522,15.1957 12.36585,28.4551 21.90039,39.7774 9.83249,11.3222 22.04865,20.112 36.64844,26.3691 14.89771,6.257 31.88012,9.3848 50.94922,9.3848 11.91816,0 23.83767,-1.0413 35.75586,-3.127 12.21614,-2.0857 22.94115,-4.9167 32.17773,-8.4922 l -4.46875,-20.5586 c -8.64068,3.5755 -18.47372,6.4046 -29.49805,8.4903 -11.02432,1.7877 -22.04796,2.6816 -33.07226,2.6816 -15.19569,0 -28.45509,-2.5324 -39.77735,-7.5976 -11.32228,-5.0653 -20.85669,-11.918 -28.60351,-20.5586 -7.44887,-8.6407 -13.25832,-19.0691 -17.42969,-31.2852 -3.87338,-12.2161 -5.95986,-24.5816 -6.25781,-37.0957 h 174.30469 v -14.3008 c 0,-16.9834 -1.93714,-32.4766 -5.81055,-46.4804 -3.57546,-14.0039 -9.23755,-26.0727 -16.98437,-36.2032 -7.74683,-10.1304 -17.72723,-18.0263 -29.94336,-23.6875 -12.21612,-5.6611 -26.66806,-8.4902 -43.35352,-8.4902 z m -2411.3496,0.4473 c -16.9834,0 -32.0306,2.9784 -45.1406,8.9375 -13.11,5.9591 -24.283,14.1536 -33.5196,24.582 -8.9386,10.4284 -15.7913,23.2399 -20.5586,38.4355 -4.7673,15.1957 -7.1503,32.1801 -7.1504,50.9512 1e-4,18.7712 2.3831,35.7536 7.1504,50.9492 4.7673,15.1957 11.62,28.3058 20.5586,39.3301 9.2366,10.7264 20.4096,19.0683 33.5196,25.0273 13.4079,5.6612 28.4551,8.4922 45.1406,8.4922 16.6854,0 31.5834,-2.831 44.6934,-8.4922 13.1099,-5.959 24.1336,-14.4502 33.0722,-25.4746 9.2366,-11.0243 16.2386,-23.985 21.0059,-38.8828 4.7672,-15.1956 7.1504,-32.178 7.1504,-50.9492 0,-18.7711 -2.3832,-35.7555 -7.1504,-50.9512 -4.7673,-15.1956 -11.62,-28.0071 -20.5586,-38.4355 -8.9387,-10.4284 -20.1116,-18.6229 -33.5195,-24.582 -13.11,-5.9591 -28.008,-8.9375 -44.6934,-8.9375 z m 575.7676,0 c -11.6203,0 -23.6891,1.3398 -36.2032,4.0214 -12.514,2.3837 -23.3883,5.364 -32.625,8.9395 l 5.8106,21.4512 c 9.8325,-4.4694 20.1115,-7.7464 30.8379,-9.8321 11.0243,-2.3836 21.3033,-3.5742 30.8379,-3.5742 21.4527,0 37.5432,5.3615 48.2695,16.0879 10.7264,10.4284 16.0879,26.9648 16.0879,49.6094 v 11.1738 c -22.3466,0 -42.9046,1.1925 -61.6758,3.5762 -18.7711,2.0857 -35.1582,5.958 -49.1621,11.6191 -13.7059,5.6611 -24.5822,13.7064 -32.6269,24.1348 -8.0448,10.4284 -12.0665,23.6878 -12.0665,39.7773 0,11.9182 1.9372,22.3466 5.8106,31.2852 4.1714,8.6407 9.6822,15.792 16.5351,21.4531 6.853,5.6611 14.7489,9.8321 23.6875,12.5137 9.2366,2.9795 18.7711,4.4687 28.6036,4.4687 20.8568,0 38.2871,-4.7662 52.291,-14.3007 14.3018,-9.5346 24.2842,-21.6015 29.9453,-36.2012 h 0.8945 c 0.298,6.8529 0.744,14.3009 1.3399,22.3457 0.5959,8.0448 1.6391,15.642 3.1289,22.793 h 23.2402 c -1.4898,-8.3428 -2.6823,-17.7279 -3.5762,-28.1563 -0.5959,-10.7263 -0.8925,-20.2608 -0.8925,-28.6035 v -100.1133 c 0,-28.3057 -7.5993,-49.459 -22.795,-63.4629 -15.1956,-14.0038 -37.0936,-21.0058 -65.6972,-21.0058 z m 528.4687,0 c -16.9834,0 -32.0306,2.9784 -45.1406,8.9375 -13.11,5.9591 -24.283,14.1536 -33.5195,24.582 -8.9387,10.4284 -15.7914,23.2399 -20.5586,38.4355 -4.7673,15.1957 -7.1524,32.1801 -7.1524,50.9512 0,18.7712 2.3851,35.7536 7.1524,50.9492 4.7672,15.1957 11.6199,28.3058 20.5586,39.3301 9.2365,10.7264 20.4095,19.0683 33.5195,25.0273 13.4079,5.6612 28.4552,8.4922 45.1406,8.4922 16.6855,0 31.5834,-2.831 44.6934,-8.4922 13.11,-5.959 24.1336,-14.4502 33.0722,-25.4746 9.2367,-11.0243 16.2386,-23.985 21.0059,-38.8828 4.7673,-15.1956 7.1504,-32.178 7.1504,-50.9492 0,-18.7711 -2.3831,-35.7555 -7.1504,-50.9512 -4.7673,-15.1956 -11.6199,-28.0071 -20.5586,-38.4355 -8.9386,-10.4284 -20.1116,-18.6229 -33.5195,-24.582 -13.11,-5.9591 -28.0079,-8.9375 -44.6934,-8.9375 z m 262.7051,0 c -15.4936,0 -28.9024,4.0216 -40.2246,12.0664 -11.3223,7.7468 -19.5168,18.7704 -24.582,33.0722 h -0.8926 v -39.7773 h -24.5821 v 235.9805 h 25.4747 v -138.5489 c 0,-26.5179 5.6621,-46.7793 16.9843,-60.7832 11.6203,-14.0039 26.6675,-21.0039 45.1407,-21.0039 6.8529,0 12.961,0.446 18.3242,1.3399 l 1.3398,-21.4532 c -2.9795,-0.5959 -5.9579,-0.8925 -8.9375,-0.8925 z m 126.2578,0 c -11.6202,0 -23.6871,1.3398 -36.2012,4.0214 -12.5141,2.3837 -23.3903,5.364 -32.6269,8.9395 l 5.8105,21.4512 c 9.8325,-4.4694 20.1115,-7.7464 30.8379,-9.8321 11.0243,-2.3836 21.3034,-3.5742 30.8379,-3.5742 21.4527,0 37.5432,5.3615 48.2695,16.0879 10.7264,10.4284 16.0899,26.9648 16.0899,49.6094 v 11.1738 c -22.3466,0 -42.9066,1.1925 -61.6777,3.5762 -18.7712,2.0857 -35.1583,5.958 -49.1622,11.6191 -13.7059,5.6611 -24.5802,13.7064 -32.625,24.1348 -8.0447,10.4284 -12.0683,23.6878 -12.0683,39.7773 0,11.9182 1.9371,22.3466 5.8105,31.2852 4.1714,8.6407 9.6842,15.792 16.5371,21.4531 6.853,5.6611 14.7489,9.8321 23.6875,12.5137 9.2366,2.9795 18.771,4.4687 28.6036,4.4687 20.8568,0 38.2871,-4.7662 52.291,-14.3007 14.3018,-9.5346 24.2822,-21.6015 29.9433,-36.2012 h 0.8946 c 0.2979,6.8529 0.7439,14.3009 1.3398,22.3457 0.5959,8.0448 1.6391,15.642 3.1289,22.793 h 23.2402 c -1.4897,-8.3428 -2.6803,-17.7279 -3.5742,-28.1563 -0.5959,-10.7263 -0.8945,-20.2608 -0.8945,-28.6035 v -100.1133 c 0,-28.3057 -7.5973,-49.459 -22.793,-63.4629 -15.1957,-14.0038 -37.0956,-21.0058 -65.6992,-21.0058 z m 399.2774,0 c -16.9835,0 -32.0307,2.9784 -45.1407,8.9375 -13.11,5.9591 -24.2829,14.1536 -33.5195,24.582 -8.9386,10.4284 -15.7913,23.2399 -20.5586,38.4355 -4.7673,15.1957 -7.1504,32.1801 -7.1504,50.9512 0,18.7712 2.3831,35.7536 7.1504,50.9492 4.7673,15.1957 11.62,28.3058 20.5586,39.3301 9.2366,10.7264 20.4095,19.0683 33.5195,25.0273 13.408,5.6612 28.4552,8.4922 45.1407,8.4922 16.6854,0 31.5833,-2.831 44.6933,-8.4922 13.11,-5.959 24.1336,-14.4502 33.0723,-25.4746 9.2366,-11.0243 16.2386,-23.985 21.0058,-38.8828 4.7673,-15.1956 7.1524,-32.178 7.1524,-50.9492 0,-18.7711 -2.3851,-35.7555 -7.1524,-50.9512 -4.7672,-15.1956 -11.6199,-28.0071 -20.5586,-38.4355 -8.9386,-10.4284 -20.1115,-18.6229 -33.5195,-24.582 -13.11,-5.9591 -28.0079,-8.9375 -44.6933,-8.9375 z m 262.70503,0 c -15.49364,0 -28.90235,4.0216 -40.22461,12.0664 -11.32228,7.7468 -19.51485,18.7704 -24.58008,33.0722 h -0.89453 v -39.7773 h -24.58008 v 235.9805 h 25.47461 v -138.5489 c 0,-26.5179 5.66017,-46.7793 16.98243,-60.7832 11.62023,-14.0039 26.66745,-21.0039 45.14062,-21.0039 6.85296,0 12.96104,0.446 18.32422,1.3399 l 1.3418,-21.4532 c -2.97953,-0.5959 -5.9599,-0.8925 -8.93946,-0.8925 z m 481.26172,0 c -9.83249,0 -19.21762,1.1905 -28.15625,3.5742 -8.93863,2.3836 -17.28247,6.2579 -25.0293,11.6211 -7.74682,5.0652 -13.8549,11.6193 -18.32422,19.664 -4.46931,7.7468 -6.70312,16.9846 -6.70312,27.711 0,16.6854 5.51278,30.2415 16.53711,40.6699 11.32225,10.1304 27.70938,18.9203 49.16211,26.3691 9.23659,3.5755 17.57848,7.1511 25.02734,10.7266 7.44887,3.2775 13.70626,7.0025 18.77149,11.1738 5.06522,3.8734 9.08686,8.4904 12.0664,13.8535 2.97955,5.0653 4.47071,10.8767 4.47071,17.4317 0,14.5998 -4.91751,25.4741 -14.75,32.625 -9.53455,6.8529 -22.9413,10.2793 -40.22266,10.2793 -11.32228,0 -22.94317,-1.4892 -34.86133,-4.4688 -11.91818,-2.9795 -23.09111,-7.0012 -33.51953,-12.0664 l -7.15039,20.5586 c 10.42842,5.3632 22.19664,9.5341 35.30664,12.5137 13.11,2.9795 26.3694,4.4687 39.77734,4.4687 10.72637,0 21.0054,-1.1906 30.83789,-3.5742 9.8325,-2.3836 18.3237,-6.1086 25.47461,-11.1738 7.44887,-5.3632 13.40959,-12.2159 17.87891,-20.5586 4.46932,-8.3427 6.70312,-18.3251 6.70312,-29.9453 10e-6,-9.8325 -1.78782,-18.3237 -5.36328,-25.4746 -3.57545,-7.4489 -8.64031,-13.8556 -15.19531,-19.2188 -6.555,-5.6611 -14.3016,-10.5767 -23.24023,-14.748 -8.64068,-4.1714 -18.32442,-8.195 -29.05078,-12.0684 -9.53455,-3.5754 -17.43045,-6.8525 -23.6875,-9.832 -5.95908,-2.9796 -11.32258,-6.4059 -16.08985,-10.2793 -4.76727,-3.8734 -8.1936,-8.1937 -10.27929,-12.961 -2.08567,-4.7672 -3.12891,-10.28 -3.12891,-16.5371 0,-7.4488 1.49115,-13.7043 4.4707,-18.7695 2.97953,-5.0652 7.00119,-9.0888 12.06641,-12.0684 5.06525,-2.9795 10.57803,-5.064 16.53711,-6.2558 6.25704,-1.4898 12.81111,-2.2344 19.66406,-2.2344 9.53454,0 19.21828,1.0413 29.05078,3.127 9.8325,1.7877 19.06831,4.7681 27.70899,8.9394 l 6.70507,-20.1113 c -9.23659,-4.4693 -19.36826,-7.7483 -30.39257,-9.834 -10.72637,-2.0857 -21.75,-3.1269 -33.07227,-3.1269 z m -2834.13475,5.3613 v 235.9805 h 25.4765 v -235.9805 z m 2414.48045,0 v 235.9805 h 25.47461 v -235.9805 z m 194.56055,15.1973 c 22.94249,0 40.67146,7.5972 53.18555,22.7929 12.81204,15.1957 19.21875,35.9031 19.21875,62.1231 v 2.2343 h -150.61719 c 0.5959,-11.0243 2.53307,-21.7493 5.81055,-32.1777 3.2775,-10.4284 8.04567,-19.8155 14.30273,-28.1582 6.55499,-8.3427 14.74759,-14.8968 24.58008,-19.6641 9.83252,-4.7672 21.00544,-7.1503 33.51953,-7.1503 z m -2411.3496,0.4472 c 13.7059,0 25.4741,2.5324 35.3066,7.5977 10.1305,4.7672 18.4743,11.7692 25.0293,21.0058 6.853,9.2366 11.9178,20.1109 15.1953,32.625 3.2775,12.5141 4.9161,26.0721 4.9161,40.6719 0,14.5998 -1.6386,28.3051 -4.9161,41.1172 -3.2775,12.5141 -8.193,23.3884 -14.748,32.625 -6.555,8.9386 -14.8988,16.0899 -25.0293,21.4531 -10.1304,5.0652 -22.048,7.5977 -35.7539,7.5977 -13.7059,0 -25.6234,-2.5325 -35.7539,-7.5977 -10.1305,-5.3632 -18.6236,-12.6618 -25.4766,-21.8984 -6.555,-9.5346 -11.4705,-20.4109 -14.748,-32.627 -3.2775,-12.5141 -4.916,-26.0701 -4.916,-40.6699 0,-14.5998 1.6385,-28.0085 4.916,-40.2246 3.2775,-12.2161 8.193,-22.9431 14.748,-32.1797 6.853,-9.2366 15.4935,-16.3879 25.9219,-21.4531 10.4284,-5.3632 22.1986,-8.043 35.3086,-8.043 z m 846.1055,0 c 12.2161,0 22.9411,2.6798 32.1777,8.043 9.5345,5.3632 17.4305,12.6638 23.6875,21.9004 6.2571,9.2366 10.8759,20.1128 13.8555,32.6269 3.2774,12.2162 4.916,25.3263 4.916,39.3301 0,14.3018 -1.6386,27.7086 -4.916,40.2227 -2.9796,12.2161 -7.5984,23.0924 -13.8555,32.6269 -6.257,9.2366 -14.153,16.5353 -23.6875,21.8985 -9.2366,5.3631 -20.1109,8.0449 -32.625,8.0449 -12.2161,0 -23.0924,-2.5325 -32.627,-7.5977 -9.5345,-5.0652 -17.7271,-12.2165 -24.58,-21.4531 -6.853,-9.2366 -12.0672,-20.1109 -15.6426,-32.625 -3.5754,-12.5141 -5.3633,-26.2195 -5.3633,-41.1172 0,-14.8977 1.7879,-28.605 5.3633,-41.1191 3.5754,-12.5141 8.6403,-23.2391 15.1953,-32.1778 6.8529,-8.9386 15.0455,-15.9406 24.5801,-21.0058 9.8325,-5.0653 21.0074,-7.5977 33.5215,-7.5977 z m 258.1308,0 c 13.7059,0 25.4742,2.5324 35.3067,7.5977 10.1304,4.7672 18.4742,11.7692 25.0293,21.0058 6.8529,9.2366 11.9178,20.1109 15.1953,32.625 3.2775,12.5141 4.916,26.0721 4.916,40.6719 0,14.5998 -1.6385,28.3051 -4.916,41.1172 -3.2775,12.5141 -8.195,23.3884 -14.75,32.625 -6.555,8.9386 -14.8969,16.0899 -25.0274,21.4531 -10.1304,5.0652 -22.048,7.5977 -35.7539,7.5977 -13.7059,0 -25.6254,-2.5325 -35.7558,-7.5977 -10.1305,-5.3632 -18.6217,-12.6618 -25.4747,-21.8984 -6.555,-9.5346 -11.4705,-20.4109 -14.748,-32.627 -3.2775,-12.5141 -4.916,-26.0701 -4.916,-40.6699 0,-14.5998 1.6385,-28.0085 4.916,-40.2246 3.2775,-12.2161 8.193,-22.9431 14.748,-32.1797 6.853,-9.2366 15.4935,-16.3879 25.9219,-21.4531 10.4284,-5.3632 22.1986,-8.043 35.3086,-8.043 z m 788.2403,0 c 13.7059,0 25.4761,2.5324 35.3085,7.5977 10.1305,4.7672 18.4724,11.7692 25.0274,21.0058 6.8529,9.2366 11.9178,20.1109 15.1953,32.625 3.2775,12.5141 4.916,26.0721 4.916,40.6719 0,14.5998 -1.6385,28.3051 -4.916,41.1172 -3.2775,12.5141 -8.1931,23.3884 -14.748,32.625 -6.5551,8.9386 -14.8989,16.0899 -25.0293,21.4531 -10.1305,5.0652 -22.048,7.5977 -35.7539,7.5977 -13.7059,0 -25.6235,-2.5325 -35.754,-7.5977 -10.1304,-5.3632 -18.6236,-12.6618 -25.4765,-21.8984 -6.555,-9.5346 -11.4706,-20.4109 -14.7481,-32.627 -3.2775,-12.5141 -4.916,-26.0701 -4.916,-40.6699 0,-14.5998 1.6385,-28.0085 4.916,-40.2246 3.2775,-12.2161 8.1931,-22.9431 14.7481,-32.1797 6.8529,-9.2366 15.4954,-16.3879 25.9238,-21.4531 10.4284,-5.3632 22.1967,-8.043 35.3067,-8.043 z m -2334.3594,67.0391 h 66.1465 c 11.9181,0 23.0911,1.1906 33.5195,3.5742 10.7264,2.0857 19.9622,5.6613 27.709,10.7266 7.7468,4.7672 13.8549,11.3232 18.3242,19.666 4.7673,8.3427 7.1504,18.6217 7.1504,30.8379 0,22.6445 -7.0001,39.4795 -21.0039,50.5039 -13.7059,10.7263 -33.0734,15.9405 -58.1016,15.6425 h -73.7441 z m 1069.4941,29.0508 h 11.1719 v 22.3457 c 0,11.0243 -1.6385,21.7512 -4.916,32.1796 -2.9796,10.4284 -7.7458,19.6643 -14.3008,27.709 -6.2571,8.0448 -14.4516,14.4515 -24.582,19.2188 -9.8325,4.7673 -21.6008,7.1504 -35.3067,7.1504 -16.3875,0 -29.2009,-4.4696 -38.4375,-13.4082 -8.9386,-9.2366 -13.4062,-21.4528 -13.4062,-36.6485 0,-11.6202 3.1277,-21.3039 9.3847,-29.0507 6.5551,-7.7469 15.3449,-13.7056 26.3692,-17.877 11.0243,-4.4693 23.6865,-7.4477 37.9883,-8.9375 14.5997,-1.7877 29.9456,-2.6816 46.0351,-2.6816 z m 917.4317,0 h 11.1738 v 22.3457 c 0,11.0243 -1.6385,21.7512 -4.916,32.1796 -2.9796,10.4284 -7.7478,19.6643 -14.3028,27.709 -6.257,8.0448 -14.4515,14.4515 -24.582,19.2188 -9.8325,4.7673 -21.6007,7.1504 -35.3066,7.1504 -16.3875,0 -29.199,-4.4696 -38.4356,-13.4082 -8.9386,-9.2366 -13.4082,-21.4528 -13.4082,-36.6485 0,-11.6202 3.1277,-21.3039 9.3848,-29.0507 6.555,-7.7469 15.3448,-13.7056 26.3691,-17.877 11.0243,-4.4693 23.6884,-7.4477 37.9903,-8.9375 14.5997,-1.7877 29.9436,-2.6816 46.0332,-2.6816 z"
         transform="scale(0.26458333)"
         id="path910" />
    </g>
  </g>
</svg>
