<?xml version="1.0" encoding="UTF-8" standalone="no"?>
<!-- Created with Inkscape (http://www.inkscape.org/) -->

<svg
   xmlns:dc="http://purl.org/dc/elements/1.1/"
   xmlns:cc="http://creativecommons.org/ns#"
   xmlns:rdf="http://www.w3.org/1999/02/22-rdf-syntax-ns#"
   xmlns:svg="http://www.w3.org/2000/svg"
   xmlns="http://www.w3.org/2000/svg"
   xmlns:xlink="http://www.w3.org/1999/xlink"
   xmlns:sodipodi="http://sodipodi.sourceforge.net/DTD/sodipodi-0.dtd"
   xmlns:inkscape="http://www.inkscape.org/namespaces/inkscape"
   version="1.1"
   id="svg2"
   width="1920"
   height="1080"
   viewBox="0 0 1920 1080"
   sodipodi:docname="2.svg"
   inkscape:version="0.92.4 5da689c313, 2019-01-14">
  <metadata
     id="metadata8">
    <rdf:RDF>
      <cc:Work
         rdf:about="">
        <dc:format>image/svg+xml</dc:format>
        <dc:type
           rdf:resource="http://purl.org/dc/dcmitype/StillImage" />
        <dc:title></dc:title>
      </cc:Work>
    </rdf:RDF>
  </metadata>
  <defs
     id="defs6">
    <linearGradient
       id="linearGradient890"
       inkscape:collect="always">
      <stop
         id="stop940"
         offset="0"
         style="stop-color:#000000;stop-opacity:1" />
      <stop
         id="stop942"
         offset="1"
         style="stop-color:#1a1a1a;stop-opacity:1" />
    </linearGradient>
    <linearGradient
       inkscape:collect="always"
       id="linearGradient890-3">
      <stop
         style="stop-color:#550000;stop-opacity:1"
         offset="0"
         id="stop886" />
      <stop
         style="stop-color:#800000;stop-opacity:1"
         offset="1"
         id="stop888" />
    </linearGradient>
    <linearGradient
       gradientTransform="matrix(0.11938309,0,0,0.11938309,-6752.7605,729.32443)"
       inkscape:collect="always"
       xlink:href="#linearGradient890-3"
       id="linearGradient892"
       x1="-563.84564"
       y1="144.83614"
       x2="-545.67719"
       y2="126.66766"
       gradientUnits="userSpaceOnUse" />
    <linearGradient
       inkscape:collect="always"
       xlink:href="#linearGradient890"
       id="linearGradient938"
       gradientUnits="userSpaceOnUse"
       x1="-563.84564"
       y1="144.83614"
       x2="-545.67719"
       y2="126.66766"
       gradientTransform="matrix(0,0.11938309,-0.11938309,0,-6802.591,811.10077)" />
  </defs>
  <sodipodi:namedview
     pagecolor="#ffffff"
     bordercolor="#666666"
     borderopacity="1"
     objecttolerance="10"
     gridtolerance="10"
     guidetolerance="10"
     inkscape:pageopacity="0"
     inkscape:pageshadow="2"
     inkscape:window-width="1366"
     inkscape:window-height="674"
     id="namedview4"
     showgrid="false"
     inkscape:zoom="0.28136957"
     inkscape:cx="589.06119"
     inkscape:cy="570.10337"
     inkscape:window-x="0"
     inkscape:window-y="26"
     inkscape:window-maximized="1"
     inkscape:current-layer="svg2">
    <sodipodi:guide
       position="0,1080"
       orientation="1080,0"
       id="guide819"
       inkscape:locked="false" />
    <sodipodi:guide
       position="0,0"
       orientation="0,1920"
       id="guide821"
       inkscape:locked="false" />
    <sodipodi:guide
       position="1920,0"
       orientation="-1080,0"
       id="guide823"
       inkscape:locked="false" />
    <sodipodi:guide
       position="1920,1080"
       orientation="0,-1920"
       id="guide825"
       inkscape:locked="false" />
    <sodipodi:guide
       position="472.46017,811.26938"
       orientation="543.54916,0"
       id="guide829"
       inkscape:locked="false" />
    <sodipodi:guide
       position="472.46017,267.72021"
       orientation="0,965.86075"
       id="guide831"
       inkscape:locked="false" />
    <sodipodi:guide
       position="1438.3209,267.72021"
       orientation="-543.54916,0"
       id="guide833"
       inkscape:locked="false" />
    <sodipodi:guide
       position="1438.3209,811.26938"
       orientation="0,-965.86075"
       id="guide835"
       inkscape:locked="false" />
  </sodipodi:namedview>
  <rect
     style="opacity:1;fill:#ececec;fill-opacity:1;fill-rule:nonzero;stroke:none;stroke-width:37.79527664;stroke-linecap:round;stroke-linejoin:round;stroke-miterlimit:4;stroke-dasharray:none;stroke-dashoffset:0;stroke-opacity:1;paint-order:markers fill stroke"
     id="rect819"
     width="1920"
     height="1080"
     x="0"
     y="0" />
  <g
     id="g1337"
     transform="matrix(15.273042,0,0,15.273042,104697.89,-10883.003)"
     style="stroke-width:0.24746397">
    <text
       id="text1016"
       y="731.59717"
       x="-6782.2842"
       style="font-style:normal;font-weight:normal;font-size:1.97416627px;line-height:1.25;font-family:sans-serif;letter-spacing:0px;word-spacing:0px;fill:#000000;fill-opacity:1;stroke:none;stroke-width:0.06547485"
       xml:space="preserve"><tspan
         style="stroke-width:0.06547485"
         y="731.59717"
         x="-6782.2842"
         id="tspan1014"
         sodipodi:role="line">TM</tspan></text>
    <g
       id="g1282"
       style="stroke-width:0.24746397">
      <g
         id="g1187"
         transform="matrix(1.557779,0,0,1.557779,3829.5936,-418.19595)"
         style="stroke-width:0.15885691">
        <path
           style="opacity:1;vector-effect:none;fill:url(#linearGradient938);fill-opacity:1;fill-rule:nonzero;stroke:none;stroke-width:5.25386143;stroke-linecap:round;stroke-linejoin:miter;stroke-miterlimit:4;stroke-dasharray:none;stroke-dashoffset:0;stroke-opacity:1;paint-order:markers stroke fill"
           d="m -6816.2786,745.84034 -2.8283,-2.82832 c -0.8957,0.1002 -1.457,0.71064 -1.7423,1.74233 l 2.8283,2.82831 c 0.8734,-0.0668 1.3268,-0.87136 1.7423,-1.74232 z"
           id="path936"
           inkscape:connector-curvature="0"
           sodipodi:nodetypes="ccccc" />
        <path
           inkscape:connector-curvature="0"
           id="path934"
           d="m -6815.7357,745.29735 -2.8282,2.82831 v -0.005 l -1.7456,1.73907 -1.8023,1.81858 1.7423,1.74233 6.3811,-6.38108 z"
           style="opacity:1;vector-effect:none;fill:#1a1a1a;fill-opacity:1;fill-rule:nonzero;stroke:none;stroke-width:5.25386286;stroke-linecap:round;stroke-linejoin:miter;stroke-miterlimit:4;stroke-dasharray:none;stroke-dashoffset:0;stroke-opacity:1;paint-order:markers stroke fill" />
        <path
           sodipodi:nodetypes="ccccc"
           inkscape:connector-curvature="0"
           id="path868"
           d="m -6818.0209,743.01202 -2.8283,2.82831 c 0.1002,0.89564 0.7106,1.45699 1.7423,1.74234 l 2.8283,-2.82832 c -0.067,-0.87346 -0.8714,-1.32679 -1.7423,-1.74233 z"
           style="opacity:1;vector-effect:none;fill:url(#linearGradient892);fill-opacity:1;fill-rule:nonzero;stroke:none;stroke-width:5.25386143;stroke-linecap:round;stroke-linejoin:miter;stroke-miterlimit:4;stroke-dasharray:none;stroke-dashoffset:0;stroke-opacity:1;paint-order:markers stroke fill" />
        <path
           inkscape:connector-curvature="0"
           id="path866"
           d="m -6821.7034,738.50286 -4.984,4.98398 5.8381,5.83813 1.7424,-1.74233 -2.2853,-2.28529 -1.7424,-1.74234 4.5707,-4.57058 -0.4816,-0.48157 z"
           style="opacity:1;vector-effect:none;fill:#550000;fill-opacity:1;fill-rule:nonzero;stroke:none;stroke-width:5.25386286;stroke-linecap:round;stroke-linejoin:miter;stroke-miterlimit:4;stroke-dasharray:none;stroke-dashoffset:0;stroke-opacity:1;paint-order:markers stroke fill" />
        <path
           inkscape:connector-curvature="0"
           id="path925"
           d="m -6816.7534,737.17387 -6.3812,6.38114 -1.7423,1.74234 -0.4816,0.48151 v 2.65792 l 0.4134,0.4134 1.8105,-1.8105 1.7424,-1.74233 2.8283,-2.82832 1.6705,-1.67039 0.072,-0.0719 1.8106,-1.81056 z"
           style="opacity:1;vector-effect:none;fill:#000000;fill-opacity:1;fill-rule:nonzero;stroke:none;stroke-width:5.25386286;stroke-linecap:round;stroke-linejoin:miter;stroke-miterlimit:4;stroke-dasharray:none;stroke-dashoffset:0;stroke-opacity:1;paint-order:markers stroke fill" />
        <path
           inkscape:connector-curvature="0"
           id="path862"
           d="m -6812.1828,741.74445 -1.8105,1.81056 1.7423,1.74234 0.4816,-0.48152 v -2.65797 z"
           style="opacity:1;vector-effect:none;fill:#1a1a1a;fill-opacity:1;fill-rule:nonzero;stroke:none;stroke-width:5.25386286;stroke-linecap:round;stroke-linejoin:miter;stroke-miterlimit:4;stroke-dasharray:none;stroke-dashoffset:0;stroke-opacity:1;paint-order:markers stroke fill" />
        <path
           inkscape:connector-curvature="0"
           id="rect827"
           d="m -6816.2787,741.26966 -1.7422,1.74233 2.2852,2.28536 1.7424,1.74233 -4.5707,4.57064 0.4815,0.48152 h 2.658 l 4.984,-4.98399 z"
           style="opacity:1;vector-effect:none;fill:#800000;fill-opacity:1;fill-rule:nonzero;stroke:none;stroke-width:5.25386286;stroke-linecap:round;stroke-linejoin:miter;stroke-miterlimit:4;stroke-dasharray:none;stroke-dashoffset:0;stroke-opacity:1;paint-order:markers stroke fill" />
      </g>
      <g
         id="g1230"
         transform="matrix(0.43771649,0,0,0.43771649,-3824.0168,433.98444)"
         style="stroke-width:0.5653522">
        <g
           transform="matrix(0.10074079,0,0,0.10074079,-6747.3189,734.38358)"
           id="text1020"
           style="font-style:normal;font-weight:normal;font-size:24.78610802px;line-height:1.25;font-family:sans-serif;letter-spacing:0px;word-spacing:0px;fill:#000000;fill-opacity:1;stroke:none;stroke-width:1.48482823"
           aria-label="Accounting and Financial Service and Consult">
          <path
             inkscape:connector-curvature="0"
             id="path833"
             style="font-style:normal;font-variant:normal;font-weight:500;font-stretch:condensed;font-family:Helvetica;-inkscape-font-specification:'Helvetica Medium Condensed';letter-spacing:2.86282992px;stroke-width:1.48482823"
             d="m -617.58606,227.63753 h 2.28033 l 1.36323,-5.3538 h 5.87431 l 1.46238,5.3538 h 2.28032 l -5.22987,-18.58958 h -2.72647 z m 9.04693,-7.21276 h -4.90765 l 2.45383,-9.88966 h 0.0496 z" />
          <path
             inkscape:connector-curvature="0"
             id="path835"
             style="font-style:normal;font-variant:normal;font-weight:500;font-stretch:condensed;font-family:Helvetica;-inkscape-font-specification:'Helvetica Medium Condensed';letter-spacing:2.86282992px;stroke-width:1.48482823"
             d="m -595.37418,215.14533 c 1.85895,0 2.25553,1.53674 2.28032,3.04869 h 1.83417 c 0.0248,-2.55297 -1.31366,-4.70936 -4.08971,-4.70936 -4.21364,0 -4.75893,4.06492 -4.75893,7.43583 0,3.5692 0.59487,7.08883 4.8085,7.08883 3.07348,0 4.06493,-2.52818 4.13928,-5.1803 h -1.85895 c -0.0992,1.68546 -0.29744,3.51963 -2.42904,3.51963 -2.5034,0 -2.62733,-3.19741 -2.62733,-5.00679 0,-1.95811 -0.14872,-6.19653 2.70169,-6.19653 z" />
          <path
             inkscape:connector-curvature="0"
             id="path837"
             style="font-style:normal;font-variant:normal;font-weight:500;font-stretch:condensed;font-family:Helvetica;-inkscape-font-specification:'Helvetica Medium Condensed';letter-spacing:2.86282992px;stroke-width:1.48482823"
             d="m -581.5222,215.14533 c 1.85896,0 2.25554,1.53674 2.28032,3.04869 h 1.83417 c 0.0248,-2.55297 -1.31366,-4.70936 -4.0897,-4.70936 -4.21364,0 -4.75894,4.06492 -4.75894,7.43583 0,3.5692 0.59487,7.08883 4.80851,7.08883 3.07348,0 4.06492,-2.52818 4.13928,-5.1803 h -1.85896 c -0.0991,1.68546 -0.29743,3.51963 -2.42904,3.51963 -2.5034,0 -2.62733,-3.19741 -2.62733,-5.00679 0,-1.95811 -0.14871,-6.19653 2.70169,-6.19653 z" />
          <path
             inkscape:connector-curvature="0"
             id="path839-8"
             style="font-style:normal;font-variant:normal;font-weight:500;font-stretch:condensed;font-family:Helvetica;-inkscape-font-specification:'Helvetica Medium Condensed';letter-spacing:2.86282992px;stroke-width:1.48482823"
             d="m -562.36599,220.27605 c 0,-4.16406 -1.53674,-6.79139 -4.93244,-6.79139 -3.39569,0 -4.93243,2.62733 -4.93243,6.79139 0,5.94867 1.9581,7.73327 4.93243,7.73327 3.02391,0 4.93244,-1.75981 4.93244,-7.73327 z m -2.03246,0.61966 c 0,3.24698 -0.57008,5.45294 -2.89998,5.45294 -2.28032,0 -2.89997,-2.20596 -2.89997,-5.45294 0,-4.16407 0.8923,-5.75038 2.89997,-5.75038 2.05725,0 2.89998,1.58631 2.89998,5.75038 z" />
          <path
             inkscape:connector-curvature="0"
             id="path841-6"
             style="font-style:normal;font-variant:normal;font-weight:500;font-stretch:condensed;font-family:Helvetica;-inkscape-font-specification:'Helvetica Medium Condensed';letter-spacing:2.86282992px;stroke-width:1.48482823"
             d="m -549.68786,227.63753 h 1.9581 v -13.78108 h -1.9581 v 8.84864 c 0,0.79316 -0.12393,1.73503 -0.57008,2.42904 -0.54529,0.79316 -1.41281,1.21452 -2.35468,1.21452 -1.38802,0 -1.75981,-0.61965 -1.75981,-1.7846 v -10.7076 h -1.95811 v 10.63324 c 0,2.42904 1.26409,3.51963 3.32134,3.51963 1.33845,0 2.60254,-0.76837 3.27177,-2.18118 h 0.0496 z" />
          <path
             inkscape:connector-curvature="0"
             id="path843"
             style="font-style:normal;font-variant:normal;font-weight:500;font-stretch:condensed;font-family:Helvetica;-inkscape-font-specification:'Helvetica Medium Condensed';letter-spacing:2.86282992px;stroke-width:1.48482823"
             d="m -539.26527,213.85645 h -1.90853 v 13.78108 h 1.9581 v -9.22043 c 0,-0.99145 0.0992,-1.7846 0.8923,-2.5034 0.52051,-0.49572 1.21452,-0.76837 1.93332,-0.76837 1.58631,0 2.05725,0.96666 2.05725,2.40425 v 10.08795 h 1.9581 v -10.63324 c 0,-2.42904 -1.33845,-3.51963 -3.3957,-3.51963 -1.48716,0 -2.50339,0.69401 -3.44527,1.88374 h -0.0496 z" />
          <path
             inkscape:connector-curvature="0"
             id="path845-7"
             style="font-style:normal;font-variant:normal;font-weight:500;font-stretch:condensed;font-family:Helvetica;-inkscape-font-specification:'Helvetica Medium Condensed';letter-spacing:2.86282992px;stroke-width:1.48482823"
             d="m -523.66238,210.11375 h -1.93332 v 3.7427 h -1.90853 v 1.66067 h 1.90853 v 9.86487 c 0,2.08203 0.86752,2.28032 2.03246,2.25554 h 2.15639 v -1.66067 h -1.31366 c -1.09059,0 -0.91708,-0.59487 -0.91708,-1.0658 v -9.39394 h 2.28032 v -1.66067 h -2.30511 z" />
          <path
             inkscape:connector-curvature="0"
             id="path847"
             style="font-style:normal;font-variant:normal;font-weight:500;font-stretch:condensed;font-family:Helvetica;-inkscape-font-specification:'Helvetica Medium Condensed';letter-spacing:2.86282992px;stroke-width:1.48482823"
             d="m -514.24749,227.63753 v -13.78108 h -1.95811 v 13.78108 z m 0,-16.11097 v -2.47861 h -1.95811 v 2.47861 z" />
          <path
             inkscape:connector-curvature="0"
             id="path849"
             style="font-style:normal;font-variant:normal;font-weight:500;font-stretch:condensed;font-family:Helvetica;-inkscape-font-specification:'Helvetica Medium Condensed';letter-spacing:2.86282992px;stroke-width:1.48482823"
             d="m -505.89067,213.85645 h -1.90853 v 13.78108 h 1.9581 v -9.22043 c 0,-0.99145 0.0991,-1.7846 0.8923,-2.5034 0.52051,-0.49572 1.21452,-0.76837 1.93332,-0.76837 1.58631,0 2.05724,0.96666 2.05724,2.40425 v 10.08795 h 1.95811 v -10.63324 c 0,-2.42904 -1.33845,-3.51963 -3.3957,-3.51963 -1.48717,0 -2.5034,0.69401 -3.44527,1.88374 h -0.0496 z" />
          <path
             inkscape:connector-curvature="0"
             id="path851"
             style="font-style:normal;font-variant:normal;font-weight:500;font-stretch:condensed;font-family:Helvetica;-inkscape-font-specification:'Helvetica Medium Condensed';letter-spacing:2.86282992px;stroke-width:1.48482823"
             d="m -488.50319,215.14533 c 2.18118,0 2.75126,2.57775 2.75126,5.30423 0,2.20596 0.0248,5.89909 -2.94954,5.89909 -1.93332,0 -2.5034,-2.23075 -2.5034,-5.60166 0,-1.85896 0.0991,-5.60166 2.70168,-5.60166 z m 2.75126,0.27265 h -0.0496 c -0.66922,-1.31367 -1.80939,-1.93332 -3.07348,-1.93332 -3.64355,0 -4.36235,4.26321 -4.36235,7.16319 0,5.55208 1.80938,7.36147 4.41193,7.36147 1.26409,0 2.15639,-0.57008 2.97433,-1.98289 h 0.0496 c -0.0248,1.51195 0.29743,4.635 -2.87519,4.635 -1.18973,0 -1.98289,-0.47093 -2.15639,-1.71024 h -1.90853 c 0.27265,2.35468 1.90853,3.37091 4.11449,3.37091 1.51196,0 2.92476,-0.54529 3.79228,-1.90853 0.91708,-1.46238 1.04102,-2.75126 1.04102,-4.43671 v -12.12041 h -1.95811 z" />
          <path
             inkscape:connector-curvature="0"
             id="path853"
             style="font-style:normal;font-variant:normal;font-weight:500;font-stretch:condensed;font-family:Helvetica;-inkscape-font-specification:'Helvetica Medium Condensed';letter-spacing:2.86282992px;stroke-width:1.48482823"
             d="m -462.92385,223.54782 c 0,2.23075 -1.63588,2.80083 -2.37946,2.80083 -1.58631,0 -1.93332,-0.8923 -1.93332,-2.28032 0,-0.94187 0.29743,-1.9581 1.21452,-2.37947 1.04102,-0.49572 2.1316,-0.91708 3.09826,-1.48716 z m 3.2222,2.65211 c -0.27265,0.0248 -0.57008,0.0496 -0.84273,-0.0248 -0.39658,-0.19829 -0.34701,-0.69401 -0.34701,-1.04102 v -7.90677 c 0,-0.32222 0.34701,-3.7427 -3.7427,-3.7427 -2.77604,0 -4.18885,1.23931 -4.08971,4.08971 h 1.75982 c -0.0248,-1.6111 0.22307,-2.42904 2.00767,-2.42904 1.58631,0 2.18118,0.59487 2.18118,2.15639 0,0.7188 0.0496,1.26409 -0.37179,1.58631 -0.24786,0.19829 -3.02391,1.23931 -4.13928,1.73503 -1.90853,0.84273 -1.98289,2.82562 -1.98289,3.34612 0,2.5034 0.79315,4.04014 3.54441,4.04014 1.31367,0 2.57776,-1.01623 3.04869,-2.23075 h 0.0496 c 0.19828,1.88374 0.81794,2.03246 2.47861,1.9581 0.14871,-0.0496 0.29743,-0.0744 0.44615,-0.0991 z" />
          <path
             inkscape:connector-curvature="0"
             id="path855"
             style="font-style:normal;font-variant:normal;font-weight:500;font-stretch:condensed;font-family:Helvetica;-inkscape-font-specification:'Helvetica Medium Condensed';letter-spacing:2.86282992px;stroke-width:1.48482823"
             d="m -452.46757,213.85645 h -1.90853 v 13.78108 h 1.9581 v -9.22043 c 0,-0.99145 0.0992,-1.7846 0.8923,-2.5034 0.52051,-0.49572 1.21452,-0.76837 1.93332,-0.76837 1.58631,0 2.05725,0.96666 2.05725,2.40425 v 10.08795 h 1.9581 v -10.63324 c 0,-2.42904 -1.33845,-3.51963 -3.3957,-3.51963 -1.48716,0 -2.5034,0.69401 -3.44527,1.88374 h -0.0496 z" />
          <path
             inkscape:connector-curvature="0"
             id="path857"
             style="font-style:normal;font-variant:normal;font-weight:500;font-stretch:condensed;font-family:Helvetica;-inkscape-font-specification:'Helvetica Medium Condensed';letter-spacing:2.86282992px;stroke-width:1.48482823"
             d="m -432.37839,222.23416 c 0,1.56152 -0.57008,4.11449 -2.60254,4.11449 -2.6769,0 -2.77604,-2.70169 -2.77604,-5.67602 0,-4.23842 1.0658,-5.5273 2.70168,-5.5273 2.62733,0 2.6769,3.49484 2.6769,5.37858 z m 0,-6.9649 h -0.0496 c -0.91709,-1.18973 -1.75981,-1.7846 -3.17262,-1.7846 -2.94955,0 -4.288,3.19741 -4.13928,7.23754 0.0496,1.21452 -0.29744,7.28712 4.04013,7.28712 1.66067,0 2.5034,-0.5453 3.34613,-2.18118 h 0.0496 v 1.80939 h 1.88374 v -18.58958 h -1.9581 z" />
          <path
             inkscape:connector-curvature="0"
             id="path859"
             style="font-style:normal;font-variant:normal;font-weight:500;font-stretch:condensed;font-family:Helvetica;-inkscape-font-specification:'Helvetica Medium Condensed';letter-spacing:2.86282992px;stroke-width:1.48482823"
             d="m -412.72293,227.63753 v -8.77428 h 6.19653 v -1.85896 h -6.19653 v -6.09739 h 6.66746 v -1.85895 h -8.72471 v 18.58958 z" />
          <path
             inkscape:connector-curvature="0"
             id="path861"
             style="font-style:normal;font-variant:normal;font-weight:500;font-stretch:condensed;font-family:Helvetica;-inkscape-font-specification:'Helvetica Medium Condensed';letter-spacing:2.86282992px;stroke-width:1.48482823"
             d="m -399.01967,227.63753 v -13.78108 h -1.95811 v 13.78108 z m 0,-16.11097 v -2.47861 h -1.95811 v 2.47861 z" />
          <path
             inkscape:connector-curvature="0"
             id="path863"
             style="font-style:normal;font-variant:normal;font-weight:500;font-stretch:condensed;font-family:Helvetica;-inkscape-font-specification:'Helvetica Medium Condensed';letter-spacing:2.86282992px;stroke-width:1.48482823"
             d="m -390.66285,213.85645 h -1.90853 v 13.78108 h 1.9581 v -9.22043 c 0,-0.99145 0.0991,-1.7846 0.8923,-2.5034 0.52051,-0.49572 1.21452,-0.76837 1.93332,-0.76837 1.58631,0 2.05724,0.96666 2.05724,2.40425 v 10.08795 h 1.95811 v -10.63324 c 0,-2.42904 -1.33845,-3.51963 -3.3957,-3.51963 -1.48717,0 -2.5034,0.69401 -3.44527,1.88374 h -0.0496 z" />
          <path
             inkscape:connector-curvature="0"
             id="path865"
             style="font-style:normal;font-variant:normal;font-weight:500;font-stretch:condensed;font-family:Helvetica;-inkscape-font-specification:'Helvetica Medium Condensed';letter-spacing:2.86282992px;stroke-width:1.48482823"
             d="m -372.01126,223.54782 c 0,2.23075 -1.63589,2.80083 -2.37947,2.80083 -1.58631,0 -1.93332,-0.8923 -1.93332,-2.28032 0,-0.94187 0.29744,-1.9581 1.21452,-2.37947 1.04102,-0.49572 2.13161,-0.91708 3.09827,-1.48716 z m 3.22219,2.65211 c -0.27265,0.0248 -0.57008,0.0496 -0.84273,-0.0248 -0.39658,-0.19829 -0.347,-0.69401 -0.347,-1.04102 v -7.90677 c 0,-0.32222 0.347,-3.7427 -3.74271,-3.7427 -2.77604,0 -4.18885,1.23931 -4.0897,4.08971 h 1.75981 c -0.0248,-1.6111 0.22307,-2.42904 2.00767,-2.42904 1.58632,0 2.18118,0.59487 2.18118,2.15639 0,0.7188 0.0496,1.26409 -0.37179,1.58631 -0.24786,0.19829 -3.02391,1.23931 -4.13928,1.73503 -1.90853,0.84273 -1.98289,2.82562 -1.98289,3.34612 0,2.5034 0.79316,4.04014 3.54441,4.04014 1.31367,0 2.57776,-1.01623 3.0487,-2.23075 h 0.0496 c 0.19829,1.88374 0.81794,2.03246 2.47861,1.9581 0.14872,-0.0496 0.29743,-0.0744 0.44615,-0.0991 z" />
          <path
             inkscape:connector-curvature="0"
             id="path867"
             style="font-style:normal;font-variant:normal;font-weight:500;font-stretch:condensed;font-family:Helvetica;-inkscape-font-specification:'Helvetica Medium Condensed';letter-spacing:2.86282992px;stroke-width:1.48482823"
             d="m -361.55497,213.85645 h -1.90853 v 13.78108 h 1.9581 v -9.22043 c 0,-0.99145 0.0991,-1.7846 0.8923,-2.5034 0.52051,-0.49572 1.21452,-0.76837 1.93332,-0.76837 1.58631,0 2.05724,0.96666 2.05724,2.40425 v 10.08795 h 1.95811 v -10.63324 c 0,-2.42904 -1.33845,-3.51963 -3.3957,-3.51963 -1.48717,0 -2.5034,0.69401 -3.44527,1.88374 h -0.0496 z" />
          <path
             inkscape:connector-curvature="0"
             id="path869"
             style="font-style:normal;font-variant:normal;font-weight:500;font-stretch:condensed;font-family:Helvetica;-inkscape-font-specification:'Helvetica Medium Condensed';letter-spacing:2.86282992px;stroke-width:1.48482823"
             d="m -344.19226,215.14533 c 1.85896,0 2.25553,1.53674 2.28032,3.04869 h 1.83417 c 0.0248,-2.55297 -1.31366,-4.70936 -4.08971,-4.70936 -4.21364,0 -4.75893,4.06492 -4.75893,7.43583 0,3.5692 0.59487,7.08883 4.80851,7.08883 3.07347,0 4.06492,-2.52818 4.13928,-5.1803 h -1.85896 c -0.0992,1.68546 -0.29744,3.51963 -2.42904,3.51963 -2.5034,0 -2.62733,-3.19741 -2.62733,-5.00679 0,-1.95811 -0.14872,-6.19653 2.70169,-6.19653 z" />
          <path
             inkscape:connector-curvature="0"
             id="path871"
             style="font-style:normal;font-variant:normal;font-weight:500;font-stretch:condensed;font-family:Helvetica;-inkscape-font-specification:'Helvetica Medium Condensed';letter-spacing:2.86282992px;stroke-width:1.48482823"
             d="m -332.42234,227.63753 v -13.78108 h -1.9581 v 13.78108 z m 0,-16.11097 v -2.47861 h -1.9581 v 2.47861 z" />
          <path
             inkscape:connector-curvature="0"
             id="path873"
             style="font-style:normal;font-variant:normal;font-weight:500;font-stretch:condensed;font-family:Helvetica;-inkscape-font-specification:'Helvetica Medium Condensed';letter-spacing:2.86282992px;stroke-width:1.48482823"
             d="m -320.6698,223.54782 c 0,2.23075 -1.63589,2.80083 -2.37947,2.80083 -1.58631,0 -1.93332,-0.8923 -1.93332,-2.28032 0,-0.94187 0.29744,-1.9581 1.21452,-2.37947 1.04102,-0.49572 2.13161,-0.91708 3.09827,-1.48716 z m 3.22219,2.65211 c -0.27265,0.0248 -0.57008,0.0496 -0.84273,-0.0248 -0.39658,-0.19829 -0.347,-0.69401 -0.347,-1.04102 v -7.90677 c 0,-0.32222 0.347,-3.7427 -3.74271,-3.7427 -2.77604,0 -4.18885,1.23931 -4.0897,4.08971 h 1.75981 c -0.0248,-1.6111 0.22308,-2.42904 2.00768,-2.42904 1.58631,0 2.18117,0.59487 2.18117,2.15639 0,0.7188 0.0496,1.26409 -0.37179,1.58631 -0.24786,0.19829 -3.0239,1.23931 -4.13928,1.73503 -1.90853,0.84273 -1.98289,2.82562 -1.98289,3.34612 0,2.5034 0.79316,4.04014 3.54442,4.04014 1.31366,0 2.57775,-1.01623 3.04869,-2.23075 h 0.0496 c 0.19829,1.88374 0.81794,2.03246 2.47861,1.9581 0.14872,-0.0496 0.29743,-0.0744 0.44615,-0.0991 z" />
          <path
             inkscape:connector-curvature="0"
             id="path875"
             style="font-style:normal;font-variant:normal;font-weight:500;font-stretch:condensed;font-family:Helvetica;-inkscape-font-specification:'Helvetica Medium Condensed';letter-spacing:2.86282992px;stroke-width:1.48482823"
             d="m -310.18872,227.63753 v -18.58958 h -1.95811 v 18.58958 z" />
          <path
             inkscape:connector-curvature="0"
             id="path877"
             style="font-style:normal;font-variant:normal;font-weight:500;font-stretch:condensed;font-family:Helvetica;-inkscape-font-specification:'Helvetica Medium Condensed';letter-spacing:2.86282992px;stroke-width:1.48482823"
             d="m -284.51879,213.93081 c 0.19829,-3.49484 -1.88374,-5.25466 -5.27944,-5.25466 -3.0239,0 -5.1803,2.00768 -5.1803,5.08116 0,1.83417 0.44615,3.32134 2.20597,4.21364 0.99144,0.5205 2.62733,1.04101 3.64356,1.43759 1.88374,0.7188 3.0239,0.74358 3.0239,3.5692 0,2.18118 -1.46238,3.24698 -3.54441,3.24698 -3.09827,0 -3.61877,-1.73503 -3.51963,-4.48629 h -2.05725 c 0.0248,0.99145 0,2.47861 0.39658,3.3957 1.0658,2.42904 3.24698,2.94955 5.08115,2.94955 3.5692,0 5.77517,-2.05725 5.77517,-5.57688 0,-2.45382 -0.64444,-3.69313 -4.16407,-5.00679 -0.99144,-0.37179 -1.9581,-0.74358 -2.94955,-1.11538 -1.18973,-0.44615 -1.75981,-1.2393 -1.75981,-2.52818 0,-1.43759 0.32222,-3.32134 3.32134,-3.32134 2.05724,0 3.09826,1.46238 2.94954,3.3957 z" />
          <path
             inkscape:connector-curvature="0"
             id="path879"
             style="font-style:normal;font-variant:normal;font-weight:500;font-stretch:condensed;font-family:Helvetica;-inkscape-font-specification:'Helvetica Medium Condensed';letter-spacing:2.86282992px;stroke-width:1.48482823"
             d="m -276.73242,219.3094 c 0.0743,-1.63589 0.12393,-4.16407 2.40425,-4.16407 2.28032,0 2.18118,2.55297 2.25553,4.16407 z m 4.75893,3.7427 c 0.12393,1.56152 -0.39658,3.29655 -2.28032,3.29655 -2.75126,0 -2.42904,-3.5692 -2.47861,-5.42816 h 6.69224 c -0.0991,-3.22219 0.14872,-7.43583 -4.31278,-7.43583 -3.64356,0 -4.41193,4.33757 -4.41193,7.23754 0,5.55209 1.85896,7.28712 4.4615,7.28712 2.89998,0 4.288,-2.25554 4.16407,-4.95722 z" />
          <path
             inkscape:connector-curvature="0"
             id="path881-3"
             style="font-style:normal;font-variant:normal;font-weight:500;font-stretch:condensed;font-family:Helvetica;-inkscape-font-specification:'Helvetica Medium Condensed';letter-spacing:2.86282992px;stroke-width:1.48482823"
             d="m -262.08728,213.85645 h -1.88374 v 13.78108 h 1.9581 v -8.35292 c 0,-2.5034 1.48717,-4.08971 4.01535,-3.64356 v -1.93332 c -2.05725,-0.1735 -3.2222,0.59487 -4.04014,2.40426 h -0.0496 z" />
          <path
             inkscape:connector-curvature="0"
             id="path883-2"
             style="font-style:normal;font-variant:normal;font-weight:500;font-stretch:condensed;font-family:Helvetica;-inkscape-font-specification:'Helvetica Medium Condensed';letter-spacing:2.86282992px;stroke-width:1.48482823"
             d="m -249.99008,227.63753 h 2.1316 l 4.13928,-13.78108 h -2.03246 l -3.12305,12.12041 h -0.0496 l -3.12305,-12.12041 h -2.03246 z" />
          <path
             inkscape:connector-curvature="0"
             id="path885-9"
             style="font-style:normal;font-variant:normal;font-weight:500;font-stretch:condensed;font-family:Helvetica;-inkscape-font-specification:'Helvetica Medium Condensed';letter-spacing:2.86282992px;stroke-width:1.48482823"
             d="m -236.80732,227.63753 v -13.78108 h -1.9581 v 13.78108 z m 0,-16.11097 v -2.47861 h -1.9581 v 2.47861 z" />
          <path
             inkscape:connector-curvature="0"
             id="path887-5"
             style="font-style:normal;font-variant:normal;font-weight:500;font-stretch:condensed;font-family:Helvetica;-inkscape-font-specification:'Helvetica Medium Condensed';letter-spacing:2.86282992px;stroke-width:1.48482823"
             d="m -226.34366,215.14533 c 1.85896,0 2.25554,1.53674 2.28032,3.04869 h 1.83417 c 0.0248,-2.55297 -1.31366,-4.70936 -4.0897,-4.70936 -4.21364,0 -4.75894,4.06492 -4.75894,7.43583 0,3.5692 0.59487,7.08883 4.80851,7.08883 3.07348,0 4.06492,-2.52818 4.13928,-5.1803 h -1.85896 c -0.0991,1.68546 -0.29743,3.51963 -2.42904,3.51963 -2.5034,0 -2.62733,-3.19741 -2.62733,-5.00679 0,-1.95811 -0.14871,-6.19653 2.70169,-6.19653 z" />
          <path
             inkscape:connector-curvature="0"
             id="path889-5"
             style="font-style:normal;font-variant:normal;font-weight:500;font-stretch:condensed;font-family:Helvetica;-inkscape-font-specification:'Helvetica Medium Condensed';letter-spacing:2.86282992px;stroke-width:1.48482823"
             d="m -215.21817,219.3094 c 0.0744,-1.63589 0.12393,-4.16407 2.40425,-4.16407 2.28032,0 2.18118,2.55297 2.25554,4.16407 z m 4.75893,3.7427 c 0.12393,1.56152 -0.39658,3.29655 -2.28032,3.29655 -2.75126,0 -2.42904,-3.5692 -2.47861,-5.42816 h 6.69225 c -0.0991,-3.22219 0.14871,-7.43583 -4.31279,-7.43583 -3.64355,0 -4.41192,4.33757 -4.41192,7.23754 0,5.55209 1.85895,7.28712 4.4615,7.28712 2.89997,0 4.28799,-2.25554 4.16406,-4.95722 z" />
          <path
             inkscape:connector-curvature="0"
             id="path891-9"
             style="font-style:normal;font-variant:normal;font-weight:500;font-stretch:condensed;font-family:Helvetica;-inkscape-font-specification:'Helvetica Medium Condensed';letter-spacing:2.86282992px;stroke-width:1.48482823"
             d="m -188.29148,223.54782 c 0,2.23075 -1.63588,2.80083 -2.37946,2.80083 -1.58631,0 -1.93332,-0.8923 -1.93332,-2.28032 0,-0.94187 0.29743,-1.9581 1.21452,-2.37947 1.04102,-0.49572 2.1316,-0.91708 3.09826,-1.48716 z m 3.2222,2.65211 c -0.27265,0.0248 -0.57008,0.0496 -0.84273,-0.0248 -0.39658,-0.19829 -0.34701,-0.69401 -0.34701,-1.04102 v -7.90677 c 0,-0.32222 0.34701,-3.7427 -3.7427,-3.7427 -2.77604,0 -4.18885,1.23931 -4.08971,4.08971 h 1.75982 c -0.0248,-1.6111 0.22307,-2.42904 2.00767,-2.42904 1.58631,0 2.18118,0.59487 2.18118,2.15639 0,0.7188 0.0496,1.26409 -0.37179,1.58631 -0.24786,0.19829 -3.02391,1.23931 -4.13928,1.73503 -1.90853,0.84273 -1.98289,2.82562 -1.98289,3.34612 0,2.5034 0.79315,4.04014 3.54441,4.04014 1.31367,0 2.57776,-1.01623 3.04869,-2.23075 h 0.0496 c 0.19828,1.88374 0.81794,2.03246 2.47861,1.9581 0.14871,-0.0496 0.29743,-0.0744 0.44615,-0.0991 z" />
          <path
             inkscape:connector-curvature="0"
             id="path893-3"
             style="font-style:normal;font-variant:normal;font-weight:500;font-stretch:condensed;font-family:Helvetica;-inkscape-font-specification:'Helvetica Medium Condensed';letter-spacing:2.86282992px;stroke-width:1.48482823"
             d="m -177.83518,213.85645 h -1.90853 v 13.78108 h 1.9581 v -9.22043 c 0,-0.99145 0.0991,-1.7846 0.8923,-2.5034 0.52051,-0.49572 1.21452,-0.76837 1.93331,-0.76837 1.58632,0 2.05725,0.96666 2.05725,2.40425 v 10.08795 h 1.9581 v -10.63324 c 0,-2.42904 -1.33845,-3.51963 -3.39569,-3.51963 -1.48717,0 -2.5034,0.69401 -3.44527,1.88374 h -0.0496 z" />
          <path
             inkscape:connector-curvature="0"
             id="path895-4"
             style="font-style:normal;font-variant:normal;font-weight:500;font-stretch:condensed;font-family:Helvetica;-inkscape-font-specification:'Helvetica Medium Condensed';letter-spacing:2.86282992px;stroke-width:1.48482823"
             d="m -157.746,222.23416 c 0,1.56152 -0.57008,4.11449 -2.60254,4.11449 -2.6769,0 -2.77605,-2.70169 -2.77605,-5.67602 0,-4.23842 1.0658,-5.5273 2.70169,-5.5273 2.62732,0 2.6769,3.49484 2.6769,5.37858 z m 0,-6.9649 h -0.0496 c -0.91708,-1.18973 -1.75981,-1.7846 -3.17262,-1.7846 -2.94954,0 -4.28799,3.19741 -4.13928,7.23754 0.0496,1.21452 -0.29743,7.28712 4.04014,7.28712 1.66067,0 2.5034,-0.5453 3.34612,-2.18118 h 0.0496 v 1.80939 h 1.88375 v -18.58958 h -1.9581 z" />
          <path
             inkscape:connector-curvature="0"
             id="path897-6"
             style="font-style:normal;font-variant:normal;font-weight:500;font-stretch:condensed;font-family:Helvetica;-inkscape-font-specification:'Helvetica Medium Condensed';letter-spacing:2.86282992px;stroke-width:1.48482823"
             d="m -129.51455,214.62482 c 0.0991,-3.32134 -1.73503,-5.94867 -5.25466,-5.94867 -5.27944,0 -5.89909,5.25466 -5.89909,9.44351 0,4.43672 0.19829,9.96402 5.92388,9.96402 1.7846,0 3.07348,-0.74359 4.04014,-2.08204 0.89229,-1.28887 0.96665,-2.42903 1.09058,-3.94099 0.0496,-0.37179 0.0496,-0.76837 0.0991,-1.14016 h -2.05725 c -0.0496,0.42137 -0.0744,0.84273 -0.12393,1.26409 -0.24786,2.03246 -0.76837,4.04014 -3.22219,4.04014 -3.76749,0 -3.71792,-5.62645 -3.61878,-8.15463 0,-2.45382 0.0496,-7.53498 3.61878,-7.53498 2.57775,0 3.29655,1.88375 3.34612,4.08971 z" />
          <path
             inkscape:connector-curvature="0"
             id="path899-2"
             style="font-style:normal;font-variant:normal;font-weight:500;font-stretch:condensed;font-family:Helvetica;-inkscape-font-specification:'Helvetica Medium Condensed';letter-spacing:2.86282992px;stroke-width:1.48482823"
             d="m -114.19324,220.27605 c 0,-4.16406 -1.53674,-6.79139 -4.93244,-6.79139 -3.39569,0 -4.93243,2.62733 -4.93243,6.79139 0,5.94867 1.9581,7.73327 4.93243,7.73327 3.02391,0 4.93244,-1.75981 4.93244,-7.73327 z m -2.03246,0.61966 c 0,3.24698 -0.57008,5.45294 -2.89998,5.45294 -2.28032,0 -2.89997,-2.20596 -2.89997,-5.45294 0,-4.16407 0.8923,-5.75038 2.89997,-5.75038 2.05725,0 2.89998,1.58631 2.89998,5.75038 z" />
          <path
             inkscape:connector-curvature="0"
             id="path901"
             style="font-style:normal;font-variant:normal;font-weight:500;font-stretch:condensed;font-family:Helvetica;-inkscape-font-specification:'Helvetica Medium Condensed';letter-spacing:2.86282992px;stroke-width:1.48482823"
             d="m -106.3484,213.85645 h -1.90853 v 13.78108 h 1.9581 v -9.22043 c 0,-0.99145 0.0991,-1.7846 0.8923,-2.5034 0.52051,-0.49572 1.21452,-0.76837 1.93332,-0.76837 1.58631,0 2.05725,0.96666 2.05725,2.40425 v 10.08795 h 1.9581 v -10.63324 c 0,-2.42904 -1.33845,-3.51963 -3.3957,-3.51963 -1.48716,0 -2.50339,0.69401 -3.44527,1.88374 h -0.0496 z" />
          <path
             inkscape:connector-curvature="0"
             id="path903-7"
             style="font-style:normal;font-variant:normal;font-weight:500;font-stretch:condensed;font-family:Helvetica;-inkscape-font-specification:'Helvetica Medium Condensed';letter-spacing:2.86282992px;stroke-width:1.48482823"
             d="m -85.391704,217.54958 c 0.04957,-2.82561 -1.536738,-4.06492 -4.26321,-4.06492 -2.379467,0 -4.040136,1.51195 -4.040136,3.89142 0,2.40425 1.239305,3.12305 3.370911,3.9162 1.412808,0.59487 3.395697,0.76837 3.395697,2.72648 0,1.68545 -1.041017,2.32989 -2.627328,2.32989 -1.834172,0 -2.404252,-1.04102 -2.329894,-2.72647 h -1.858958 c 0,0.94187 -0.04957,1.85896 0.768369,2.94954 0.718797,1.04102 2.205964,1.46239 3.420483,1.4376 2.825616,0.0248 4.659788,-1.6111 4.659788,-4.23843 0,-2.57775 -1.982888,-3.07347 -3.965777,-3.96577 -1.33845,-0.57008 -2.80083,-0.79316 -2.80083,-2.57776 0,-1.43759 0.793155,-2.08203 2.181177,-2.08203 1.66067,0 2.255536,0.76837 2.181178,2.40425 z" />
          <path
             inkscape:connector-curvature="0"
             id="path905-8"
             style="font-style:normal;font-variant:normal;font-weight:500;font-stretch:condensed;font-family:Helvetica;-inkscape-font-specification:'Helvetica Medium Condensed';letter-spacing:2.86282992px;stroke-width:1.48482823"
             d="m -72.407228,227.63753 h 1.958103 v -13.78108 h -1.958103 v 8.84864 c 0,0.79316 -0.12393,1.73503 -0.57008,2.42904 -0.545295,0.79316 -1.412808,1.21452 -2.354681,1.21452 -1.388022,0 -1.759813,-0.61965 -1.759813,-1.7846 v -10.7076 h -1.958103 v 10.63324 c 0,2.42904 1.264092,3.51963 3.321339,3.51963 1.33845,0 2.602541,-0.76837 3.271766,-2.18118 h 0.04957 z" />
          <path
             inkscape:connector-curvature="0"
             id="path907-6"
             style="font-style:normal;font-variant:normal;font-weight:500;font-stretch:condensed;font-family:Helvetica;-inkscape-font-specification:'Helvetica Medium Condensed';letter-spacing:2.86282992px;stroke-width:1.48482823"
             d="m -61.959873,227.63753 v -18.58958 h -1.958103 v 18.58958 z" />
          <path
             inkscape:connector-curvature="0"
             id="path909-9"
             style="font-style:normal;font-variant:normal;font-weight:500;font-stretch:condensed;font-family:Helvetica;-inkscape-font-specification:'Helvetica Medium Condensed';letter-spacing:2.86282992px;stroke-width:1.48482823"
             d="m -53.256001,210.11375 h -1.933317 v 3.7427 h -1.90853 v 1.66067 h 1.90853 v 9.86487 c 0,2.08203 0.867514,2.28032 2.032461,2.25554 h 2.156392 v -1.66067 h -1.313664 c -1.090589,0 -0.917086,-0.59487 -0.917086,-1.0658 v -9.39394 h 2.280322 v -1.66067 h -2.305108 z" />
        </g>
        <path
           inkscape:connector-curvature="0"
           id="path880"
           d="m -6806.617,738.03204 c -1.7357,0 -3.0085,0.7425 -3.0085,2.2178 0,2.65169 3.992,1.92852 3.992,2.97955 0,0.32784 -0.3761,0.51101 -0.945,0.51101 -0.2218,0 -0.4628,-0.0578 -0.646,-0.17352 -0.1929,-0.11571 -0.3279,-0.29895 -0.3761,-0.54966 h -2.1791 c 0.048,1.25353 1.2438,2.32385 3.0759,2.32385 1.9092,0 3.2495,-0.78103 3.2495,-2.39133 0,-2.52633 -3.992,-1.88031 -3.992,-2.9217 0,-0.2507 0.2218,-0.39533 0.7232,-0.39533 0.2218,0 0.4243,0.0385 0.5882,0.12532 0.164,0.0868 0.2893,0.23147 0.3279,0.47253 h 2.1599 c -0.164,-1.21495 -1.0414,-2.19852 -2.9699,-2.19852 z m 6.9441,0.18324 v 6.94255 h 2.2756 v -2.69026 h 2.1503 v 2.69026 h 2.2756 v -6.94255 h -2.2756 v 2.34313 h -2.1503 v -2.34313 z m 12.7616,0 -2.4877,6.94255 h 2.2274 l 0.2603,-0.91598 h 2.266 l 0.27,0.91598 h 2.266 l -2.4878,-6.94255 z m 8.2814,0 v 6.94255 h 2.2756 v -2.42025 h 0.6943 c 1.0607,0 1.215,0.29895 1.215,1.20535 0,0.61711 0.058,1.06062 0.1157,1.2149 h 2.3045 v -0.21209 c -0.2699,0 -0.241,-0.30859 -0.241,-1.21498 0,-1.39816 -0.4436,-1.57169 -1.1764,-1.84168 0.81,-0.22178 1.1667,-0.89675 1.1667,-1.69708 0,-1.34994 -0.7617,-1.97672 -3.0759,-1.97672 z m 12.2927,0 -2.4878,6.94255 h 2.2274 l 0.2604,-0.91598 h 2.266 l 0.27,0.91598 h 2.2659 l -2.4877,-6.94255 z m 8.4067,0 v 6.94255 h 2.2756 v -2.43953 h 2.4878 v -1.61996 h -2.4878 v -1.26311 h 3.1242 v -1.61995 z m -18.4238,1.61995 h 1.0607 c 0.5303,0 0.9161,0.23141 0.9161,0.72318 0,0.48213 -0.3761,0.65569 -1.08,0.65569 h -0.8968 z m -9.4192,0.47246 0.7329,2.48773 h -1.4368 z m 20.5741,0 0.7328,2.48773 h -1.4368 z m -41.2248,5.85014 c -1.9381,0 -3.4616,1.39818 -3.4616,3.64488 0,2.25634 1.3885,3.66416 3.6834,3.66416 1.832,0 3.1145,-1.08001 3.317,-2.87351 h -2.1888 c -0.087,0.66534 -0.434,1.17643 -1.1668,1.17643 -1.1571,0 -1.3692,-0.91607 -1.3692,-1.88996 0,-1.34031 0.4821,-2.02493 1.2824,-2.02493 0.7136,0 1.1668,0.4146 1.2343,1.13779 h 2.1599 c -0.1832,-1.78386 -1.3692,-2.83486 -3.4906,-2.83486 z m 7.833,0 c -2.1599,0 -3.6352,1.41748 -3.6352,3.59668 0,2.3624 1.456,3.71236 3.6352,3.71236 2.0539,0 3.6449,-1.33068 3.6449,-3.69308 0,-1.83208 -1.1668,-3.61596 -3.6449,-3.61596 z m 15.553,0 c -1.7356,0 -3.0084,0.74251 -3.0084,2.21781 0,2.65168 3.992,1.92843 3.992,2.97946 0,0.32785 -0.3761,0.51109 -0.945,0.51109 -0.2218,0 -0.4628,-0.0579 -0.646,-0.1736 -0.1929,-0.11571 -0.3279,-0.29887 -0.3761,-0.54957 h -2.1792 c 0.048,1.25352 1.2439,2.32385 3.076,2.32385 1.9092,0 3.2494,-0.78104 3.2494,-2.39134 0,-2.52633 -3.9919,-1.88031 -3.9919,-2.9217 0,-0.2507 0.2218,-0.39533 0.7232,-0.39533 0.2218,0 0.4243,0.0385 0.5882,0.12533 0.1639,0.0868 0.2893,0.23146 0.3279,0.47253 h 2.1598 c -0.1639,-1.21496 -1.0414,-2.19853 -2.9699,-2.19853 z m 27.5339,0 c -1.7357,0 -3.0085,0.74251 -3.0085,2.21781 0,2.65168 3.992,1.92843 3.992,2.97946 0,0.32785 -0.3761,0.51109 -0.945,0.51109 -0.2218,0 -0.4628,-0.0579 -0.646,-0.1736 -0.1929,-0.11571 -0.3279,-0.29887 -0.3761,-0.54957 h -2.1792 c 0.048,1.25352 1.2439,2.32385 3.076,2.32385 1.9092,0 3.2495,-0.78104 3.2495,-2.39134 0,-2.52633 -3.992,-1.88031 -3.992,-2.9217 0,-0.2507 0.2218,-0.39533 0.7232,-0.39533 0.2218,0 0.4242,0.0385 0.5881,0.12533 0.164,0.0868 0.2893,0.23146 0.3279,0.47253 h 2.16 c -0.164,-1.21496 -1.0415,-2.19853 -2.9699,-2.19853 z m -38.3911,0.18324 v 6.94255 h 2.1791 v -2.19845 l -0.087,-1.58139 2.4781,3.77984 h 2.131 v -6.94255 h -2.1792 v 2.20809 l 0.087,1.58139 -2.4782,-3.78948 z m 15.0195,0 v 3.91481 c 0,2.39133 1.1957,3.21099 3.3459,3.21099 2.3046,0 3.3363,-0.97394 3.3363,-3.20135 v -3.92445 h -2.2756 v 4.15589 c 0,0.75212 -0.2411,1.27283 -1.0607,1.27283 -0.9353,0 -1.0703,-0.58821 -1.0703,-1.27283 v -4.15589 z m 8.0995,0 v 6.94255 h 5.3998 v -1.61995 h -3.1241 v -5.3226 z m 5.1218,0 v 1.8224 h 2.0442 v 5.12015 h 2.2757 v -5.12015 h 2.0442 v -1.8224 z m -32.9559,1.51383 c 1.0029,-0.0289 1.3886,0.97392 1.3886,1.91889 0,1.14745 -0.3857,1.996 -1.3693,1.996 -1.0896,0 -1.3596,-1.1089 -1.3596,-1.996 0,-0.87747 0.3086,-1.91889 1.3403,-1.91889 z"
           style="font-style:normal;font-variant:normal;font-weight:normal;font-stretch:normal;font-size:medium;line-height:1.25;font-family:'Helvetica Black';-inkscape-font-specification:'Helvetica Black, ';letter-spacing:18.40545082px;word-spacing:0px;fill:#1a1a1a;fill-opacity:1;stroke:none;stroke-width:0.14958274" />
      </g>
    </g>
  </g>
</svg>
