<?xml version="1.0" encoding="UTF-8" standalone="no"?>
<!-- Created with Inkscape (http://www.inkscape.org/) -->

<svg
   xmlns:dc="http://purl.org/dc/elements/1.1/"
   xmlns:cc="http://creativecommons.org/ns#"
   xmlns:rdf="http://www.w3.org/1999/02/22-rdf-syntax-ns#"
   xmlns:svg="http://www.w3.org/2000/svg"
   xmlns="http://www.w3.org/2000/svg"
   xmlns:sodipodi="http://sodipodi.sourceforge.net/DTD/sodipodi-0.dtd"
   xmlns:inkscape="http://www.inkscape.org/namespaces/inkscape"
   version="1.1"
   id="svg2"
   width="1920"
   height="1080"
   viewBox="0 0 1920 1080"
   sodipodi:docname="5.svg"
   inkscape:version="0.92.4 5da689c313, 2019-01-14">
  <metadata
     id="metadata8">
    <rdf:RDF>
      <cc:Work
         rdf:about="">
        <dc:format>image/svg+xml</dc:format>
        <dc:type
           rdf:resource="http://purl.org/dc/dcmitype/StillImage" />
        <dc:title></dc:title>
      </cc:Work>
    </rdf:RDF>
  </metadata>
  <defs
     id="defs6" />
  <sodipodi:namedview
     pagecolor="#ffffff"
     bordercolor="#666666"
     borderopacity="1"
     objecttolerance="10"
     gridtolerance="10"
     guidetolerance="10"
     inkscape:pageopacity="0"
     inkscape:pageshadow="2"
     inkscape:window-width="1366"
     inkscape:window-height="674"
     id="namedview4"
     showgrid="false"
     inkscape:zoom="0.39791667"
     inkscape:cx="754.69565"
     inkscape:cy="437.153"
     inkscape:window-x="0"
     inkscape:window-y="26"
     inkscape:window-maximized="1"
     inkscape:current-layer="svg2">
    <sodipodi:guide
       position="0,1080"
       orientation="1080,0"
       id="guide819"
       inkscape:locked="false" />
    <sodipodi:guide
       position="0,0"
       orientation="0,1920"
       id="guide821"
       inkscape:locked="false" />
    <sodipodi:guide
       position="1920,0"
       orientation="-1080,0"
       id="guide823"
       inkscape:locked="false" />
    <sodipodi:guide
       position="1920,1080"
       orientation="0,-1920"
       id="guide825"
       inkscape:locked="false" />
    <sodipodi:guide
       position="472.46017,811.26938"
       orientation="543.54916,0"
       id="guide829"
       inkscape:locked="false" />
    <sodipodi:guide
       position="472.46017,267.72021"
       orientation="0,965.86075"
       id="guide831"
       inkscape:locked="false" />
    <sodipodi:guide
       position="1438.3209,267.72021"
       orientation="-543.54916,0"
       id="guide833"
       inkscape:locked="false" />
    <sodipodi:guide
       position="1438.3209,811.26938"
       orientation="0,-965.86075"
       id="guide835"
       inkscape:locked="false" />
  </sodipodi:namedview>
  <rect
     style="opacity:1;fill:#f2f2f2;fill-opacity:1;fill-rule:nonzero;stroke:none;stroke-width:37.79527664;stroke-linecap:round;stroke-linejoin:round;stroke-miterlimit:4;stroke-dasharray:none;stroke-dashoffset:0;stroke-opacity:1;paint-order:markers fill stroke"
     id="rect819"
     width="1920"
     height="1080"
     x="0"
     y="0" />
  <g
     transform="matrix(0.43051712,0,0,0.43051712,475.66824,55.667902)"
     id="g893"
     style="stroke-width:3.09705091">
    <path
       d="m 1023.621,486.41 c 9.82,-2.637 20.637,-1.5 30.164,4.008 l 36.434,21.023 c -46.371,24.903 -88.371,59.016 -122.66,101.801 -34.348,42.879 -60,92.719 -75.082,145.606 -2.743,9.55 -10.278,16.968 -19.864,19.558 -9.586,2.602 -19.84,-0.023 -27.011,-6.89 L 999.504,504.961 c 0.891,-1.547 1.898,-2.977 2.953,-4.359 6.047,-4.606 12.211,-9.047 18.445,-13.325 0.891,-0.363 1.805,-0.621 2.719,-0.867 z"
       style="fill:#00aad4;fill-opacity:1;fill-rule:evenodd;stroke:none;stroke-width:3.09705091"
       id="path16"
       inkscape:connector-curvature="0" />
    <path
       d="m 1115.074,544.336 c 13.817,-3.117 27.821,4.43 32.801,17.695 4.98,13.266 -0.598,28.172 -13.066,34.91 -88.594,49.418 -148.582,142.219 -159.2,243.223 -0.679,7.559 -4.371,14.531 -10.242,19.348 -5.859,4.816 -13.418,7.078 -20.965,6.281 -7.547,-0.797 -14.461,-4.582 -19.195,-10.512 -4.734,-5.941 -6.891,-13.523 -5.977,-21.058 12.54,-119.368 82.618,-228.047 187.946,-286.805 2.461,-1.418 5.121,-2.449 7.898,-3.082 z"
       style="fill:#00aad4;fill-opacity:1;fill-rule:evenodd;stroke:none;stroke-width:3.09705091"
       id="path18"
       inkscape:connector-curvature="0" />
    <path
       d="m 1217.168,607.336 c 9.621,-2.473 19.336,-4.406 29.133,-5.777 l 256.254,147.949 c 19.066,11.004 25.547,35.215 14.543,54.281 l -44.051,76.301 c 17.355,-82.945 -28.84,-171.528 -108.469,-207.176 -41.344,-18.504 -89.098,-22.16 -133.16,-10.699 -7.301,1.969 -15.094,0.937 -21.633,-2.86 -6.551,-3.796 -11.297,-10.066 -13.207,-17.39 -1.898,-7.324 -0.797,-15.106 3.07,-21.61 3.868,-6.503 10.172,-11.191 17.52,-13.019 z"
       style="fill:#00aad4;fill-opacity:1;fill-rule:evenodd;stroke:none;stroke-width:3.09705091"
       id="path20"
       inkscape:connector-curvature="0" />
    <path
       d="m 1130.578,649.875 c 13.113,-3.703 27.012,2.461 33.082,14.66 6.07,12.211 2.59,27.012 -8.285,35.238 -97.371,75.75 -109.641,221.789 -33.973,317.872 40.453,51.386 102.153,84.597 167.426,91.171 7.594,0.61 14.625,4.254 19.512,10.102 4.875,5.859 7.195,13.43 6.433,21.012 -0.773,7.582 -4.558,14.531 -10.511,19.289 -5.953,4.758 -13.571,6.926 -21.129,6 -80.555,-8.121 -155.918,-48.563 -206.274,-112.512 -94.699,-120.281 -79.476,-301.852 43.7,-397.676 2.964,-2.379 6.363,-4.125 10.019,-5.156 z"
       style="fill:#00aad4;fill-opacity:1;fill-rule:evenodd;stroke:none;stroke-width:3.09705091"
       id="path22"
       inkscape:connector-curvature="0" />
    <path
       d="m 842.004,803.777 c 9.105,-2.718 18.973,-0.691 26.262,5.391 7.3,6.082 11.074,15.422 10.031,24.867 -9.024,94.758 15.023,191.707 66.797,271.688 2.824,4.382 4.383,9.457 4.5,14.672 l -88.336,-51.012 c -33.223,-75.164 -47.25,-158.367 -39.399,-240.715 0.938,-11.66 8.942,-21.539 20.145,-24.891 z"
       style="fill:#00aad4;fill-opacity:1;fill-rule:evenodd;stroke:none;stroke-width:3.09705091"
       id="path24"
       inkscape:connector-curvature="0" />
    <path
       d="m 1240.5,702.211 c 51.492,-13.793 108.645,-3.41 150.516,36.281 54.515,51.68 63.621,142.735 7.207,198.738 -43.899,43.582 -120.235,50.157 -165,0.352 -5.203,-5.566 -7.957,-12.984 -7.629,-20.59 0.34,-7.617 3.715,-14.765 9.375,-19.863 5.66,-5.086 13.136,-7.688 20.742,-7.207 7.594,0.48 14.684,3.996 19.664,9.762 20.906,23.25 60.305,19.769 82.922,-2.684 31.875,-31.652 26.344,-86.426 -6.305,-117.363 -42.375,-40.172 -112.535,-32.496 -151.64,10.476 -48.317,53.121 -38.438,138.703 14.976,185.871 7.465,6.598 15.668,12.434 24.352,17.368 6.597,3.679 11.461,9.843 13.5,17.132 2.027,7.278 1.078,15.059 -2.66,21.633 -3.739,6.574 -9.938,11.379 -17.227,13.36 -7.301,1.98 -15.082,0.961 -21.621,-2.825 -12.07,-6.855 -23.438,-14.964 -33.867,-24.175 -76.231,-67.325 -90.246,-188.637 -19.395,-266.52 22.313,-24.527 51.188,-41.473 82.09,-49.734 z"
       style="fill:#00aad4;fill-opacity:1;fill-rule:evenodd;stroke:none;stroke-width:3.09705091"
       id="path26"
       inkscape:connector-curvature="0" />
    <path
       d="m 779.25,886.441 c 0.422,22.149 2.285,44.438 5.719,66.774 4.429,28.758 11.273,56.765 20.308,83.847 l -50.32,-29.05 c -19.066,-11.016 -25.559,-35.227 -14.555,-54.293 z"
       style="fill:#00aad4;fill-opacity:1;fill-rule:evenodd;stroke:none;stroke-width:3.09705091"
       id="path28"
       inkscape:connector-curvature="0" />
    <path
       d="m 942.844,899.391 c 7.781,-1.875 15.996,-0.364 22.617,4.148 6.609,4.512 11.016,11.613 12.105,19.535 11.684,76.641 51.246,148.172 109.571,199.418 5.836,4.91 9.457,11.965 10.031,19.57 0.586,7.606 -1.934,15.129 -6.961,20.86 -5.039,5.73 -12.176,9.187 -19.793,9.598 -7.617,0.41 -15.07,-2.274 -20.695,-7.43 -68.367,-60.082 -114.457,-143.262 -128.203,-233.485 -2.438,-14.671 6.879,-28.722 21.328,-32.214 z"
       style="fill:#00aad4;fill-opacity:1;fill-rule:evenodd;stroke:none;stroke-width:3.09705091"
       id="path30"
       inkscape:connector-curvature="0" />
    <path
       d="m 1288.617,1012.816 c 3.399,-0.89 6.926,-1.148 10.418,-0.761 15.539,1.511 31.383,0.621 46.746,-2.59 9.153,-1.957 18.692,0.726 25.489,7.183 6.785,6.457 9.949,15.844 8.449,25.102 l -10.031,17.355 c -3.575,2.93 -7.805,4.946 -12.329,5.872 -20.929,4.371 -42.492,5.578 -63.855,3.492 -13.734,-1.149 -24.656,-12.024 -25.863,-25.77 -1.207,-13.734 7.652,-26.355 20.976,-29.883 z"
       style="fill:#00aad4;fill-opacity:1;fill-rule:evenodd;stroke:none;stroke-width:3.09705091"
       id="path32"
       inkscape:connector-curvature="0" />
    <path
       d="m 933.234,1728.199 c -0.726,0 -1.336,0.246 -1.816,0.727 -0.469,0.469 -0.703,1.031 -0.703,1.711 0,0.668 0.234,1.23 0.703,1.699 0.492,0.457 1.09,0.691 1.816,0.691 0.715,0 1.313,-0.222 1.77,-0.691 0.492,-0.492 0.738,-1.078 0.738,-1.781 0,-0.668 -0.246,-1.219 -0.738,-1.664 -0.457,-0.457 -1.055,-0.692 -1.77,-0.692 z m 339.668,0 c -0.726,0 -1.336,0.246 -1.816,0.727 -0.469,0.469 -0.703,1.031 -0.703,1.711 0,0.668 0.234,1.23 0.703,1.699 0.492,0.457 1.09,0.691 1.816,0.691 0.715,0 1.313,-0.222 1.782,-0.691 0.48,-0.492 0.726,-1.078 0.726,-1.781 0,-0.668 -0.246,-1.219 -0.726,-1.664 -0.469,-0.457 -1.067,-0.692 -1.782,-0.692 z m 326.098,0 c -0.715,0 -1.324,0.246 -1.816,0.727 -0.457,0.469 -0.692,1.031 -0.692,1.711 0,0.668 0.235,1.23 0.692,1.699 0.492,0.457 1.101,0.691 1.816,0.691 0.727,0 1.312,-0.222 1.781,-0.691 0.481,-0.492 0.727,-1.078 0.727,-1.781 0,-0.668 -0.246,-1.219 -0.727,-1.664 -0.469,-0.457 -1.054,-0.692 -1.781,-0.692 z m -817.184,0.574 v 28.676 h 3.704 v -10.547 c 0,-2.191 0.585,-3.867 1.746,-5.027 1.16,-1.184 2.742,-1.77 4.757,-1.77 1.77,0 3.141,0.504 4.09,1.5 0.949,1.008 1.43,2.508 1.43,4.489 v 11.355 h 3.703 v -11.789 c 0,-2.906 -0.762,-5.109 -2.308,-6.609 -1.524,-1.512 -3.586,-2.274 -6.188,-2.274 -1.547,0 -2.953,0.27 -4.207,0.809 -1.242,0.539 -2.25,1.301 -3.023,2.285 v -11.098 z m 323.895,0 v 11.286 c -0.82,-1.079 -1.852,-1.887 -3.094,-2.426 -1.23,-0.574 -2.59,-0.856 -4.055,-0.856 -1.98,0 -3.761,0.434 -5.332,1.313 -1.57,0.879 -2.812,2.098 -3.714,3.668 -0.868,1.582 -1.313,3.398 -1.313,5.449 0,2.063 0.445,3.891 1.313,5.484 0.902,1.582 2.144,2.801 3.714,3.68 1.571,0.867 3.352,1.313 5.332,1.313 1.524,0 2.918,-0.293 4.172,-0.891 1.266,-0.598 2.309,-1.453 3.129,-2.59 v 3.246 h 3.563 v -28.676 z m 303.879,0 v 28.676 h 3.715 v -28.676 z m -853.664,1.313 c -2.707,0 -5.145,0.609 -7.336,1.816 -2.192,1.196 -3.902,2.836 -5.145,4.957 -1.23,2.086 -1.851,4.442 -1.851,7.067 0,2.625 0.621,4.992 1.851,7.113 1.243,2.086 2.942,3.738 5.098,4.945 2.191,1.184 4.641,1.77 7.348,1.77 2.109,0 4.043,-0.352 5.789,-1.078 1.781,-0.715 3.293,-1.77 4.523,-3.164 l -2.508,-2.438 c -2.062,2.168 -4.605,3.246 -7.617,3.246 -2.004,0 -3.82,-0.445 -5.437,-1.347 -1.629,-0.903 -2.907,-2.145 -3.832,-3.715 -0.903,-1.594 -1.36,-3.375 -1.36,-5.332 0,-1.957 0.457,-3.727 1.36,-5.297 0.925,-1.594 2.203,-2.848 3.832,-3.75 1.617,-0.902 3.433,-1.348 5.437,-1.348 3.047,0 5.578,1.067 7.617,3.199 l 2.508,-2.425 c -1.23,-1.395 -2.73,-2.438 -4.476,-3.129 -1.758,-0.727 -3.692,-1.09 -5.801,-1.09 z m 910.828,0 c -2.297,0 -4.219,0.352 -5.766,1.055 -1.535,0.691 -2.695,1.617 -3.468,2.777 -0.75,1.16 -1.125,2.461 -1.125,3.902 0,1.723 0.445,3.106 1.312,4.137 0.902,1.008 1.981,1.758 3.211,2.238 1.266,0.493 2.906,0.985 4.945,1.465 1.617,0.387 2.871,0.738 3.75,1.043 0.903,0.317 1.641,0.762 2.239,1.359 0.621,0.563 0.925,1.313 0.925,2.239 0,1.265 -0.55,2.285 -1.664,3.058 -1.101,0.739 -2.777,1.114 -5.015,1.114 -1.7,0 -3.364,-0.282 -4.981,-0.844 -1.605,-0.598 -2.918,-1.359 -3.949,-2.285 l -1.43,3.011 c 1.078,1.008 2.567,1.829 4.442,2.473 1.91,0.621 3.879,0.926 5.918,0.926 v 0.012 c 2.285,0 4.218,-0.328 5.789,-1.008 1.57,-0.692 2.742,-1.617 3.515,-2.778 0.774,-1.183 1.16,-2.496 1.16,-3.902 0,-1.699 -0.445,-3.058 -1.347,-4.066 -0.879,-0.996 -1.934,-1.746 -3.164,-2.239 -1.242,-0.492 -2.871,-0.972 -4.91,-1.464 -1.571,-0.364 -2.825,-0.692 -3.75,-1.008 -0.903,-0.328 -1.664,-0.785 -2.274,-1.348 -0.621,-0.598 -0.937,-1.359 -0.937,-2.285 0,-1.254 0.539,-2.297 1.629,-3.094 1.101,-0.797 2.753,-1.195 4.945,-1.195 1.242,0 2.496,0.199 3.785,0.574 1.289,0.363 2.496,0.902 3.633,1.629 l 1.277,-3.094 c -1.113,-0.773 -2.437,-1.359 -3.984,-1.769 -1.547,-0.422 -3.117,-0.633 -4.711,-0.633 z m -415.184,0.316 v 27.047 h 19.629 v -3.363 h -15.761 v -8.731 h 13.558 v -3.281 h -13.558 v -8.308 h 15.222 v -3.364 z m 190.571,2.086 v 4.477 h -3.481 v 3.058 h 3.481 v 11.25 c 0,2.051 0.562,3.645 1.699,4.747 1.125,1.113 2.73,1.664 4.793,1.664 0.844,0 1.676,-0.118 2.472,-0.352 0.797,-0.258 1.465,-0.609 2.004,-1.078 l -1.16,-2.66 c -0.797,0.644 -1.769,0.961 -2.894,0.961 -1.032,0 -1.828,-0.293 -2.403,-0.891 -0.539,-0.598 -0.808,-1.441 -0.808,-2.555 v -11.086 h 5.871 v -3.058 h -5.871 v -4.477 z m -649.582,4.289 c -2.028,0 -3.856,0.446 -5.485,1.348 -1.617,0.879 -2.894,2.121 -3.82,3.715 -0.902,1.57 -1.359,3.363 -1.359,5.367 0,2.016 0.457,3.809 1.359,5.414 0.926,1.57 2.203,2.813 3.82,3.715 1.629,0.902 3.457,1.348 5.485,1.348 2.039,0 3.855,-0.446 5.449,-1.348 1.629,-0.902 2.894,-2.145 3.797,-3.715 0.925,-1.605 1.383,-3.398 1.383,-5.414 0,-2.004 -0.458,-3.797 -1.383,-5.367 -0.903,-1.594 -2.168,-2.836 -3.797,-3.715 -1.594,-0.902 -3.41,-1.348 -5.449,-1.348 z m 39.855,0 c -1.547,0 -2.93,0.282 -4.137,0.856 -1.218,0.539 -2.191,1.336 -2.941,2.39 v -3.058 h -3.551 v 20.484 h 3.703 v -10.547 c 0,-2.191 0.563,-3.867 1.664,-5.027 1.114,-1.184 2.602,-1.77 4.489,-1.77 1.699,0 3,0.504 3.902,1.5 0.926,1.008 1.383,2.508 1.383,4.489 v 11.355 h 3.715 v -10.547 c 0,-2.191 0.55,-3.867 1.664,-5.027 1.101,-1.184 2.601,-1.77 4.476,-1.77 1.699,0 3,0.504 3.903,1.5 0.925,1.008 1.394,2.508 1.394,4.489 v 11.355 h 3.715 v -11.789 c 0,-2.93 -0.762,-5.144 -2.285,-6.644 -1.5,-1.489 -3.528,-2.239 -6.106,-2.239 -1.722,0 -3.281,0.34 -4.675,1.008 -1.36,0.668 -2.438,1.594 -3.211,2.777 -0.668,-1.23 -1.618,-2.179 -2.86,-2.824 -1.23,-0.644 -2.648,-0.961 -4.242,-0.961 z m 54.527,0 c -1.523,0 -2.918,0.293 -4.183,0.891 -1.254,0.562 -2.297,1.418 -3.129,2.543 v -3.246 h -3.551 v 27.984 h 3.703 v -10.594 c 0.856,1.09 1.887,1.911 3.094,2.473 1.242,0.574 2.59,0.856 4.066,0.856 1.981,0 3.75,-0.446 5.321,-1.313 1.57,-0.879 2.8,-2.098 3.679,-3.68 0.903,-1.593 1.348,-3.421 1.348,-5.484 0,-2.051 -0.445,-3.867 -1.348,-5.449 -0.879,-1.57 -2.109,-2.789 -3.679,-3.668 -1.571,-0.879 -3.34,-1.313 -5.321,-1.313 z m 39.95,0 c -1.805,0 -3.329,0.305 -4.594,0.926 -1.266,0.621 -2.215,1.524 -2.859,2.707 v -3.398 h -3.551 v 20.484 h 3.703 v -10.207 c 0,-2.215 0.574,-3.914 1.699,-5.109 1.16,-1.207 2.754,-1.805 4.758,-1.805 h 0.844 z m 26.203,0 c -1.957,0 -3.727,0.446 -5.297,1.348 -1.547,0.879 -2.766,2.121 -3.668,3.715 -0.879,1.594 -1.313,3.387 -1.313,5.367 0,2.016 0.446,3.809 1.348,5.414 0.926,1.594 2.227,2.848 3.902,3.75 1.676,0.867 3.598,1.313 5.754,1.313 1.7,0 3.235,-0.282 4.606,-0.856 1.394,-0.562 2.543,-1.383 3.48,-2.473 l -2.051,-2.39 c -1.5,1.652 -3.468,2.473 -5.906,2.473 -2.015,0 -3.703,-0.54 -5.062,-1.629 -1.348,-1.102 -2.133,-2.555 -2.367,-4.36 h 16.617 c 0.058,-0.469 0.093,-0.844 0.093,-1.125 h -0.011 c 0,-2.062 -0.446,-3.89 -1.313,-5.484 -0.855,-1.594 -2.051,-2.836 -3.597,-3.715 -1.524,-0.902 -3.258,-1.348 -5.215,-1.348 z m 76.98,0 c -1.957,0 -3.726,0.446 -5.297,1.348 -1.547,0.879 -2.765,2.121 -3.668,3.715 -0.879,1.594 -1.312,3.387 -1.312,5.367 0,2.016 0.445,3.809 1.348,5.414 0.937,1.594 2.238,2.848 3.902,3.75 1.676,0.867 3.598,1.313 5.765,1.313 1.7,0 3.235,-0.282 4.594,-0.856 1.395,-0.562 2.555,-1.383 3.481,-2.473 l -2.051,-2.39 c -1.488,1.652 -3.457,2.473 -5.906,2.473 -2.016,0 -3.703,-0.54 -5.063,-1.629 -1.347,-1.102 -2.133,-2.555 -2.367,-4.36 h 16.617 c 0.059,-0.469 0.094,-0.844 0.094,-1.125 h -0.012 c 0,-2.062 -0.433,-3.89 -1.312,-5.484 -0.856,-1.594 -2.051,-2.836 -3.598,-3.715 -1.523,-0.902 -3.258,-1.348 -5.215,-1.348 z m 39.656,0 c -1.617,0 -3.07,0.282 -4.359,0.856 -1.266,0.562 -2.273,1.371 -3.023,2.426 v -3.094 h -3.551 v 20.484 h 3.715 v -10.547 c 0,-2.191 0.574,-3.867 1.734,-5.027 1.16,-1.184 2.742,-1.77 4.758,-1.77 1.769,0 3.141,0.504 4.09,1.5 0.961,1.008 1.429,2.508 1.429,4.489 v 11.355 h 3.715 v -11.789 c 0,-2.906 -0.773,-5.109 -2.32,-6.609 -1.523,-1.512 -3.586,-2.274 -6.188,-2.274 z m 128.731,0 c -1.957,0 -3.727,0.446 -5.297,1.348 -1.547,0.879 -2.766,2.121 -3.668,3.715 -0.879,1.594 -1.312,3.387 -1.312,5.367 0,2.016 0.445,3.809 1.347,5.414 0.926,1.594 2.227,2.848 3.903,3.75 1.675,0.867 3.597,1.313 5.765,1.313 1.699,0 3.223,-0.282 4.594,-0.856 1.383,-0.562 2.555,-1.383 3.48,-2.473 l -2.05,-2.39 c -1.489,1.652 -3.469,2.473 -5.918,2.473 -2.004,0 -3.692,-0.54 -5.051,-1.629 -1.348,-1.102 -2.133,-2.555 -2.367,-4.36 h 16.617 c 0.058,-0.469 0.094,-0.844 0.094,-1.125 h -0.012 c 0,-2.062 -0.434,-3.89 -1.313,-5.484 -0.855,-1.594 -2.05,-2.836 -3.597,-3.715 -1.524,-0.902 -3.258,-1.348 -5.215,-1.348 z m 179.988,0 c -2.086,0 -3.961,0.446 -5.613,1.348 -1.617,0.879 -2.895,2.121 -3.82,3.715 -0.926,1.57 -1.395,3.363 -1.395,5.367 0,2.016 0.469,3.809 1.395,5.414 0.925,1.57 2.203,2.813 3.82,3.715 1.652,0.902 3.527,1.348 5.613,1.348 1.852,0 3.504,-0.364 4.946,-1.114 1.464,-0.773 2.601,-1.875 3.398,-3.293 l -2.824,-1.769 c -0.645,0.984 -1.442,1.711 -2.391,2.203 -0.961,0.48 -2.016,0.727 -3.176,0.727 -1.336,0 -2.543,-0.293 -3.632,-0.891 -1.055,-0.586 -1.887,-1.43 -2.508,-2.508 -0.586,-1.101 -0.891,-2.379 -0.891,-3.832 0,-1.406 0.305,-2.66 0.891,-3.738 0.621,-1.114 1.453,-1.957 2.508,-2.555 1.089,-0.586 2.296,-0.891 3.632,-0.891 1.16,0 2.215,0.247 3.176,0.739 0.949,0.48 1.746,1.218 2.391,2.191 l 2.824,-1.805 c -0.797,-1.418 -1.934,-2.507 -3.398,-3.257 -1.442,-0.739 -3.094,-1.114 -4.946,-1.114 z m 34.043,0 c -1.652,0 -3.211,0.235 -4.676,0.692 -1.464,0.445 -2.73,1.09 -3.785,1.933 l 1.547,2.789 c 0.797,-0.668 1.781,-1.207 2.942,-1.593 1.148,-0.41 2.343,-0.61 3.55,-0.61 1.805,0 3.164,0.422 4.09,1.266 0.926,0.855 1.395,2.086 1.395,3.68 v 0.726 h -5.871 c -2.86,0 -4.946,0.551 -6.258,1.664 -1.324,1.078 -1.969,2.52 -1.969,4.324 0,1.805 0.68,3.258 2.039,4.372 1.395,1.113 3.234,1.664 5.531,1.664 1.571,0 2.918,-0.246 4.055,-0.739 1.16,-0.515 2.051,-1.242 2.66,-2.203 v 2.707 h 3.516 v -12.363 c 0,-2.754 -0.75,-4.828 -2.274,-6.223 -1.488,-1.394 -3.656,-2.086 -6.492,-2.086 z m 91.559,0 c -2.039,0 -3.867,0.446 -5.485,1.348 -1.628,0.879 -2.906,2.121 -3.832,3.715 -0.902,1.57 -1.347,3.363 -1.347,5.367 0,2.016 0.445,3.809 1.347,5.414 0.926,1.57 2.204,2.813 3.832,3.715 1.618,0.902 3.446,1.348 5.485,1.348 2.027,0 3.844,-0.446 5.449,-1.348 1.617,-0.902 2.883,-2.145 3.785,-3.715 0.926,-1.605 1.395,-3.398 1.395,-5.414 0,-2.004 -0.469,-3.797 -1.395,-5.367 -0.902,-1.594 -2.168,-2.836 -3.785,-3.715 -1.605,-0.902 -3.422,-1.348 -5.449,-1.348 z m 40.148,0 c -1.617,0 -3.07,0.282 -4.359,0.856 -1.266,0.562 -2.274,1.371 -3.024,2.426 v -3.094 h -3.55 v 20.484 h 3.714 v -10.547 c 0,-2.191 0.575,-3.867 1.735,-5.027 1.16,-1.184 2.742,-1.77 4.746,-1.77 1.781,0 3.152,0.504 4.101,1.5 0.95,1.008 1.43,2.508 1.43,4.489 v 11.355 h 3.715 v -11.789 c 0,-2.906 -0.773,-5.109 -2.32,-6.609 -1.524,-1.512 -3.586,-2.274 -6.188,-2.274 z m 36.293,0 c -1.652,0 -3.211,0.235 -4.676,0.692 -1.476,0.445 -2.73,1.09 -3.785,1.933 l 1.547,2.789 c 0.797,-0.668 1.77,-1.207 2.93,-1.593 1.16,-0.41 2.344,-0.61 3.551,-0.61 1.804,0 3.175,0.422 4.101,1.266 0.926,0.855 1.395,2.086 1.395,3.68 v 0.726 h -5.871 c -2.86,0 -4.957,0.551 -6.27,1.664 -1.312,1.078 -1.969,2.52 -1.969,4.324 0,1.805 0.692,3.258 2.051,4.372 1.395,1.113 3.234,1.664 5.531,1.664 1.571,0 2.918,-0.246 4.055,-0.739 1.16,-0.515 2.039,-1.242 2.66,-2.203 v 2.707 h 3.516 v -12.363 c 0,-2.754 -0.762,-4.828 -2.274,-6.223 -1.5,-1.394 -3.656,-2.086 -6.492,-2.086 z m 123,0 c -1.957,0 -3.715,0.446 -5.285,1.348 -1.547,0.879 -2.777,2.121 -3.68,3.715 -0.867,1.594 -1.312,3.387 -1.312,5.367 0,2.016 0.457,3.809 1.359,5.414 0.926,1.594 2.227,2.848 3.903,3.75 1.675,0.867 3.585,1.313 5.753,1.313 1.7,0 3.235,-0.282 4.594,-0.856 1.395,-0.562 2.555,-1.383 3.481,-2.473 l -2.039,-2.39 c -1.5,1.652 -3.469,2.473 -5.918,2.473 -2.016,0 -3.703,-0.54 -5.063,-1.629 -1.347,-1.102 -2.121,-2.555 -2.355,-4.36 h 16.617 c 0.047,-0.469 0.082,-0.844 0.082,-1.125 h -0.012 c 0,-2.062 -0.433,-3.89 -1.312,-5.484 -0.844,-1.594 -2.051,-2.836 -3.586,-3.715 -1.524,-0.902 -3.27,-1.348 -5.227,-1.348 z m 39.738,0 c -1.804,0 -3.328,0.305 -4.593,0.926 -1.266,0.621 -2.215,1.524 -2.86,2.707 v -3.398 h -3.562 v 20.484 h 3.715 v -10.207 c 0,-2.215 0.562,-3.914 1.699,-5.109 1.16,-1.207 2.742,-1.805 4.758,-1.805 h 0.843 z m 87.071,0 c -2.086,0 -3.949,0.446 -5.602,1.348 -1.617,0.879 -2.894,2.121 -3.82,3.715 -0.926,1.57 -1.395,3.363 -1.395,5.367 0,2.016 0.469,3.809 1.395,5.414 0.926,1.57 2.203,2.813 3.82,3.715 1.653,0.902 3.516,1.348 5.602,1.348 1.863,0 3.515,-0.364 4.957,-1.114 1.465,-0.773 2.601,-1.875 3.398,-3.293 l -2.824,-1.769 c -0.644,0.984 -1.441,1.711 -2.391,2.203 -0.961,0.48 -2.015,0.727 -3.175,0.727 -1.336,0 -2.543,-0.293 -3.633,-0.891 -1.055,-0.586 -1.899,-1.43 -2.508,-2.508 -0.598,-1.101 -0.891,-2.379 -0.891,-3.832 0,-1.406 0.293,-2.66 0.891,-3.738 0.609,-1.114 1.453,-1.957 2.508,-2.555 1.09,-0.586 2.297,-0.891 3.633,-0.891 1.16,0 2.214,0.247 3.175,0.739 0.95,0.48 1.747,1.218 2.391,2.191 l 2.824,-1.805 c -0.797,-1.418 -1.933,-2.507 -3.398,-3.257 -1.442,-0.739 -3.094,-1.114 -4.957,-1.114 z m 34.664,0 c -1.957,0 -3.727,0.446 -5.297,1.348 -1.547,0.879 -2.766,2.121 -3.668,3.715 -0.879,1.594 -1.312,3.387 -1.312,5.367 0,2.016 0.445,3.809 1.347,5.414 0.938,1.594 2.227,2.848 3.903,3.75 1.675,0.867 3.597,1.313 5.765,1.313 1.699,0 3.223,-0.282 4.594,-0.856 1.394,-0.562 2.555,-1.383 3.48,-2.473 l -2.05,-2.39 c -1.489,1.652 -3.469,2.473 -5.918,2.473 -2.004,0 -3.692,-0.54 -5.051,-1.629 -1.348,-1.102 -2.133,-2.555 -2.367,-4.36 h 16.617 c 0.058,-0.469 0.082,-0.844 0.082,-1.125 0,-2.062 -0.434,-3.89 -1.313,-5.484 -0.855,-1.594 -2.05,-2.836 -3.597,-3.715 -1.524,-0.902 -3.258,-1.348 -5.215,-1.348 z m -759.797,0 c -2.602,0 -4.664,0.575 -6.211,1.7 -1.547,1.113 -2.32,2.589 -2.32,4.441 0,1.453 0.375,2.566 1.113,3.363 0.75,0.809 1.641,1.371 2.672,1.699 1.055,0.34 2.402,0.633 4.055,0.891 1.207,0.211 2.144,0.399 2.789,0.586 0.668,0.152 1.218,0.41 1.652,0.773 0.445,0.352 0.656,0.844 0.656,1.465 0,1.852 -1.617,2.778 -4.863,2.778 -1.313,0 -2.613,-0.188 -3.902,-0.575 -1.289,-0.386 -2.391,-0.902 -3.282,-1.546 l -1.547,2.941 c 0.868,0.691 2.086,1.266 3.633,1.734 1.547,0.434 3.153,0.657 4.828,0.657 2.731,0 4.887,-0.539 6.457,-1.618 1.594,-1.113 2.391,-2.589 2.391,-4.441 0,-1.395 -0.363,-2.484 -1.078,-3.258 -0.727,-0.762 -1.606,-1.301 -2.625,-1.617 -1.008,-0.328 -2.332,-0.645 -3.984,-0.926 -1.231,-0.234 -2.204,-0.433 -2.895,-0.621 -0.668,-0.176 -1.242,-0.469 -1.699,-0.855 -0.469,-0.387 -0.703,-0.914 -0.703,-1.582 0,-0.844 0.41,-1.524 1.242,-2.039 0.82,-0.516 2.015,-0.774 3.586,-0.774 2.273,0 4.242,0.539 5.918,1.617 l 1.582,-2.941 c -0.879,-0.563 -1.992,-1.008 -3.363,-1.348 -1.36,-0.34 -2.731,-0.504 -4.102,-0.504 z m 795.129,0 c -2.602,0 -4.676,0.575 -6.223,1.7 -1.547,1.113 -2.32,2.589 -2.32,4.441 0,1.453 0.375,2.566 1.125,3.363 0.75,0.809 1.629,1.371 2.66,1.699 1.055,0.34 2.414,0.633 4.066,0.891 1.207,0.211 2.133,0.399 2.778,0.586 0.668,0.152 1.23,0.41 1.664,0.773 0.433,0.352 0.656,0.844 0.656,1.465 0,1.852 -1.629,2.778 -4.875,2.778 -1.312,0 -2.613,-0.188 -3.902,-0.575 -1.289,-0.386 -2.379,-0.902 -3.281,-1.546 l -1.547,2.941 c 0.879,0.691 2.086,1.266 3.632,1.734 1.547,0.434 3.153,0.657 4.829,0.657 2.73,0 4.886,-0.539 6.457,-1.618 1.605,-1.113 2.402,-2.589 2.402,-4.441 0,-1.395 -0.363,-2.484 -1.09,-3.258 -0.715,-0.762 -1.594,-1.301 -2.625,-1.617 -1.008,-0.328 -2.332,-0.645 -3.984,-0.926 -1.231,-0.234 -2.192,-0.433 -2.895,-0.621 -0.668,-0.176 -1.23,-0.469 -1.699,-0.855 -0.469,-0.387 -0.691,-0.914 -0.691,-1.582 0,-0.844 0.41,-1.524 1.23,-2.039 0.832,-0.516 2.027,-0.774 3.598,-0.774 2.261,0 4.242,0.539 5.906,1.617 l 1.582,-2.941 c -0.867,-0.563 -1.992,-1.008 -3.352,-1.348 -1.371,-0.34 -2.73,-0.504 -4.101,-0.504 z m -768.914,0.188 v 20.484 h 3.703 v -20.484 z m 20.637,0 8.964,20.484 h 3.786 l 8.964,-20.484 h -3.632 l -7.184,16.43 -7.031,-16.43 z m 177.691,0 v 11.789 c 0,2.941 0.785,5.168 2.355,6.68 1.571,1.5 3.727,2.25 6.457,2.25 1.442,0 2.766,-0.282 3.985,-0.856 1.23,-0.586 2.226,-1.418 2.976,-2.473 v 3.094 H 1149 v -20.484 h -3.715 v 10.594 c 0,2.168 -0.562,3.843 -1.699,5.027 -1.137,1.184 -2.684,1.769 -4.641,1.769 -1.769,0 -3.14,-0.503 -4.09,-1.5 -0.96,-1.031 -1.429,-2.543 -1.429,-4.523 v -11.367 z m 141.328,0 v 20.484 h 3.715 v -20.484 z m 287.461,0 8.965,20.484 h 3.785 l 8.965,-20.484 h -3.633 l -7.184,16.43 -7.031,-16.43 z m 38.648,0 v 20.484 h 3.715 v -20.484 z m -844.043,2.941 c 1.77,0 3.247,0.551 4.442,1.664 1.207,1.078 1.922,2.485 2.121,4.207 h -13.137 c 0.199,-1.746 0.903,-3.164 2.086,-4.242 1.207,-1.09 2.707,-1.629 4.488,-1.629 z m 76.981,0 c 1.769,0 3.258,0.551 4.441,1.664 1.207,1.078 1.922,2.485 2.121,4.207 h -13.136 c 0.211,-1.746 0.902,-3.164 2.086,-4.242 1.218,-1.09 2.707,-1.629 4.488,-1.629 z m 168.387,0 c 1.769,0 3.257,0.551 4.441,1.664 1.207,1.078 1.922,2.485 2.121,4.207 h -13.137 c 0.211,-1.746 0.903,-3.164 2.086,-4.242 1.207,-1.09 2.707,-1.629 4.489,-1.629 z m 505.031,0 c 1.781,0 3.258,0.551 4.441,1.664 1.219,1.078 1.922,2.485 2.133,4.207 h -13.137 c 0.2,-1.746 0.903,-3.164 2.086,-4.242 1.207,-1.09 2.696,-1.629 4.477,-1.629 z m 161.473,0 c 1.769,0 3.257,0.551 4.441,1.664 1.207,1.078 1.922,2.485 2.121,4.207 h -13.137 c 0.211,-1.746 0.903,-3.164 2.086,-4.242 1.219,-1.09 2.707,-1.629 4.489,-1.629 z m -1072.418,0.117 c 1.312,0 2.484,0.293 3.515,0.891 1.067,0.586 1.887,1.441 2.485,2.555 0.586,1.078 0.879,2.332 0.879,3.738 0,1.418 -0.293,2.684 -0.879,3.785 -0.598,1.09 -1.418,1.934 -2.485,2.555 -1.031,0.598 -2.203,0.891 -3.515,0.891 -1.313,0 -2.497,-0.293 -3.551,-0.891 -1.031,-0.621 -1.852,-1.465 -2.473,-2.555 -0.597,-1.101 -0.89,-2.367 -0.89,-3.785 0,-1.406 0.293,-2.66 0.89,-3.738 0.621,-1.114 1.442,-1.969 2.473,-2.555 1.054,-0.598 2.238,-0.891 3.551,-0.891 z m 94.066,0 c 1.313,0 2.484,0.293 3.516,0.891 1.054,0.586 1.886,1.441 2.472,2.555 0.621,1.078 0.938,2.332 0.938,3.738 0,1.418 -0.317,2.684 -0.938,3.785 -0.586,1.09 -1.418,1.934 -2.472,2.555 -1.032,0.598 -2.203,0.891 -3.516,0.891 -1.289,0 -2.461,-0.293 -3.516,-0.891 -1.054,-0.621 -1.875,-1.465 -2.472,-2.555 -0.586,-1.101 -0.891,-2.367 -0.891,-3.785 0,-1.406 0.305,-2.66 0.891,-3.738 0.621,-1.09 1.441,-1.922 2.472,-2.52 1.055,-0.621 2.227,-0.926 3.516,-0.926 z m 412.242,0 c 1.289,0 2.473,0.293 3.528,0.891 1.054,0.586 1.875,1.441 2.46,2.555 0.598,1.078 0.903,2.332 0.903,3.738 0,1.418 -0.305,2.684 -0.903,3.785 -0.585,1.09 -1.406,1.934 -2.46,2.555 -1.055,0.598 -2.239,0.891 -3.528,0.891 -1.312,0 -2.496,-0.293 -3.551,-0.891 -1.031,-0.621 -1.851,-1.465 -2.472,-2.555 -0.586,-1.101 -0.891,-2.367 -0.891,-3.785 0,-1.406 0.305,-2.66 0.891,-3.738 0.621,-1.114 1.441,-1.969 2.472,-2.555 1.055,-0.598 2.239,-0.891 3.551,-0.891 z m 205.184,0 c 1.312,0 2.484,0.293 3.515,0.891 1.055,0.586 1.875,1.441 2.473,2.555 0.586,1.078 0.891,2.332 0.891,3.738 0,1.418 -0.305,2.684 -0.891,3.785 -0.598,1.09 -1.418,1.934 -2.473,2.555 -1.031,0.598 -2.203,0.891 -3.515,0.891 -1.313,0 -2.508,-0.293 -3.563,-0.891 -1.031,-0.621 -1.851,-1.465 -2.461,-2.555 -0.597,-1.101 -0.902,-2.367 -0.902,-3.785 0,-1.406 0.305,-2.66 0.902,-3.738 0.61,-1.114 1.43,-1.969 2.461,-2.555 1.055,-0.598 2.25,-0.891 3.563,-0.891 z m -92.215,8.309 h 5.719 v 2.859 c -0.469,1.161 -1.207,2.063 -2.239,2.707 -1.031,0.622 -2.261,0.926 -3.668,0.926 -1.418,0 -2.531,-0.304 -3.328,-0.89 -0.797,-0.598 -1.195,-1.407 -1.195,-2.438 0,-2.109 1.57,-3.164 4.711,-3.164 z m 168,0 h 5.719 v 2.859 c -0.469,1.161 -1.219,2.063 -2.239,2.707 -1.031,0.622 -2.261,0.926 -3.679,0.926 -1.418,0 -2.52,-0.304 -3.317,-0.89 -0.797,-0.598 -1.195,-1.407 -1.195,-2.438 0,-2.109 1.57,-3.164 4.711,-3.164 z"
       style="fill:#1a1a1a;fill-opacity:1;fill-rule:nonzero;stroke:none;stroke-width:3.09705091"
       id="path34"
       inkscape:connector-curvature="0" />
    <path
       d="m 1090.289,1408.863 v 272.485 h 86.215 v -229.371 c 0,-23.813 -19.301,-43.114 -43.113,-43.114 z"
       style="fill:#666666;fill-opacity:1;fill-rule:nonzero;stroke:none;stroke-width:3.09705091"
       id="path36"
       inkscape:connector-curvature="0" />
    <path
       d="m 1217.648,1271.238 v 99.317 c 0,-0.082 0.082,-0.094 0.082,-0.129 -0.046,0.644 -0.07,1.301 -0.082,1.969 0.012,16.687 9.668,31.863 24.774,38.964 0.047,0.024 0.094,0.059 0.129,0.082 1.207,0.563 2.437,1.079 3.691,1.524 0.235,0.082 0.469,0.152 0.715,0.234 1.078,0.363 2.168,0.692 3.27,0.973 0.386,0.105 0.785,0.187 1.183,0.281 0.961,0.211 1.934,0.399 2.906,0.551 0.551,0.082 1.114,0.152 1.664,0.211 0.891,0.105 1.782,0.187 2.672,0.246 0.703,0.047 1.407,0.07 2.11,0.082 h -20.485 c -7.957,-0.012 -15.761,-2.145 -22.629,-6.176 v 169.77 c 0,35.004 9.575,61.535 28.747,79.593 19.523,18.059 46.98,27.082 82.347,27.082 13.629,0 26.531,-1.476 38.684,-4.417 12.539,-3.317 23.039,-8.11 31.512,-14.379 l -23.215,-60.797 c -9.586,7.371 -21.188,11.051 -34.817,11.051 -11.801,0 -21.011,-3.305 -27.644,-9.938 -6.258,-7.008 -9.399,-16.77 -9.399,-29.297 v -162.492 h 74.063 v -71.848 h -74.063 v -29.297 c 0,-23.812 -19.301,-43.113 -43.101,-43.113 z"
       style="fill:#666666;fill-opacity:1;fill-rule:nonzero;stroke:none;stroke-width:3.09705091"
       id="path38"
       inkscape:connector-curvature="0" />
    <path
       d="m 1556.684,1379.566 c -29.836,0 -56.918,6.633 -81.246,19.899 -23.942,12.89 -42.926,31.137 -56.918,54.715 -13.641,23.215 -20.461,49.382 -20.461,78.48 0,29.485 7.007,55.828 21.011,79.043 14.004,23.215 33.903,41.449 59.696,54.715 25.781,12.902 55.441,19.348 88.98,19.348 53.789,0 94.688,-16.032 122.695,-48.094 l -45.879,-49.734 c -10.312,9.949 -21.55,17.308 -33.714,22.101 -11.789,4.418 -25.418,6.633 -40.887,6.633 -22.477,0 -41.273,-5.344 -56.379,-16.031 -11.777,-8.321 -20.18,-19.02 -25.242,-32.051 h 220.465 c 1.804,-14.086 2.636,-33.715 2.636,-34.817 0,-30.961 -6.808,-58.031 -20.449,-81.246 -13.265,-23.589 -31.687,-41.636 -55.265,-54.164 -23.59,-12.527 -49.934,-18.797 -79.043,-18.797 z m 0.562,65.215 c 19.16,0 35.367,5.719 48.633,17.133 10.828,9.035 18.223,20.637 22.172,34.828 h -142.219 c 3.938,-14.519 11.344,-26.308 22.219,-35.367 13.265,-11.063 29.66,-16.594 49.195,-16.594 z"
       style="fill:#666666;fill-opacity:1;fill-rule:nonzero;stroke:none;stroke-width:3.09705091"
       id="path40"
       inkscape:connector-curvature="0" />
    <path
       d="m 877.5,1271.238 v 307.852 c 0,35.004 9.586,61.535 28.746,79.594 19.524,18.046 46.981,27.082 82.348,27.082 13.64,0 26.531,-1.477 38.695,-4.418 12.527,-3.317 23.027,-8.11 31.5,-14.379 l -23.215,-60.797 c -9.574,7.371 -21.187,11.051 -34.816,11.051 -11.789,0 -21,-3.305 -27.633,-9.938 -6.27,-7.008 -9.398,-16.769 -9.398,-29.297 v -263.636 c 0,-23.813 -19.301,-43.114 -43.114,-43.114 z"
       style="fill:#666666;fill-opacity:1;fill-rule:nonzero;stroke:none;stroke-width:3.09705091"
       id="path42"
       inkscape:connector-curvature="0" />
    <path
       d="m 877.5,1271.238 v 307.852 c 0,35.004 9.586,61.535 28.746,79.594 19.524,18.046 46.981,27.082 82.348,27.082 13.64,0 26.531,-1.477 38.695,-4.418 12.527,-3.317 23.027,-8.11 31.5,-14.379 l -23.215,-60.797 c -9.574,7.371 -21.187,11.051 -34.816,11.051 -11.789,0 -21,-3.305 -27.633,-9.938 -6.27,-7.008 -9.398,-16.769 -9.398,-29.297 v -263.636 c 0,-23.813 -19.301,-43.114 -43.114,-43.114 z"
       style="fill:#666666;fill-opacity:1;fill-rule:nonzero;stroke:none;stroke-width:3.09705091"
       id="path44"
       inkscape:connector-curvature="0" />
    <path
       d="m 697.184,1379.566 c -29.848,0 -56.93,6.633 -81.246,19.899 -23.954,12.89 -42.926,31.137 -56.93,54.715 -13.629,23.215 -20.449,49.382 -20.449,78.48 0,29.485 7.007,55.828 21,79.043 14.003,23.215 33.902,41.449 59.695,54.715 25.793,12.902 55.453,19.348 88.98,19.348 53.801,0 94.7,-16.032 122.696,-48.094 l -45.868,-49.734 c -10.324,9.949 -21.562,17.308 -33.714,22.101 -11.789,4.418 -25.418,6.633 -40.899,6.633 -22.476,0 -41.273,-5.344 -56.379,-16.031 -11.777,-8.321 -20.179,-19.02 -25.23,-32.051 h 220.453 c 1.805,-14.086 2.648,-33.715 2.648,-34.817 0,-30.961 -6.82,-58.031 -20.449,-81.246 -13.265,-23.589 -31.687,-41.636 -55.277,-54.164 -23.578,-12.527 -49.922,-18.797 -79.031,-18.797 z m 0.55,65.215 c 19.161,0 35.379,5.719 48.645,17.133 10.828,9.035 18.211,20.637 22.16,34.828 H 626.332 c 3.938,-14.519 11.332,-26.308 22.207,-35.367 13.266,-11.063 29.672,-16.594 49.195,-16.594 z"
       style="fill:#666666;fill-opacity:1;fill-rule:nonzero;stroke:none;stroke-width:3.09705091"
       id="path46"
       inkscape:connector-curvature="0" />
    <path
       d="m 1173.082,1253.695 c 1.98,7.09 1.125,14.684 -2.391,21.153 -9.925,18.902 -18.093,38.765 -24.351,59.203 -2.11,7.289 -7.055,13.429 -13.735,17.039 -6.679,3.609 -14.531,4.394 -21.785,2.168 -7.265,-2.215 -13.324,-7.254 -16.84,-13.981 -3.515,-6.738 -4.183,-14.589 -1.851,-21.82 7.289,-23.801 16.793,-46.922 28.371,-68.977 5.297,-10.418 16.441,-16.511 28.078,-15.363 11.625,1.149 21.352,9.328 24.504,20.578 z"
       style="fill:#d401aa;fill-opacity:1;fill-rule:evenodd;stroke:none;stroke-width:3.09705091"
       id="path48"
       inkscape:connector-curvature="0" />
  </g>
</svg>
