<?xml version="1.0" encoding="UTF-8" standalone="no"?>
<!-- Created with Inkscape (http://www.inkscape.org/) -->

<svg
   xmlns:dc="http://purl.org/dc/elements/1.1/"
   xmlns:cc="http://creativecommons.org/ns#"
   xmlns:rdf="http://www.w3.org/1999/02/22-rdf-syntax-ns#"
   xmlns:svg="http://www.w3.org/2000/svg"
   xmlns="http://www.w3.org/2000/svg"
   xmlns:xlink="http://www.w3.org/1999/xlink"
   xmlns:sodipodi="http://sodipodi.sourceforge.net/DTD/sodipodi-0.dtd"
   xmlns:inkscape="http://www.inkscape.org/namespaces/inkscape"
   version="1.1"
   id="svg2"
   width="1920"
   height="1080"
   viewBox="0 0 1920 1080"
   sodipodi:docname="6.svg"
   inkscape:version="0.92.4 5da689c313, 2019-01-14">
  <metadata
     id="metadata8">
    <rdf:RDF>
      <cc:Work
         rdf:about="">
        <dc:format>image/svg+xml</dc:format>
        <dc:type
           rdf:resource="http://purl.org/dc/dcmitype/StillImage" />
        <dc:title></dc:title>
      </cc:Work>
    </rdf:RDF>
  </metadata>
  <defs
     id="defs6">
    <linearGradient
       y2="-1528.2333"
       x2="1147.7189"
       y1="-1750.7012"
       x1="1192.2996"
       gradientTransform="translate(440.26667,-211.58232)"
       gradientUnits="userSpaceOnUse"
       id="linearGradient1273"
       xlink:href="#linearGradient1637"
       inkscape:collect="always" />
    <linearGradient
       id="linearGradient1637"
       inkscape:collect="always">
      <stop
         id="stop1633"
         offset="0"
         style="stop-color:#37c871;stop-opacity:1;" />
      <stop
         style="stop-color:#50d083;stop-opacity:1"
         offset="0.50270098"
         id="stop1641" />
      <stop
         id="stop1635"
         offset="1"
         style="stop-color:#25884d;stop-opacity:1" />
    </linearGradient>
  </defs>
  <sodipodi:namedview
     pagecolor="#ffffff"
     bordercolor="#666666"
     borderopacity="1"
     objecttolerance="10"
     gridtolerance="10"
     guidetolerance="10"
     inkscape:pageopacity="0"
     inkscape:pageshadow="2"
     inkscape:window-width="1366"
     inkscape:window-height="674"
     id="namedview4"
     showgrid="false"
     inkscape:zoom="0.39791667"
     inkscape:cx="819.40621"
     inkscape:cy="700.08039"
     inkscape:window-x="0"
     inkscape:window-y="26"
     inkscape:window-maximized="1"
     inkscape:current-layer="svg2">
    <sodipodi:guide
       position="0,1080"
       orientation="1080,0"
       id="guide819"
       inkscape:locked="false" />
    <sodipodi:guide
       position="0,0"
       orientation="0,1920"
       id="guide821"
       inkscape:locked="false" />
    <sodipodi:guide
       position="1920,0"
       orientation="-1080,0"
       id="guide823"
       inkscape:locked="false" />
    <sodipodi:guide
       position="1920,1080"
       orientation="0,-1920"
       id="guide825"
       inkscape:locked="false" />
    <sodipodi:guide
       position="472.46017,811.26938"
       orientation="543.54916,0"
       id="guide829"
       inkscape:locked="false" />
    <sodipodi:guide
       position="472.46017,267.72021"
       orientation="0,965.86075"
       id="guide831"
       inkscape:locked="false" />
    <sodipodi:guide
       position="1438.3209,267.72021"
       orientation="-543.54916,0"
       id="guide833"
       inkscape:locked="false" />
    <sodipodi:guide
       position="1438.3209,811.26938"
       orientation="0,-965.86075"
       id="guide835"
       inkscape:locked="false" />
  </sodipodi:namedview>
  <rect
     style="opacity:1;fill:#000000;fill-opacity:1;fill-rule:nonzero;stroke:none;stroke-width:37.79527664;stroke-linecap:round;stroke-linejoin:round;stroke-miterlimit:4;stroke-dasharray:none;stroke-dashoffset:0;stroke-opacity:1;paint-order:markers fill stroke"
     id="rect819"
     width="1920"
     height="1080"
     x="0"
     y="0" />
  <g
     transform="matrix(1.7033243,0,0,1.7033243,-1778.4305,3618.2592)"
     id="g1271"
     style="stroke-width:0.79019862">
    <path
       inkscape:connector-curvature="0"
       style="font-style:normal;font-variant:normal;font-weight:bold;font-stretch:normal;font-size:60.061409px;line-height:1.25;font-family:Orkney;-inkscape-font-specification:'Orkney Bold';letter-spacing:0px;word-spacing:0px;fill:#47cd7c;fill-opacity:1;stroke:none;stroke-width:0.79019856"
       d="m -3511.7148,3923.2109 c -16.647,0 -30.4185,4.3131 -41.3145,12.9395 -10.7448,8.626 -16.1172,19.9766 -16.1172,34.0508 0,5.297 0.9816,10.2159 2.9492,14.7558 1.9673,4.3888 4.2379,8.0964 6.8106,11.1231 2.7243,2.8754 6.5088,5.7495 11.3515,8.625 4.8428,2.8751 9.0039,5.1456 12.4844,6.8105 3.481,1.5133 8.1721,3.4058 14.0742,5.6758 5.4482,2.1188 9.3836,3.7062 11.8047,4.7656 2.5731,0.9083 5.9776,2.4976 10.2149,4.7676 4.2376,2.1188 7.264,4.0863 9.08,5.9024 1.9673,1.6645 3.707,3.8597 5.2208,6.5839 1.6645,2.7239 2.498,5.5984 2.498,8.625 -0.1512,6.2049 -2.7245,10.8207 -7.7188,13.8477 -4.8427,3.0266 -11.3493,4.541 -19.5214,4.541 -19.8252,0 -34.7326,-7.7199 -44.7207,-23.1562 l -23.6075,23.3828 c 7.2643,9.5338 16.8724,17.1768 28.8282,22.9277 12.1065,5.7506 24.8965,8.625 38.3652,8.625 18.463,0 33.5962,-4.3134 45.4004,-12.9394 11.8046,-8.6264 17.7051,-21.1859 17.7051,-37.6817 0,-5.2966 -0.6812,-10.1405 -2.043,-14.5293 -1.3621,-4.5403 -3.6323,-8.5503 -6.8105,-12.0312 -3.0267,-3.6322 -5.9761,-6.6589 -8.8516,-9.0801 -2.7239,-2.5727 -6.6593,-5.1445 -11.8047,-7.7168 -4.9939,-2.5731 -8.9296,-4.4648 -11.8047,-5.6758 -2.8755,-1.2102 -7.1135,-2.9503 -12.7129,-5.2207 -5.5993,-2.27 -9.8358,-4.0101 -12.7109,-5.2207 -2.7243,-1.2106 -5.903,-2.8757 -9.5352,-4.9941 -3.4805,-2.1188 -5.9769,-4.314 -7.4902,-6.584 -1.5133,-2.27 -2.2695,-4.7664 -2.2695,-7.4903 0,-5.1458 2.1182,-9.2327 6.3554,-12.2597 4.3888,-3.1778 9.9889,-4.7656 16.7989,-4.7656 15.739,0 28.8294,5.9012 39.2714,17.705 l 22.2461,-21.5644 c -15.4363,-16.4958 -36.2446,-24.7442 -62.4257,-24.7442 z m -686.0352,2.2696 v 170.2539 h 34.2773 v -118.4961 l 86.9434,118.4961 h 34.957 v -170.2539 h -34.0507 V 4043.75 l -87.168,-118.2695 z m 181.1797,0 v 170.2539 h 101.0156 v -29.9649 h -66.7383 v -40.1797 h 57.2051 v -29.9648 h -57.2051 v -40.4062 h 66.7383 l 59.7656,140.5156 h 37 l 26.1075,-62.1992 26.1035,62.1992 h 37.2285 l 71.9609,-170.2539 h -36.7754 l -55.1601,133.0254 -54.9356,-133.0254 h -33.8242 l 28.8301,69.0097 -26.7871,63.7891 -55.1621,-132.7988 h -37 z m 579.2695,0 v 29.7383 h 43.8106 v 140.5156 h 33.8242 v -140.5156 h 43.584 v -29.7383 z m 157.2207,0 -68.3261,170.2539 h 37 l 12.0312,-32.2344 h 76.9551 l 12.0312,32.2344 h 37.002 l -68.3281,-170.2539 z m 111.8379,0 v 170.2539 h 34.2774 v -72.1875 h 16.7988 l 37.2285,72.1875 h 38.3633 l -41.3145,-74.4571 c 10.4421,-2.7239 18.9182,-8.0966 25.4258,-16.1171 6.6588,-8.1721 9.9883,-17.7822 9.9883,-28.8301 0,-14.2254 -4.9193,-26.2572 -14.7559,-36.0938 -9.6854,-9.8369 -21.5664,-14.7558 -35.6406,-14.7558 z m 34.2774,29.7383 h 34.7324 c 5.7505,0 10.5925,2.0432 14.5273,6.1289 4.0861,3.9348 6.1309,8.8537 6.1309,14.7558 0,5.9021 -1.9675,10.8964 -5.9024,14.9824 -3.9345,3.9349 -8.8537,5.9024 -14.7558,5.9024 h -34.7324 z m -126.8184,4.9941 27.9199,75.1387 h -56.0683 z m -93.9863,170.5664 v 14.3301 h -5.4785 v 5.8164 h 5.4785 v 24.5312 c 0,3.7652 1.1807,6.8268 3.541,9.1875 2.3603,2.304 5.4796,3.4571 9.3574,3.4571 3.8211,0 6.7721,-1.0954 8.8516,-3.2871 l -4.1309,-5.0586 c -1.2363,1.2922 -2.7544,1.9394 -4.5527,1.9394 -3.7093,0 -5.5625,-2.0797 -5.5625,-6.2383 v -24.5312 h 11.3789 v -5.8164 h -11.4649 v -14.3301 z m -653.4102,13.4863 c -6.0695,0 -10.9014,2.0516 -14.498,6.1543 -3.597,4.1027 -5.3965,9.3574 -5.3965,15.7637 0,6.4067 1.7995,11.661 5.3965,15.7637 3.5966,4.1023 8.4285,6.1543 14.498,6.1543 4.3276,0 7.9527,-1.1531 10.875,-3.4571 v -7.4179 c -2.6415,3.0349 -6.0129,4.5527 -10.1152,4.5527 -4.1027,0 -7.3627,-1.4605 -9.7793,-4.3828 -2.36,-2.9223 -3.541,-6.6608 -3.541,-11.2129 0,-4.5521 1.181,-8.2886 3.541,-11.2109 2.4166,-2.9224 5.6766,-4.3829 9.7793,-4.3829 3.99,0 7.3614,1.5162 10.1152,4.5508 v -7.5019 c -2.9223,-2.2481 -6.5474,-3.3731 -10.875,-3.3731 z m 57.8067,0 c -6.0696,0 -11.0145,2.1093 -14.836,6.3242 -3.8218,4.1587 -5.7324,9.3557 -5.7324,15.5938 0,6.1822 1.9106,11.3808 5.7324,15.5957 3.8215,4.2145 8.7664,6.3223 14.836,6.3223 6.0132,0 10.9324,-2.1078 14.7539,-6.3223 3.8778,-4.2149 5.8164,-9.4135 5.8164,-15.5957 0,-6.1818 -1.9386,-11.3788 -5.8164,-15.5938 -3.8215,-4.2149 -8.7407,-6.3242 -14.7539,-6.3242 z m 140.3144,0 c -4.9459,0 -9.1048,2.4171 -12.4766,7.25 l -0.3359,-6.4062 h -6.8281 v 42.1484 h 7.418 v -23.6035 c 0,-3.6529 1.1783,-6.6869 3.539,-9.1035 2.4163,-2.473 5.1985,-3.709 8.3457,-3.709 2.304,0 4.2726,0.4505 5.9024,1.3496 l 3.623,-5.3965 c -2.2477,-1.686 -5.3097,-2.5293 -9.1875,-2.5293 z m 48.3652,0 c -4.2149,0 -7.868,1.1527 -10.9589,3.4571 -3.0346,2.2476 -4.5508,5.1982 -4.5508,8.8515 0,1.2363 0.1664,2.3874 0.5039,3.4551 0.3364,1.0118 0.9006,1.94 1.6875,2.7832 0.7865,0.7865 1.5167,1.461 2.1914,2.0234 0.6743,0.5057 1.6862,1.0396 3.0351,1.6016 1.3486,0.5065 2.3586,0.8716 3.0332,1.0957 0.6743,0.2268 1.772,0.59 3.2891,1.0957 1.5175,0.4501 2.5848,0.7876 3.2031,1.0117 0.6184,0.1701 1.4889,0.506 2.6133,1.0117 1.18,0.4498 1.994,0.8983 2.4434,1.3477 0.5057,0.3934 0.9561,0.9269 1.3496,1.6016 0.4497,0.6742 0.6738,1.4345 0.6738,2.2773 0,1.9109 -0.899,3.4268 -2.6973,4.5508 -1.7419,1.1252 -3.933,1.631 -6.5742,1.5176 -2.5289,-0.057 -5.0867,-0.5902 -7.6718,-1.6016 -2.5293,-1.0681 -4.2992,-2.3318 -5.3106,-3.793 l -3.8769,5.0586 c 1.5734,1.8546 3.9885,3.4005 7.248,4.6367 3.2595,1.2363 6.6028,1.8536 10.0313,1.8536 4.6646,0 8.5438,-1.2084 11.6347,-3.625 3.1472,-2.4167 4.7207,-5.4787 4.7207,-9.1875 0,-1.6301 -0.3098,-3.0922 -0.9277,-4.3848 -0.6183,-1.2922 -1.3205,-2.3046 -2.1074,-3.0352 -0.7306,-0.7869 -1.8556,-1.5171 -3.3731,-2.1914 -1.4611,-0.7305 -2.6679,-1.2363 -3.623,-1.5175 -0.8992,-0.3364 -2.2486,-0.758 -4.0469,-1.2637 -1.6861,-0.5061 -2.9798,-0.8989 -3.8789,-1.1797 -0.8432,-0.3364 -1.8252,-0.7876 -2.9492,-1.3496 -1.0677,-0.562 -1.8553,-1.2366 -2.3614,-2.0234 -0.4493,-0.7869 -0.6738,-1.6855 -0.6738,-2.6973 0,-1.8546 0.9266,-3.2594 2.7813,-4.2149 1.9109,-0.9554 4.0459,-1.3486 6.4062,-1.1796 3.7092,0.2796 6.7728,1.5449 9.1895,3.7929 l 4.1308,-5.0586 c -1.7423,-1.4048 -3.9627,-2.5282 -6.6601,-3.3711 -2.6415,-0.8995 -5.2823,-1.3496 -7.9239,-1.3496 z m 62.8653,0 c -6.0696,0 -10.9288,2.0797 -14.5821,6.2383 -3.6525,4.1027 -5.4804,9.3574 -5.4804,15.7637 0,6.407 1.7979,11.6629 5.3945,15.7656 3.6529,4.046 8.5425,6.0684 14.668,6.0684 7.7552,0 13.4603,-3.2885 17.1133,-9.8633 l -5.2266,-3.625 c -1.6857,2.5852 -3.4006,4.4127 -5.1426,5.4805 -1.742,1.0114 -3.905,1.5175 -6.4902,1.5175 -3.8219,0 -6.8555,-1.153 -9.1035,-3.457 -2.2477,-2.3607 -3.5695,-5.5353 -3.9629,-9.5254 h 31.8652 c 0.057,-0.562 0.084,-1.3772 0.084,-2.4453 v 0 c 0,-6.5189 -1.7141,-11.8013 -5.1425,-15.8477 -3.4281,-4.0463 -8.0932,-6.0703 -13.9942,-6.0703 z m 62.9492,0 c -4.2146,0 -7.8681,1.1527 -10.959,3.4571 -3.035,2.2476 -4.5527,5.1982 -4.5527,8.8515 0,1.2363 0.1702,2.3874 0.5058,3.4551 0.3364,1.0118 0.8991,1.94 1.6856,2.7832 0.7869,0.7865 1.5171,1.461 2.1914,2.0234 0.6746,0.5057 1.6866,1.0396 3.0351,1.6016 1.349,0.5065 2.3609,0.8716 3.0352,1.0957 0.6746,0.2268 1.7696,0.59 3.2871,1.0957 1.5175,0.4501 2.5852,0.7876 3.2031,1.0117 0.6184,0.1701 1.4897,0.506 2.6133,1.0117 1.1804,0.4498 1.9956,0.8983 2.4453,1.3477 0.5057,0.3934 0.9566,0.9269 1.3496,1.6016 0.4494,0.6742 0.6739,1.4345 0.6739,2.2773 0,1.9109 -0.899,3.4268 -2.6973,4.5508 -1.7424,1.1252 -3.9347,1.631 -6.5762,1.5176 -2.5289,-0.057 -5.0851,-0.5902 -7.6699,-1.6016 -2.5293,-1.0681 -4.2988,-2.3318 -5.3105,-3.793 l -3.8789,5.0586 c 1.5734,1.8546 3.9905,3.4005 7.25,4.6367 3.2594,1.2363 6.6032,1.8536 10.0312,1.8536 4.6647,0 8.5419,-1.2084 11.6328,-3.625 3.1469,-2.4167 4.7207,-5.4787 4.7207,-9.1875 0,-1.6301 -0.3059,-3.0922 -0.9258,-4.3848 -0.6179,-1.2922 -1.3209,-2.3046 -2.1074,-3.0352 -0.7309,-0.7869 -1.8556,-1.5171 -3.373,-2.1914 -1.4612,-0.7305 -2.6696,-1.2363 -3.625,-1.5175 -0.8992,-0.3364 -2.2486,-0.758 -4.0469,-1.2637 -1.6861,-0.5061 -2.9782,-0.8989 -3.877,-1.1797 -0.8432,-0.3364 -1.8267,-0.7876 -2.9511,-1.3496 -1.0677,-0.562 -1.8537,-1.2366 -2.3594,-2.0234 -0.4498,-0.7869 -0.6738,-1.6855 -0.6738,-2.6973 0,-1.8546 0.9266,-3.2594 2.7812,-4.2149 1.9106,-0.9554 4.0456,-1.3486 6.4063,-1.1796 3.7092,0.2796 6.7732,1.5449 9.1894,3.7929 l 4.1309,-5.0586 c -1.742,-1.4048 -3.9624,-2.5282 -6.6602,-3.3711 -2.6411,-0.8995 -5.2823,-1.3496 -7.9238,-1.3496 z m 104.8223,0 c -6.0692,0 -10.9015,2.0516 -14.4981,6.1543 -3.597,4.1027 -5.3945,9.3574 -5.3945,15.7637 0,6.4067 1.7975,11.661 5.3945,15.7637 3.5966,4.1023 8.4289,6.1543 14.4981,6.1543 4.3279,0 7.9526,-1.1531 10.875,-3.4571 v -7.4179 c -2.6416,3.0349 -6.013,4.5527 -10.1153,4.5527 -4.1027,0 -7.3626,-1.4605 -9.7793,-4.3828 -2.3599,-2.9223 -3.539,-6.6608 -3.539,-11.2129 0,-4.5521 1.1791,-8.2886 3.539,-11.2109 2.4167,-2.9224 5.6766,-4.3829 9.7793,-4.3829 3.9901,0 7.3615,1.5162 10.1153,4.5508 v -7.5019 c -2.9224,-2.2481 -6.5471,-3.3731 -10.875,-3.3731 z m 57.3027,0 c -6.0695,0 -10.9311,2.0797 -14.584,6.2383 -3.6529,4.1027 -5.4785,9.3574 -5.4785,15.7637 0,6.407 1.7975,11.6629 5.3945,15.7656 3.6529,4.046 8.5421,6.0684 14.668,6.0684 7.7552,0 13.46,-3.2885 17.1133,-9.8633 l -5.2266,-3.625 c -1.6857,2.5852 -3.4006,4.4127 -5.1426,5.4805 -1.7423,1.0114 -3.9054,1.5175 -6.4902,1.5175 -3.8215,0 -6.8574,-1.153 -9.1055,-3.457 -2.2477,-2.3607 -3.5675,-5.5353 -3.9609,-9.5254 h 31.8633 c 0.057,-0.562 0.084,-1.3772 0.084,-2.4453 v 0 c 0,-6.5189 -1.7145,-11.8013 -5.1426,-15.8477 -3.428,-4.0463 -8.0931,-6.0703 -13.9941,-6.0703 z m 69.8594,0 c -5.5639,0 -10.1156,2.137 -13.6563,6.4082 l -0.3359,-5.5644 h -6.8281 v 42.1484 h 7.4179 v -25.457 c 0,-3.0346 1.0954,-5.6204 3.2871,-7.7559 2.2477,-2.1354 4.9462,-3.2031 8.0938,-3.2031 3.1468,0 5.7603,1.012 7.8398,3.0352 2.0795,2.0228 3.1192,4.5513 3.1192,7.5859 v 25.7949 h 7.5019 v -26.6367 c 0,-4.721 -1.5735,-8.6279 -4.7207,-11.7188 -3.0909,-3.0909 -6.9961,-4.6367 -11.7168,-4.6367 z m 114.7734,0 c -6.0695,0 -10.9311,2.0797 -14.584,6.2383 -3.6529,4.1027 -5.4785,9.3574 -5.4785,15.7637 0,6.407 1.7979,11.6629 5.3945,15.7656 3.653,4.046 8.5421,6.0684 14.668,6.0684 7.7556,0 13.4604,-3.2885 17.1133,-9.8633 l -5.2266,-3.625 c -1.686,2.5852 -3.3998,4.4127 -5.1426,5.4805 -1.7419,1.0114 -3.9069,1.5175 -6.4921,1.5175 -3.8211,0 -6.8555,-1.153 -9.1036,-3.457 -2.248,-2.3607 -3.5674,-5.5353 -3.9609,-9.5254 h 31.8633 c 0.057,-0.562 0.084,-1.3772 0.084,-2.4453 0,-6.5189 -1.7126,-11.8013 -5.1407,-15.8477 -3.4284,-4.0463 -8.0935,-6.0703 -13.9941,-6.0703 z m 68.6797,0 c -4.9459,0 -9.1049,2.4171 -12.4766,7.25 l -0.3359,-6.4062 h -6.8281 v 42.1484 h 7.4179 v -23.6035 c 0,-3.6529 1.1807,-6.6869 3.5411,-9.1035 2.4166,-2.473 5.1984,-3.709 8.3457,-3.709 2.304,0 4.2706,0.4505 5.9003,1.3496 l 3.625,-5.3965 c -2.248,-1.686 -5.312,-2.5293 -9.1894,-2.5293 z m -679.3731,0.8438 v 26.2168 c 0,4.6643 1.6012,8.6272 4.8047,11.8867 3.2036,3.2595 7.1365,4.8887 11.8008,4.8887 5.5075,0 9.9759,-2.1631 13.4043,-6.4903 l 0.4219,5.6465 h 6.8281 v -42.1484 h -7.5019 v 25.459 c 0,3.0345 -1.0977,5.6181 -3.2891,7.7539 -2.1921,2.0791 -4.8606,3.1191 -8.0078,3.1191 -3.0909,0 -5.704,-1.04 -7.8399,-3.1191 -2.1354,-2.1358 -3.2031,-4.7194 -3.2031,-7.7539 v -25.459 z m 201.1543,5.5644 c 3.5407,0 6.3502,1.0954 8.4297,3.2871 2.1355,2.1355 3.4011,5.0861 3.795,8.8516 h -25.0372 c 0.5617,-3.7092 1.9392,-6.6598 4.1309,-8.8516 2.1918,-2.1917 5.085,-3.2871 8.6816,-3.2871 z m 225.0743,0 c 3.5406,0 6.3502,1.0954 8.4297,3.2871 2.1354,2.1355 3.3995,5.0861 3.7929,8.8516 h -25.0351 c 0.5616,-3.7092 1.9371,-6.6598 4.1289,-8.8516 2.1917,-2.1917 5.087,-3.2871 8.6836,-3.2871 z m 184.6328,0 c 3.5406,0 6.3505,1.0954 8.4297,3.2871 2.1358,2.1355 3.3999,5.0861 3.7929,8.8516 h -25.0371 c 0.562,-3.7092 1.9391,-6.6598 4.1309,-8.8516 2.1917,-2.1917 5.087,-3.2871 8.6836,-3.2871 z m -661.4199,0.166 c 3.9341,0 7.111,1.4609 9.5273,4.3829 2.4729,2.9227 3.709,6.5754 3.709,10.9589 0,4.3272 -1.2084,7.9527 -3.625,10.875 -2.4163,2.9224 -5.6209,4.3829 -9.6113,4.3829 -4.0464,0 -7.2768,-1.4329 -9.6934,-4.2989 -2.3599,-2.9223 -3.541,-6.5755 -3.541,-10.959 0,-4.3835 1.1811,-8.0362 3.541,-10.9589 2.4166,-2.922 5.647,-4.3829 9.6934,-4.3829 z m -247.377,13.7657 a 2.83495,2.83495 0 1 0 0,5.6699 h 153.2793 a 2.8349292,2.8349292 0 1 0 0,-5.668 z m 1002.8926,0 a 2.83495,2.83495 0 1 0 0,5.6699 h 153.2832 a 2.83495,2.83495 0 1 0 0,-5.6699 z"
       id="path1267"
       transform="matrix(0.26458333,0,0,0.26458333,2565.3999,-2755.2334)" />
    <path
       style="color:#000000;font-style:normal;font-variant:normal;font-weight:normal;font-stretch:normal;font-size:medium;line-height:normal;font-family:sans-serif;font-variant-ligatures:normal;font-variant-position:normal;font-variant-caps:normal;font-variant-numeric:normal;font-variant-alternates:normal;font-feature-settings:normal;text-indent:0;text-align:start;text-decoration:none;text-decoration-line:none;text-decoration-style:solid;text-decoration-color:#000000;letter-spacing:normal;word-spacing:normal;text-transform:none;writing-mode:lr-tb;direction:ltr;text-orientation:mixed;dominant-baseline:auto;baseline-shift:baseline;text-anchor:start;white-space:normal;shape-padding:0;clip-rule:nonzero;display:inline;overflow:visible;visibility:visible;opacity:1;isolation:auto;mix-blend-mode:normal;color-interpolation:sRGB;color-interpolation-filters:linearRGB;solid-color:#000000;solid-opacity:1;vector-effect:none;fill:url(#linearGradient1273);fill-opacity:1;fill-rule:nonzero;stroke:none;stroke-width:7.90198612;stroke-linecap:round;stroke-linejoin:round;stroke-miterlimit:4;stroke-dasharray:none;stroke-dashoffset:0;stroke-opacity:1;color-rendering:auto;image-rendering:auto;shape-rendering:auto;text-rendering:auto;enable-background:accumulate"
       d="m 1632.3945,-1967.2791 a 5.0005,5.0005 0 0 0 -4.1582,2.4961 l -82.832,143.4707 a 5.0005,5.0005 0 0 0 6.3984,7.0508 l 54.5723,-24.8027 39.7656,44.8554 a 5.0005,5.0005 0 0 0 8.7149,-3.8398 l -17.3164,-164.7578 a 5.0005,5.0005 0 0 0 -5.1446,-4.4727 z m -3.1914,20.8223 14.0762,133.9453 -31.8711,-35.9492 a 5.0005,5.0005 0 0 0 -5.8086,-1.2363 l -43.7383,19.8789 z m -90.0859,20.8183 a 5.0005,5.0005 0 0 0 -3.7754,8.3731 l 18.8906,20.6582 -23.664,40.9863 a 5.0005,5.0005 0 1 0 8.6601,5 l 25.4961,-44.1582 a 5.0005,5.0005 0 0 0 -0.6406,-5.873 l -10.6992,-11.6992 24.1777,5.3339 -67.5371,116.9805 a 5.0005,5.0005 0 1 0 8.6601,5 l 70.9512,-122.8926 a 5.0005,5.0005 0 0 0 -3.2519,-7.3828 l -46.2754,-10.209 a 5.0005,5.0005 0 0 0 -0.9922,-0.1172 z m 115.5351,24.9473 a 5.0005,5.0005 0 0 0 -4.9804,5.5234 l 2.9902,28.4376 4.5899,43.6621 a 5.0005,5.0005 0 0 0 9.9453,-1.045 l -4.5899,-43.664 a 5.0005,5.0005 0 0 0 0,-0.02 l -2.2754,-21.6289 24.2617,4.9629 -14.5352,6.3379 a 5.0005,5.0005 0 0 0 -2.9746,5.1055 l 3.2227,30.6543 a 5.0005,5.0005 0 1 0 9.9453,-1.0449 l -2.8398,-27.0118 25.664,-11.1914 a 5.0005,5.0005 0 0 0 -0.9961,-9.4804 l -46.4316,-9.4961 a 5.0005,5.0005 0 0 0 -0.9942,-0.1016 z m -125.6582,52.875 a 5.0005,5.0005 0 0 0 -4.4082,2.5606 l -8.8652,15.3515 a 5.0005,5.0005 0 1 0 8.6602,5 l 8.8652,-15.3515 a 5.0005,5.0005 0 0 0 -4.252,-7.5606 z m 71.6465,30.6016 a 5.0005,5.0005 0 0 0 -4.8789,4.0293 l -10.041,47.2402 a 5.0007375,5.0007375 0 1 0 9.7832,2.0781 l 10.041,-47.2382 a 5.0005,5.0005 0 0 0 -4.9043,-6.1094 z m 63.0039,3.0801 a 5.0005,5.0005 0 0 0 -4.8672,5.5937 l 4.2032,39.9707 a 5.0005,5.0005 0 1 0 9.9453,-1.0449 l -4.2031,-39.9727 a 5.0005,5.0005 0 0 0 -5.0782,-4.5468 z m -81.6093,12.3027 a 5.0005,5.0005 0 0 0 -4.877,4.0293 l -4.6797,22.0215 a 5.0005,5.0005 0 1 0 9.7813,2.08 l 4.6797,-22.0214 a 5.0005,5.0005 0 0 0 -4.9043,-6.1094 z m 24.3515,29.7305 a 5.0005,5.0005 0 0 0 -4.8789,4.0312 l -3.0332,14.2715 a 5.0007375,5.0007375 0 1 0 9.7832,2.0781 l 3.0332,-14.2715 a 5.0005,5.0005 0 0 0 -4.9043,-6.1093 z m -31.8613,5.5996 a 5.0005,5.0005 0 0 0 -4.877,4.0312 l -0.4511,2.127 a 5.0005,5.0005 0 1 0 9.7812,2.0781 l 0.4512,-2.127 a 5.0005,5.0005 0 0 0 -4.9043,-6.1093 z"
       id="path1269"
       inkscape:connector-curvature="0" />
  </g>
</svg>
