<?xml version="1.0" encoding="UTF-8" standalone="no"?>
<!-- Generator: Adobe Illustrator 19.0.0, SVG Export Plug-In . SVG Version: 6.00 Build 0)  -->

<svg
   xmlns:dc="http://purl.org/dc/elements/1.1/"
   xmlns:cc="http://creativecommons.org/ns#"
   xmlns:rdf="http://www.w3.org/1999/02/22-rdf-syntax-ns#"
   xmlns:svg="http://www.w3.org/2000/svg"
   xmlns="http://www.w3.org/2000/svg"
   xmlns:sodipodi="http://sodipodi.sourceforge.net/DTD/sodipodi-0.dtd"
   xmlns:inkscape="http://www.inkscape.org/namespaces/inkscape"
   version="1.1"
   id="Layer_1"
   x="0px"
   y="0px"
   viewBox="0 0 250 250"
   xml:space="preserve"
   sodipodi:docname="behance.svg"
   inkscape:version="0.92.4 5da689c313, 2019-01-14"
   width="250"
   height="250"><metadata
   id="metadata45"><rdf:RDF><cc:Work
       rdf:about=""><dc:format>image/svg+xml</dc:format><dc:type
         rdf:resource="http://purl.org/dc/dcmitype/StillImage" /></cc:Work></rdf:RDF></metadata><defs
   id="defs43" /><sodipodi:namedview
   pagecolor="#ffffff"
   bordercolor="#666666"
   borderopacity="1"
   objecttolerance="10"
   gridtolerance="10"
   guidetolerance="10"
   inkscape:pageopacity="0"
   inkscape:pageshadow="2"
   inkscape:window-width="1366"
   inkscape:window-height="674"
   id="namedview41"
   showgrid="false"
   inkscape:zoom="0.51478592"
   inkscape:cx="-365.69316"
   inkscape:cy="-73.849398"
   inkscape:window-x="0"
   inkscape:window-y="26"
   inkscape:window-maximized="1"
   inkscape:current-layer="Layer_1" />

<g
   id="g10"
   transform="translate(1293.7417,-56.923698)">
</g>
<g
   id="g12"
   transform="translate(1293.7417,-56.923698)">
</g>
<g
   id="g14"
   transform="translate(1293.7417,-56.923698)">
</g>
<g
   id="g16"
   transform="translate(1293.7417,-56.923698)">
</g>
<g
   id="g18"
   transform="translate(1293.7417,-56.923698)">
</g>
<g
   id="g20"
   transform="translate(1293.7417,-56.923698)">
</g>
<g
   id="g22"
   transform="translate(1293.7417,-56.923698)">
</g>
<g
   id="g24"
   transform="translate(1293.7417,-56.923698)">
</g>
<g
   id="g26"
   transform="translate(1293.7417,-56.923698)">
</g>
<g
   id="g28"
   transform="translate(1293.7417,-56.923698)">
</g>
<g
   id="g30"
   transform="translate(1293.7417,-56.923698)">
</g>
<g
   id="g32"
   transform="translate(1293.7417,-56.923698)">
</g>
<g
   id="g34"
   transform="translate(1293.7417,-56.923698)">
</g>
<g
   id="g36"
   transform="translate(1293.7417,-56.923698)">
</g>
<g
   id="g38"
   transform="translate(1293.7417,-56.923698)">
</g>
<g
   id="g8"
   style="fill:#ffffff;fill-opacity:1;stroke-width:2.0223403"
   transform="matrix(0.4944766,0,0,0.4944766,11.65533,11.65533)">
	<path
   style="fill:#ffffff;fill-opacity:1;stroke-width:2.0223403"
   d="m 194.019,206.642 c 7.935,-12.351 12.466,-27.086 12.204,-42.884 -0.702,-42.275 -35.884,-75.87 -78.166,-75.87 H 10.012 C 4.483,87.888 0,92.371 0,97.9 v 259.595 c 0,5.529 4.483,10.012 10.012,10.012 h 131.861 c 48.941,0 89.482,-39.226 89.682,-88.167 0.123,-29.994 -14.751,-56.586 -37.536,-72.698 z M 51.787,139.675 h 77.278 c 13.995,0 25.382,11.386 25.382,25.382 0,13.995 -11.386,25.382 -25.382,25.382 H 51.787 Z M 143.023,315.72 H 51.787 v -73.494 h 77.278 13.957 c 20.262,0 36.747,16.485 36.747,36.747 0,20.262 -16.484,36.747 -36.746,36.747 z"
   id="path2"
   inkscape:connector-curvature="0" />
	<path
   style="fill:#ffffff;fill-opacity:1;stroke-width:2.0223403"
   d="m 458.443,260.931 c 0,-60.447 -47.642,-109.623 -106.203,-109.623 -58.561,0 -106.203,49.177 -106.203,109.623 0,60.446 47.643,109.624 106.203,109.624 35.534,0 68.552,-18.216 88.324,-48.729 2.465,-3.804 4.704,-7.779 6.691,-11.876 1.442,-2.974 -0.746,-6.435 -4.052,-6.443 l -52.206,-0.13 c -1.155,-0.003 -2.25,0.469 -3.078,1.274 -9.858,9.585 -21.944,14.116 -35.679,14.116 -25.945,0 -47.694,-19.405 -53.108,-45.274 H 448.05 c 5.74,0 10.393,-4.653 10.393,-10.393 z M 352.24,203.095 c 19.002,0 35.75,10.413 45.486,26.145 h -90.971 c 9.735,-15.732 26.484,-26.145 45.485,-26.145 z"
   id="path4"
   inkscape:connector-curvature="0" />
	<path
   style="fill:#ffffff;fill-opacity:1;stroke-width:2.0223403"
   d="m 396.37,138.44 h -94.197 c -4.395,0 -7.958,-3.563 -7.958,-7.958 v -23.631 c 0,-4.395 3.563,-7.958 7.958,-7.958 h 94.197 c 4.395,0 7.958,3.563 7.958,7.958 v 23.631 c 0,4.396 -3.563,7.958 -7.958,7.958 z"
   id="path6"
   inkscape:connector-curvature="0" />
</g></svg>