<?xml version="1.0" encoding="UTF-8" standalone="no"?>
<!-- Generator: Adobe Illustrator 19.0.0, SVG Export Plug-In . SVG Version: 6.00 Build 0)  -->

<svg
   xmlns:dc="http://purl.org/dc/elements/1.1/"
   xmlns:cc="http://creativecommons.org/ns#"
   xmlns:rdf="http://www.w3.org/1999/02/22-rdf-syntax-ns#"
   xmlns:svg="http://www.w3.org/2000/svg"
   xmlns="http://www.w3.org/2000/svg"
   xmlns:sodipodi="http://sodipodi.sourceforge.net/DTD/sodipodi-0.dtd"
   xmlns:inkscape="http://www.inkscape.org/namespaces/inkscape"
   version="1.1"
   id="Layer_1"
   x="0px"
   y="0px"
   viewBox="0 0 250 250"
   xml:space="preserve"
   sodipodi:docname="instagram.svg"
   inkscape:version="0.92.4 5da689c313, 2019-01-14"
   width="250"
   height="250"><metadata
   id="metadata45"><rdf:RDF><cc:Work
       rdf:about=""><dc:format>image/svg+xml</dc:format><dc:type
         rdf:resource="http://purl.org/dc/dcmitype/StillImage" /><dc:title></dc:title></cc:Work></rdf:RDF></metadata><defs
   id="defs43">














</defs><sodipodi:namedview
   pagecolor="#ffffff"
   bordercolor="#666666"
   borderopacity="1"
   objecttolerance="10"
   gridtolerance="10"
   guidetolerance="10"
   inkscape:pageopacity="0"
   inkscape:pageshadow="2"
   inkscape:window-width="1366"
   inkscape:window-height="674"
   id="namedview41"
   showgrid="false"
   inkscape:zoom="1.4560345"
   inkscape:cx="34.612972"
   inkscape:cy="94.794551"
   inkscape:window-x="0"
   inkscape:window-y="26"
   inkscape:window-maximized="1"
   inkscape:current-layer="Layer_1" />

<g
   id="g10"
   transform="translate(1293.7417,-56.923698)">
</g>
<g
   id="g12"
   transform="translate(1293.7417,-56.923698)">
</g>
<g
   id="g14"
   transform="translate(1293.7417,-56.923698)">
</g>
<g
   id="g16"
   transform="translate(1293.7417,-56.923698)">
</g>
<g
   id="g18"
   transform="translate(1293.7417,-56.923698)">
</g>
<g
   id="g20"
   transform="translate(1293.7417,-56.923698)">
</g>
<g
   id="g22"
   transform="translate(1293.7417,-56.923698)">
</g>
<g
   id="g24"
   transform="translate(1293.7417,-56.923698)">
</g>
<g
   id="g26"
   transform="translate(1293.7417,-56.923698)">
</g>
<g
   id="g28"
   transform="translate(1293.7417,-56.923698)">
</g>
<g
   id="g30"
   transform="translate(1293.7417,-56.923698)">
</g>
<g
   id="g32"
   transform="translate(1293.7417,-56.923698)">
</g>
<g
   id="g34"
   transform="translate(1293.7417,-56.923698)">
</g>
<g
   id="g36"
   transform="translate(1293.7417,-56.923698)">
</g>
<g
   id="g38"
   transform="translate(1293.7417,-56.923698)">
</g>
<g
   id="g1110"
   transform="matrix(0.34429592,0,0,0.34429592,30.14062,30.14054)"
   style="stroke-width:2.90447807;fill:#ffffff"><g
     id="g1037"
     style="stroke-width:2.90447807;fill:#ffffff">
	
		<linearGradient
   gradientTransform="matrix(1,0,0,-1,0,554)"
   y2="549.71997"
   x2="275.517"
   y1="4.5700002"
   x1="275.517"
   gradientUnits="userSpaceOnUse"
   id="SVGID_1_">
		<stop
   id="stop1004"
   style="stop-color:#E09B3D"
   offset="0" />
		<stop
   id="stop1006"
   style="stop-color:#C74C4D"
   offset="0.3" />
		<stop
   id="stop1008"
   style="stop-color:#C21975"
   offset="0.6" />
		<stop
   id="stop1010"
   style="stop-color:#7024C4"
   offset="1" />
	</linearGradient>
	<path
   id="path1013"
   d="M 386.878,0 H 164.156 C 73.64,0 0,73.64 0,164.156 v 222.722 c 0,90.516 73.64,164.156 164.156,164.156 h 222.722 c 90.516,0 164.156,-73.64 164.156,-164.156 V 164.156 C 551.033,73.64 477.393,0 386.878,0 Z M 495.6,386.878 C 495.6,446.923 446.923,495.6 386.878,495.6 H 164.156 C 104.111,495.6 55.434,446.923 55.434,386.878 V 164.156 c 0,-60.046 48.677,-108.722 108.722,-108.722 h 222.722 c 60.045,0 108.722,48.676 108.722,108.722 z"
   style="fill:#ffffff;stroke-width:2.90447807"
   inkscape:connector-curvature="0" />
	
		<linearGradient
   gradientTransform="matrix(1,0,0,-1,0,554)"
   y2="549.71997"
   x2="275.517"
   y1="4.5700002"
   x1="275.517"
   gradientUnits="userSpaceOnUse"
   id="SVGID_2_">
		<stop
   id="stop1015"
   style="stop-color:#E09B3D"
   offset="0" />
		<stop
   id="stop1017"
   style="stop-color:#C74C4D"
   offset="0.3" />
		<stop
   id="stop1019"
   style="stop-color:#C21975"
   offset="0.6" />
		<stop
   id="stop1021"
   style="stop-color:#7024C4"
   offset="1" />
	</linearGradient>
	<path
   id="path1024"
   d="M 275.517,133 C 196.933,133 133,196.933 133,275.516 c 0,78.583 63.933,142.517 142.517,142.517 78.584,0 142.517,-63.933 142.517,-142.517 C 418.034,196.932 354.101,133 275.517,133 Z m 0,229.6 c -48.095,0 -87.083,-38.988 -87.083,-87.083 0,-48.095 38.989,-87.083 87.083,-87.083 48.095,0 87.083,38.988 87.083,87.083 0,48.094 -38.989,87.083 -87.083,87.083 z"
   style="fill:#ffffff;stroke-width:2.90447807"
   inkscape:connector-curvature="0" />
	
		<linearGradient
   gradientTransform="matrix(1,0,0,-1,0,554)"
   y2="549.71997"
   x2="418.31"
   y1="4.5700002"
   x1="418.31"
   gradientUnits="userSpaceOnUse"
   id="SVGID_3_">
		<stop
   id="stop1026"
   style="stop-color:#E09B3D"
   offset="0" />
		<stop
   id="stop1028"
   style="stop-color:#C74C4D"
   offset="0.3" />
		<stop
   id="stop1030"
   style="stop-color:#C21975"
   offset="0.6" />
		<stop
   id="stop1032"
   style="stop-color:#7024C4"
   offset="1" />
	</linearGradient>
	<circle
   id="circle1035"
   r="34.150002"
   cy="134.07001"
   cx="418.31"
   style="fill:#ffffff;stroke-width:2.90447807" />
</g><g
     id="g1039"
     style="stroke-width:2.90447807;fill:#ffffff">
</g><g
     id="g1041"
     style="stroke-width:2.90447807;fill:#ffffff">
</g><g
     id="g1043"
     style="stroke-width:2.90447807;fill:#ffffff">
</g><g
     id="g1045"
     style="stroke-width:2.90447807;fill:#ffffff">
</g><g
     id="g1047"
     style="stroke-width:2.90447807;fill:#ffffff">
</g><g
     id="g1049"
     style="stroke-width:2.90447807;fill:#ffffff">
</g><g
     id="g1051"
     style="stroke-width:2.90447807;fill:#ffffff">
</g><g
     id="g1053"
     style="stroke-width:2.90447807;fill:#ffffff">
</g><g
     id="g1055"
     style="stroke-width:2.90447807;fill:#ffffff">
</g><g
     id="g1057"
     style="stroke-width:2.90447807;fill:#ffffff">
</g><g
     id="g1059"
     style="stroke-width:2.90447807;fill:#ffffff">
</g><g
     id="g1061"
     style="stroke-width:2.90447807;fill:#ffffff">
</g><g
     id="g1063"
     style="stroke-width:2.90447807;fill:#ffffff">
</g><g
     id="g1065"
     style="stroke-width:2.90447807;fill:#ffffff">
</g><g
     id="g1067"
     style="stroke-width:2.90447807;fill:#ffffff">
</g></g></svg>